<?xml version="1.0" encoding="utf-8"?>
<!-- Generator: Adobe Illustrator 21.0.2, SVG Export Plug-In . SVG Version: 6.00 Build 0)  -->
<svg version="1.1" id="Слой_1" xmlns="http://www.w3.org/2000/svg" xmlns:xlink="http://www.w3.org/1999/xlink" x="0px" y="0px"
	 viewBox="0 0 144 151" style="enable-background:new 0 0 144 151;" xml:space="preserve">
<style type="text/css">
	.st0{fill:url(#SVGID_1_);}
	.st1{fill:url(#SVGID_2_);}
	.st2{fill:url(#SVGID_3_);}
	.st3{fill:url(#SVGID_4_);}
	.st4{fill:url(#SVGID_5_);}
	.st5{fill:url(#SVGID_6_);}
	.st6{fill:url(#SVGID_7_);}
	.st7{fill:url(#SVGID_8_);}
	.st8{fill:url(#SVGID_9_);}
	.st9{fill:url(#SVGID_10_);}
	.st10{fill:url(#SVGID_11_);}
	.st11{fill:url(#SVGID_12_);}
	.st12{fill:url(#SVGID_13_);}
	.st13{fill:url(#SVGID_14_);}
	.st14{fill:url(#SVGID_15_);}
	.st15{fill:url(#SVGID_16_);}
	.st16{fill:url(#SVGID_17_);}
	.st17{fill:url(#SVGID_18_);}
	.st18{fill:url(#SVGID_19_);}
	.st19{fill:url(#SVGID_20_);}
	.st20{fill:url(#SVGID_21_);}
	.st21{fill:url(#SVGID_22_);}
	.st22{fill:url(#SVGID_23_);}
</style>
<g>
	<g>
		<linearGradient id="SVGID_1_" gradientUnits="userSpaceOnUse" x1="22.5824" y1="56.5222" x2="94.1494" y2="56.5222">
			<stop  offset="0" style="stop-color:#41AFB7"/>
			<stop  offset="1" style="stop-color:#57CA8D"/>
		</linearGradient>
		<path class="st0" d="M92.5,64.7c0,3-0.6,5.5-1.4,7.9c-0.8,2.3-2.4,4.2-5,6c-3,2.1-6.4,1.9-9.8,1.9c-2.9,0-5.7,0.1-8.6,0.1
			S62,81,59.1,81s-5.7,0-8.6,0c-2.8,0-5.7-0.5-8.5-0.5c-3.1,0-5.9-0.8-8.2-2.6c-2.3-1.7-4.3-4.1-5.1-7.1c-0.8-2.8-0.4-6.4-0.4-9.3
			c0-4.6,0.7-9.2,0.7-13.7c0-2.3-0.4-4.5-0.4-6.8c0-3.5,1.6-6.7,4-9c2.4-2.3,5.5-3.9,9-3.9c3.1,0,6.3-0.1,9.4-0.1s6.3-0.1,9.4-0.1
			c3.1,0,6.3,0.3,9.4,0.3c3.1,0,6.3,0.3,9.4,0.3c3.4,0,6.5,0.9,8.8,3.1c2.3,2.2,3.6,5.2,3.9,8.6c0.3,3.1,0.1,5.6,0.1,8.8
			c0,1.1,2.1,1.9,2.1,0.8c0-3.4,0.1-6.9-0.2-10.4c-0.2-2.8-1.4-5.4-3.1-7.5c-1.7-2.1-4.2-3.3-6.8-4.3c-2.6-1-5.3-0.9-8.1-0.9
			c-4,0-8,0.1-12,0.1c-3.7,0-7.3-0.3-11-0.3s-7.3-0.3-11-0.3c-4.5,0-9,2.3-11.7,5.9c-0.2,0.3-0.2,0.9-0.4,1.2c-4.1,2.9-7,7-7,12.2
			c0,3.2,0.5,6.5,0.5,9.7c0,4.4-0.5,8.8-0.5,13.3c0,3.2,0.2,6.3,1.6,9.3c1.2,2.7,3,4.9,5.3,6.4c2.3,1.5,5,2.6,8,2.7
			c2,0.1,4.1,0,6.1,0c2.9,0,5.8-0.4,8.8-0.4s5.8-0.1,8.8-0.1s5.8,0.5,8.8,0.5c1.7,0,3.5,0.2,5.2,0.2c5,0,9.1-3.1,11.9-7.1
			c0,0,0.4,0.2,0.4,0.2c2.6-1.8,4-4.5,5.2-7.5c1.1-2.8,0.9-5.7,0.9-8.6C93.6,62.8,92.5,63.6,92.5,64.7z M62.6,85.2
			c-4,0-8-0.4-12-0.4s-8-0.1-12-0.1c-5.2,0-9.4-2-12.1-6.6c-2-3.3-1.7-6.9-1.7-10.5c0-3.7-0.5-7.4-0.5-11.2c0-3.7,0-7.4,0-11.2
			c0-3.2,1.4-5.8,3.4-8.1c-0.5,1.9-0.9,3.6-0.9,5.7c0,4,0.4,7.9,0.4,11.9s0,7.9,0,11.9c0,4.4,0.9,8.6,3.6,11.5
			c2.7,2.9,6.7,4.3,11.3,4.3c3.8,0,7.6,0.2,11.4,0.2s7.6-0.1,11.4-0.1c3.9,0,7.7-0.1,11.6-0.1c2.2,0,4.6,0.2,6.7-0.3
			c-2.8,2.1-6.5,2.7-10.2,2.9C69.6,85.1,65.9,85.2,62.6,85.2z"/>
	</g>
</g>
<g>
	<g>
		<linearGradient id="SVGID_2_" gradientUnits="userSpaceOnUse" x1="28.1188" y1="56.8686" x2="48.8907" y2="56.8686">
			<stop  offset="0" style="stop-color:#41AFB7"/>
			<stop  offset="1" style="stop-color:#57CA8D"/>
		</linearGradient>
		<path class="st1" d="M38.4,46.4c-2.9-0.1-5.3,1.3-7.2,3.3c-1.8,1.9-3,4.5-3.1,7.2c-0.1,2.9,1.2,5.2,3.1,7.1
			c1.9,1.8,4.4,3.2,7.1,3.3c2.9,0.1,5.4-1.2,7.2-3.1c1.8-1.9,3.2-4.6,3.3-7.3c-0.1-2.9-1.4-5.4-3.2-7.3
			C43.8,47.8,41.3,46.5,38.4,46.4z M38.4,66.2c-5.3,0.2-9.4-4.3-9.6-9.3c-0.2-5.3,4.6-9.3,9.6-9.5c5.3-0.2,9.5,4.5,9.7,9.5
			C47.9,62.2,43.7,66,38.4,66.2z"/>
	</g>
</g>
<g>
	<g>
		<linearGradient id="SVGID_3_" gradientUnits="userSpaceOnUse" x1="29.7906" y1="56.7935" x2="46.8729" y2="56.7935">
			<stop  offset="0" style="stop-color:#41AFB7"/>
			<stop  offset="1" style="stop-color:#57CA8D"/>
		</linearGradient>
		<path class="st2" d="M38.4,48.2c-4.8-0.2-8.4,4.2-8.6,8.6c-0.2,4.8,4.1,8.2,8.6,8.5c4.8,0.2,8.3-4,8.5-8.4
			C46.6,52.1,43.2,48.5,38.4,48.2z M38.4,64.4c-4.3,0.2-7.4-3.5-7.6-7.6c-0.2-4.3,3.6-7.6,7.6-7.8c4.3-0.2,7.5,3.7,7.7,7.8
			C45.9,61.2,42.7,64.2,38.4,64.4z"/>
	</g>
</g>
<g>
	<g>
		<linearGradient id="SVGID_4_" gradientUnits="userSpaceOnUse" x1="75.3788" y1="56.6836" x2="96.0603" y2="56.6836">
			<stop  offset="0" style="stop-color:#41AFB7"/>
			<stop  offset="1" style="stop-color:#57CA8D"/>
		</linearGradient>
		<path class="st3" d="M85.9,46.4c-2.9-0.1-5.3,1.3-7.2,3.2c-1.8,1.9-3.3,4.5-3.4,7.2c-0.1,2.9,1.2,5.5,3.1,7.4
			c1.9,1.8,4.7,2.6,7.4,2.8c2.9,0.1,5.4-0.9,7.2-2.8c1.8-1.9,2.8-4.5,2.9-7.3c-0.1-2.9-1.2-5.3-3-7.2C91.2,47.8,88.8,46.5,85.9,46.4
			z M85.9,66.2c-5.3,0.2-9.4-4.4-9.6-9.4c-0.2-5.3,4.6-9.1,9.6-9.3c5.3-0.2,9.1,4.3,9.3,9.3C95,62.1,91.2,66,85.9,66.2z"/>
	</g>
</g>
<g>
	<g>
		<linearGradient id="SVGID_5_" gradientUnits="userSpaceOnUse" x1="77.4803" y1="56.7602" x2="94.4808" y2="56.7602">
			<stop  offset="0" style="stop-color:#41AFB7"/>
			<stop  offset="1" style="stop-color:#57CA8D"/>
		</linearGradient>
		<path class="st4" d="M85.9,48.3c-4.8-0.2-8.2,4.1-8.4,8.5c-0.2,4.8,3.9,8.2,8.4,8.4c4.8,0.2,8.4-3.9,8.6-8.4
			C94.3,52,90.7,48.5,85.9,48.3z M85.9,64.5c-4.3,0.2-7.6-3.7-7.8-7.7c-0.2-4.3,3.8-7.6,7.8-7.8c4.3-0.2,7.4,3.8,7.6,7.8
			C93.3,61.2,90.2,64.3,85.9,64.5z"/>
	</g>
</g>
<g>
	<g>
		
			<linearGradient id="SVGID_6_" gradientUnits="userSpaceOnUse" x1="29.0347" y1="20.106" x2="41.2265" y2="20.106" gradientTransform="matrix(1 3.593326e-04 -3.593326e-04 1 7.732469e-03 -1.211158e-02)">
			<stop  offset="0" style="stop-color:#41AFB7"/>
			<stop  offset="1" style="stop-color:#57CA8D"/>
		</linearGradient>
		<path class="st5" d="M41.2,20.1c-0.4-1.7-0.9-3.4-1.2-5.2c-0.1-0.4-0.5-0.5-0.7-0.3c-2.3,1.8-4.5,3.8-6.8,5.6c-1,0.8-2,1.5-3,2.3
			c-0.6,0.5-0.4,1.8-0.4,2.5c0,0,0.2,0.1,0.2,0.1c0.1,0.3,0.3,0.5,0.6,0.4c0,0,0,0.1,0.1,0.1c3.7-1.6,7.4-3.2,11.1-4.8
			C41.2,20.7,41.3,20.3,41.2,20.1z M38.2,20.9c-2.7,1.2-5.4,2.5-8.1,3.7c0-0.4,0.1-0.9,0-1.3c0-0.1-0.2-0.2-0.2-0.2
			c0,0,0.2,0,0.3-0.2c1.1-0.9,2.4-1.7,3.5-2.5c1.9-1.5,3.7-3.1,5.6-4.6c0.3,1.3,0.5,2.7,0.8,4c0,0.1,0,0.2,0,0.3c0,0,0.1-0.1,0-0.1
			C39.5,20.2,38.9,20.6,38.2,20.9z"/>
	</g>
</g>
<g>
	<g>
		<linearGradient id="SVGID_7_" gradientUnits="userSpaceOnUse" x1="78.0689" y1="22.1289" x2="89.039" y2="22.1289">
			<stop  offset="0" style="stop-color:#41AFB7"/>
			<stop  offset="1" style="stop-color:#57CA8D"/>
		</linearGradient>
		<path class="st6" d="M89,25.6c-0.4-0.8-0.7-2.1-1.3-2.7c-0.5-0.5-1.5-0.9-2.1-1.3c-2.3-1.3-4.6-2.4-6.9-3.6
			c-0.3-0.2-0.6,0-0.6,0.3c0,1.6,0.1,3.1,0.1,4.7c0,0.1-0.1,0.2-0.1,0.2c0,0,0,0,0,0c0,0,0,0.2,0,0.2c0,0,0.1,0.1,0.2,0.1
			c3.4,0.9,6.8,1.8,10.1,2.7C88.9,26.4,89.1,26,89,25.6z M87.1,23.6c0.1,0,0.4,0.9,0.7,1.6c-3-0.8-5.9-1.7-8.9-2.6
			c0-1.2,0-2.5,0-3.7c1.8,1,3.7,2.1,5.5,3.1C85.4,22.6,86.3,23.1,87.1,23.6z"/>
	</g>
</g>
<g>
	<linearGradient id="SVGID_8_" gradientUnits="userSpaceOnUse" x1="38.2933" y1="60.8342" x2="40.5876" y2="60.8342">
		<stop  offset="0" style="stop-color:#41AFB7"/>
		<stop  offset="1" style="stop-color:#57CA8D"/>
	</linearGradient>
	<circle class="st7" cx="39.4" cy="60.8" r="1.1"/>
</g>
<g>
	<linearGradient id="SVGID_9_" gradientUnits="userSpaceOnUse" x1="85.8696" y1="60.5927" x2="88.1638" y2="60.5927">
		<stop  offset="0" style="stop-color:#41AFB7"/>
		<stop  offset="1" style="stop-color:#57CA8D"/>
	</linearGradient>
	<circle class="st8" cx="87" cy="60.6" r="1.1"/>
</g>
<g>
	<g>
		<linearGradient id="SVGID_10_" gradientUnits="userSpaceOnUse" x1="33.6976" y1="105.5367" x2="75.6444" y2="105.5367">
			<stop  offset="0" style="stop-color:#41AFB7"/>
			<stop  offset="1" style="stop-color:#57CA8D"/>
		</linearGradient>
		<path class="st9" d="M75.6,93.5c-0.6,0-1.2,0.4-1.8,0.4c-1.8,0-3.7-0.3-5.5-0.3c-1.1,0-0.4,1.8,0.7,1.8c1.6,0,3.1-0.2,4.6-0.2
			 M68.8,114.1c-0.6,0-0.6,0.4-1.3,0.4c-2.8,0-5.6-0.3-8.4-0.3c-3.3,0-6.6,0.1-9.8,0.1c-2.4,0-5,0.4-7.2-0.6
			c-4.4-2-4.2-6.8-4.2-10.7c0-2.5,0.1-5.2,0.1-7.7c4.9,0,9.3,0,14.2,0c1.1,0,1.8-1.5,0.7-1.5c-2.6,0-5.2-0.1-7.8-0.1
			c-2.6,0-5.2,0.1-7.8,0.1c0,0-0.1,0.1-0.1,0.1c-0.2,0-0.5-0.3-0.7-0.1c-1.8,1.1-2.8,1.4-2.8,3.5c0,3.2,0.1,6.4,0.1,9.7
			c0,3,0.8,5.7,2.5,7.6c1.7,1.9,4.1,2.9,7.4,2.9c2.9,0,5.8,0,8.7,0s5.8,0.4,8.7,0.4c1.7,0,3.6-0.2,5.5-0.2 M74.9,95.5 M35.6,106.7
			c0-2.8-0.4-5.6-0.4-8.4c0-0.6,0.3-1.2,0.3-1.9c0.3-0.2,0.4-0.4,0.7-0.5c0,0,0.3,0,0.4-0.1c0,2.7,0,5.4,0,8.1
			c0,3.9,0.2,7.2,3.5,9.9c1.1,0.9,2.3,1.4,3.6,1.7c-0.9,0-1.9,0.1-2.8-0.1C36.7,114.4,35.6,110.4,35.6,106.7z"/>
	</g>
</g>
<g>
	<linearGradient id="SVGID_11_" gradientUnits="userSpaceOnUse" x1="24.2192" y1="106.9556" x2="33.9465" y2="106.9556">
		<stop  offset="0" style="stop-color:#41AFB7"/>
		<stop  offset="1" style="stop-color:#57CA8D"/>
	</linearGradient>
	<path class="st10" d="M33.7,100.3c-1.3-0.4-2.7-0.7-4-1.2c-0.1-0.1-0.2-0.4-0.4-0.3c0,0,0.2,0.3,0.2,0.3c0,0-0.3-0.4-0.3-0.4
		c-0.6,0.4-1.6,1-1.8,1.7c-0.4,1.5-0.4,3.1-0.7,4.6c-0.8,3.2-1.8,6.4-2.5,9.6c-0.1,0.5,0.5,0.7,0.7,0.2c0.6-2.7,1.3-5.3,2-8
		c0.4-1.7,0.6-3.5,1-5.2c0.2-0.9,0.8-1,1.2-1.3c-1.2,4.7-2.7,9.4-4,14.1c-0.1,0.5,0.6,0.7,0.7,0.2c0.7-2.7,1.8-5.4,2.6-8.1
		c0.5-1.8,0.7-3.6,1.2-5.4c0.1-0.5,0.1-1,0.2-1.5c0.2,0.1,0.5,0.3,0.7,0.3c0.8,0.3,1.7,0.2,2.5,0.5c0.1,0-0.1,0.7,0,0.7
		c0,0,0.1-0.3,0.1-0.3c-0.5,1.6-1.1,3.1-1.6,4.7c-0.9,3-1.8,6-2.7,8.9c-0.2,0.5,0.6,0.7,0.8,0.2c1.4-4.7,2.9-9.4,4.4-14.1
		C34,100.5,34,100.4,33.7,100.3z"/>
</g>
<g>
	<g>
		<linearGradient id="SVGID_12_" gradientUnits="userSpaceOnUse" x1="22.9577" y1="124.2738" x2="33.0079" y2="124.2738">
			<stop  offset="0" style="stop-color:#41AFB7"/>
			<stop  offset="1" style="stop-color:#57CA8D"/>
		</linearGradient>
		<path class="st11" d="M23.6,120.5c4.6-2.3,8.9,2.7,6.3,7c-0.1,0.2-0.1,0.4,0.1,0.5c0.5,0.4,1,0.9,1.5,1.3c0.2,0.2,0.4,0.2,0.6,0
			c0.3-0.2,0.6-0.5,0.8-0.8c0.4-0.4-0.2-1-0.6-0.6c-0.2,0.3-0.5,0.6-0.8,0.8c0.2,0,0.4,0,0.6,0c-0.3-0.3-0.7-0.6-1-0.9
			c-0.6-0.5,0-0.2,0.2-1.1c0.5-1.7,0.4-3.2-0.3-4.7c-1.4-2.9-5.1-3.5-7.8-2.2C22.7,120,23.1,120.8,23.6,120.5L23.6,120.5z"/>
		<g>
			<linearGradient id="SVGID_13_" gradientUnits="userSpaceOnUse" x1="18.0537" y1="121.811" x2="35.0045" y2="121.811">
				<stop  offset="0" style="stop-color:#41AFB7"/>
				<stop  offset="1" style="stop-color:#57CA8D"/>
			</linearGradient>
			<path class="st12" d="M27.8,114.6c-2.6-0.1-5,0.9-6.5,2.4c-0.1,0-0.1,0.2-0.2,0.3c-3.6,3-4.1,7.8-1.3,11.5
				c0.2,0.2,0.4,0.5,0.6,0.3c0.3-0.3,0.6-0.5,0.9-0.7c0,0-0.2-0.3-0.2-0.3c0.4-0.4,1-0.6,1.5-1c0.2-0.1-0.1-0.3-0.2-0.5
				c-1.6-3.5,0.5-7.2,4.3-7.5c4.1-0.3,5.9,4.8,4.1,7.8c-0.1,0.2-0.2,0.3-0.1,0.4c0.5,0.4,0.9,0.9,1.4,1.4c0,0,0.2-0.1,0.2-0.1
				c0.2,0.1,0.4,0.2,0.6,0c2-2.4,2.4-5.8,1.5-8.6C33.6,117.1,31.4,114.8,27.8,114.6z M19,122.5c-0.1,1.8,0.2,3.6,1.3,5.3
				c-0.1,0.1-0.1,0.1-0.2,0.2C18.9,126.2,18.7,124.3,19,122.5z M30.7,119.6c-2.8-2.8-7.4-1.2-9.1,1.9c-0.4,0.8-0.3,1.7-0.4,2.5
				c0,0.2,0.5,2.8,0.7,2.6c-0.3,0.3-0.7,0.3-0.8,0.4c0,0-0.1,0-0.2,0c0,0,0.1,0.3,0.1,0.3c-0.2,0.1-0.2-0.5-0.6-1.2
				c-1.2-2.1-1.1-4.7-0.1-6.8c0.2-0.5,0.6-1,1-1.4c0.1-0.1,0.1-0.2,0.2-0.3c0.1-0.1,0.2,0,0.2,0c2.2-2.2,5.8-2.5,8.6-1.1
				c4.3,2.1,4.8,7.6,2.2,11.1c-0.3-0.3-0.7-0.5-1.1-0.8c0.4,0.3,0.9-2,0.9-2C32.6,122.7,32.2,121,30.7,119.6z"/>
		</g>
	</g>
</g>
<g>
	<g>
		<linearGradient id="SVGID_14_" gradientUnits="userSpaceOnUse" x1="51.1381" y1="100.0335" x2="70.3889" y2="100.0335">
			<stop  offset="0" style="stop-color:#41AFB7"/>
			<stop  offset="1" style="stop-color:#57CA8D"/>
		</linearGradient>
		<path class="st13" d="M60.7,90.5c-5.4-0.2-9.3,4.4-9.5,9.5c-0.2,5.4,4.5,9.3,9.6,9.5c5.4,0.2,9.5-4.4,9.7-9.5
			C70.2,94.6,66.1,90.8,60.7,90.5z M60.7,109c-5,0.2-8.8-4.4-9-9c-0.2-5,4.3-8.8,9-9c5-0.2,8.6,4.3,8.8,9
			C69.3,105,65.7,108.8,60.7,109z"/>
	</g>
</g>
<g>
	<g>
		<linearGradient id="SVGID_15_" gradientUnits="userSpaceOnUse" x1="53.2645" y1="100.1899" x2="68.0932" y2="100.1899">
			<stop  offset="0" style="stop-color:#41AFB7"/>
			<stop  offset="1" style="stop-color:#57CA8D"/>
		</linearGradient>
		<path class="st14" d="M53.3,100c-0.2,4.2,3.6,7.4,7.4,7.6c4.2,0.2,7.2-3.7,7.4-7.6c-0.3-4.8-3.8-7.2-7.4-7.2
			C57.1,92.8,53.5,95.3,53.3,100z M54.2,100c-0.2-3.7,3.1-6.2,6.5-6.4c3.7-0.2,6.3,3,6.5,6.4c-0.2,4.2-3.4,6.2-6.5,6.2
			C57.5,106.2,54.4,104.2,54.2,100z"/>
	</g>
</g>
<g>
	<linearGradient id="SVGID_16_" gradientUnits="userSpaceOnUse" x1="49.9057" y1="102.2278" x2="64.8251" y2="102.2278">
		<stop  offset="0" style="stop-color:#41AFB7"/>
		<stop  offset="1" style="stop-color:#57CA8D"/>
	</linearGradient>
	<path class="st15" d="M64.2,108.5c-4.5,2.5-9.1,1-11.6-2.1c-2.5-3.1-2.8-7.9,0.7-11.7c0.4-0.4-0.4-1.2-0.8-0.8
		c-2.5,2.7-3.1,5.9-2.5,8.7c0.6,3.1,2.7,5.8,5.5,7.2c2.6,1.2,5.8,1.2,9-0.6c0.5-0.3,0-1.1-0.5-0.9C64.1,108.4,64.2,108.5,64.2,108.5
		z"/>
</g>
<g>
	<g>
		<linearGradient id="SVGID_17_" gradientUnits="userSpaceOnUse" x1="55.6171" y1="100.029" x2="65.6263" y2="100.029">
			<stop  offset="0" style="stop-color:#41AFB7"/>
			<stop  offset="1" style="stop-color:#57CA8D"/>
		</linearGradient>
		<path class="st16" d="M65.2,99.5c-1.2,0-2.3,0.1-3.5,0.1c-0.2,0-0.4,0-0.5,0.2c0,0.2,0,0.4-0.1,0.5c-0.1,0.3,0.1,0.6,0.4,0.6
			c0.5,0,0.7,0.1,0.6,0.6c-0.4,1.6-2.2,2.4-3.7,1.2c-1.4-1.1-0.6-3.4,0.1-4.7c1.2-2.1,4.1-2,4.8,0.4c0.1,0.2,0.3,0.4,0.5,0.4
			c0.2,0,0.4-0.2,0.6-0.2c0.2,0,0.5-0.1,0.5-0.3c0-0.9,0-1.8-0.1-2.7c0-0.1,0-0.2-0.1-0.3c-0.1-0.1-0.2-0.2-0.4-0.2
			c-0.6,0-0.8,0.2-1,0.6c-3.2-1.9-7.5,0.9-7.7,4.6c-0.2,3.7,3.4,5.9,6.5,4.1c0,0.1,0,0.1,0,0.1c0,0.2,0.3,0.2,0.4,0.2
			c0.2,0,0.4,0,0.6,0c0.2,0,0.5,0,0.5-0.2c0.2-0.8,0.3-3.6,1.4-3.6c0.2,0,0.4-0.1,0.4-0.3c0-0.2,0-0.4,0.1-0.5
			C65.7,99.8,65.5,99.5,65.2,99.5z M63.9,96.4c0,0,0.2-0.1,0.2-0.1c0,0.4-0.1,0.7-0.1,1.1c-0.1-0.3-0.3-0.5-0.5-0.8
			C63.6,96.7,63.8,96.6,63.9,96.4z M56.4,100.8c-0.1-1.7,1.1-3.2,2.5-4.1c-1.6,1.4-2.7,4.2-1.6,6c0.2,0.4,0.5,0.7,0.9,1
			C57.2,103.1,56.4,102.2,56.4,100.8z M62.8,104c0,0-0.1,0.1-0.1,0.1C62.7,104,62.8,103.9,62.8,104C62.8,104,62.8,103.9,62.8,104z
			 M63.4,101.5c-0.2,0.7-0.2,1.4-0.4,2.1c0,0-0.1-0.1-0.1-0.2c0-0.1-0.2-0.2-0.3-0.3c0,0,0.2,0,0.2-0.1c0.5-1.1,0.7-2.2,0.1-2.7
			c0,0,0.1,0.1,0.1,0.1c0.3,0,0.6-0.1,0.9-0.1C63.5,100.7,63.5,101.1,63.4,101.5z"/>
	</g>
</g>
<g id="a1_4_">
	<g>
		<linearGradient id="SVGID_18_" gradientUnits="userSpaceOnUse" x1="45.9816" y1="71.5295" x2="62.7413" y2="71.5295">
			<stop  offset="0" style="stop-color:#41AFB7"/>
			<stop  offset="1" style="stop-color:#57CA8D"/>
		</linearGradient>
		<path class="st17" d="M62.2,68.2c-2.5,1-5.2,1.1-7.9,0.8c-2.6-0.3-5.3-1.1-7.7-2.2c-0.1,0-0.1-0.2-0.2-0.2c-0.2,0-0.5,0.2-0.5,0.5
			c0,0.1,0.1,0.2,0.2,0.2c0.3,2.5,1.8,4.9,4,6.7c2.1,1.7,4.8,2.7,7.3,2.4c0.2,0,0.7,0,0.6-0.3c-0.2-2.2-0.9-2.2,0.6-3.6
			c1.3-1.3,2.7-2.4,4-3.7C62.9,68.6,62.6,68,62.2,68.2z M58.5,71.7c-1,1-1.8,1.2-1.7,2.6c0.1,0.5,0.2,1,0.3,1.4c0,0-0.1-0.1-0.1-0.1
			c-1.5,0-3-0.5-4.4-1.2c-2.6-1.2-5-3.8-5.6-6.7c4.3,1.8,9.1,2.9,13.6,1.7C59.9,70.2,59.2,71,58.5,71.7z"/>
	</g>
</g>
<linearGradient id="SVGID_19_" gradientUnits="userSpaceOnUse" x1="63.4532" y1="110.0822" x2="130.9965" y2="110.0822">
	<stop  offset="0" style="stop-color:#41AFB7"/>
	<stop  offset="1" style="stop-color:#57CA8D"/>
</linearGradient>
<path class="st18" d="M125.8,89.4c-13.7,0-27.4,0-41.1,0c-4.5,0-9.4-0.6-11.6,4.3c-2.7,6.1-4.2,13.1-6.3,19.5
	c-1.4,4.3-6.5,13.7-0.4,16.5c4,1.9,10.8,0.6,15,0.6c8.7,0,17.4,0,26.1,0c4.1,0,10.6,1.2,13.3-2.9c1.3-1.9,1.7-4.7,2.4-6.8
	c1.5-4.6,2.9-9.1,4.4-13.7C129.4,101.5,135.2,90.7,125.8,89.4c-1.2-0.2-3,1.5-1.1,1.8c7.1,1,0.8,13.8-0.4,17.4
	c-1.8,5.5-2.9,12-5.5,17.1c-2.2,4.3-8.2,2.7-12.2,2.7c-7.4,0-14.9,0-22.3,0c-4.5,0-9.7,0.8-14.2,0c-7-1.2-2.1-10.3-0.8-14.3
	c2-6.3,3.6-13,6.1-19.1c2-4.8,5.4-3.9,9.8-3.9c13.1,0,26.3,0,39.4,0C125.9,91.2,127.7,89.4,125.8,89.4z"/>
<linearGradient id="SVGID_20_" gradientUnits="userSpaceOnUse" x1="32.0189" y1="124.321" x2="67.0241" y2="124.321">
	<stop  offset="0" style="stop-color:#41AFB7"/>
	<stop  offset="1" style="stop-color:#57CA8D"/>
</linearGradient>
<path class="st19" d="M66.5,128.8c-4.9-0.6-9.8-1.1-14.7-1.7c-3.3-0.4-12,0.7-14.5-1.6c-0.3-1-0.5-2-0.8-3c1.3-0.4,2.6-0.6,4-0.7
	c0.8,0,1.6,0,2.5,0c2.2,0,4.3,0,6.5-0.2c5-0.5,10-1.2,15-1.7c1.3-0.1,2.5-1.6,0.4-1.4c-7.1,0.8-14.1,2-21.3,1.9
	c-2.7,0-10.8-0.1-11.6,3.5c-0.9,4,8.5,4.2,10.9,4.2c7.3,0.2,14.5,1.3,21.7,2.2C65.5,130.3,68.1,129,66.5,128.8L66.5,128.8z"/>
<linearGradient id="SVGID_21_" gradientUnits="userSpaceOnUse" x1="33.3604" y1="124.3014" x2="64.5984" y2="124.3014">
	<stop  offset="0" style="stop-color:#41AFB7"/>
	<stop  offset="1" style="stop-color:#57CA8D"/>
</linearGradient>
<path class="st20" d="M64.1,125.4c-9.5-1.2-19-2.4-28.5-3.6c-0.8-0.1-3.4,1.2-1.8,1.4c9.5,1.1,19,2.3,28.5,3.6
	C63,126.9,65.7,125.6,64.1,125.4L64.1,125.4z"/>
<linearGradient id="SVGID_22_" gradientUnits="userSpaceOnUse" x1="90.3535" y1="109.7357" x2="104.107" y2="109.7357">
	<stop  offset="0" style="stop-color:#41AFB7"/>
	<stop  offset="1" style="stop-color:#57CA8D"/>
</linearGradient>
<path class="st21" d="M102.7,109.9c-0.4,4.5-6.3,5.4-9.3,2.8c-3.7-3.2,0-7.1,3.9-7.3c-0.2-0.1-0.4-0.2-0.6-0.3
	c0.5,1.7,1.2,3.5,3,4.1c0.9,0.3,3-0.3,3.1,0.9c0,0.5,1.5,0.2,1.4-0.4c-0.1-1-0.8-1.2-1.7-1.2c-2.7-0.1-3.6-0.9-4.4-3.7
	c-0.1-0.3-0.4-0.3-0.6-0.3c-4.5,0.2-10.2,5.3-5,9.2c3.7,2.8,11.2,1.5,11.7-3.9C104.2,109.1,102.7,109.3,102.7,109.9z"/>
<linearGradient id="SVGID_23_" gradientUnits="userSpaceOnUse" x1="97.5676" y1="100.83" x2="101.5402" y2="100.83">
	<stop  offset="0" style="stop-color:#41AFB7"/>
	<stop  offset="1" style="stop-color:#57CA8D"/>
</linearGradient>
<path class="st22" d="M99.9,101.4c-0.3,0.2-1.3,1.1-1.6,0.5c-0.2-0.5,0.5-1.3,0.8-1.6c0.3-0.2,1.2-1,1.5-0.5
	C101.1,100.2,100.2,101.1,99.9,101.4c-0.4,0.3,0.2,0.6,0.5,0.3c0.5-0.5,1.6-1.7,0.9-2.4c-0.7-0.7-2.1,0.1-2.6,0.6
	c-0.5,0.5-1.6,1.7-0.9,2.4c0.7,0.7,2-0.1,2.6-0.6C100.8,101.4,100.2,101.1,99.9,101.4z"/>
</svg>
