<?xml version="1.0" encoding="utf-8"?>
<!-- Generator: Adobe Illustrator 21.0.2, SVG Export Plug-In . SVG Version: 6.00 Build 0)  -->
<svg version="1.1" id="Слой_1" xmlns="http://www.w3.org/2000/svg" xmlns:xlink="http://www.w3.org/1999/xlink" x="0px" y="0px"
	 viewBox="0 0 144 151" style="enable-background:new 0 0 144 151;" xml:space="preserve">
<style type="text/css">
	.st0{fill:url(#SVGID_1_);}
	.st1{fill:url(#SVGID_2_);}
	.st2{fill:url(#SVGID_3_);}
	.st3{fill:url(#SVGID_4_);}
	.st4{fill:url(#SVGID_5_);}
	.st5{fill:url(#SVGID_6_);}
	.st6{fill:url(#SVGID_7_);}
	.st7{fill:url(#SVGID_8_);}
	.st8{fill:url(#SVGID_9_);}
	.st9{fill:url(#SVGID_10_);}
	.st10{fill:url(#SVGID_11_);}
	.st11{fill:url(#SVGID_12_);}
</style>
<g>
	<linearGradient id="SVGID_1_" gradientUnits="userSpaceOnUse" x1="41.0402" y1="56.2896" x2="116.5158" y2="56.2896">
		<stop  offset="0" style="stop-color:#41AFB7"/>
		<stop  offset="1" style="stop-color:#57CA8D"/>
	</linearGradient>
	<path class="st0" d="M59.3,83.6c8.7,1.4,17.3,2.8,26,4.3c1.7,0.3,3.4,0.6,5.1,0.8c4.9,0.8,9.6-1,13.1-4.5c0,0,0.1-0.1,0.1-0.1
		c2.8-1.3,5.1-3.4,6.8-6.2c1.5-2.6,1.8-5.6,2.2-8.5c0-0.2,0-0.4-0.1-0.5c1.8-1.6,3.1-3.8,3.6-6.2c0.3-2.6-0.2-4.9-1.4-6.9
		c0.1-0.1,0.2-0.2,0.2-0.4c0.6-3.4,1.3-6.8,1.6-10.2c0.4-5.6-2.9-10.8-7.6-13.6c-2.4-1.4-5.3-1.7-8-2.2c-4-0.6-7.9-1.3-11.9-1.9
		c-7.2-1.2-14.5-2.4-21.7-3.6c-4.5-0.7-9.2,0.5-12.5,3.6c-0.3,0.3-0.5,0.5-0.8,0.8c-4.5,2.2-7.7,6.2-8.5,11.2
		c-0.5,3.2-1,6.4-1.6,9.6c-0.7,4.4-1.4,8.7-2.1,13.1c-0.5,3.1-1.2,6.3-0.3,9.4c1.6,5.7,6,9.8,11.8,10.9C55.3,83,57.3,83.3,59.3,83.6
		z M115.2,62.6c-1.1,5.2-5.6,8.5-10.9,7.8c-5.3-0.7-8.4-5.9-7.8-10.9c0.7-5.3,5.9-8.4,10.9-7.8C112.6,52.4,115.8,57.6,115.2,62.6z
		 M66.8,25.6c6.2,1,12.4,2,18.5,3c6.2,1,12.4,2,18.5,3c6.8,1.1,11.3,7.3,10.8,14c-0.2,3-0.9,5.4-1.4,8.4c-1.5-1.6-3.4-2.7-5.8-3.2
		c-5.7-1.2-10.8,3.2-11.9,8.5c-1.2,5.7,3.2,10.8,8.5,11.9c2.4,0.5,4.6,0,6.6-1.1c-1,5.7-2.4,9.9-8.1,12.6c-3.3,1.5-6.7,1-10.1,0.4
		c-8.5-1.4-16.9-2.8-25.4-4.2c-2.8-0.5-5.6-0.9-8.4-1.4c-6.1-1-10.6-5.8-11.2-11.9c-0.3-2.9,0.7-6.3,1.2-9.1
		c0.1-0.3,0.1-0.6,0.2-0.9c0.9,4,4.4,7.2,8.5,8.1c5.7,1.2,10.8-3.2,11.9-8.5c0.7-5.7-2.8-10.7-8.5-11.9c-4.5-0.9-8.6,1.6-10.7,5.4
		c0.3-1.9,0.6-3.8,0.9-5.7c0.4-2.2,0.7-4.5,1.1-6.7C53.1,29.3,59.9,24.5,66.8,25.6z M49.6,51.9c0.7-5.3,5.9-8.4,10.9-7.8
		c5.3,0.7,8.4,5.9,7.8,10.9c-1.1,5.2-5.6,8.5-10.9,7.8C52.2,62.1,49,56.9,49.6,51.9z M43.5,72.5c-1.4-3.5-0.5-7.2,0.1-10.8
		c1.2-7.3,2.4-14.7,3.6-22c0.5-3.1,2.1-5.8,4.4-7.7c-0.8,1.8-1.3,3.7-1.7,5.8c-1.3,7.8-2.6,15.7-3.9,23.5
		c-1.4,8.7,3.4,16.6,12.4,18.1c7.5,1.2,15,2.5,22.6,3.7c3.8,0.6,7.6,1.2,11.4,1.9c2.2,0.4,4.3,0.7,6.5,0.5
		C92.9,88.6,85,86,78.3,84.9c-7.9-1.3-15.8-2.6-23.7-3.9C49.5,80.2,45.5,77.5,43.5,72.5z"/>
	<linearGradient id="SVGID_2_" gradientUnits="userSpaceOnUse" x1="50.3674" y1="53.4421" x2="67.4469" y2="53.4421">
		<stop  offset="0" style="stop-color:#41AFB7"/>
		<stop  offset="1" style="stop-color:#57CA8D"/>
	</linearGradient>
	<path class="st1" d="M57.6,61.9c4.7,1,8.9-2.7,9.8-7c0.6-4.8-2.3-8.8-7-9.8c-4.7-1-8.9,2.7-9.8,7C49.5,56.8,53.2,60.9,57.6,61.9z
		 M51.4,52.2c0.5-4.3,4.8-6.8,8.8-6.3c4.3,0.5,6.8,4.8,6.3,8.8c-0.9,4.2-4.5,6.8-8.8,6.3C53.4,60.5,50.9,56.2,51.4,52.2z"/>
	<linearGradient id="SVGID_3_" gradientUnits="userSpaceOnUse" x1="97.2636" y1="61.0547" x2="114.3432" y2="61.0547">
		<stop  offset="0" style="stop-color:#41AFB7"/>
		<stop  offset="1" style="stop-color:#57CA8D"/>
	</linearGradient>
	<path class="st2" d="M107.2,52.6c-4.7-1-8.9,2.7-9.8,7c-1,4.7,2.7,8.9,7,9.8c4.7,1,8.9-2.7,9.8-7C114.8,57.6,111.9,53.6,107.2,52.6
		z M113.4,62.3c-0.9,4.2-4.5,6.8-8.8,6.3c-4.3-0.5-6.8-4.8-6.3-8.8c0.5-4.3,4.8-6.8,8.8-6.3C111.4,54,113.9,58.3,113.4,62.3z"/>
	<linearGradient id="SVGID_4_" gradientUnits="userSpaceOnUse" x1="55.0671" y1="16.5164" x2="67.6472" y2="16.5164">
		<stop  offset="0" style="stop-color:#41AFB7"/>
		<stop  offset="1" style="stop-color:#57CA8D"/>
	</linearGradient>
	<path class="st3" d="M55.6,21.1C55.6,21.1,55.6,21.1,55.6,21.1c3.9-1,7.8-2,11.7-3c0.2,0,0.3-0.3,0.3-0.5c-0.1-1.8-0.2-3.5-0.3-5.3
		c0-0.4-0.4-0.5-0.7-0.3c-2.6,1.4-5.1,2.8-7.7,4.2c-1.1,0.6-2.2,1.2-3.3,1.8c-0.7,0.4-0.5,1.8-0.6,2.5c0,0,0,0.1,0,0.1
		C55.1,21,55.4,21.1,55.6,21.1z M56.1,18.8c0,0,0.1,0,0.3-0.1c1.3-0.7,2.5-1.4,3.8-2.1c2.1-1.2,4.2-2.3,6.3-3.4
		c0.1,1.3,0.1,2.6,0.2,4c0,0.1,0,0.2,0,0.3c0,0,0,0,0,0c-0.7,0.2-1.4,0.4-2.1,0.5c-2.9,0.7-5.8,1.5-8.6,2.2c0.1-0.4,0.1-0.8,0.2-1.2
		C56.2,18.8,56.2,18.8,56.1,18.8z"/>
	<linearGradient id="SVGID_5_" gradientUnits="userSpaceOnUse" x1="106.5675" y1="26.909" x2="116.9348" y2="26.909">
		<stop  offset="0" style="stop-color:#41AFB7"/>
		<stop  offset="1" style="stop-color:#57CA8D"/>
	</linearGradient>
	<path class="st4" d="M106.6,27.2c0,0,0,0.1,0.1,0.1c0,0.1,0.1,0.1,0.2,0.1c3.2,1.5,6.3,2.9,9.5,4.4c0.4,0.2,0.7-0.2,0.6-0.5
		c-0.2-0.8-0.3-2.2-0.8-2.9c-0.4-0.6-1.4-1.1-2-1.6c-2-1.6-4.1-3.2-6.1-4.8c-0.3-0.2-0.7-0.1-0.7,0.3c-0.3,1.5-0.5,3.1-0.8,4.6
		C106.6,27,106.6,27.1,106.6,27.2C106.6,27.1,106.6,27.1,106.6,27.2z M108.1,23.2c1.7,1.3,3.3,2.6,5,3.9c0.8,0.6,1.6,1.3,2.4,1.9
		c0.1,0.1,0.3,0.9,0.5,1.7c-2.8-1.3-5.6-2.6-8.4-3.9C107.7,25.6,107.9,24.4,108.1,23.2z"/>
	<linearGradient id="SVGID_6_" gradientUnits="userSpaceOnUse" x1="55.9961" y1="50.9301" x2="58.2907" y2="50.9301">
		<stop  offset="0" style="stop-color:#41AFB7"/>
		<stop  offset="1" style="stop-color:#57CA8D"/>
	</linearGradient>
	<circle class="st5" cx="57.1" cy="50.9" r="1.1"/>
	<linearGradient id="SVGID_7_" gradientUnits="userSpaceOnUse" x1="102.9852" y1="58.3851" x2="105.2798" y2="58.3851">
		<stop  offset="0" style="stop-color:#41AFB7"/>
		<stop  offset="1" style="stop-color:#57CA8D"/>
	</linearGradient>
	<circle class="st6" cx="104.1" cy="58.4" r="1.1"/>
	<linearGradient id="SVGID_8_" gradientUnits="userSpaceOnUse" x1="66.5507" y1="99.7571" x2="81.3577" y2="99.7571">
		<stop  offset="0" style="stop-color:#41AFB7"/>
		<stop  offset="1" style="stop-color:#57CA8D"/>
	</linearGradient>
	<path class="st7" d="M72.8,106.9c4.1,0.9,7.7-2.3,8.5-6.1c1-9.5-12.6-11.7-14.6-2.4C65.8,102.5,69,106.1,72.8,106.9z M67.6,98.6
		c0.4-3.7,4.1-5.8,7.5-5.4c3.7,0.4,5.8,4.1,5.4,7.5C78.6,108.9,66.6,106.9,67.6,98.6z"/>
	<linearGradient id="SVGID_9_" gradientUnits="userSpaceOnUse" x1="68.7733" y1="99.6901" x2="78.8936" y2="99.6901">
		<stop  offset="0" style="stop-color:#41AFB7"/>
		<stop  offset="1" style="stop-color:#57CA8D"/>
	</linearGradient>
	<path class="st8" d="M74.7,104c0,0.1,0,0.1,0,0.2c0,0.2,0.2,0.4,0.4,0.4c0.2,0,0.4,0.1,0.6,0.1c0.2,0,0.4-0.1,0.5-0.2
		c0.3-0.7,0.9-3.5,2.1-3.3c0.2,0,0.4-0.1,0.5-0.2c0.1-0.2,0.1-0.3,0.2-0.5c0.1-0.3,0-0.6-0.3-0.6c-1.1-0.2-2.3-0.4-3.4-0.6
		c-0.2,0-0.4,0.1-0.5,0.2c-0.1,0.2-0.1,0.3-0.2,0.5c-0.1,0.3,0,0.6,0.3,0.6c0.5,0.1,0.7,0.3,0.5,0.8c-0.6,1.5-2.6,2.1-3.9,0.6
		c-1.2-1.3,0-3.6,0.9-4.6c1.6-1.9,4.4-1.3,4.7,1.2c0,0.2,0.2,0.4,0.4,0.4c0.2,0,0.4,0,0.6,0c0.2,0,0.5-0.1,0.5-0.4
		c0.1-0.9,0.2-1.8,0.3-2.7c0-0.1,0-0.2,0-0.2c0-0.1-0.1-0.2-0.3-0.3c-0.6-0.1-0.8,0-1,0.3c-2.9-2.4-7.7-0.3-8.4,3.3
		C68.1,102.6,71.3,105.3,74.7,104z M75.4,103.8c0,0-0.1,0-0.1,0C75.4,103.8,75.4,103.8,75.4,103.8C75.4,103.8,75.4,103.8,75.4,103.8
		z M75.4,102.9c0.7-1,1.1-2,0.6-2.6c0,0,0.1,0,0.1,0c0.3,0,0.6,0.1,0.9,0.1c-0.3,0.3-0.5,0.7-0.7,1.1c-0.3,0.7-0.5,1.3-0.8,2
		c0,0,0-0.1,0-0.2c0-0.1-0.1-0.3-0.2-0.3C75.4,103,75.4,102.9,75.4,102.9z M77.7,96.6C77.7,96.6,77.8,96.5,77.7,96.6
		c0,0.3,0,0.7-0.1,1c-0.1-0.3-0.2-0.6-0.4-0.9C77.4,96.8,77.6,96.7,77.7,96.6z M69.6,99.7c0.2-1.7,1.4-3.1,3-3.8
		c-1.8,1.1-3.2,3.7-2.4,5.7c0.2,0.4,0.4,0.8,0.7,1.2C70,102.1,69.5,101,69.6,99.7z"/>
	<linearGradient id="SVGID_10_" gradientUnits="userSpaceOnUse" x1="69.4558" y1="68.8326" x2="76.2653" y2="68.8326">
		<stop  offset="0" style="stop-color:#41AFB7"/>
		<stop  offset="1" style="stop-color:#57CA8D"/>
	</linearGradient>
	<path class="st9" d="M74.5,73.8c2.1-1,1.9-4.5,1.4-6.3c-0.7-2-2.3-4-4.6-3.8c-2.7,0.2-1.9,4.3-1.4,5.9
		C70.5,71.5,72.2,74.9,74.5,73.8z M72,64.6c1.6,0.1,2.7,1.9,3.2,3.2c0.4,1.4,0.4,2.9-0.2,4.3c-1.3,3-3.5-1-4-2.2
		C70.4,68.5,69.3,64.3,72,64.6z"/>
	<linearGradient id="SVGID_11_" gradientUnits="userSpaceOnUse" x1="18.1653" y1="72.366" x2="44.7321" y2="72.366">
		<stop  offset="0" style="stop-color:#41AFB7"/>
		<stop  offset="1" style="stop-color:#57CA8D"/>
	</linearGradient>
	<path class="st10" d="M33.8,83.9c0,0-0.1-0.1-0.1-0.1c3.8-3.9,1.9-10.5-2.7-12.9l-0.1-0.8l-0.9-10.9l-0.8,0.1l0.9-0.4l-5.7-12.1
		l-4.8,14.3l0.4,15.2l0,0.3c-0.4-0.1-0.7-0.1-1.1-0.2c-0.3-0.1-0.5,0.1-0.5,0.4c-0.3,2.4,0.4,4.7,1.8,6.4l0,1l0.2,8.4l4.3,0.7
		L24.2,86c0.3,0.1,0.7,0.2,1,0.2c0.1,0,0.2,0,0.3-0.1c0.9,0.2,1.8,0.3,2.7,0.2l0.4,5.3l-4,0.6l0.2,1l5-0.8l-0.1-0.7l0.4,0.6l2.6-1.6
		l0-0.3c1.1,1.2,2.2,2.4,3.4,3.6c1.1,1.1,2.1,2.2,3.2,3.4c0.5,0.6,1.6,0.4,2.3,0.5c0,0,0,0,0,0c0,0,0,0,0,0c0.2,0,0.3-0.1,0.3-0.2
		c0.9-1,1.8-2.1,2.8-3.1c0.2-0.2,0.2-0.4,0-0.6C41,90.6,37.4,87.3,33.8,83.9z M31.2,85.6c0.3-0.2,2-1,2.3-1.2l10.4,9.7l-2.4,2.8
		c-0.4-0.4-9.9-10-10.2-10.4L31.2,85.6z M23.5,52.4l0.1,0.7l2.2-0.3l-0.1-0.6l3.4,7.2l-2,0.3l0.1,1l-0.3-0.8l-3.9,0.7l0.2,1l2.9-0.5
		l1.6,20.1l0,1c-0.6,0.3-1.3-0.1-2.1,0c0,0,0,0-0.1,0c-0.6-0.2-1.2-0.4-1.7-0.8l0-0.5l-0.9-20l-2.3-0.1l0,1l-0.2-0.5L23.5,52.4z
		 M28.1,85.7l-4-0.8l-1-0.7L21,81.6c-0.5-0.9-0.8-1.8-0.8-2.8c0-0.9-0.1-1.2,0-1.2c0,0,0,0,0.1,0c0.1,0,0.1,0,0.1,0
		c0.1,0,0.2,0.1,0.4,0.1l0.5,1c0.2,0.7,0.5,1.6,0.6,1.6c0.3,0.5,0.7,0.9,1.1,1.3c0.2,0.2,0.4,0.4,0.6,0.5c0.1,0.1,0.3,0.1,0.4,0.2
		c0.5,0.2,1,0.4,1.5,0.5c0,0,0.1,0,0.1,0c0,0,0.1,0,0.1,0c0,0,0,0,0,0c0.7,0.1,1.5,0.2,2.2,0.1c0.3,0,0.7-0.1,1-0.2
		c0.7-0.2,1.2-1,1.9-1.1c1.4-0.3,0.3-8.9,0.6-9.3l1.9,1.4c1.7,2.2,1.7,4.4,1.7,4.6c-0.1,0.7-0.4,3.2-1.2,4.2c-0.3,0.5-2.4,1.8-2.8,2
		l-2,0.8C28.8,85.6,28.5,85.6,28.1,85.7z M31.4,90.8l-0.1-2.9c0.4,0.4,1.2,0.9,1.5,1.2l8.1,8.1l-1.5,0.1l-6.8-7
		C32.4,90.3,31.8,91.2,31.4,90.8z"/>
	<linearGradient id="SVGID_12_" gradientUnits="userSpaceOnUse" x1="46.1033" y1="107.7461" x2="134.8136" y2="107.7461">
		<stop  offset="0" style="stop-color:#41AFB7"/>
		<stop  offset="1" style="stop-color:#57CA8D"/>
	</linearGradient>
	<path class="st11" d="M134.4,88.5c-6.4-0.6-12.5,0.2-18.9,0c-6.3-0.2-12.6,0-19,0c-0.5,0-1.3,0.2-1.5,0.7c-1.1,2.2-2.2,4.5-3.2,6.8
		c-3-0.5-6.1-1-9.1-1.5c-0.2,0-0.3,0-0.4,0.1c-1.4-2.3-3.7-4-6.6-4.6c-2.9-0.6-5.7,0.4-7.8,2.2c-0.1-0.1-0.2-0.2-0.4-0.2
		c-5.2-0.8-10.3-1.7-15.5-2.5c0,0-0.1,0-0.1,0c-0.2-0.1-0.4-0.1-0.6,0c-1.9,0.8-3,0.8-3.3,2.8c-0.5,3.2-1,6.4-1.6,9.5
		c-1,6,1.7,11.1,8,12.1c5.7,0.9,11.5,1.9,17.2,2.8c3.5,0.6,7.4,1.7,11.1,1.4c-1.1,2.8-2.1,5.5-3.1,8.3c0,0.1,0,0.1,0,0.2
		c0,0.1,0.1,0.1,0.3,0.2c6.4,0.6,12.3,0.1,18.7-0.2c6.3-0.3,12.7,0.2,19,0.4c0.5,0,1.6-0.1,1.8-0.7c4.7-12.7,10.5-25,15.5-37.6
		C134.9,88.6,134.6,88.5,134.4,88.5z M75.4,90.9c4.9,0.6,7.8,5.5,7.3,10.1c-1,4.9-5.2,7.9-10.1,7.3c-4.9-0.6-7.8-5.5-7.3-10.1
		C65.9,93.3,70.8,90.3,75.4,90.9z M72.1,109.1c-6.4-0.4-10.3-7.9-6.9-13.4c-0.3,0.7-0.6,1.5-0.8,2.3
		C63.4,103.3,67.3,107.9,72.1,109.1z M51.9,111.5c-3.9-1.6-4.5-5.8-3.9-9.4c0.5-2.8,0.9-5.5,1.4-8.3c0.1-0.6,0.2-1.2,0.3-1.9
		c0.3-0.1,0.6-0.2,0.8-0.3c0.1,0,0.1,0,0.2-0.1c-0.4,2.7-0.9,5.3-1.3,8c-0.6,3.9-0.9,7.3,1.9,10.5c0.9,1.1,2.1,1.8,3.3,2.2
		C53.6,112.1,52.7,111.9,51.9,111.5z M80.4,115c-3.4-0.6-6.7-1.1-10.1-1.7c-3.2-0.5-6.5-1.1-9.7-1.6c-2.4-0.4-4.9-0.6-6.9-1.9
		c-4-2.6-3-7.2-2.4-11.1c0.4-2.5,0.8-5,1.2-7.5c4.7,0.8,8.8,1.4,13.4,2.2c-7,7.1,0.4,19.5,10.5,15.8c0.2-0.1,0.2-0.2,0.3-0.3
		c3.5-1,6.2-4.2,6.9-7.8c0.2-1.7,0-3.3-0.5-4.8c2.8,0.5,5.3,0.9,8,1.3c-2.6,5.9-5.1,11.9-7.4,17.9C82.5,115.5,81.4,115.2,80.4,115z
		 M132,90.7c-4.3,12.1-10.1,23.4-14.6,35.4c-5.8-0.2-11.8-0.6-17.6-0.4c-6.2,0.2-11.9,0.7-18.1,0.2c4.6-12.2,9.3-24.7,15.1-36.3
		c6,0,11.9-0.2,17.8,0c3.6,0.1,6.9,0,10.5-0.4c1.9-0.2,2.7-0.1,4.8,0.1c0.3,0,2.1,0,2.7,0.2C132.4,89.5,132.1,90.5,132,90.7z"/>
</g>
</svg>
