<?xml version="1.0" encoding="utf-8"?>
<!-- Generator: Adobe Illustrator 21.0.2, SVG Export Plug-In . SVG Version: 6.00 Build 0)  -->
<svg version="1.1" id="Слой_1" xmlns="http://www.w3.org/2000/svg" xmlns:xlink="http://www.w3.org/1999/xlink" x="0px" y="0px"
	 viewBox="0 0 152 166" style="enable-background:new 0 0 152 166;" xml:space="preserve">
<style type="text/css">
	.st0{fill:url(#SVGID_1_);}
	.st1{fill:url(#SVGID_2_);}
	.st2{fill:url(#SVGID_3_);}
	.st3{fill:url(#SVGID_4_);}
	.st4{fill:url(#SVGID_5_);}
	.st5{fill:url(#SVGID_6_);}
	.st6{fill:url(#SVGID_7_);}
	.st7{fill:url(#SVGID_8_);}
	.st8{fill:url(#SVGID_9_);}
	.st9{fill:url(#SVGID_10_);}
	.st10{fill:url(#SVGID_11_);}
	.st11{fill:url(#SVGID_12_);}
	.st12{fill:url(#SVGID_13_);}
	.st13{fill:url(#SVGID_14_);}
	.st14{fill:url(#SVGID_15_);}
	.st15{fill:url(#SVGID_16_);}
	.st16{fill:url(#SVGID_17_);}
	.st17{fill:url(#SVGID_18_);}
	.st18{fill:url(#SVGID_19_);}
	.st19{fill:url(#SVGID_20_);}
	.st20{fill:url(#SVGID_21_);}
	.st21{fill:url(#SVGID_22_);}
	.st22{fill:url(#SVGID_23_);}
	.st23{fill:url(#SVGID_24_);}
	.st24{fill:url(#SVGID_25_);}
</style>
<g>
	<g>
		<linearGradient id="SVGID_1_" gradientUnits="userSpaceOnUse" x1="24.5824" y1="86.5222" x2="96.1494" y2="86.5222">
			<stop  offset="0" style="stop-color:#41AFB7"/>
			<stop  offset="1" style="stop-color:#57CA8D"/>
		</linearGradient>
		<path class="st0" d="M94.5,94.7c0,3-0.6,5.5-1.4,7.9c-0.8,2.3-2.4,4.2-5,6c-3,2.1-6.4,1.9-9.8,1.9c-2.9,0-5.7,0.1-8.6,0.1
			S64,111,61.1,111s-5.7,0-8.6,0c-2.8,0-5.7-0.5-8.5-0.5c-3.1,0-5.9-0.8-8.2-2.6c-2.3-1.7-4.3-4.1-5.1-7.1c-0.8-2.8-0.4-6.4-0.4-9.3
			c0-4.6,0.7-9.2,0.7-13.7c0-2.3-0.4-4.5-0.4-6.8c0-3.5,1.6-6.7,4-9c2.4-2.3,5.5-3.9,9-3.9c3.1,0,6.3-0.1,9.4-0.1s6.3-0.1,9.4-0.1
			c3.1,0,6.3,0.3,9.4,0.3c3.1,0,6.3,0.3,9.4,0.3c3.4,0,6.5,0.9,8.8,3.1c2.3,2.2,3.6,5.2,3.9,8.6c0.3,3.1,0.1,5.6,0.1,8.8
			c0,1.1,2.1,1.9,2.1,0.8c0-3.4,0.1-6.9-0.2-10.4c-0.2-2.8-1.4-5.4-3.1-7.5c-1.7-2.1-4.2-3.3-6.8-4.3c-2.6-1-5.3-0.9-8.1-0.9
			c-4,0-8,0.1-12,0.1c-3.7,0-7.3-0.3-11-0.3s-7.3-0.3-11-0.3c-4.5,0-9,2.3-11.7,5.9c-0.2,0.3-0.2,0.9-0.4,1.2c-4.1,2.9-7,7-7,12.2
			c0,3.2,0.5,6.5,0.5,9.7c0,4.4-0.5,8.8-0.5,13.3c0,3.2,0.2,6.3,1.6,9.3c1.2,2.7,3,4.9,5.3,6.4c2.3,1.5,5,2.6,8,2.7
			c2,0.1,4.1,0,6.1,0c2.9,0,5.8-0.4,8.8-0.4s5.8-0.1,8.8-0.1s5.8,0.5,8.8,0.5c1.7,0,3.5,0.2,5.2,0.2c5,0,9.1-3.1,11.9-7.1
			c0,0,0.4,0.2,0.4,0.2c2.6-1.8,4-4.5,5.2-7.5c1.1-2.8,0.9-5.7,0.9-8.6C95.6,92.8,94.5,93.6,94.5,94.7z M64.6,115.2
			c-4,0-8-0.4-12-0.4s-8-0.1-12-0.1c-5.2,0-9.4-2-12.1-6.6c-2-3.3-1.7-6.9-1.7-10.5c0-3.7-0.5-7.4-0.5-11.2s0-7.4,0-11.2
			c0-3.2,1.4-5.8,3.4-8.1c-0.5,1.9-0.9,3.6-0.9,5.7c0,4,0.4,7.9,0.4,11.9s0,7.9,0,11.9c0,4.4,0.9,8.6,3.6,11.5
			c2.7,2.9,6.7,4.3,11.3,4.3c3.8,0,7.6,0.2,11.4,0.2s7.6-0.1,11.4-0.1c3.9,0,7.7-0.1,11.6-0.1c2.2,0,4.6,0.2,6.7-0.3
			c-2.8,2.1-6.5,2.7-10.2,2.9C71.6,115.1,67.9,115.2,64.6,115.2z"/>
	</g>
</g>
<g>
	<g>
		<linearGradient id="SVGID_2_" gradientUnits="userSpaceOnUse" x1="30.1188" y1="86.8686" x2="50.8907" y2="86.8686">
			<stop  offset="0" style="stop-color:#41AFB7"/>
			<stop  offset="1" style="stop-color:#57CA8D"/>
		</linearGradient>
		<path class="st1" d="M40.4,76.4c-2.9-0.1-5.3,1.3-7.2,3.3c-1.8,1.9-3,4.5-3.1,7.2c-0.1,2.9,1.2,5.2,3.1,7.1
			c1.9,1.8,4.4,3.2,7.1,3.3c2.9,0.1,5.4-1.2,7.2-3.1c1.8-1.9,3.2-4.6,3.3-7.3c-0.1-2.9-1.4-5.4-3.2-7.3
			C45.8,77.8,43.3,76.5,40.4,76.4z M40.4,96.2c-5.3,0.2-9.4-4.3-9.6-9.3c-0.2-5.3,4.6-9.3,9.6-9.5c5.3-0.2,9.5,4.5,9.7,9.5
			C49.9,92.2,45.7,96,40.4,96.2z"/>
	</g>
</g>
<g>
	<g>
		<linearGradient id="SVGID_3_" gradientUnits="userSpaceOnUse" x1="31.7906" y1="86.7935" x2="48.8729" y2="86.7935">
			<stop  offset="0" style="stop-color:#41AFB7"/>
			<stop  offset="1" style="stop-color:#57CA8D"/>
		</linearGradient>
		<path class="st2" d="M40.4,78.2c-4.8-0.2-8.4,4.2-8.6,8.6c-0.2,4.8,4.1,8.2,8.6,8.5c4.8,0.2,8.3-4,8.5-8.4
			C48.6,82.1,45.2,78.5,40.4,78.2z M40.4,94.4c-4.3,0.2-7.4-3.5-7.6-7.6c-0.2-4.3,3.6-7.6,7.6-7.8c4.3-0.2,7.5,3.7,7.7,7.8
			C47.9,91.2,44.7,94.2,40.4,94.4z"/>
	</g>
</g>
<g>
	<g>
		<linearGradient id="SVGID_4_" gradientUnits="userSpaceOnUse" x1="77.3788" y1="86.6836" x2="98.0603" y2="86.6836">
			<stop  offset="0" style="stop-color:#41AFB7"/>
			<stop  offset="1" style="stop-color:#57CA8D"/>
		</linearGradient>
		<path class="st3" d="M87.9,76.4c-2.9-0.1-5.3,1.3-7.2,3.2c-1.8,1.9-3.3,4.5-3.4,7.2c-0.1,2.9,1.2,5.5,3.1,7.4
			c1.9,1.8,4.7,2.6,7.4,2.8c2.9,0.1,5.4-0.9,7.2-2.8c1.8-1.9,2.8-4.5,2.9-7.3c-0.1-2.9-1.2-5.3-3-7.2C93.2,77.8,90.8,76.5,87.9,76.4
			z M87.9,96.2c-5.3,0.2-9.4-4.4-9.6-9.4c-0.2-5.3,4.6-9.1,9.6-9.3c5.3-0.2,9.1,4.3,9.3,9.3C97,92.1,93.2,96,87.9,96.2z"/>
	</g>
</g>
<g>
	<g>
		<linearGradient id="SVGID_5_" gradientUnits="userSpaceOnUse" x1="79.4803" y1="86.7602" x2="96.4808" y2="86.7602">
			<stop  offset="0" style="stop-color:#41AFB7"/>
			<stop  offset="1" style="stop-color:#57CA8D"/>
		</linearGradient>
		<path class="st4" d="M87.9,78.3c-4.8-0.2-8.2,4.1-8.4,8.5c-0.2,4.8,3.9,8.2,8.4,8.4c4.8,0.2,8.4-3.9,8.6-8.4
			C96.3,82,92.7,78.5,87.9,78.3z M87.9,94.5c-4.3,0.2-7.6-3.7-7.8-7.7c-0.2-4.3,3.8-7.6,7.8-7.8c4.3-0.2,7.4,3.8,7.6,7.8
			C95.3,91.2,92.2,94.3,87.9,94.5z"/>
	</g>
</g>
<g>
	<g>
		<linearGradient id="SVGID_6_" gradientUnits="userSpaceOnUse" x1="31.0352" y1="50.1065" x2="43.227" y2="50.1065">
			<stop  offset="0" style="stop-color:#41AFB7"/>
			<stop  offset="1" style="stop-color:#57CA8D"/>
		</linearGradient>
		<path class="st5" d="M43.2,50.1c-0.4-1.7-0.9-3.4-1.2-5.2c-0.1-0.4-0.5-0.5-0.7-0.3c-2.3,1.8-4.5,3.8-6.8,5.6c-1,0.8-2,1.5-3,2.3
			c-0.6,0.5-0.4,1.8-0.4,2.5c0,0,0.2,0.1,0.2,0.1c0.1,0.3,0.3,0.5,0.6,0.4c0,0,0,0.1,0.1,0.1c3.7-1.6,7.4-3.2,11.1-4.8
			C43.2,50.7,43.3,50.3,43.2,50.1z M40.2,50.8c-2.7,1.2-5.4,2.5-8.1,3.7c0-0.4,0.1-0.9,0-1.3c0-0.1-0.2-0.2-0.2-0.2
			c0,0,0.2,0,0.3-0.2c1.1-0.9,2.4-1.7,3.5-2.6c1.9-1.5,3.7-3.1,5.6-4.6c0.3,1.3,0.5,2.7,0.8,4c0,0.1,0,0.2,0,0.3c0,0,0.1-0.1,0-0.1
			C41.5,50.2,40.9,50.6,40.2,50.8z"/>
	</g>
</g>
<g>
	<g>
		<linearGradient id="SVGID_7_" gradientUnits="userSpaceOnUse" x1="83.0689" y1="52.1289" x2="94.039" y2="52.1289">
			<stop  offset="0" style="stop-color:#41AFB7"/>
			<stop  offset="1" style="stop-color:#57CA8D"/>
		</linearGradient>
		<path class="st6" d="M94,55.6c-0.4-0.8-0.7-2.1-1.3-2.7c-0.5-0.5-1.5-0.9-2.1-1.3c-2.3-1.3-4.6-2.4-6.9-3.6
			c-0.3-0.2-0.6,0-0.6,0.3c0,1.6,0.1,3.1,0.1,4.7c0,0.1-0.1,0.2-0.1,0.2c0,0,0,0,0,0c0,0,0,0.2,0,0.2c0,0,0.1,0.1,0.2,0.1
			c3.4,0.9,6.8,1.8,10.1,2.7C93.9,56.4,94.1,56,94,55.6z M92.1,53.6c0.1,0,0.4,0.9,0.7,1.6c-3-0.8-5.9-1.7-8.9-2.6
			c0-1.2,0-2.5,0-3.7c1.8,1,3.7,2.1,5.5,3.1C90.4,52.6,91.3,53.1,92.1,53.6z"/>
	</g>
</g>
<g>
	<linearGradient id="SVGID_8_" gradientUnits="userSpaceOnUse" x1="42.2933" y1="84.8342" x2="44.5876" y2="84.8342">
		<stop  offset="0" style="stop-color:#41AFB7"/>
		<stop  offset="1" style="stop-color:#57CA8D"/>
	</linearGradient>
	<circle class="st7" cx="43.4" cy="84.8" r="1.1"/>
</g>
<g>
	<linearGradient id="SVGID_9_" gradientUnits="userSpaceOnUse" x1="89.8696" y1="84.5927" x2="92.1638" y2="84.5927">
		<stop  offset="0" style="stop-color:#41AFB7"/>
		<stop  offset="1" style="stop-color:#57CA8D"/>
	</linearGradient>
	<circle class="st8" cx="91" cy="84.6" r="1.1"/>
</g>
<g>
	<g>
		<linearGradient id="SVGID_10_" gradientUnits="userSpaceOnUse" x1="35.757" y1="135.5077" x2="83.9922" y2="135.5077">
			<stop  offset="0" style="stop-color:#41AFB7"/>
			<stop  offset="1" style="stop-color:#57CA8D"/>
		</linearGradient>
		<path class="st9" d="M83.2,123.4c-4.3,0-8.5,0.5-12.8,0.5c-1.1,0-0.4,1.6,0.7,1.6c4,0,7.3-0.1,11.3-0.1c0,2.3,0.2,4.7,0.2,7
			c0,4.1,0.3,8.2-3.6,10.9c-0.3,0.2-0.8,0.5-1.2,0.6c-0.2,0-0.4,0-0.6,0.1c0,0-0.2-0.1-0.2-0.1c-1.8,0.5-3.8,0.2-5.6,0.2
			c-3.4,0-6.8,0.1-10.2,0.1c-3.3,0-6.6,0.1-9.8,0.1c-2.4,0-4.8-0.1-7.1-1.1c-4.4-2-4.2-6.4-4.2-10.4c0-2.5-0.1-5.1-0.1-7.6
			c4.9,0,9.2,0,14.2,0c1.1,0,1.8-1.5,0.7-1.5c-2.6,0-5.2,0-7.8,0c-2.6,0-5.2-0.4-7.8-0.4c0,0-0.1,0.4-0.1,0.4
			c-0.2,0-0.2,0.1-0.4,0.2c-1.8,1.1-3,1-3,3.1c0,3.2,0,6.4,0,9.7c0,3,0.6,5.9,2.3,7.8c1.7,1.9,4.3,3.1,7.5,3.1
			c2.9,0,5.8-0.3,8.7-0.3s5.8,0.1,8.7,0.1c4.9,0,10.9,1.1,15-2c0.8-0.3,1.5-0.7,2.3-1.3c3.3-2.3,3.6-6.1,3.6-9.8
			c0-3.3-0.1-6.6-0.1-9.9C83.8,124,83.7,123.4,83.2,123.4z M37.6,136.7c0-2.8-0.5-5.6-0.5-8.4c0-0.6,0.4-1.2,0.4-1.9
			c0.3-0.2,0.4-0.4,0.7-0.5c0,0,0.3,0,0.4-0.1c0,2.7,0,5.4,0,8.1c0,3.9,0.2,7.2,3.5,9.9c1.1,0.9,2.3,1.4,3.6,1.7
			c-0.9,0-1.9,0.1-2.8-0.1C38.7,144.4,37.6,140.4,37.6,136.7z"/>
	</g>
</g>
<g>
	<linearGradient id="SVGID_11_" gradientUnits="userSpaceOnUse" x1="83.8112" y1="136.3024" x2="93.4167" y2="136.3024">
		<stop  offset="0" style="stop-color:#41AFB7"/>
		<stop  offset="1" style="stop-color:#57CA8D"/>
	</linearGradient>
	<path class="st10" d="M89.9,128.3c0-0.2-0.1-0.1-0.3-0.1c-1.3-0.1-2.6-0.1-3.9-0.1c-0.1,0-0.2-0.2-0.3-0.2c0,0-0.2-0.3-0.2-0.2
		c0,0,0,0,0,0c-0.5,0.3-0.9,0.9-1.4,1.3c-0.2,0.1,0.2,0.2,0.2,0.4c0.7,2.6,0.9,5.2,1.6,7.8c0.7,2.6,1.5,5.1,2.1,7.7
		c0.1,0.5,1,0.3,0.8-0.2c-0.8-2.9-1.3-5.9-2.1-8.8c-0.4-1.7-0.8-3.4-1.3-5.1c-0.1-0.4-0.4-0.7-0.5-1.1c0.1,0,0.1,0.1,0.2,0
		c0.2-0.1,0.5-0.4,0.7-0.6c0.6,2.6,0.9,5.3,1.4,7.9s1.3,5.2,1.8,7.8c0.1,0.5,0.7,0.4,0.5-0.2c-0.7-3.1-1.4-6.1-2-9.2
		c-0.4-1.9-0.6-3.8-1-5.7c-0.1-0.3-0.3-0.7-0.4-1c0.4,0,0.9,0.5,1.3,0.5c0.5,0,1,0,1.6,0c0.2,0,0-0.1,0.1-0.1
		c0.1,0.3,0.7,0.4,0.8,0.6c0.4,1.9,0.2,3.8,0.6,5.7c0.6,3.2,1.1,6.4,1.7,9.6c0.1,0.5,1.4,0.2,1.3-0.3c-0.5-2.7-1-5.4-1.5-8.1
		C91.4,133.6,90.5,131,89.9,128.3z"/>
</g>
<g>
	<g>
		<linearGradient id="SVGID_12_" gradientUnits="userSpaceOnUse" x1="86.4606" y1="154.1128" x2="96.5109" y2="154.1128">
			<stop  offset="0" style="stop-color:#41AFB7"/>
			<stop  offset="1" style="stop-color:#57CA8D"/>
		</linearGradient>
		<path class="st11" d="M87.1,150.4c4.6-2.3,8.9,2.7,6.3,7c-0.1,0.2-0.1,0.4,0.1,0.5c0.5,0.4,1,0.9,1.5,1.3c0.2,0.2,0.4,0.2,0.6,0
			c0.3-0.2,0.6-0.5,0.8-0.8c0.4-0.4-0.2-1-0.6-0.6c-0.2,0.3-0.5,0.6-0.8,0.8c0.2,0,0.4,0,0.6,0c-0.3-0.3-0.7-0.6-1-0.9
			c-0.6-0.5,0-0.2,0.2-1.1c0.5-1.7,0.4-3.2-0.3-4.7c-1.4-2.9-5.1-3.5-7.8-2.2C86.2,149.9,86.6,150.6,87.1,150.4L87.1,150.4z"/>
		<g>
			<linearGradient id="SVGID_13_" gradientUnits="userSpaceOnUse" x1="81.3638" y1="151.6965" x2="98.4863" y2="151.6965">
				<stop  offset="0" style="stop-color:#41AFB7"/>
				<stop  offset="1" style="stop-color:#57CA8D"/>
			</linearGradient>
			<path class="st12" d="M91.3,144.5c-2.6-0.1-4.9,0.8-6.5,2.4c-0.1,0-0.2,0-0.3,0.1c-3.6,3-4.2,8.1-1.4,11.8
				c0.2,0.2,0.6,0.3,0.8,0.1c0.3-0.3,0.5-0.6,0.8-0.8c0,0,0.1,0,0.1,0c0.4-0.4,0.8-0.9,1.2-1.3c0.2-0.1,0.2-0.2,0.2-0.4
				c-1.6-3.5,0.4-7,4.2-7.3c4.1-0.3,5.8,4.6,4,7.6c-0.1,0.2-0.1,0.4,0,0.5c0.5,0.4,1,0.8,1.5,1.3c0,0,0.1,0,0.1,0
				c0.2,0.1,0.4,0.3,0.6,0.1c2-2.4,2.3-5.8,1.4-8.6C97.1,147,94.8,144.7,91.3,144.5z M82.5,152.3c-0.1,1.8,0.2,3.6,1.4,5.3
				c-0.1,0.1,0,0-0.1,0.1C82.6,155.9,82.1,154.1,82.5,152.3z M94.2,149.5c-2.8-2.8-7.3-1.2-9,1.8c-0.4,0.8-0.6,1.6-0.6,2.5
				c0,0.2,0.5,2.6,0.8,2.4c-0.3,0.3-0.5,0.5-0.6,0.7c0,0,0,0.1-0.1,0.2c0,0-0.1,0-0.1,0c-0.2,0.1-0.4-0.2-0.8-1
				c-1.2-2.1-0.7-4.8,0.3-6.8c0.2-0.5,0.6-1,0.9-1.4c0.1-0.1,0.1-0.2,0.2-0.2c0.1-0.1,0.1-0.1,0.1-0.1c2.2-2.2,5.9-2.6,8.7-1.2
				c4.3,2.1,4.8,7.8,2.2,11.3c-0.3-0.3-0.8-0.6-1.1-0.8c0.4,0.3,0.9-2,0.9-2C96.1,152.5,95.6,150.9,94.2,149.5z"/>
		</g>
	</g>
</g>
<g>
	<linearGradient id="SVGID_14_" gradientUnits="userSpaceOnUse" x1="26.2192" y1="136.9556" x2="35.9465" y2="136.9556">
		<stop  offset="0" style="stop-color:#41AFB7"/>
		<stop  offset="1" style="stop-color:#57CA8D"/>
	</linearGradient>
	<path class="st13" d="M35.7,130.3c-1.3-0.4-2.7-0.7-4-1.2c-0.1-0.1-0.2-0.4-0.4-0.3c0,0,0.2,0.3,0.2,0.3c0,0-0.3-0.4-0.3-0.4
		c-0.6,0.4-1.6,1-1.8,1.7c-0.4,1.5-0.4,3.1-0.7,4.6c-0.8,3.2-1.8,6.4-2.5,9.6c-0.1,0.5,0.5,0.7,0.7,0.2c0.6-2.7,1.3-5.3,2-8
		c0.4-1.7,0.6-3.5,1-5.2c0.2-0.9,0.8-1,1.2-1.3c-1.2,4.7-2.7,9.4-4,14.1c-0.1,0.5,0.6,0.7,0.7,0.2c0.7-2.7,1.8-5.4,2.6-8.1
		c0.5-1.8,0.7-3.6,1.2-5.4c0.1-0.5,0.1-1,0.2-1.5c0.2,0.1,0.5,0.3,0.7,0.3c0.8,0.3,1.7,0.2,2.5,0.5c0.1,0-0.1,0.7,0,0.7
		c0,0,0.1-0.3,0.1-0.3c-0.5,1.6-1.1,3.1-1.6,4.7c-0.9,3-1.8,6-2.7,8.9c-0.2,0.5,0.6,0.7,0.8,0.2c1.4-4.7,2.9-9.4,4.4-14.1
		C36,130.5,36,130.4,35.7,130.3z"/>
</g>
<g>
	<g>
		<linearGradient id="SVGID_15_" gradientUnits="userSpaceOnUse" x1="24.9577" y1="154.2738" x2="35.0079" y2="154.2738">
			<stop  offset="0" style="stop-color:#41AFB7"/>
			<stop  offset="1" style="stop-color:#57CA8D"/>
		</linearGradient>
		<path class="st14" d="M25.6,150.5c4.6-2.3,8.9,2.7,6.3,7c-0.1,0.2-0.1,0.4,0.1,0.5c0.5,0.4,1,0.9,1.5,1.3c0.2,0.2,0.4,0.2,0.6,0
			c0.3-0.2,0.6-0.5,0.8-0.8c0.4-0.4-0.2-1-0.6-0.6c-0.2,0.3-0.5,0.6-0.8,0.8c0.2,0,0.4,0,0.6,0c-0.3-0.3-0.7-0.6-1-0.9
			c-0.6-0.5,0-0.2,0.2-1.1c0.5-1.7,0.4-3.2-0.3-4.7c-1.4-2.9-5.1-3.5-7.8-2.2C24.7,150,25.1,150.8,25.6,150.5L25.6,150.5z"/>
		<g>
			<linearGradient id="SVGID_16_" gradientUnits="userSpaceOnUse" x1="20.0537" y1="151.811" x2="37.0045" y2="151.811">
				<stop  offset="0" style="stop-color:#41AFB7"/>
				<stop  offset="1" style="stop-color:#57CA8D"/>
			</linearGradient>
			<path class="st15" d="M29.8,144.6c-2.6-0.1-5,0.9-6.5,2.4c-0.1,0-0.1,0.2-0.2,0.2c-3.6,3-4.1,7.8-1.3,11.5
				c0.2,0.2,0.4,0.5,0.6,0.3c0.3-0.3,0.6-0.5,0.9-0.7c0,0-0.2-0.3-0.2-0.3c0.4-0.4,1-0.6,1.5-1c0.2-0.1-0.1-0.3-0.2-0.5
				c-1.6-3.5,0.5-7.2,4.3-7.5c4.1-0.3,5.9,4.8,4.1,7.8c-0.1,0.2-0.2,0.3-0.1,0.4c0.5,0.4,0.9,0.9,1.4,1.4c0,0,0.2-0.1,0.2-0.1
				c0.2,0.1,0.4,0.2,0.6,0c2-2.4,2.4-5.8,1.5-8.6C35.6,147.1,33.4,144.8,29.8,144.6z M21,152.5c-0.1,1.8,0.2,3.6,1.3,5.3
				c-0.1,0.1-0.1,0.1-0.2,0.2C20.9,156.2,20.7,154.3,21,152.5z M32.7,149.6c-2.8-2.8-7.4-1.2-9.1,1.9c-0.4,0.8-0.3,1.7-0.4,2.5
				c0,0.2,0.5,2.8,0.7,2.6c-0.3,0.3-0.7,0.3-0.8,0.4c0,0-0.1,0-0.2,0c0,0,0.1,0.3,0.1,0.3c-0.2,0.1-0.2-0.5-0.6-1.2
				c-1.2-2.1-1.1-4.7-0.1-6.8c0.2-0.5,0.6-1,1-1.4c0.1-0.1,0.1-0.2,0.2-0.3c0.1-0.1,0.2,0,0.2,0c2.2-2.2,5.8-2.5,8.6-1.1
				c4.3,2.1,4.8,7.6,2.2,11.1c-0.3-0.3-0.7-0.5-1.1-0.8c0.4,0.3,0.9-2,0.9-2C34.6,152.7,34.2,151,32.7,149.6z"/>
		</g>
	</g>
</g>
<g>
	<g>
		<linearGradient id="SVGID_17_" gradientUnits="userSpaceOnUse" x1="53.1381" y1="130.0335" x2="72.3889" y2="130.0335">
			<stop  offset="0" style="stop-color:#41AFB7"/>
			<stop  offset="1" style="stop-color:#57CA8D"/>
		</linearGradient>
		<path class="st16" d="M62.7,120.5c-5.4-0.2-9.3,4.4-9.5,9.5c-0.2,5.4,4.5,9.3,9.6,9.5c5.4,0.2,9.5-4.4,9.7-9.5
			C72.2,124.6,68.1,120.8,62.7,120.5z M62.7,139c-5,0.2-8.8-4.4-9-9c-0.2-5,4.3-8.8,9-9c5-0.2,8.6,4.3,8.8,9
			C71.3,135,67.7,138.8,62.7,139z"/>
	</g>
</g>
<g>
	<g>
		<linearGradient id="SVGID_18_" gradientUnits="userSpaceOnUse" x1="55.2645" y1="130.1899" x2="70.0932" y2="130.1899">
			<stop  offset="0" style="stop-color:#41AFB7"/>
			<stop  offset="1" style="stop-color:#57CA8D"/>
		</linearGradient>
		<path class="st17" d="M55.3,130c-0.2,4.2,3.6,7.4,7.4,7.6c4.2,0.2,7.2-3.7,7.4-7.6c-0.3-4.8-3.8-7.2-7.4-7.2
			C59.1,122.8,55.5,125.3,55.3,130z M56.2,130c-0.2-3.7,3.1-6.2,6.5-6.4c3.7-0.2,6.3,3,6.5,6.4c-0.2,4.2-3.4,6.2-6.5,6.2
			C59.5,136.2,56.4,134.2,56.2,130z"/>
	</g>
</g>
<g>
	<linearGradient id="SVGID_19_" gradientUnits="userSpaceOnUse" x1="51.9057" y1="132.2278" x2="66.8251" y2="132.2278">
		<stop  offset="0" style="stop-color:#41AFB7"/>
		<stop  offset="1" style="stop-color:#57CA8D"/>
	</linearGradient>
	<path class="st18" d="M66.2,138.5c-4.5,2.5-9.1,1-11.6-2.1c-2.5-3.1-2.8-7.9,0.7-11.7c0.4-0.4-0.4-1.2-0.8-0.8
		c-2.5,2.7-3.1,5.9-2.5,8.7c0.6,3.1,2.7,5.8,5.5,7.2c2.6,1.2,5.8,1.2,9-0.6c0.5-0.3,0-1.1-0.5-0.9C66.1,138.4,66.2,138.5,66.2,138.5
		z"/>
</g>
<g>
	<g>
		<linearGradient id="SVGID_20_" gradientUnits="userSpaceOnUse" x1="57.6171" y1="130.029" x2="67.6263" y2="130.029">
			<stop  offset="0" style="stop-color:#41AFB7"/>
			<stop  offset="1" style="stop-color:#57CA8D"/>
		</linearGradient>
		<path class="st19" d="M67.2,129.5c-1.2,0-2.3,0.1-3.5,0.1c-0.2,0-0.4,0-0.5,0.2c0,0.2,0,0.4-0.1,0.5c-0.1,0.3,0.1,0.6,0.4,0.6
			c0.5,0,0.7,0.1,0.6,0.6c-0.4,1.6-2.2,2.4-3.7,1.2c-1.4-1.1-0.6-3.4,0.1-4.7c1.2-2.1,4.1-2,4.8,0.4c0.1,0.2,0.3,0.4,0.5,0.4
			c0.2,0,0.4-0.2,0.6-0.2c0.2,0,0.5-0.1,0.5-0.3c0-0.9,0-1.8-0.1-2.7c0-0.1,0-0.2-0.1-0.3c-0.1-0.1-0.2-0.2-0.4-0.2
			c-0.6,0-0.8,0.2-1,0.6c-3.2-1.9-7.5,0.9-7.7,4.6c-0.2,3.7,3.4,5.9,6.5,4.1c0,0.1,0,0.1,0,0.1c0,0.2,0.3,0.2,0.4,0.2
			c0.2,0,0.4,0,0.6,0c0.2,0,0.5,0,0.5-0.2c0.2-0.8,0.3-3.6,1.4-3.6c0.2,0,0.4-0.1,0.4-0.3c0-0.2,0-0.4,0.1-0.5
			C67.7,129.8,67.5,129.5,67.2,129.5z M65.9,126.4c0,0,0.2-0.1,0.2-0.1c0,0.4-0.1,0.7-0.1,1.1c-0.1-0.3-0.3-0.5-0.5-0.8
			C65.6,126.7,65.8,126.6,65.9,126.4z M58.4,130.8c-0.1-1.7,1.1-3.2,2.5-4.1c-1.6,1.4-2.7,4.2-1.6,6c0.2,0.4,0.5,0.7,0.9,1
			C59.2,133.1,58.4,132.2,58.4,130.8z M64.8,134c0,0-0.1,0.1-0.1,0.1C64.7,134,64.8,133.9,64.8,134C64.8,134,64.8,133.9,64.8,134z
			 M65.4,131.5c-0.2,0.7-0.2,1.4-0.4,2.1c0,0-0.1-0.1-0.1-0.2c0-0.1-0.2-0.2-0.3-0.3c0,0,0.2,0,0.2-0.1c0.5-1.1,0.7-2.2,0.1-2.7
			c0,0,0.1,0.1,0.1,0.1c0.3,0,0.6-0.1,0.9-0.1C65.5,130.7,65.5,131.1,65.4,131.5z"/>
	</g>
</g>
<linearGradient id="SVGID_21_" gradientUnits="userSpaceOnUse" x1="49.7056" y1="208.3241" x2="64.5683" y2="208.3241" gradientTransform="matrix(0.9779 0.2093 -0.2093 0.9779 42.627 -112.6319)">
	<stop  offset="0" style="stop-color:#41AFB7"/>
	<stop  offset="1" style="stop-color:#57CA8D"/>
</linearGradient>
<path class="st20" d="M48.3,98.5c-0.9,7.2,4.4,7.7,9.3,8.5c1.1,0.2,5.7-0.7,3.8-1c-4.4-0.7-10.3,0.6-11.9-6.1
	C49.2,99,48.4,97.4,48.3,98.5L48.3,98.5z"/>
<g>
	<linearGradient id="SVGID_22_" gradientUnits="userSpaceOnUse" x1="105.962" y1="17.467" x2="142.8845" y2="17.467">
		<stop  offset="0" style="stop-color:#41AFB7"/>
		<stop  offset="1" style="stop-color:#57CA8D"/>
	</linearGradient>
	<path class="st21" d="M142.8,13.8c-2.2-8.8-14.5-9.2-21.6-7.5c-6.4,1.5-16.7,6.7-15.1,14.8c1.7,8.9,14.8,9.1,21.6,7.5
		C134.4,27,144,22.1,142.8,13.8z M125.6,28.5c-6,0.9-16.4-0.3-17.8-7.8c-1.6-8,8.8-13,15-14.1c6.4-1.2,16.5,0.1,18.5,7.7
		C142.4,22.6,132.3,27.5,125.6,28.5z"/>
	<linearGradient id="SVGID_23_" gradientUnits="userSpaceOnUse" x1="99.9612" y1="34.7606" x2="112.8265" y2="34.7606">
		<stop  offset="0" style="stop-color:#41AFB7"/>
		<stop  offset="1" style="stop-color:#57CA8D"/>
	</linearGradient>
	<path class="st22" d="M112.8,34.6c-0.5-6.1-12.9-5.9-12.9,0.2C100,41,112.3,40.7,112.8,34.6C112.8,34.7,112.8,34.7,112.8,34.6
		C112.8,34.6,112.8,34.6,112.8,34.6z M101.1,34.7c0-5.3,10.1-4.9,10.7,0.2C111.3,40,101,39.9,101.1,34.7z"/>
	<linearGradient id="SVGID_24_" gradientUnits="userSpaceOnUse" x1="92.6809" y1="43.4917" x2="102.4819" y2="43.4917">
		<stop  offset="0" style="stop-color:#41AFB7"/>
		<stop  offset="1" style="stop-color:#57CA8D"/>
	</linearGradient>
	<path class="st23" d="M92.8,42.3c-1.1,4.2,8.2,6.4,9.7,2.4C103.1,40.5,93.9,38.2,92.8,42.3z M101.9,44.8c-1.3,3.4-9.5,1.3-8.6-2.5
		C94.2,38.6,102.5,41,101.9,44.8z"/>
	<linearGradient id="SVGID_25_" gradientUnits="userSpaceOnUse" x1="117.9637" y1="16.2105" x2="130.0527" y2="16.2105">
		<stop  offset="0" style="stop-color:#41AFB7"/>
		<stop  offset="1" style="stop-color:#57CA8D"/>
	</linearGradient>
	<path class="st24" d="M127,11.6l-4.1-1.5l-2.2,6.1l-1.7-0.6l-0.3,0.8l1.7,0.6l-0.4,1.2l-1.7-0.6l-0.3,0.8l1.7,0.6l-1,2.7l1,0.4
		l1-2.7l3.1,1.1l0.3-0.8l-3.1-1.1l0.4-1.2l3.1,1.1c1.3,0.5,2.4,0.5,3.3,0.1c0.9-0.4,1.6-1.1,2-2.2c0.4-1.1,0.3-2.1-0.2-2.9
		C129.1,12.7,128.2,12.1,127,11.6z M128.8,16.2c-0.3,0.8-0.8,1.4-1.5,1.7c-0.7,0.3-1.5,0.2-2.5-0.1l-3.1-1.1l1.9-5.3l3.2,1.1
		c0.9,0.3,1.5,0.8,1.9,1.5C129,14.7,129.1,15.4,128.8,16.2z"/>
</g>
</svg>
