<?xml version="1.0" encoding="utf-8"?>
<!-- Generator: Adobe Illustrator 21.1.0, SVG Export Plug-In . SVG Version: 6.00 Build 0)  -->
<svg version="1.1" id="Layer_1" xmlns="http://www.w3.org/2000/svg" xmlns:xlink="http://www.w3.org/1999/xlink" x="0px" y="0px"
	 viewBox="0 0 320 104" style="enable-background:new 0 0 320 104;" xml:space="preserve">
<style type="text/css">
	.st0{fill:#97DCFF;}
	.st1{fill:#686868;}
	.st2{fill:#FFA6A6;}
</style>
<g>
	<g>
		<g>
			<g>
				<path class="st0" d="M50.5,102.5V86.1H1.4V62.4l37.2-62h42.8v58.7h11.8v26.9H81.4v16.4H50.5z M50.5,27.1L31.3,59.2h19.3V27.1z"
					/>
			</g>
		</g>
		<g>
			<path class="st1" d="M56.5,21.1c-2.1,0-4,1.1-5.1,2.9L32.1,56.1C31,58,31,60.3,32,62.2c1.1,1.9,3.1,3,5.2,3h19.3c3.3,0,6-2.7,6-6
				V27.1c0-2.7-1.8-5.1-4.4-5.8C57.6,21.2,57.1,21.1,56.5,21.1z M56.5,59.2H37.3l19.3-32.1V59.2z"/>
			<path class="st1" d="M87.4,59.2V44h-6v15.2c0,3.3,2.7,6,6,6h5.8v14.9h-5.8c-3.3,0-6,2.7-6,6v10.4H62.5V86.1c0-3.3-2.7-6-6-6H13.4
				v-16L48,6.5h33.4V37h6V0.5H44.6l-37.2,62v23.7h49.1v16.4h30.9V86.1h11.8V59.2H87.4z"/>
		</g>
	</g>
	<g>
		<g>
			<g>
				<path class="st0" d="M270.5,102.5V86.1h-49.1V62.4l37.2-62h42.8v58.7h11.8v26.9h-11.8v16.4H270.5z M270.5,27.1l-19.3,32.1h19.3
					V27.1z"/>
			</g>
		</g>
		<g>
			<path class="st1" d="M276.5,21.1c-2.1,0-4,1.1-5.1,2.9l-19.3,32.1c-1.1,1.9-1.1,4.2-0.1,6c1.1,1.9,3.1,3,5.2,3h19.3
				c3.3,0,6-2.7,6-6V27.1c0-2.7-1.8-5.1-4.4-5.8C277.6,21.2,277.1,21.1,276.5,21.1z M276.5,59.2h-19.3l19.3-32.1V59.2z"/>
			<path class="st1" d="M307.4,59.2V44h-6v15.2c0,3.3,2.7,6,6,6h5.8v14.9h-5.8c-3.3,0-6,2.7-6,6v10.4h-18.9V86.1c0-3.3-2.7-6-6-6
				h-43.1v-16L268,6.5h33.4V37h6V0.5h-42.8l-37.2,62v23.7h49.1v16.4h30.9V86.1h11.8V59.2H307.4z"/>
		</g>
	</g>
	<path class="st2" d="M203.9,78.3c4.5-7.7,7.1-16.7,7.1-26.3c0-9.6-2.6-18.6-7.1-26.3l4.1-4.1c2.9-2.9-0.3-8-5.4-13.2
		c-5.1-5.1-10.3-8.3-13.2-5.4l-4.1,4.1C177.6,2.6,168.6,0,159,0s-18.6,2.6-26.3,7.1l-4.1-4.1c-2.9-2.9-8,0.3-13.2,5.4
		c-5.1,5.1-8.3,10.3-5.4,13.2l4.1,4.1c-4.5,7.7-7.1,16.7-7.1,26.3c0,9.6,2.6,18.6,7.1,26.3l-4.1,4.1c-2.9,2.9,0.3,8,5.4,13.2
		c5.1,5.1,10.3,8.3,13.2,5.4l4.1-4.1c7.7,4.5,16.7,7.1,26.3,7.1s18.6-2.6,26.3-7.1l4.1,4.1c2.9,2.9,8-0.3,13.2-5.4
		c5.1-5.1,8.3-10.3,5.4-13.2L203.9,78.3z M159,76c-13.3,0-24-10.7-24-24s10.7-24,24-24s24,10.7,24,24S172.3,76,159,76z"/>
	<g>
		<g>
			<path class="st1" d="M137.7,7.1C145.4,2.6,154.4,0,164,0s18.6,2.6,26.3,7.1l4.1-4.1c2.9-2.9,8,0.3,13.2,5.4
				c5.1,5.1,8.3,10.3,5.4,13.2l-4.1,4.1c4.5,7.7,7.1,16.7,7.1,26.3s-2.6,18.6-7.1,26.3l4.1,4.1c2.9,2.9-0.3,8-5.4,13.2
				c-5.1,5.1-10.3,8.3-13.2,5.4l-4.1-4.1c-7.7,4.5-16.7,7.1-26.3,7.1s-18.6-2.6-26.3-7.1l-4.1,4.1c-2.9,2.9-8-0.3-13.2-5.4
				c-5.1-5.1-8.3-10.3-5.4-13.2l4.1-4.1c-4.5-7.7-7.1-16.7-7.1-26.3s2.6-18.6,7.1-26.3l-4.1-4.1c-2.9-2.9,0.3-8,5.4-13.2
				s10.3-8.3,13.2-5.4L137.7,7.1z M149.2,33.5c-0.6,0.5-1.2,1.1-1.9,1.8c-0.7,0.7-1.3,1.3-1.8,1.9c-3.2,4-5.2,9.2-5.2,14.8
				s1.9,10.7,5.2,14.8c0.5,0.6,1.1,1.2,1.8,1.9c0.7,0.7,1.3,1.3,1.9,1.8c4,3.2,9.2,5.2,14.8,5.2s10.7-1.9,14.8-5.2
				c0.6-0.5,1.2-1.1,1.9-1.8c0.7-0.7,1.3-1.3,1.8-1.9c3.2-4,5.2-9.2,5.2-14.8s-1.9-10.7-5.2-14.8c-0.5-0.6-1.1-1.2-1.8-1.9
				c-0.7-0.7-1.3-1.3-1.9-1.8c-4-3.2-9.2-5.2-14.8-5.2S153.3,30.3,149.2,33.5z M123.4,30c-3.5,6.5-5.6,14-5.6,22s2,15.4,5.6,22
				l11.4-11.4c0.4-0.4,0.8-0.7,1.2-0.9c-1-3-1.6-6.3-1.6-9.6c0-3.4,0.6-6.6,1.6-9.6c-0.4-0.2-0.8-0.5-1.2-0.9L123.4,30z M142,11.4
				l11.4,11.4c0.4,0.4,0.7,0.8,0.9,1.2c3-1,6.3-1.6,9.6-1.6c3.4,0,6.6,0.6,9.6,1.6c0.2-0.4,0.5-0.8,0.9-1.2L186,11.4
				c-6.5-3.5-14-5.6-22-5.6S148.6,7.9,142,11.4z M186,92.6l-11.4-11.4c-0.4-0.4-0.7-0.8-0.9-1.2c-3,1-6.3,1.6-9.6,1.6
				c-3.4,0-6.6-0.6-9.6-1.6c-0.2,0.4-0.5,0.8-0.9,1.2L142,92.6c6.5,3.5,14,5.6,22,5.6S179.4,96.1,186,92.6z M204.6,74
				c3.5-6.5,5.6-14,5.6-22s-2-15.4-5.6-22l-11.4,11.4c-0.4,0.4-0.8,0.7-1.2,0.9c1,3,1.6,6.3,1.6,9.6c0,3.4-0.6,6.6-1.6,9.6
				c0.4,0.2,0.8,0.5,1.2,0.9L204.6,74z M207.9,18.4c-0.1-0.2-0.3-0.5-0.5-0.8c-0.9-1.5-2.4-3.3-4-4.9c-1.6-1.6-3.4-3.1-4.9-4
				c-0.3-0.2-0.6-0.4-0.8-0.5l-18.4,18.4c1.5,0.9,3.5,2.4,5.7,4.6c2.2,2.2,3.7,4.2,4.6,5.7L207.9,18.4z M120.1,85.6
				c0.1,0.2,0.3,0.5,0.5,0.9c0.9,1.5,2.4,3.3,4,4.9c1.6,1.6,3.4,3.1,4.9,4c0.3,0.2,0.6,0.4,0.8,0.5l18.4-18.4
				c-1.5-0.9-3.5-2.4-5.7-4.6s-3.7-4.2-4.6-5.7L120.1,85.6z M197.6,95.9c0.2-0.1,0.5-0.3,0.8-0.5c1.5-0.9,3.3-2.4,4.9-4
				c1.6-1.6,3.1-3.4,4-4.9c0.2-0.3,0.4-0.6,0.5-0.8l-18.4-18.4c-0.9,1.5-2.4,3.5-4.6,5.7s-4.2,3.7-5.7,4.6L197.6,95.9z M130.4,8.1
				c-0.2,0.1-0.5,0.3-0.8,0.5c-1.5,0.9-3.3,2.4-4.9,4c-1.6,1.6-3.1,3.4-4,4.9c-0.2,0.3-0.4,0.6-0.5,0.8l18.4,18.4
				c0.9-1.5,2.4-3.5,4.6-5.7c2.2-2.2,4.2-3.7,5.7-4.6L130.4,8.1z"/>
		</g>
	</g>
</g>
</svg>
