<svg id="Слой_1" data-name="Слой 1" xmlns="http://www.w3.org/2000/svg" xmlns:xlink="http://www.w3.org/1999/xlink" viewBox="0 0 35 41.01"><defs><style>.cls-1{fill:url(#Безымянный_градиент_7);}</style><linearGradient id="Безымянный_градиент_7" x1="521.5" y1="372" x2="556.5" y2="372" gradientUnits="userSpaceOnUse"><stop offset="0" stop-color="#639eca"/><stop offset="1" stop-color="#84c78f"/></linearGradient></defs><title>address</title><path class="cls-1" d="M556.46,391.44s-.38-1.08-.87-2.38a38.59,38.59,0,0,0-1.57-3.73l-.05-.07a.66.66,0,0,0,0-.08s-1.46-1.74-3.4-4.08-4.14-5-6-7.39a11.77,11.77,0,0,0,2.64-7v-.15a8.5,8.5,0,0,0-3.19-6.77,7.43,7.43,0,0,0-4.46-1.48,7.19,7.19,0,0,0-1.59.18,54.32,54.32,0,0,0-4.13-5.69.79.79,0,0,0-.21-.16c-.06-.09-.1-.18-.16-.27l-.33-.27a7.64,7.64,0,0,0-3.14-.65,9.25,9.25,0,0,0-6.2,2.42,6.2,6.2,0,0,0-2.26,4.42,3.83,3.83,0,0,0,.25,1.3.79.79,0,0,0,.12.72c1.6,2.09,3,4.35,4.6,6.53a6.8,6.8,0,0,0-1.32,4.13,7.46,7.46,0,0,0,2.43,5.62,9.61,9.61,0,0,0,6.33,2.16,12.87,12.87,0,0,0,2.39-.23,14.4,14.4,0,0,0,3.49-1.18l10,11.9.23.19,5.32,2.92a.79.79,0,0,0,.9-.09A.8.8,0,0,0,556.46,391.44Zm-33.36-33.1a4.64,4.64,0,0,1,1.75-3.25,7.68,7.68,0,0,1,5.12-2,6.11,6.11,0,0,1,2.29.44,3.44,3.44,0,0,1,.54,1.8,4.53,4.53,0,0,1-2.22,3.63,8.83,8.83,0,0,1-4.72,1.58,3.53,3.53,0,0,1-1.82-.41A2,2,0,0,1,523.09,358.34Zm3.32,5.71-.51-.74.67,0a11.42,11.42,0,0,0,2.53-.28.4.4,0,0,0-.18-.78,10.67,10.67,0,0,1-2.36.26q-.46,0-.92,0a.38.38,0,0,0-.25.08l-.33-.48a6.93,6.93,0,0,0,.77,0,10.39,10.39,0,0,0,5.61-1.85,6.32,6.32,0,0,0,2.87-4.21c1.8,2.45,3.06,4.66,4.95,7.29a5.41,5.41,0,0,1,.37,1.9,5.66,5.66,0,0,1-1.66,4.05,5.67,5.67,0,0,1-5.18,1.33,8.74,8.74,0,0,0,1.23-.27.4.4,0,0,0-.23-.77,8,8,0,0,1-2.3.34l-.35,0-.44-.44a11.41,11.41,0,0,0,1.84-.25l.28-.24.05-.13a.4.4,0,0,0-.22-.52.38.38,0,0,0-.44.14,10.67,10.67,0,0,1-2.12.24s-.05,0-.09,0q-.36-.41-.71-.83c.88-.05,1.77-.1,2.65-.2a.4.4,0,0,0-.09-.79c-1,.12-2.1.19-3.16.24-.25-.32-.51-.65-.75-1,.23,0,.47,0,.7,0a10.3,10.3,0,0,0,2.24-.25.4.4,0,0,0-.17-.78,9.52,9.52,0,0,1-2.07.23,9.67,9.67,0,0,1-1-.05.38.38,0,0,0-.25.07l-.48-.67a14.69,14.69,0,0,0,2.67-.46.4.4,0,0,0-.21-.77A13.92,13.92,0,0,1,526.42,364.05Zm2,6c-.42-.17-.85-.34-1.26-.52a.39.39,0,0,0-.25,0c0-.06,0-.13,0-.19Zm-1.17-1.47c.06-.13.14-.24.21-.36l.62.77Zm5.56,8.32a.37.37,0,0,0-.34.19,8.29,8.29,0,0,1-2-.56l3,.45ZM536,377l-.41.06a.37.37,0,0,0,.09-.15.4.4,0,0,0-.33-.45l-4.85-.73a1.28,1.28,0,0,1-.64-.2.4.4,0,0,0-.56,0,.39.39,0,0,0-.09.26,6.65,6.65,0,0,1-.59-.41,5.88,5.88,0,0,1-1.87-4.41,6,6,0,0,1,.06-.81s0,.05.06.07a45.17,45.17,0,0,0,4.47,1.71.38.38,0,0,0,.28.18h.09a.39.39,0,0,0,.27-.09,7.21,7.21,0,0,0,7.11-1.59,7.26,7.26,0,0,0,2.15-5.21,7,7,0,0,0-.74-3.15.78.78,0,0,0-.43-.38q-.61-.88-1.16-1.72a5.64,5.64,0,0,1,.61-.07,5.86,5.86,0,0,1,3.5,1.16,6.92,6.92,0,0,1,2.55,5.49v.12a10.22,10.22,0,0,1-2.35,6.07A12.85,12.85,0,0,1,536,377Zm14.9,11.15-9.69-11.54a13.7,13.7,0,0,0,2.22-1.7c3.59,4.53,8.62,10.53,9.22,11.24.41.79,1,2.24,1.46,3.48l.13.36Zm-17.81-15a.4.4,0,0,0-.37-.42,14.81,14.81,0,0,1-5.32-1.36.4.4,0,0,0-.34.72,15.6,15.6,0,0,0,5.61,1.44A.4.4,0,0,0,533.09,373.12Zm.13,1.35a19.08,19.08,0,0,1-5.17-1,.4.4,0,0,0-.26.75,19.89,19.89,0,0,0,5.39,1.09.4.4,0,0,0,0-.8Z" transform="translate(-521.5 -351.5)"/></svg>