<svg xmlns="http://www.w3.org/2000/svg" xmlns:xlink="http://www.w3.org/1999/xlink" width="104" height="104" viewBox="0 0 52 52"><defs><path id="a" d="M1460.54 131.76l-2.57-2.57-5.87 5.87-5.6-5.6-2.42 2.4 5.6 5.61-6.35 6.36 2.57 2.57 6.35-6.36 5.6 5.61 2.42-2.42-5.6-5.6z"/><path id="b" d="M1440 150v-24h24v24zm20.54-18.24l-2.57-2.57-5.87 5.87-5.6-5.6-2.42 2.4 5.6 5.61-6.35 6.36 2.57 2.57 6.35-6.36 5.6 5.61 2.42-2.42-5.6-5.6z"/><mask id="d" width="2" height="2" x="-1" y="-1"><path fill="#fff" d="M1442 128h20v20h-20z"/><use xlink:href="#a"/></mask><filter id="c" width="72" height="80" x="1416" y="118" filterUnits="userSpaceOnUse"><feOffset dy="8" in="SourceGraphic" result="FeOffset1088Out"/><feGaussianBlur in="FeOffset1088Out" result="FeGaussianBlur1089Out" stdDeviation="6.4 6.4"/></filter><clipPath id="e"><use fill="#fff" xlink:href="#b"/></clipPath></defs><g transform="translate(-1426 -120)"><g filter="url(#c)"><use fill="none" stroke-opacity=".75" stroke-width="0" mask="url(&quot;#d&quot;)" xlink:href="#a"/><use fill="#16171a" fill-opacity=".75" xlink:href="#a"/></g><use fill="#e09c7e" xlink:href="#a"/><use fill="#fff" fill-opacity="0" stroke="#fff" stroke-linecap="round" stroke-linejoin="round" stroke-miterlimit="50" stroke-width="4" clip-path="url(&quot;#e&quot;)" xlink:href="#a"/></g></svg>