<svg id="Слой_1" data-name="Слой 1" xmlns="http://www.w3.org/2000/svg" viewBox="0 0 62.11 93.96"><defs><style>.cls-1{fill:#f27d49;}.cls-2{fill:#e3894d;}.cls-3{fill:#f5824e;}.cls-4{fill:#f2804e;}.cls-5{fill:#fd763b;}</style></defs><title>trash can</title><path class="cls-1" d="M130,188.07h17.8A54.54,54.54,0,0,1,130,188.07Z" transform="translate(-110.5 -94.85)"/><path class="cls-1" d="M172.61,162.07c-.79-13.67,0-27.36-.34-41-.12-5.18-1.11-6.44-6.3-7.39a22.78,22.78,0,0,0-3.35-.32c-15.22-.51-30.38.5-45.54,1.59-4.15.3-5.32,1.78-5.47,6.31,0,1.61,0,3.24-.1,4.84-1.12,15.16-1.53,30.33,0,45.49.5,5,1.3,10,6.21,12.88,3.77,2.19,7.76,3.9,12.3,3.61a115.1,115.1,0,0,0,17.8,0l4.17-.23a7.34,7.34,0,0,0,4.86-1.25h0c4.73-.38,8.24-3,11.48-6.18a5.75,5.75,0,0,0,2.48-3.46c.79-2.44.94-5,1.55-7.47C172.69,167,172.44,164.54,172.61,162.07Zm-3.47-25.21a252.8,252.8,0,0,0-.56,28.08c.33,13.26-4.72,17-15.08,20.11a29.86,29.86,0,0,0-7.79,1.28l-13,.09c-2-.65-4.28-.16-6.2-1.29-7.84-1.68-10.62-7.49-11.9-14.54-3-16.55-1.37-33.09-.05-49.64.16-2,1.33-2,2.77-2.14,15.57-1.43,31.18-1.37,46.79-1.34,2.76,0,3.92,1.61,4.48,4.1A50,50,0,0,1,169.14,136.86Z" transform="translate(-110.5 -94.85)"/><path class="cls-1" d="M126.5,185.13a15.89,15.89,0,0,1,6.2,1.29C130.64,186,128.09,187.85,126.5,185.13Z" transform="translate(-110.5 -94.85)"/><path class="cls-2" d="M169.61,106.86c-2.34-3.81-5.92-6.28-9.44-8.83-.71-.21-1.45-.36-2.13-.63-9.4-3.76-18.72-3.18-28,.5h0C125,99,120.58,101.72,116,104c-4.54,1.82-5.6,3.26-4.51,6.17,1.5,0,3-.13,4.49-.07,17.21.68,34.43,1,51.65.58,1.07,0,2.42.43,3-.83S170.18,107.79,169.61,106.86Zm-3,.46c-.4,1.15-1.5,1.16-2.5,1.17-1.37,0-2.74,0-4.11,0l-37-.1h0c-1.75-.91-3.67-.42-5.5-.66-.61-.08-1.7.44-1.62-.77,0-.48.77-.91,1.18-1.36,5.2-1.32,9.69-4.31,14.64-6.23,9.36-2,18.66-3,27.71,1.45a23,23,0,0,1,6,4.36C166,105.79,167,106.29,166.62,107.32Z" transform="translate(-110.5 -94.85)"/><path class="cls-3" d="M127.83,153.09c.27,8.32,0,16.7,1.13,25,.15,1,.71,2.45-1.12,2.51s-1.29-1.47-1.41-2.48c-1.75-14.14-1.64-28.34-1.38-42.55,0-1.14-.79-3.18,1.53-3,1.88.13,1.21,1.89,1.22,3C127.87,141.38,127.83,147.23,127.83,153.09Z" transform="translate(-110.5 -94.85)"/><path class="cls-4" d="M141.63,146.4c-1,9.28,1.34,17.07,1.73,25,.12,2.49.19,5,.23,7.46,0,1-.35,1.77-1.51,1.64-1-.11-.89-.92-1-1.7-1-12.51-2.89-25-1.84-37.57a10.18,10.18,0,0,0-1.11-5.8c-.4-.72-.57-1.5.2-2,1.06-.67,1.51.32,2,1a6.29,6.29,0,0,1,1.2,4.22C141.63,141.66,141.63,144.65,141.63,146.4Z" transform="translate(-110.5 -94.85)"/><path class="cls-5" d="M156.61,153c0,6.36,0,12.72,0,19.07,0,1,.81,2.92-1.17,2.87-1.39,0-1.17-1.68-1.18-2.76q0-19.63,0-39.26c0-1-.3-2.6,1.35-2.53,1.39.06,1,1.53,1,2.42,0,6.73,0,13.46,0,20.19Z" transform="translate(-110.5 -94.85)"/></svg>