<svg id="Слой_1" data-name="Слой 1" xmlns="http://www.w3.org/2000/svg" xmlns:xlink="http://www.w3.org/1999/xlink" viewBox="0 0 35.26 44.98"><defs><style>.cls-1{fill:url(#Безымянный_градиент_24);}</style><linearGradient id="Безымянный_градиент_24" x1="523.8" y1="365.98" x2="558.58" y2="365.98" gradientUnits="userSpaceOnUse"><stop offset="0" stop-color="#35a0cd"/><stop offset="1" stop-color="#57c98e"/></linearGradient></defs><title>doc</title><path class="cls-1" d="M540.5,358.5c12.41,2,13.69-.59,11-1s-13.72-.84-18-1-4,1-4,1C529.69,359.22,539,358.31,540.5,358.5Zm11,7.17c-2.67-.37-13.7-.65-18-.75S529.5,366,529.5,366c.11,1.71,9.51.68,11,.85C552.81,368.61,554.21,366,551.54,365.67Zm.46,7.7c-1.49-.18-9.58-.35-16.39-.45-6.49-.1-6.1,1.06-6.1,1.06.17,1.55,13.51.35,14,.38C553.51,375.16,553.4,373.54,552,373.37Zm4.79-29.88c-1,0-2.38.27-3.93.4a103.12,103.12,0,0,1-12,.67,106.68,106.68,0,0,1-12.35-.67c-.45,0-.84-.07-1.19-.07-2.92,0-2.15,2-2.86,13.18-.8,12.47-1,26,0,28.23a5.7,5.7,0,0,0,5.32,3.24,7.59,7.59,0,0,0,1.77-.22,49.91,49.91,0,0,1,9-.7c6.07,0,11.84.7,14.33.7,3.73,0,4.33-.95,3-12.1-2.36-17.19.21-22.46,1-28.23C559.43,344.28,558.55,343.49,556.78,343.49Zm.14,4.16c-.15,1.11-.38,2.24-.63,3.44-1,5-2.31,11.31-.39,25.3.28,2.42,1,8.83.34,9.72a3.57,3.57,0,0,1-1.37.13c-.9,0-2.37-.11-4.09-.23-2.88-.21-6.47-.47-10.24-.47a51.1,51.1,0,0,0-9.33.73h-.1a5.58,5.58,0,0,1-1.3.16,3.71,3.71,0,0,1-3.47-2.05c-.65-1.6-.77-12.48.18-27.28.16-2.54.25-4.62.32-6.29a34.51,34.51,0,0,1,.39-5h.13c.23,0,.54,0,1,.06a108.55,108.55,0,0,0,12.58.68,104.91,104.91,0,0,0,12.16-.68c.69-.06,1.33-.14,1.9-.22a16.11,16.11,0,0,1,1.83-.18H557A7.14,7.14,0,0,1,556.92,347.65Z" transform="translate(-523.8 -343.49)"/></svg>