<?xml version="1.0" encoding="utf-8"?>
<!-- Generator: Adobe Illustrator 21.0.0, SVG Export Plug-In . SVG Version: 6.00 Build 0)  -->
<svg version="1.1" id="Слой_1" xmlns="http://www.w3.org/2000/svg" xmlns:xlink="http://www.w3.org/1999/xlink" x="0px" y="0px"
	 viewBox="0 0 162.3 156.3" style="enable-background:new 0 0 162.3 156.3;" xml:space="preserve">
<style type="text/css">
	.st0{fill:url(#SVGID_1_);}
	.st1{fill:url(#SVGID_2_);}
	.st2{fill:url(#SVGID_3_);}
	.st3{fill:url(#SVGID_4_);}
	.st4{fill:url(#SVGID_5_);}
	.st5{fill:url(#SVGID_6_);}
	.st6{fill:url(#SVGID_7_);}
	.st7{fill:url(#SVGID_8_);}
	.st8{fill:url(#SVGID_9_);}
	.st9{fill:url(#SVGID_10_);}
	.st10{fill:url(#SVGID_11_);}
	.st11{fill:url(#SVGID_12_);}
	.st12{fill:url(#SVGID_13_);}
</style>
<g>
	
		<linearGradient id="SVGID_1_" gradientUnits="userSpaceOnUse" x1="64.1924" y1="80.5336" x2="137.0552" y2="80.5336" gradientTransform="matrix(1 0 0 -1 0 158)">
		<stop  offset="0" style="stop-color:#41AFB7"/>
		<stop  offset="1" style="stop-color:#57CA8D"/>
	</linearGradient>
	<path class="st0" d="M133.1,57.3c-2.2-1.7-4.9-2.3-7.5-3.1c-3.8-1.1-7.6-2.3-11.3-3.4c-6.9-2.1-13.8-4.2-20.7-6.3
		c-4.2-1.3-9-0.7-12.7,1.9c-0.3,0.2-0.6,0.5-0.9,0.7c-4.7,1.6-8.3,5-9.8,9.8c-0.9,3.1-1.8,6.1-2.8,9.2c-1.3,4.2-2.5,8.3-3.8,12.5
		c-0.9,3-2,5.9-1.5,9.1c0.8,5.8,4.6,10.3,10.1,12.1c1.9,0.6,3.8,1.2,5.7,1.7c8.2,2.5,16.5,5,24.7,7.5c1.6,0.5,3.3,1,4.9,1.5
		c4.7,1.4,9.5,0.3,13.3-2.7l0.1-0.1c2.9-0.9,5.4-2.7,7.4-5.2c1.8-2.3,2.4-5.3,3.3-8c0.1-0.2,0-0.4-0.1-0.5c1.9-1.3,3.5-3.3,4.3-5.5
		c0.6-2.4,0.4-4.8-0.5-6.9c0.1-0.1,0.2-0.1,0.3-0.3c1-3.2,2.2-6.5,2.9-9.8C139.9,66.1,137.4,60.7,133.1,57.3z M96.5,105.4
		c-7.5-2.3-15-4.5-22.5-6.8c-4.9-1.5-8.5-4.7-9.7-9.7c-0.9-3.6,0.5-7.1,1.5-10.5c2.1-7,4.2-14,6.4-21c0.9-3,2.8-5.4,5.3-7
		c-1,1.6-1.8,3.4-2.4,5.4c-2.3,7.5-4.5,14.9-6.8,22.4c-2.5,8.3,1.2,16.6,9.8,19.2c7.2,2.2,14.3,4.3,21.5,6.5
		c3.6,1.1,7.3,2.2,10.9,3.3c2.1,0.6,4.1,1.3,6.3,1.4C110.2,110.8,102.8,107.3,96.5,105.4z M72.8,69.5c1.3-5,6.8-7.4,11.6-6.2
		c5,1.3,7.4,6.8,6.2,11.6c-1.7,4.9-6.5,7.5-11.6,6.2C74,79.8,71.6,74.3,72.8,69.5z M135.3,88.3c-1.7,4.9-6.5,7.5-11.6,6.2
		c-5-1.3-7.4-6.8-6.2-11.6c1.3-5,6.8-7.4,11.6-6.2C134.1,78.1,136.5,83.6,135.3,88.3z M137,71.8c-0.6,2.9-1.6,5.1-2.4,8
		c-1.2-1.7-3-3.1-5.2-3.8c-5.4-1.9-10.9,1.7-12.6,6.8c-1.9,5.4,1.7,10.9,6.8,12.6c2.3,0.8,4.5,0.6,6.5-0.2
		c-1.7,5.4-3.6,9.3-9.5,11.2c-3.4,1.1-6.7,0.1-9.9-0.9c-8.1-2.4-16.1-4.9-24.2-7.3c-2.7-0.8-5.3-1.6-8-2.4c-5.9-1.8-9.6-7-9.4-13.1
		c0.1-2.9,1.5-6,2.3-8.7c0.1-0.3,0.2-0.6,0.3-0.9c0.3,4,3.3,7.6,7.2,9c5.4,1.9,10.9-1.7,12.6-6.8c1.4-5.5-1.4-10.8-6.8-12.6
		c-4.3-1.5-8.6,0.5-11.1,3.9c0.6-1.8,1.1-3.6,1.7-5.5c0.6-2.1,1.3-4.2,1.9-6.4c2-6.6,9.2-10.4,15.8-8.4c5.9,1.8,11.8,3.6,17.7,5.3
		c5.9,1.7,11.8,3.6,17.7,5.3C134.7,58.7,138.3,65.3,137,71.8z"/>
	
		<linearGradient id="SVGID_2_" gradientUnits="userSpaceOnUse" x1="73.677" y1="85.8529" x2="89.5796" y2="85.8529" gradientTransform="matrix(1 0 0 -1 0 158)">
		<stop  offset="0" style="stop-color:#41AFB7"/>
		<stop  offset="1" style="stop-color:#57CA8D"/>
	</linearGradient>
	<path class="st1" d="M79.3,80.2c4.5,1.6,9-1.5,10.5-5.6c1.2-4.6-1.1-8.9-5.6-10.5c-4.5-1.6-9,1.5-10.5,5.6
		C72.1,74.2,75.1,78.8,79.3,80.2z M74.5,70c1-4.1,5.6-6,9.4-5c4.1,1,6,5.6,5,9.4c-1.4,4-5.3,6.1-9.4,5C75.4,78.4,73.5,73.8,74.5,70z
		"/>
	
		<linearGradient id="SVGID_3_" gradientUnits="userSpaceOnUse" x1="118.3658" y1="72.3529" x2="134.2684" y2="72.3529" gradientTransform="matrix(1 0 0 -1 0 158)">
		<stop  offset="0" style="stop-color:#41AFB7"/>
		<stop  offset="1" style="stop-color:#57CA8D"/>
	</linearGradient>
	<path class="st2" d="M128.8,77.6c-4.5-1.6-9,1.5-10.5,5.6c-1.6,4.5,1.5,9,5.6,10.5c4.5,1.6,9-1.5,10.5-5.6
		C135.6,83.5,133.3,79.2,128.8,77.6z M133.6,87.8c-1.4,4-5.3,6.1-9.4,5c-4.1-1-6-5.6-5-9.4c1-4.1,5.6-6,9.4-5
		C132.7,79.5,134.6,84,133.6,87.8z"/>
	
		<linearGradient id="SVGID_4_" gradientUnits="userSpaceOnUse" x1="82.4835" y1="118.621" x2="94.8659" y2="118.621" gradientTransform="matrix(1 0 0 -1 0 158)">
		<stop  offset="0" style="stop-color:#41AFB7"/>
		<stop  offset="1" style="stop-color:#57CA8D"/>
	</linearGradient>
	<path class="st3" d="M82.6,43.1C82.6,43.1,82.7,43.1,82.6,43.1c4-0.5,7.9-0.9,11.8-1.4c0.2,0,0.3-0.2,0.3-0.4
		c0.1-1.7,0.3-3.5,0.4-5.2c0-0.4-0.4-0.5-0.6-0.4c-2.7,1-5.3,2.1-8,3.1c-1.2,0.5-2.3,0.9-3.5,1.4c-0.7,0.3-0.7,1.7-0.9,2.3v0.1
		C82.1,43,82.4,43.1,82.6,43.1z M83.4,40.9c0,0,0.1,0,0.3-0.1c1.3-0.5,2.7-1,4-1.5c2.2-0.9,4.4-1.7,6.6-2.6
		c-0.1,1.3-0.2,2.6-0.3,3.9c0,0.1,0,0.2,0,0.3l0,0c-0.7,0.1-1.4,0.2-2.1,0.3c-2.9,0.3-5.8,0.7-8.7,1c0.1-0.4,0.2-0.7,0.3-1.1
		C83.5,41,83.4,40.9,83.4,40.9z"/>
	
		<linearGradient id="SVGID_5_" gradientUnits="userSpaceOnUse" x1="132.2695" y1="108.0731" x2="141.3138" y2="108.0731" gradientTransform="matrix(1 0 0 -1 0 158)">
		<stop  offset="0" style="stop-color:#41AFB7"/>
		<stop  offset="1" style="stop-color:#57CA8D"/>
	</linearGradient>
	<path class="st4" d="M141.1,52c-0.4-0.7-1.2-1.3-1.7-1.8c-1.8-1.8-3.6-3.6-5.3-5.5c-0.2-0.2-0.6-0.1-0.7,0.2
		c-0.4,1.5-0.9,2.9-1.3,4.4c0,0.1,0,0.1,0,0.2l0,0v0.1c0,0.1,0.1,0.1,0.1,0.1c2.9,1.8,5.8,3.7,8.7,5.5c0.3,0.2,0.7-0.1,0.6-0.5
		C141.4,54,141.5,52.7,141.1,52z M132.9,49.3c0.3-1.1,0.7-2.3,1-3.4c1.4,1.5,2.9,3,4.3,4.4c0.7,0.7,1.4,1.4,2.1,2.1
		c0.1,0.1,0.2,0.9,0.2,1.7C138.1,52.5,135.5,50.9,132.9,49.3z"/>
	
		<linearGradient id="SVGID_6_" gradientUnits="userSpaceOnUse" x1="80.6927" y1="85.8029" x2="82.8302" y2="85.8029" gradientTransform="matrix(1 0 0 -1 0 158)">
		<stop  offset="0" style="stop-color:#41AFB7"/>
		<stop  offset="1" style="stop-color:#57CA8D"/>
	</linearGradient>
	<circle class="st5" cx="81.8" cy="72.2" r="1.1"/>
	
		<linearGradient id="SVGID_7_" gradientUnits="userSpaceOnUse" x1="125.4923" y1="72.5029" x2="127.6298" y2="72.5029" gradientTransform="matrix(1 0 0 -1 0 158)">
		<stop  offset="0" style="stop-color:#41AFB7"/>
		<stop  offset="1" style="stop-color:#57CA8D"/>
	</linearGradient>
	<circle class="st6" cx="126.6" cy="85.5" r="1.1"/>
	
		<linearGradient id="SVGID_8_" gradientUnits="userSpaceOnUse" x1="63.8213" y1="35.6742" x2="110.8295" y2="35.6742" gradientTransform="matrix(1 0 0 -1 0 158)">
		<stop  offset="0" style="stop-color:#41AFB7"/>
		<stop  offset="1" style="stop-color:#57CA8D"/>
	</linearGradient>
	<path class="st7" d="M111.5,118.9c-4-1.2-8-2.4-12-3.6c-0.2-0.1-0.3,0-0.4,0c-1.1-2.4-3.1-4.3-5.9-5.3s-5.6-0.4-7.9,1.2
		c-0.1-0.1-0.2-0.2-0.4-0.3c-4.9-1.5-9.8-3-14.8-4.5H70c-0.2-0.1-0.4-0.1-0.6-0.1c-2,0.5-3,0.4-3.6,2.3c-0.9,3-1.8,6.1-2.7,9.1
		c-1.7,5.7,0.2,11,6.3,12.8c5.5,1.7,10.9,3.3,16.4,5c4.6,1.4,9.9,4,14.6,2.3c0.8,0,1.7-0.2,2.6-0.4c3.8-1.2,5.2-4.6,6.2-8.1
		c0.9-3.1,1.9-6.2,2.8-9.3C112.2,119.5,112,119,111.5,118.9z M92.9,110.8c4.7,1.2,6.9,6.4,5.8,10.8c-1.6,4.6-6.1,7-10.8,5.8
		c-4.7-1.2-6.9-6.4-5.8-10.8C83.3,111.9,88.5,109.7,92.9,110.8z M87.4,128.1c-6.1-1.2-9-9-5-13.9c-0.4,0.7-0.8,1.4-1.1,2.2
		C79.6,121.3,82.8,126.3,87.4,128.1z M67.3,127.9c-3.6-2.1-3.6-6.2-2.6-9.6c0.8-2.6,1.6-5.3,2.4-7.9c0.2-0.6,0.4-1.2,0.5-1.8
		c0.3-0.1,0.6-0.1,0.9-0.2c0.1,0,0.1,0,0.2,0c-0.8,2.5-1.5,5.1-2.3,7.6c-1.1,3.7-1.8,7,0.5,10.5c0.8,1.2,1.8,2,2.9,2.6
		C68.9,128.6,68.1,128.3,67.3,127.9z M108.2,126.9c-1.2,3.8-1.9,7.7-6.3,9.1c-0.4,0.1-0.8,0.2-1.2,0.2c-0.2-0.1-0.4-0.1-0.7,0h-0.1
		c-1.8,0-3.7-0.8-5.3-1.3c-3.2-1-6.4-1.9-9.6-2.9c-3.1-0.9-6.2-1.9-9.2-2.8c-2.3-0.7-4.7-1.2-6.5-2.8c-3.5-3.1-2-7.4-0.9-11.1
		c0.7-2.4,1.4-4.7,2.1-7.1c4.5,1.4,8.3,2.5,12.8,3.8c-7.7,6.1-2.1,19,8.2,16.7c0.2,0,0.3-0.2,0.3-0.3c3.5-0.6,6.5-3.3,7.7-6.7
		c0.4-1.6,0.4-3.2,0.1-4.7c3.7,1.1,6.8,2,10.6,3.2C109.5,122.5,108.9,124.7,108.2,126.9z"/>
	
		<linearGradient id="SVGID_9_" gradientUnits="userSpaceOnUse" x1="112.3929" y1="18.3279" x2="128.7331" y2="18.3279" gradientTransform="matrix(1 0 0 -1 0 158)">
		<stop  offset="0" style="stop-color:#41AFB7"/>
		<stop  offset="1" style="stop-color:#57CA8D"/>
	</linearGradient>
	<path class="st8" d="M123,140.5c0.1-0.1,0.1-0.2,0-0.4c-1.6-5.2-3.3-10.3-4.9-15.5c-0.1-0.2-0.3-0.3-0.4-0.3
		c-1.3,0.1-2.6,0.2-3.8,0.3c-0.1,0-0.2,0-0.3,0.1l0,0l0,0c-0.5,0.4-0.9,0.8-1.4,1.2c-0.1,0.1-0.2,0.3-0.1,0.5
		c1.9,4.8,3.8,9.7,5.7,14.5c0.1,0.2,0.2,0.2,0.3,0.2c-1.1,0.5-2.1,1.3-2.8,2.2c-0.1,0-0.2,0-0.3,0.1c-3.1,3.3-3.2,8.2,0,11.5
		c0.2,0.2,0.5,0.2,0.7,0c0.3-0.3,0.5-0.6,0.8-0.9c0,0,0,0,0.1,0c0.4-0.4,0.8-0.9,1.2-1.3c0.1-0.2,0.1-0.4,0-0.5
		c-1.3-2-1.1-4.3,0.1-5.8c0,0,0,0,0.1,0c4.2-2.7,9,1.6,6.9,6.1c-0.1,0.2,0,0.4,0.1,0.5c0.5,0.4,1.1,0.7,1.6,1.1
		c0.2,0.1,0.4,0.1,0.6-0.1c0.2-0.2,0.4-0.5,0.6-0.7c0.1,0,0.1-0.1,0.2-0.2C130.9,148.6,128.6,141.5,123,140.5z M115.5,125.4
		c0.5,0,1-0.1,1.5-0.1c0.2,0,0.3,0,0.4,0c0.1,0.3,0.2,0.5,0.3,0.8c0.6,1.8,1.1,3.5,1.7,5.3c1,3,1.9,6,2.9,9c-0.3,0-0.7,0-1,0
		c-0.6,0-1.2,0.1-1.8,0.3c0-0.1,0-0.2,0-0.3c-1-2.9-2-5.9-3-8.8c-0.6-1.8-1.2-3.6-1.8-5.3c-0.1-0.3-0.2-0.5-0.3-0.8
		C114.7,125.5,115.1,125.4,115.5,125.4z M118.4,140.7c-1.1-2.8-2.2-5.5-3.2-8.3c-0.6-1.6-1.3-3.2-1.9-4.9c-0.1-0.4-0.3-0.7-0.4-1.1
		c0.1,0,0.1-0.1,0.2-0.2s0.3-0.3,0.4-0.4C115.2,130.8,116.9,135.7,118.4,140.7c0.1,0.1,0.2,0.1,0.2,0.2c-0.1,0-0.2,0.1-0.3,0.1
		C118.5,141,118.5,140.8,118.4,140.7z M115.2,154.2c-1.3-1.6-1.9-3.5-1.8-5.3c0.1,1.7,0.7,3.5,2.1,5
		C115.4,154,115.3,154.1,115.2,154.2z M125,147.2c-1-1.6-2.8-2.3-4.6-2.3c0.1,0,0.2-0.1,0.3-0.1c2.9-0.6,4.8,1.7,5.1,4.2
		C125.7,148.4,125.4,147.8,125,147.2z M125.7,152.3c0.4,0.3,0.7,0.5,1.1,0.8c-0.1,0.1-0.1,0.2-0.2,0.3c-0.2-0.2-0.5-0.3-0.7-0.5
		C125.4,152.6,125.5,152.5,125.7,152.3z M127.3,152.4c-0.4-0.2-0.7-0.5-1.1-0.7c0.4,0.3,0.6-2,0.6-2c-0.1-2-0.8-3.5-2.4-4.7
		c-2.4-1.9-5.5-1-7.3,1c0,0-0.1,0-0.1,0.1c-0.4,0.5-0.8,1.1-1.1,1.7c-0.3,0.8-0.3,1.6-0.3,2.4c0,0.2,0.8,2.6,1,2.3
		c-0.3,0.3-0.5,0.5-0.6,0.7c0,0-0.1,0-0.1,0.1l0,0c-0.2,0.1-0.2-0.3-0.7-0.9c-1.4-1.9-1.4-4.5-0.6-6.6c0.2-0.5,0.4-1,0.7-1.4
		c0.1-0.1,0.1-0.2,0.2-0.2c0.1-0.1,0.1-0.1,0.1-0.2c1.9-2.4,5.4-3.2,8.3-2.2C128.4,143.3,129.5,148.7,127.3,152.4z"/>
	
		<linearGradient id="SVGID_10_" gradientUnits="userSpaceOnUse" x1="21.2939" y1="77.3829" x2="60.3147" y2="77.3829" gradientTransform="matrix(1 0 0 -1 0 158)">
		<stop  offset="0" style="stop-color:#41AFB7"/>
		<stop  offset="1" style="stop-color:#57CA8D"/>
	</linearGradient>
	<path class="st9" d="M50.8,94L50.8,94c0.8-1,1.4-2.1,1.7-3.3l-1.7,1.6c-1.8,2.5-5.1,3.9-8,3.1c0,0-0.1-0.1-0.2-0.1
		c-0.1,0-0.2,0-0.3-0.1c-0.5-0.2-1-0.4-1.4-0.8c-1.8-1.3-3.3-3.4-3.3-5.7c0-0.8-0.1-1.1,0.1-1.2c0,0,0,0,0.1,0c0.1,0,0.1,0,0.1,0
		c0.2,0,0.4,0.1,0.9,0.2c-0.3-0.1,0.5,2.3,0.6,2.5c0.4,0.7,0.9,1.4,1.6,1.8c0.6,0.3,1.2,0.6,1.8,0.7c0,0,0.1,0,0.2,0.1
		c2.3,0.5,4.8-0.2,6-2.3l-1.1,0.1c-0.4,0.5-0.9,0.9-1.5,1.2c-0.1,0-0.2,0.1-0.3,0.1c0.5-0.4,1-0.8,1.4-1.3l-1-0.2
		c-0.8,1-2,1.6-3.6,1.7c0,0,0,0-0.1,0C41.7,91.8,40.7,91,40,90c4,0.2,8,0.3,12.1,0.5c0.4,0.1,1-0.2,1-0.5
		c0.4-10.4,0.9-20.8,1.3-31.2c0-0.3-0.2-0.4-0.5-0.4c-3-0.1-6.1-0.3-9.1-0.4c-0.1-0.8-0.2-1.6-0.4-2.4c0-0.3-0.5-0.3-0.6-0.3
		c-2.6,0.4-5.2,0.8-7.7,1.1c-0.3-0.9-0.6-1.7-0.9-2.6c-0.1-0.3-0.6-0.3-0.8-0.2c-4.5,1.6-9.1,3.1-13.6,4.7c-0.2,0.1-0.7,0.3-0.6,0.6
		c3.6,10.5,7.3,21.1,10.9,31.6c0.1,0.3,0.6,0.3,0.8,0.2c1.2-0.4,2.3-0.8,3.5-1.2l-0.2-0.9c-0.8,0.4-2,1-2.8,1.1
		c0-0.2-0.3-0.5-0.5-1.3c-0.6-3.4-2.4-6.8-3.5-10c-1.4-4.1-2.8-8.1-4.2-12.2c-0.8-2.2-2.4-5.1-2.6-7.5c0.5-0.2,1.1-0.3,1.4-0.4
		c2-0.7,4-1.4,6-2.1c1.5-0.5,3.1-1.3,4.7-1.6c0.1,0,0.1,0,0.1-0.1c0,0.1,0,0.3,0.1,0.6c0.6,3.1,2.2,6.3,3.2,9.3
		c2.4,7,4.8,13.9,7.2,20.9c-1.8,0.6-3.5,1.2-5.3,1.8l0.2,1.1c2.9-0.4,5.7-0.8,8.6-1.3c0.4,0,1-0.3,0.9-0.7c-1.3-9.2-2.7-18.3-4-27.5
		c0.3,0,0.5,0,0.8,0c1.9,0.1,3.7,0.2,5.6,0.2c0.3,0,1.2-0.1,1.6,0c0.8,1.9-0.3,6.1-0.4,8.1c-0.3,7.4-0.6,14.8-0.9,22.2
		c-2.7-0.1-5.4-0.2-8.1-0.3c-1.3-0.1-2.6-0.1-3.9-0.1l0.2,0.6c-0.3-0.6-0.5-1.4-0.6-2.2c0-0.2-0.1-0.4-0.3-0.4
		c-0.6-0.1-1.1-0.3-1.7-0.4c0,0,0,0-0.1,0c-0.4-0.1-0.7-0.2-1.1-0.2c-0.3-0.1-0.5,0.1-0.5,0.4c-0.6,4.5,2.2,8.5,6.7,9.3
		c0.1,0,0.2,0,0.3-0.1c1.1,0.3,2.4,0.4,3.6,0.2c-0.1,0.2-0.2,0.4,0,0.6c2.2,2.4,4.4,4.8,6.6,7.2c1,1.1,2.1,2.2,3.1,3.4
		c0.5,0.6,1.5,0.4,2.3,0.5l0,0l0,0c0.2,0,0.3-0.1,0.3-0.2c0.9-1,1.8-2,2.8-3c0.2-0.2,0.2-0.4,0-0.6C57.8,100.7,54.3,97.4,50.8,94z
		 M47.5,86.3c-1.5,0.2-3.1,0.5-4.6,0.7c0.9-0.3,1.8-0.6,2.6-0.9c0.4-0.1,0.7-0.3,0.6-0.6c-3.2-9.4-6.5-18.8-9.7-28.2
		c1.7-0.2,3.5-0.4,5.2-0.8c0.3-0.1,1-0.3,1.4-0.3c1.1,1.9,0.9,5.9,1.2,8C45.4,71.6,46.5,78.9,47.5,86.3z M36.4,87.4
		c0.1,0,0.2,0.1,0.3,0.1c-0.2,2,0.3,3.8,1.3,5.3C36.8,91.3,36.2,89.4,36.4,87.4z M55.8,106.1c-1.2-1.3-2.3-2.6-3.5-3.8
		c-1.8-2-3.7-4-5.5-6l-0.1-0.1c0.1,0,0.2-0.1,0.3-0.1c0,0.1,0,0.3,0.1,0.5c3.3,3.5,6.7,6.9,10,10.4
		C56.6,106.9,56.4,106.8,55.8,106.1z M60.2,104.5c-0.5,0.6-1.1,1.2-1.6,1.8c-0.1,0.2-0.3,0.3-0.4,0.5c-0.3-0.3-0.6-0.7-1-1
		c-1.2-1.3-2.5-2.6-3.7-3.9c-1.9-2-3.8-4-5.8-6c0,0,0,0-0.1,0c0.6-0.2,1.1-0.5,1.6-0.8c0.3-0.2,0.6-0.4,0.8-0.6c0,0,0,0.1,0.1,0.1
		c2.2,2.1,4.4,4.2,6.6,6.3c1.2,1.1,2.4,2.3,3.5,3.4l0,0C60.3,104.4,60.3,104.5,60.2,104.5z"/>
	
		<linearGradient id="SVGID_11_" gradientUnits="userSpaceOnUse" x1="83.4509" y1="38.8378" x2="97.2411" y2="38.8378" gradientTransform="matrix(1 0 0 -1 0 158)">
		<stop  offset="0" style="stop-color:#41AFB7"/>
		<stop  offset="1" style="stop-color:#57CA8D"/>
	</linearGradient>
	<path class="st10" d="M88.3,126c3.9,1.4,7.8-1.3,9.1-4.9c2.2-9.1-10.7-13-13.9-4.2C82.1,120.9,84.7,124.8,88.3,126z M84.3,117.2
		c0.9-3.5,4.7-5.1,8-4.3c3.5,0.9,5.1,4.7,4.3,8C93.7,128.7,82.3,125.3,84.3,117.2z"/>
	
		<linearGradient id="SVGID_12_" gradientUnits="userSpaceOnUse" x1="85.4816" y1="38.7433" x2="95.2373" y2="38.7433" gradientTransform="matrix(1 0 0 -1 0 158)">
		<stop  offset="0" style="stop-color:#41AFB7"/>
		<stop  offset="1" style="stop-color:#57CA8D"/>
	</linearGradient>
	<path class="st11" d="M90.5,123.5c0,0.1,0,0.1,0,0.2c0,0.2,0.1,0.4,0.3,0.4c0.2,0.1,0.4,0.1,0.6,0.2s0.4,0,0.5-0.2
		c0.4-0.7,1.4-3.3,2.5-2.9c0.2,0.1,0.4,0,0.5-0.2s0.2-0.3,0.3-0.5c0.1-0.2,0-0.6-0.2-0.6c-1.1-0.3-2.2-0.7-3.3-1
		c-0.2-0.1-0.4,0-0.5,0.2s-0.2,0.3-0.3,0.5c-0.1,0.2,0,0.6,0.2,0.6c0.5,0.2,0.6,0.4,0.4,0.8c-0.8,1.4-2.8,1.7-3.9,0.1
		c-1-1.4,0.4-3.5,1.4-4.4c1.8-1.7,4.5-0.7,4.4,1.7c0,0.2,0.1,0.4,0.3,0.4c0.2,0,0.4,0.1,0.6,0.1s0.5,0,0.5-0.3
		c0.2-0.9,0.5-1.7,0.7-2.6c0-0.1,0-0.2,0-0.2c0-0.1-0.1-0.2-0.3-0.3c-0.6-0.2-0.7-0.1-1,0.1c-2.5-2.7-7.4-1.3-8.7,2.1
		C84.3,121.3,87.1,124.3,90.5,123.5z M91.4,122.5c0.8-0.8,1.3-1.8,0.9-2.5h0.1c0.3,0.1,0.6,0.2,0.8,0.3c-0.4,0.2-0.6,0.6-0.8,1
		c-0.3,0.6-0.7,1.2-1,1.8c0,0,0-0.1,0-0.2s-0.1-0.3-0.2-0.4C91.3,122.5,91.3,122.5,91.4,122.5z M91.3,123.3L91.3,123.3L91.3,123.3
		C91.2,123.3,91.2,123.3,91.3,123.3z M94.4,116.6C94.4,116.6,94.5,116.6,94.4,116.6c0,0.3-0.1,0.6-0.2,1c0-0.3-0.1-0.6-0.2-0.9
		C94.1,116.8,94.3,116.7,94.4,116.6z M86.1,118.6c0.4-1.6,1.8-2.8,3.4-3.3c-1.9,0.8-3.6,3.2-3.1,5.2c0.1,0.4,0.3,0.8,0.5,1.2
		C86.2,121,85.8,119.9,86.1,118.6z"/>
	
		<linearGradient id="SVGID_13_" gradientUnits="userSpaceOnUse" x1="88.5991" y1="68.4261" x2="100.0289" y2="68.4261" gradientTransform="matrix(1 0 0 -1 0 158)">
		<stop  offset="0" style="stop-color:#41AFB7"/>
		<stop  offset="1" style="stop-color:#57CA8D"/>
	</linearGradient>
	<path class="st12" d="M99.9,93.2c-4.5-1-9.9-2.7-10.8-7.9c-0.1-0.8-0.9-0.7-0.8,0.1c1,5.6,6.3,8,11.2,9
		C100.3,94.5,100.7,93.3,99.9,93.2z"/>
</g>
</svg>
