<?xml version="1.0" encoding="utf-8"?>
<!-- Generator: Adobe Illustrator 21.0.0, SVG Export Plug-In . SVG Version: 6.00 Build 0)  -->
<svg version="1.1" id="Слой_1" xmlns="http://www.w3.org/2000/svg" xmlns:xlink="http://www.w3.org/1999/xlink" x="0px" y="0px"
	 viewBox="0 0 162.3 156.3" style="enable-background:new 0 0 162.3 156.3;" xml:space="preserve">
<style type="text/css">
	.st0{fill:url(#SVGID_1_);}
	.st1{fill:url(#SVGID_2_);}
	.st2{fill:url(#SVGID_3_);}
	.st3{fill:url(#SVGID_4_);}
	.st4{fill:url(#SVGID_5_);}
	.st5{fill:url(#SVGID_6_);}
	.st6{fill:url(#SVGID_7_);}
	.st7{fill:url(#SVGID_8_);}
	.st8{fill:url(#SVGID_9_);}
	.st9{fill:url(#SVGID_10_);}
	.st10{fill:url(#SVGID_11_);}
	.st11{fill:url(#SVGID_12_);}
	.st12{fill:url(#SVGID_13_);}
	.st13{fill:url(#SVGID_14_);}
	.st14{fill:url(#SVGID_15_);}
	.st15{fill:url(#SVGID_16_);}
	.st16{fill:url(#SVGID_17_);}
	.st17{fill:url(#SVGID_18_);}
	.st18{fill:url(#SVGID_19_);}
	.st19{fill:url(#SVGID_20_);}
	.st20{fill:url(#SVGID_21_);}
	.st21{fill:url(#SVGID_22_);}
	.st22{fill:url(#SVGID_23_);}
</style>
<g>
	<g>
		
			<linearGradient id="SVGID_1_" gradientUnits="userSpaceOnUse" x1="34.5043" y1="276.633" x2="106.0713" y2="276.633" gradientTransform="matrix(1 0 0 1 0 -194.5)">
			<stop  offset="0" style="stop-color:#41AFB7"/>
			<stop  offset="1" style="stop-color:#57CA8D"/>
		</linearGradient>
		<path class="st0" d="M104.5,90.2c0,3-0.6,5.5-1.4,7.9c-0.8,2.3-2.4,4.2-5,6c-3,2.1-6.4,1.9-9.8,1.9c-2.9,0-5.7,0.1-8.6,0.1
			s-5.7,0.4-8.6,0.4c-2.9,0-5.7,0-8.6,0c-2.8,0-5.7-0.5-8.5-0.5c-3.1,0-5.9-0.8-8.2-2.6c-2.3-1.7-4.3-4.1-5.1-7.1
			c-0.8-2.8-0.4-6.4-0.4-9.3c0-4.6,0.7-9.2,0.7-13.7c0-2.3-0.4-4.5-0.4-6.8c0-3.5,1.6-6.7,4-9c2.4-2.3,5.5-3.9,9-3.9
			c3.1,0,6.3-0.1,9.4-0.1c3.1,0,6.3-0.1,9.4-0.1s6.3,0.3,9.4,0.3c3.1,0,6.3,0.3,9.4,0.3c3.4,0,6.5,0.9,8.8,3.1s3.6,5.2,3.9,8.6
			c0.3,3.1,0.1,5.6,0.1,8.8c0,1.1,2.1,1.9,2.1,0.8c0-3.4,0.1-6.9-0.2-10.4c-0.2-2.8-1.4-5.4-3.1-7.5c-1.7-2.1-4.2-3.3-6.8-4.3
			c-2.6-1-5.3-0.9-8.1-0.9c-4,0-8,0.1-12,0.1c-3.7,0-7.3-0.3-11-0.3c-3.7,0-7.3-0.3-11-0.3c-4.5,0-9,2.3-11.7,5.9
			c-0.2,0.3-0.2,0.9-0.4,1.2c-4.1,2.9-7,7-7,12.2c0,3.2,0.5,6.5,0.5,9.7c0,4.4-0.5,8.8-0.5,13.3c0,3.2,0.2,6.3,1.6,9.3
			c1.2,2.7,3,4.9,5.3,6.4c2.3,1.5,5,2.6,8,2.7c2,0.1,4.1,0,6.1,0c2.9,0,5.8-0.4,8.8-0.4s5.8-0.1,8.8-0.1s5.8,0.5,8.8,0.5
			c1.7,0,3.5,0.2,5.2,0.2c5,0,9.1-3.1,11.9-7.1l0.4,0.2c2.6-1.8,4-4.5,5.2-7.5c1.1-2.8,0.9-5.7,0.9-8.6
			C105.6,88.3,104.5,89.1,104.5,90.2z M74.6,110.7c-4,0-8-0.4-12-0.4s-8-0.1-12-0.1c-5.2,0-9.4-2-12.1-6.6c-2-3.3-1.7-6.9-1.7-10.5
			c0-3.7-0.5-7.4-0.5-11.2c0-3.7,0-7.4,0-11.2c0-3.2,1.4-5.8,3.4-8.1c-0.5,1.9-0.9,3.6-0.9,5.7c0,4,0.4,7.9,0.4,11.9s0,7.9,0,11.9
			c0,4.4,0.9,8.6,3.6,11.5s6.7,4.3,11.3,4.3c3.8,0,7.6,0.2,11.4,0.2c3.8,0,7.6-0.1,11.4-0.1c3.9,0,7.7-0.1,11.6-0.1
			c2.2,0,4.6,0.2,6.7-0.3c-2.8,2.1-6.5,2.7-10.2,2.9C81.6,110.6,77.9,110.7,74.6,110.7z"/>
	</g>
</g>
<g>
	<g>
		
			<linearGradient id="SVGID_2_" gradientUnits="userSpaceOnUse" x1="40.0407" y1="276.8332" x2="60.8126" y2="276.8332" gradientTransform="matrix(1 0 0 1 0 -194.5)">
			<stop  offset="0" style="stop-color:#41AFB7"/>
			<stop  offset="1" style="stop-color:#57CA8D"/>
		</linearGradient>
		<path class="st1" d="M50.4,71.9c-2.9-0.1-5.3,1.3-7.2,3.3c-1.8,1.9-3,4.5-3.1,7.2c-0.1,2.9,1.2,5.2,3.1,7.1
			c1.9,1.8,4.4,3.2,7.1,3.3c2.9,0.1,5.4-1.2,7.2-3.1c1.8-1.9,3.2-4.6,3.3-7.3c-0.1-2.9-1.4-5.4-3.2-7.3C55.8,73.3,53.3,72,50.4,71.9
			z M50.4,91.7c-5.3,0.2-9.4-4.3-9.6-9.3c-0.2-5.3,4.6-9.3,9.6-9.5c5.3-0.2,9.5,4.5,9.7,9.5C59.9,87.7,55.7,91.5,50.4,91.7z"/>
	</g>
</g>
<g>
	<g>
		
			<linearGradient id="SVGID_3_" gradientUnits="userSpaceOnUse" x1="41.7152" y1="276.7332" x2="58.7975" y2="276.7332" gradientTransform="matrix(1 0 0 1 0 -194.5)">
			<stop  offset="0" style="stop-color:#41AFB7"/>
			<stop  offset="1" style="stop-color:#57CA8D"/>
		</linearGradient>
		<path class="st2" d="M50.4,73.7c-4.8-0.2-8.4,4.2-8.6,8.6c-0.2,4.8,4.1,8.2,8.6,8.5c4.8,0.2,8.3-4,8.5-8.4
			C58.6,77.6,55.2,74,50.4,73.7z M50.4,89.9c-4.3,0.2-7.4-3.5-7.6-7.6c-0.2-4.3,3.6-7.6,7.6-7.8c4.3-0.2,7.5,3.7,7.7,7.8
			C57.9,86.7,54.7,89.7,50.4,89.9z"/>
	</g>
</g>
<g>
	<g>
		
			<linearGradient id="SVGID_4_" gradientUnits="userSpaceOnUse" x1="87.3007" y1="276.6839" x2="107.9822" y2="276.6839" gradientTransform="matrix(1 0 0 1 0 -194.5)">
			<stop  offset="0" style="stop-color:#41AFB7"/>
			<stop  offset="1" style="stop-color:#57CA8D"/>
		</linearGradient>
		<path class="st3" d="M97.9,71.9c-2.9-0.1-5.3,1.3-7.2,3.2c-1.8,1.9-3.3,4.5-3.4,7.2c-0.1,2.9,1.2,5.5,3.1,7.4
			c1.9,1.8,4.7,2.6,7.4,2.8c2.9,0.1,5.4-0.9,7.2-2.8c1.8-1.9,2.8-4.5,2.9-7.3c-0.1-2.9-1.2-5.3-3-7.2C103.2,73.3,100.8,72,97.9,71.9
			z M97.9,91.7c-5.3,0.2-9.4-4.4-9.6-9.4c-0.2-5.3,4.6-9.1,9.6-9.3c5.3-0.2,9.1,4.3,9.3,9.3C107,87.6,103.2,91.5,97.9,91.7z"/>
	</g>
</g>
<g>
	<g>
		
			<linearGradient id="SVGID_5_" gradientUnits="userSpaceOnUse" x1="89.4149" y1="276.7332" x2="106.4219" y2="276.7332" gradientTransform="matrix(1 0 0 1 0 -194.5)">
			<stop  offset="0" style="stop-color:#41AFB7"/>
			<stop  offset="1" style="stop-color:#57CA8D"/>
		</linearGradient>
		<path class="st4" d="M97.9,73.8c-4.8-0.2-8.2,4.1-8.4,8.5c-0.2,4.8,3.9,8.2,8.4,8.4c4.8,0.2,8.4-3.9,8.6-8.4
			C106.3,77.5,102.7,74,97.9,73.8z M97.9,90c-4.3,0.2-7.6-3.7-7.8-7.7c-0.2-4.3,3.8-7.6,7.8-7.8c4.3-0.2,7.4,3.8,7.6,7.8
			C105.3,86.7,102.2,89.8,97.9,90z"/>
	</g>
</g>
<g>
	<g>
		
			<linearGradient id="SVGID_6_" gradientUnits="userSpaceOnUse" x1="41.0226" y1="239.7793" x2="53.2144" y2="239.7793" gradientTransform="matrix(1 3.593326e-04 -3.593326e-04 1 2.075828e-02 -194.2631)">
			<stop  offset="0" style="stop-color:#41AFB7"/>
			<stop  offset="1" style="stop-color:#57CA8D"/>
		</linearGradient>
		<path class="st5" d="M53.2,45.6c-0.4-1.7-0.9-3.4-1.2-5.2c-0.1-0.4-0.5-0.5-0.7-0.3c-2.3,1.8-4.5,3.8-6.8,5.6c-1,0.8-2,1.5-3,2.3
			c-0.6,0.5-0.4,1.8-0.4,2.5l0.2,0.1c0.1,0.3,0.3,0.5,0.6,0.4c0,0,0,0.1,0.1,0.1c3.7-1.6,7.4-3.2,11.1-4.8
			C53.2,46.2,53.3,45.8,53.2,45.6z M50.2,46.4c-2.7,1.2-5.4,2.5-8.1,3.7c0-0.4,0.1-0.9,0-1.3c0-0.1-0.2-0.2-0.2-0.2s0.2,0,0.3-0.2
			c1.1-0.9,2.4-1.7,3.5-2.5c1.9-1.5,3.7-3.1,5.6-4.6c0.3,1.3,0.5,2.7,0.8,4c0,0.1,0,0.2,0,0.3c0,0,0.1-0.1,0-0.1
			C51.5,45.7,50.9,46.1,50.2,46.4z"/>
	</g>
</g>
<g>
	<g>
		
			<linearGradient id="SVGID_7_" gradientUnits="userSpaceOnUse" x1="89.9908" y1="242.0694" x2="100.9609" y2="242.0694" gradientTransform="matrix(1 0 0 1 0 -194.5)">
			<stop  offset="0" style="stop-color:#41AFB7"/>
			<stop  offset="1" style="stop-color:#57CA8D"/>
		</linearGradient>
		<path class="st6" d="M101,51.1c-0.4-0.8-0.7-2.1-1.3-2.7c-0.5-0.5-1.5-0.9-2.1-1.3c-2.3-1.3-4.6-2.4-6.9-3.6
			c-0.3-0.2-0.6,0-0.6,0.3c0,1.6,0.1,3.1,0.1,4.7c0,0.1-0.1,0.2-0.1,0.2l0,0v0.2c0,0,0.1,0.1,0.2,0.1c3.4,0.9,6.8,1.8,10.1,2.7
			C100.9,51.9,101.1,51.5,101,51.1z M99.1,49.1c0.1,0,0.4,0.9,0.7,1.6c-3-0.8-5.9-1.7-8.9-2.6c0-1.2,0-2.5,0-3.7
			c1.8,1,3.7,2.1,5.5,3.1C97.4,48.1,98.3,48.6,99.1,49.1z"/>
	</g>
</g>
<g>
	
		<linearGradient id="SVGID_8_" gradientUnits="userSpaceOnUse" x1="50.2152" y1="280.783" x2="52.5095" y2="280.783" gradientTransform="matrix(1 0 0 1 0 -194.5)">
		<stop  offset="0" style="stop-color:#41AFB7"/>
		<stop  offset="1" style="stop-color:#57CA8D"/>
	</linearGradient>
	<circle class="st7" cx="51.4" cy="86.3" r="1.1"/>
</g>
<g>
	
		<linearGradient id="SVGID_9_" gradientUnits="userSpaceOnUse" x1="97.7915" y1="280.583" x2="100.0857" y2="280.583" gradientTransform="matrix(1 0 0 1 0 -194.5)">
		<stop  offset="0" style="stop-color:#41AFB7"/>
		<stop  offset="1" style="stop-color:#57CA8D"/>
	</linearGradient>
	<circle class="st8" cx="99" cy="86.1" r="1.1"/>
</g>
<g>
	<g>
		
			<linearGradient id="SVGID_10_" gradientUnits="userSpaceOnUse" x1="45.6219" y1="325.683" x2="87.5687" y2="325.683" gradientTransform="matrix(1 0 0 1 0 -194.5)">
			<stop  offset="0" style="stop-color:#41AFB7"/>
			<stop  offset="1" style="stop-color:#57CA8D"/>
		</linearGradient>
		<path class="st9" d="M87.6,119c-0.6,0-1.2,0.4-1.8,0.4c-1.8,0-3.7-0.3-5.5-0.3c-1.1,0-0.4,1.8,0.7,1.8c1.6,0,3.1-0.2,4.6-0.2
			 M80.8,139.6c-0.6,0-0.6,0.4-1.3,0.4c-2.8,0-5.6-0.3-8.4-0.3c-3.3,0-6.6,0.1-9.8,0.1c-2.4,0-5,0.4-7.2-0.6
			c-4.4-2-4.2-6.8-4.2-10.7c0-2.5,0.1-5.2,0.1-7.7c4.9,0,9.3,0,14.2,0c1.1,0,1.8-1.5,0.7-1.5c-2.6,0-5.2-0.1-7.8-0.1
			s-5.2,0.1-7.8,0.1l-0.1,0.1c-0.2,0-0.5-0.3-0.7-0.1c-1.8,1.1-2.8,1.4-2.8,3.5c0,3.2,0.1,6.4,0.1,9.7c0,3,0.8,5.7,2.5,7.6
			c1.7,1.9,4.1,2.9,7.4,2.9c2.9,0,5.8,0,8.7,0c2.9,0,5.8,0.4,8.7,0.4c1.7,0,3.6-0.2,5.5-0.2 M47.6,132.2c0-2.8-0.4-5.6-0.4-8.4
			c0-0.6,0.3-1.2,0.3-1.9c0.3-0.2,0.4-0.4,0.7-0.5c0,0,0.3,0,0.4-0.1c0,2.7,0,5.4,0,8.1c0,3.9,0.2,7.2,3.5,9.9
			c1.1,0.9,2.3,1.4,3.6,1.7c-0.9,0-1.9,0.1-2.8-0.1C48.7,139.9,47.6,135.9,47.6,132.2z"/>
	</g>
</g>
<g>
	
		<linearGradient id="SVGID_11_" gradientUnits="userSpaceOnUse" x1="36.1411" y1="326.8778" x2="45.8684" y2="326.8778" gradientTransform="matrix(1 0 0 1 0 -194.5)">
		<stop  offset="0" style="stop-color:#41AFB7"/>
		<stop  offset="1" style="stop-color:#57CA8D"/>
	</linearGradient>
	<path class="st10" d="M45.7,125.8c-1.3-0.4-2.7-0.7-4-1.2c-0.1-0.1-0.2-0.4-0.4-0.3l0.2,0.3l-0.3-0.4c-0.6,0.4-1.6,1-1.8,1.7
		c-0.4,1.5-0.4,3.1-0.7,4.6c-0.8,3.2-1.8,6.4-2.5,9.6c-0.1,0.5,0.5,0.7,0.7,0.2c0.6-2.7,1.3-5.3,2-8c0.4-1.7,0.6-3.5,1-5.2
		c0.2-0.9,0.8-1,1.2-1.3c-1.2,4.7-2.7,9.4-4,14.1c-0.1,0.5,0.6,0.7,0.7,0.2c0.7-2.7,1.8-5.4,2.6-8.1c0.5-1.8,0.7-3.6,1.2-5.4
		c0.1-0.5,0.1-1,0.2-1.5c0.2,0.1,0.5,0.3,0.7,0.3c0.8,0.3,1.7,0.2,2.5,0.5c0.1,0-0.1,0.7,0,0.7l0.1-0.3c-0.5,1.6-1.1,3.1-1.6,4.7
		c-0.9,3-1.8,6-2.7,8.9c-0.2,0.5,0.6,0.7,0.8,0.2c1.4-4.7,2.9-9.4,4.4-14.1C46,126,46,125.9,45.7,125.8z"/>
</g>
<g>
	<g>
		
			<linearGradient id="SVGID_12_" gradientUnits="userSpaceOnUse" x1="34.8796" y1="344.2821" x2="44.9298" y2="344.2821" gradientTransform="matrix(1 0 0 1 0 -194.5)">
			<stop  offset="0" style="stop-color:#41AFB7"/>
			<stop  offset="1" style="stop-color:#57CA8D"/>
		</linearGradient>
		<path class="st11" d="M35.6,146c4.6-2.3,8.9,2.7,6.3,7c-0.1,0.2-0.1,0.4,0.1,0.5c0.5,0.4,1,0.9,1.5,1.3c0.2,0.2,0.4,0.2,0.6,0
			c0.3-0.2,0.6-0.5,0.8-0.8c0.4-0.4-0.2-1-0.6-0.6c-0.2,0.3-0.5,0.6-0.8,0.8c0.2,0,0.4,0,0.6,0c-0.3-0.3-0.7-0.6-1-0.9
			c-0.6-0.5,0-0.2,0.2-1.1c0.5-1.7,0.4-3.2-0.3-4.7c-1.4-2.9-5.1-3.5-7.8-2.2C34.7,145.5,35.1,146.3,35.6,146L35.6,146z"/>
		<g>
			
				<linearGradient id="SVGID_13_" gradientUnits="userSpaceOnUse" x1="29.9745" y1="341.8625" x2="46.9253" y2="341.8625" gradientTransform="matrix(1 0 0 1 0 -194.5)">
				<stop  offset="0" style="stop-color:#41AFB7"/>
				<stop  offset="1" style="stop-color:#57CA8D"/>
			</linearGradient>
			<path class="st12" d="M39.8,140.1c-2.6-0.1-5,0.9-6.5,2.4c-0.1,0-0.1,0.2-0.2,0.3c-3.6,3-4.1,7.8-1.3,11.5
				c0.2,0.2,0.4,0.5,0.6,0.3c0.3-0.3,0.6-0.5,0.9-0.7l-0.2-0.2c0.4-0.4,1-0.6,1.5-1c0.2-0.1-0.1-0.3-0.2-0.5
				c-1.6-3.5,0.5-7.2,4.3-7.5c4.1-0.3,5.9,4.8,4.1,7.8c-0.1,0.2-0.2,0.3-0.1,0.4c0.5,0.4,0.9,0.9,1.4,1.4l0.2-0.1
				c0.2,0.1,0.4,0.2,0.6,0c2-2.4,2.4-5.8,1.5-8.6C45.6,142.6,43.4,140.3,39.8,140.1z M31,148c-0.1,1.8,0.2,3.6,1.3,5.3
				c-0.1,0.1-0.1,0.1-0.2,0.2C30.9,151.7,30.7,149.8,31,148z M42.7,145.1c-2.8-2.8-7.4-1.2-9.1,1.9c-0.4,0.8-0.3,1.7-0.4,2.5
				c0,0.2,0.5,2.8,0.7,2.6c-0.3,0.3-0.7,0.3-0.8,0.4c0,0-0.1,0-0.2,0l0.1,0.3c-0.2,0.1-0.2-0.5-0.6-1.2c-1.2-2.1-1.1-4.7-0.1-6.8
				c0.2-0.5,0.6-1,1-1.4c0.1-0.1,0.1-0.2,0.2-0.3c0.1-0.1,0.2,0,0.2,0c2.2-2.2,5.8-2.5,8.6-1.1c4.3,2.1,4.8,7.6,2.2,11.1
				c-0.3-0.3-0.7-0.5-1.1-0.8c0.4,0.3,0.9-2,0.9-2C44.6,148.2,44.2,146.5,42.7,145.1z"/>
		</g>
	</g>
</g>
<g>
	<g>
		
			<linearGradient id="SVGID_14_" gradientUnits="userSpaceOnUse" x1="63.06" y1="319.983" x2="82.3108" y2="319.983" gradientTransform="matrix(1 0 0 1 0 -194.5)">
			<stop  offset="0" style="stop-color:#41AFB7"/>
			<stop  offset="1" style="stop-color:#57CA8D"/>
		</linearGradient>
		<path class="st13" d="M72.7,116c-5.4-0.2-9.3,4.4-9.5,9.5c-0.2,5.4,4.5,9.3,9.6,9.5c5.4,0.2,9.5-4.4,9.7-9.5
			C82.2,120.1,78.1,116.3,72.7,116z M72.7,134.5c-5,0.2-8.8-4.4-9-9c-0.2-5,4.3-8.8,9-9c5-0.2,8.6,4.3,8.8,9
			C81.3,130.5,77.7,134.3,72.7,134.5z"/>
	</g>
</g>
<g>
	<g>
		
			<linearGradient id="SVGID_15_" gradientUnits="userSpaceOnUse" x1="65.1864" y1="320.1867" x2="80.0151" y2="320.1867" gradientTransform="matrix(1 0 0 1 0 -194.5)">
			<stop  offset="0" style="stop-color:#41AFB7"/>
			<stop  offset="1" style="stop-color:#57CA8D"/>
		</linearGradient>
		<path class="st14" d="M65.3,125.5c-0.2,4.2,3.6,7.4,7.4,7.6c4.2,0.2,7.2-3.7,7.4-7.6c-0.3-4.8-3.8-7.2-7.4-7.2
			C69.1,118.3,65.5,120.8,65.3,125.5z M66.2,125.5c-0.2-3.7,3.1-6.2,6.5-6.4c3.7-0.2,6.3,3,6.5,6.4c-0.2,4.2-3.4,6.2-6.5,6.2
			C69.5,131.7,66.4,129.7,66.2,125.5z"/>
	</g>
</g>
<g>
	
		<linearGradient id="SVGID_16_" gradientUnits="userSpaceOnUse" x1="61.8276" y1="322.1967" x2="76.7498" y2="322.1967" gradientTransform="matrix(1 0 0 1 0 -194.5)">
		<stop  offset="0" style="stop-color:#41AFB7"/>
		<stop  offset="1" style="stop-color:#57CA8D"/>
	</linearGradient>
	<path class="st15" d="M76.2,134c-4.5,2.5-9.1,1-11.6-2.1c-2.5-3.1-2.8-7.9,0.7-11.7c0.4-0.4-0.4-1.2-0.8-0.8
		c-2.5,2.7-3.1,5.9-2.5,8.7c0.6,3.1,2.7,5.8,5.5,7.2c2.6,1.2,5.8,1.2,9-0.6c0.5-0.3,0-1.1-0.5-0.9C76.1,133.9,76.2,134,76.2,134z"/>
</g>
<g>
	<g>
		
			<linearGradient id="SVGID_17_" gradientUnits="userSpaceOnUse" x1="67.539" y1="320.0467" x2="77.5482" y2="320.0467" gradientTransform="matrix(1 0 0 1 0 -194.5)">
			<stop  offset="0" style="stop-color:#41AFB7"/>
			<stop  offset="1" style="stop-color:#57CA8D"/>
		</linearGradient>
		<path class="st16" d="M77.2,125c-1.2,0-2.3,0.1-3.5,0.1c-0.2,0-0.4,0-0.5,0.2c0,0.2,0,0.4-0.1,0.5c-0.1,0.3,0.1,0.6,0.4,0.6
			c0.5,0,0.7,0.1,0.6,0.6c-0.4,1.6-2.2,2.4-3.7,1.2c-1.4-1.1-0.6-3.4,0.1-4.7c1.2-2.1,4.1-2,4.8,0.4c0.1,0.2,0.3,0.4,0.5,0.4
			c0.2,0,0.4-0.2,0.6-0.2s0.5-0.1,0.5-0.3c0-0.9,0-1.8-0.1-2.7c0-0.1,0-0.2-0.1-0.3c-0.1-0.1-0.2-0.2-0.4-0.2c-0.6,0-0.8,0.2-1,0.6
			c-3.2-1.9-7.5,0.9-7.7,4.6c-0.2,3.7,3.4,5.9,6.5,4.1c0,0.1,0,0.1,0,0.1c0,0.2,0.3,0.2,0.4,0.2c0.2,0,0.4,0,0.6,0s0.5,0,0.5-0.2
			c0.2-0.8,0.3-3.6,1.4-3.6c0.2,0,0.4-0.1,0.4-0.3c0-0.2,0-0.4,0.1-0.5C77.7,125.3,77.5,125,77.2,125z M75.9,121.9l0.2-0.1
			c0,0.4-0.1,0.7-0.1,1.1c-0.1-0.3-0.3-0.5-0.5-0.8C75.6,122.2,75.8,122.1,75.9,121.9z M68.4,126.3c-0.1-1.7,1.1-3.2,2.5-4.1
			c-1.6,1.4-2.7,4.2-1.6,6c0.2,0.4,0.5,0.7,0.9,1C69.2,128.6,68.4,127.7,68.4,126.3z M74.8,129.5L74.8,129.5
			C74.7,129.5,74.8,129.4,74.8,129.5C74.8,129.5,74.8,129.4,74.8,129.5z M75.4,127c-0.2,0.7-0.2,1.4-0.4,2.1c0,0-0.1-0.1-0.1-0.2
			c0-0.1-0.2-0.2-0.3-0.3c0,0,0.2,0,0.2-0.1c0.5-1.1,0.7-2.2,0.1-2.7l0.1,0.1c0.3,0,0.6-0.1,0.9-0.1C75.5,126.2,75.5,126.6,75.4,127
			z"/>
	</g>
</g>
<g id="a1_4_">
	<g>
		
			<linearGradient id="SVGID_18_" gradientUnits="userSpaceOnUse" x1="57.9035" y1="291.5095" x2="74.6632" y2="291.5095" gradientTransform="matrix(1 0 0 1 0 -194.5)">
			<stop  offset="0" style="stop-color:#41AFB7"/>
			<stop  offset="1" style="stop-color:#57CA8D"/>
		</linearGradient>
		<path class="st17" d="M74.2,93.7c-2.5,1-5.2,1.1-7.9,0.8c-2.6-0.3-5.3-1.1-7.7-2.2c-0.1,0-0.1-0.2-0.2-0.2c-0.2,0-0.5,0.2-0.5,0.5
			c0,0.1,0.1,0.2,0.2,0.2c0.3,2.5,1.8,4.9,4,6.7c2.1,1.7,4.8,2.7,7.3,2.4c0.2,0,0.7,0,0.6-0.3c-0.2-2.2-0.9-2.2,0.6-3.6
			c1.3-1.3,2.7-2.4,4-3.7C74.9,94.1,74.6,93.5,74.2,93.7z M70.5,97.2c-1,1-1.8,1.2-1.7,2.6c0.1,0.5,0.2,1,0.3,1.4l-0.1-0.1
			c-1.5,0-3-0.5-4.4-1.2c-2.6-1.2-5-3.8-5.6-6.7c4.3,1.8,9.1,2.9,13.6,1.7C71.9,95.7,71.2,96.5,70.5,97.2z"/>
	</g>
</g>
<linearGradient id="SVGID_19_" gradientUnits="userSpaceOnUse" x1="75.4432" y1="330.0384" x2="142.9946" y2="330.0384" gradientTransform="matrix(1 0 0 1 0 -194.5)">
	<stop  offset="0" style="stop-color:#41AFB7"/>
	<stop  offset="1" style="stop-color:#57CA8D"/>
</linearGradient>
<path class="st18" d="M137.8,114.9c-13.7,0-27.4,0-41.1,0c-4.5,0-9.4-0.6-11.6,4.3c-2.7,6.1-4.2,13.1-6.3,19.5
	c-1.4,4.3-6.5,13.7-0.4,16.5c4,1.9,10.8,0.6,15,0.6c8.7,0,17.4,0,26.1,0c4.1,0,10.6,1.2,13.3-2.9c1.3-1.9,1.7-4.7,2.4-6.8
	c1.5-4.6,2.9-9.1,4.4-13.7C141.4,127,147.2,116.2,137.8,114.9c-1.2-0.2-3,1.5-1.1,1.8c7.1,1,0.8,13.8-0.4,17.4
	c-1.8,5.5-2.9,12-5.5,17.1c-2.2,4.3-8.2,2.7-12.2,2.7c-7.4,0-14.9,0-22.3,0c-4.5,0-9.7,0.8-14.2,0c-7-1.2-2.1-10.3-0.8-14.3
	c2-6.3,3.6-13,6.1-19.1c2-4.8,5.4-3.9,9.8-3.9c13.1,0,26.3,0,39.4,0C137.9,116.7,139.7,114.9,137.8,114.9z"/>
<linearGradient id="SVGID_20_" gradientUnits="userSpaceOnUse" x1="43.9114" y1="344.3738" x2="78.9166" y2="344.3738" gradientTransform="matrix(1 0 0 1 0 -194.5)">
	<stop  offset="0" style="stop-color:#41AFB7"/>
	<stop  offset="1" style="stop-color:#57CA8D"/>
</linearGradient>
<path class="st19" d="M78.5,154.3c-4.9-0.6-9.8-1.1-14.7-1.7c-3.3-0.4-12,0.7-14.5-1.6c-0.3-1-0.5-2-0.8-3c1.3-0.4,2.6-0.6,4-0.7
	c0.8,0,1.6,0,2.5,0c2.2,0,4.3,0,6.5-0.2c5-0.5,10-1.2,15-1.7c1.3-0.1,2.5-1.6,0.4-1.4c-7.1,0.8-14.1,2-21.3,1.9
	c-2.7,0-10.8-0.1-11.6,3.5c-0.9,4,8.5,4.2,10.9,4.2c7.3,0.2,14.5,1.3,21.7,2.2C77.5,155.8,80.1,154.5,78.5,154.3L78.5,154.3z"/>
<linearGradient id="SVGID_21_" gradientUnits="userSpaceOnUse" x1="45.2614" y1="344.283" x2="76.4994" y2="344.283" gradientTransform="matrix(1 0 0 1 0 -194.5)">
	<stop  offset="0" style="stop-color:#41AFB7"/>
	<stop  offset="1" style="stop-color:#57CA8D"/>
</linearGradient>
<path class="st20" d="M76.1,150.9c-9.5-1.2-19-2.4-28.5-3.6c-0.8-0.1-3.4,1.2-1.8,1.4c9.5,1.1,19,2.3,28.5,3.6
	C75,152.4,77.7,151.1,76.1,150.9L76.1,150.9z"/>
<linearGradient id="SVGID_22_" gradientUnits="userSpaceOnUse" x1="102.2754" y1="329.8001" x2="116.0289" y2="329.8001" gradientTransform="matrix(1 0 0 1 0 -194.5)">
	<stop  offset="0" style="stop-color:#41AFB7"/>
	<stop  offset="1" style="stop-color:#57CA8D"/>
</linearGradient>
<path class="st21" d="M114.7,135.4c-0.4,4.5-6.3,5.4-9.3,2.8c-3.7-3.2,0-7.1,3.9-7.3c-0.2-0.1-0.4-0.2-0.6-0.3
	c0.5,1.7,1.2,3.5,3,4.1c0.9,0.3,3-0.3,3.1,0.9c0,0.5,1.5,0.2,1.4-0.4c-0.1-1-0.8-1.2-1.7-1.2c-2.7-0.1-3.6-0.9-4.4-3.7
	c-0.1-0.3-0.4-0.3-0.6-0.3c-4.5,0.2-10.2,5.3-5,9.2c3.7,2.8,11.2,1.5,11.7-3.9C116.2,134.6,114.7,134.8,114.7,135.4z"/>
<linearGradient id="SVGID_23_" gradientUnits="userSpaceOnUse" x1="109.4895" y1="320.783" x2="113.4621" y2="320.783" gradientTransform="matrix(1 0 0 1 0 -194.5)">
	<stop  offset="0" style="stop-color:#41AFB7"/>
	<stop  offset="1" style="stop-color:#57CA8D"/>
</linearGradient>
<path class="st22" d="M111.9,126.9c-0.3,0.2-1.3,1.1-1.6,0.5c-0.2-0.5,0.5-1.3,0.8-1.6c0.3-0.2,1.2-1,1.5-0.5
	C113.1,125.7,112.2,126.6,111.9,126.9c-0.4,0.3,0.2,0.6,0.5,0.3c0.5-0.5,1.6-1.7,0.9-2.4c-0.7-0.7-2.1,0.1-2.6,0.6s-1.6,1.7-0.9,2.4
	c0.7,0.7,2-0.1,2.6-0.6C112.8,126.9,112.2,126.6,111.9,126.9z"/>
</svg>
