<?xml version="1.0" encoding="utf-8"?>
<!-- Generator: Adobe Illustrator 21.0.0, SVG Export Plug-In . SVG Version: 6.00 Build 0)  -->
<svg version="1.1" id="Слой_1" xmlns="http://www.w3.org/2000/svg" xmlns:xlink="http://www.w3.org/1999/xlink" x="0px" y="0px"
	 viewBox="0 0 162.3 156.3" style="enable-background:new 0 0 162.3 156.3;" xml:space="preserve">
<style type="text/css">
	.st0{fill:url(#SVGID_1_);}
	.st1{fill:url(#SVGID_2_);}
	.st2{fill:url(#SVGID_3_);}
	.st3{fill:url(#SVGID_4_);}
	.st4{fill:url(#SVGID_5_);}
	.st5{fill:url(#SVGID_6_);}
	.st6{fill:url(#SVGID_7_);}
	.st7{fill:url(#SVGID_8_);}
	.st8{fill:url(#SVGID_9_);}
	.st9{fill:url(#SVGID_10_);}
	.st10{fill:url(#SVGID_11_);}
	.st11{fill:url(#SVGID_12_);}
</style>
<g>
	
		<linearGradient id="SVGID_1_" gradientUnits="userSpaceOnUse" x1="44.7973" y1="279.8852" x2="120.2642" y2="279.8852" gradientTransform="matrix(1 0 0 1 0 -195.3333)">
		<stop  offset="0" style="stop-color:#41AFB7"/>
		<stop  offset="1" style="stop-color:#57CA8D"/>
	</linearGradient>
	<path class="st0" d="M63,111.9c8.7,1.4,17.3,2.8,26,4.3c1.7,0.3,3.4,0.6,5.1,0.8c4.9,0.8,9.6-1,13.1-4.5l0.1-0.1
		c2.8-1.3,5.1-3.4,6.8-6.2c1.5-2.6,1.8-5.6,2.2-8.5c0-0.2,0-0.4-0.1-0.5c1.8-1.6,3.1-3.8,3.6-6.2c0.3-2.6-0.2-4.9-1.4-6.9
		c0.1-0.1,0.2-0.2,0.2-0.4c0.6-3.4,1.3-6.8,1.6-10.2c0.4-5.6-2.9-10.8-7.6-13.6c-2.4-1.4-5.3-1.7-8-2.2c-4-0.6-7.9-1.3-11.9-1.9
		c-7.2-1.2-14.5-2.4-21.7-3.6c-4.5-0.7-9.2,0.5-12.5,3.6c-0.3,0.3-0.5,0.5-0.8,0.8c-4.5,2.2-7.7,6.2-8.5,11.2
		c-0.5,3.2-1,6.4-1.6,9.6c-0.7,4.4-1.4,8.7-2.1,13.1c-0.5,3.1-1.2,6.3-0.3,9.4c1.6,5.7,6,9.8,11.8,10.9C59,111.3,61,111.6,63,111.9z
		 M118.9,90.9c-1.1,5.2-5.6,8.5-10.9,7.8c-5.3-0.7-8.4-5.9-7.8-10.9c0.7-5.3,5.9-8.4,10.9-7.8C116.3,80.7,119.5,85.9,118.9,90.9z
		 M70.5,53.9c6.2,1,12.4,2,18.5,3c6.2,1,12.4,2,18.5,3c6.8,1.1,11.3,7.3,10.8,14c-0.2,3-0.9,5.4-1.4,8.4c-1.5-1.6-3.4-2.7-5.8-3.2
		c-5.7-1.2-10.8,3.2-11.9,8.5c-1.2,5.7,3.2,10.8,8.5,11.9c2.4,0.5,4.6,0,6.6-1.1c-1,5.7-2.4,9.9-8.1,12.6c-3.3,1.5-6.7,1-10.1,0.4
		c-8.5-1.4-16.9-2.8-25.4-4.2c-2.8-0.5-5.6-0.9-8.4-1.4c-6.1-1-10.6-5.8-11.2-11.9c-0.3-2.9,0.7-6.3,1.2-9.1
		c0.1-0.3,0.1-0.6,0.2-0.9c0.9,4,4.4,7.2,8.5,8.1c5.7,1.2,10.8-3.2,11.9-8.5c0.7-5.7-2.8-10.7-8.5-11.9c-4.5-0.9-8.6,1.6-10.7,5.4
		c0.3-1.9,0.6-3.8,0.9-5.7c0.4-2.2,0.7-4.5,1.1-6.7C56.8,57.6,63.6,52.8,70.5,53.9z M53.3,80.2c0.7-5.3,5.9-8.4,10.9-7.8
		c5.3,0.7,8.4,5.9,7.8,10.9c-1.1,5.2-5.6,8.5-10.9,7.8C55.9,90.4,52.7,85.2,53.3,80.2z M47.2,100.8c-1.4-3.5-0.5-7.2,0.1-10.8
		c1.2-7.3,2.4-14.7,3.6-22c0.5-3.1,2.1-5.8,4.4-7.7c-0.8,1.8-1.3,3.7-1.7,5.8c-1.3,7.8-2.6,15.7-3.9,23.5
		c-1.4,8.7,3.4,16.6,12.4,18.1c7.5,1.2,15,2.5,22.6,3.7c3.8,0.6,7.6,1.2,11.4,1.9c2.2,0.4,4.3,0.7,6.5,0.5c-6,3.1-13.9,0.5-20.6-0.6
		c-7.9-1.3-15.8-2.6-23.7-3.9C53.2,108.5,49.2,105.8,47.2,100.8z"/>
	
		<linearGradient id="SVGID_2_" gradientUnits="userSpaceOnUse" x1="54.1357" y1="277.0879" x2="71.2097" y2="277.0879" gradientTransform="matrix(1 0 0 1 0 -195.3333)">
		<stop  offset="0" style="stop-color:#41AFB7"/>
		<stop  offset="1" style="stop-color:#57CA8D"/>
	</linearGradient>
	<path class="st1" d="M61.3,90.2c4.7,1,8.9-2.7,9.8-7c0.6-4.8-2.3-8.8-7-9.8s-8.9,2.7-9.8,7C53.2,85.1,56.9,89.2,61.3,90.2z
		 M55.1,80.5c0.5-4.3,4.8-6.8,8.8-6.3c4.3,0.5,6.8,4.8,6.3,8.8c-0.9,4.2-4.5,6.8-8.8,6.3S54.6,84.5,55.1,80.5z"/>
	
		<linearGradient id="SVGID_3_" gradientUnits="userSpaceOnUse" x1="101.0205" y1="284.5879" x2="118.1001" y2="284.5879" gradientTransform="matrix(1 0 0 1 0 -195.3333)">
		<stop  offset="0" style="stop-color:#41AFB7"/>
		<stop  offset="1" style="stop-color:#57CA8D"/>
	</linearGradient>
	<path class="st2" d="M110.9,80.9c-4.7-1-8.9,2.7-9.8,7c-1,4.7,2.7,8.9,7,9.8c4.7,1,8.9-2.7,9.8-7C118.5,85.9,115.6,81.9,110.9,80.9
		z M117.1,90.6c-0.9,4.2-4.5,6.8-8.8,6.3s-6.8-4.8-6.3-8.8c0.5-4.3,4.8-6.8,8.8-6.3C115.1,82.3,117.6,86.6,117.1,90.6z"/>
	
		<linearGradient id="SVGID_4_" gradientUnits="userSpaceOnUse" x1="58.824" y1="240.0879" x2="71.4041" y2="240.0879" gradientTransform="matrix(1 0 0 1 0 -195.3333)">
		<stop  offset="0" style="stop-color:#41AFB7"/>
		<stop  offset="1" style="stop-color:#57CA8D"/>
	</linearGradient>
	<path class="st3" d="M59.3,49.4L59.3,49.4c3.9-1,7.8-2,11.7-3c0.2,0,0.3-0.3,0.3-0.5c-0.1-1.8-0.2-3.5-0.3-5.3
		c0-0.4-0.4-0.5-0.7-0.3c-2.6,1.4-5.1,2.8-7.7,4.2c-1.1,0.6-2.2,1.2-3.3,1.8c-0.7,0.4-0.5,1.8-0.6,2.5v0.1
		C58.8,49.3,59.1,49.4,59.3,49.4z M59.8,47.1c0,0,0.1,0,0.3-0.1c1.3-0.7,2.5-1.4,3.8-2.1c2.1-1.2,4.2-2.3,6.3-3.4
		c0.1,1.3,0.1,2.6,0.2,4c0,0.1,0,0.2,0,0.3l0,0c-0.7,0.2-1.4,0.4-2.1,0.5c-2.9,0.7-5.8,1.5-8.6,2.2c0.1-0.4,0.1-0.8,0.2-1.2
		C59.9,47.1,59.9,47.1,59.8,47.1z"/>
	
		<linearGradient id="SVGID_5_" gradientUnits="userSpaceOnUse" x1="110.3314" y1="250.4648" x2="120.6987" y2="250.4648" gradientTransform="matrix(1 0 0 1 0 -195.3333)">
		<stop  offset="0" style="stop-color:#41AFB7"/>
		<stop  offset="1" style="stop-color:#57CA8D"/>
	</linearGradient>
	<path class="st4" d="M110.3,55.5c0,0,0,0.1,0.1,0.1c0,0.1,0.1,0.1,0.2,0.1c3.2,1.5,6.3,2.9,9.5,4.4c0.4,0.2,0.7-0.2,0.6-0.5
		c-0.2-0.8-0.3-2.2-0.8-2.9c-0.4-0.6-1.4-1.1-2-1.6c-2-1.6-4.1-3.2-6.1-4.8c-0.3-0.2-0.7-0.1-0.7,0.3c-0.3,1.5-0.5,3.1-0.8,4.6
		C110.3,55.3,110.3,55.4,110.3,55.5C110.3,55.4,110.3,55.4,110.3,55.5z M111.8,51.5c1.7,1.3,3.3,2.6,5,3.9c0.8,0.6,1.6,1.3,2.4,1.9
		c0.1,0.1,0.3,0.9,0.5,1.7c-2.8-1.3-5.6-2.6-8.4-3.9C111.4,53.9,111.6,52.7,111.8,51.5z"/>
	
		<linearGradient id="SVGID_6_" gradientUnits="userSpaceOnUse" x1="59.753" y1="274.4879" x2="62.0476" y2="274.4879" gradientTransform="matrix(1 0 0 1 0 -195.3333)">
		<stop  offset="0" style="stop-color:#41AFB7"/>
		<stop  offset="1" style="stop-color:#57CA8D"/>
	</linearGradient>
	<circle class="st5" cx="60.8" cy="79.2" r="1.1"/>
	
		<linearGradient id="SVGID_7_" gradientUnits="userSpaceOnUse" x1="106.7421" y1="281.9879" x2="109.0367" y2="281.9879" gradientTransform="matrix(1 0 0 1 0 -195.3333)">
		<stop  offset="0" style="stop-color:#41AFB7"/>
		<stop  offset="1" style="stop-color:#57CA8D"/>
	</linearGradient>
	<circle class="st6" cx="107.8" cy="86.7" r="1.1"/>
	
		<linearGradient id="SVGID_8_" gradientUnits="userSpaceOnUse" x1="70.3038" y1="323.3372" x2="85.1095" y2="323.3372" gradientTransform="matrix(1 0 0 1 0 -195.3333)">
		<stop  offset="0" style="stop-color:#41AFB7"/>
		<stop  offset="1" style="stop-color:#57CA8D"/>
	</linearGradient>
	<path class="st7" d="M76.5,135.2c4.1,0.9,7.7-2.3,8.5-6.1c1-9.5-12.6-11.7-14.6-2.4C69.5,130.8,72.7,134.4,76.5,135.2z M71.3,126.9
		c0.4-3.7,4.1-5.8,7.5-5.4c3.7,0.4,5.8,4.1,5.4,7.5C82.3,137.2,70.3,135.2,71.3,126.9z"/>
	
		<linearGradient id="SVGID_9_" gradientUnits="userSpaceOnUse" x1="72.5302" y1="323.2748" x2="82.6505" y2="323.2748" gradientTransform="matrix(1 0 0 1 0 -195.3333)">
		<stop  offset="0" style="stop-color:#41AFB7"/>
		<stop  offset="1" style="stop-color:#57CA8D"/>
	</linearGradient>
	<path class="st8" d="M78.4,132.3c0,0.1,0,0.1,0,0.2c0,0.2,0.2,0.4,0.4,0.4c0.2,0,0.4,0.1,0.6,0.1s0.4-0.1,0.5-0.2
		c0.3-0.7,0.9-3.5,2.1-3.3c0.2,0,0.4-0.1,0.5-0.2c0.1-0.2,0.1-0.3,0.2-0.5c0.1-0.3,0-0.6-0.3-0.6c-1.1-0.2-2.3-0.4-3.4-0.6
		c-0.2,0-0.4,0.1-0.5,0.2c-0.1,0.2-0.1,0.3-0.2,0.5c-0.1,0.3,0,0.6,0.3,0.6c0.5,0.1,0.7,0.3,0.5,0.8c-0.6,1.5-2.6,2.1-3.9,0.6
		c-1.2-1.3,0-3.6,0.9-4.6c1.6-1.9,4.4-1.3,4.7,1.2c0,0.2,0.2,0.4,0.4,0.4c0.2,0,0.4,0,0.6,0s0.5-0.1,0.5-0.4
		c0.1-0.9,0.2-1.8,0.3-2.7c0-0.1,0-0.2,0-0.2c0-0.1-0.1-0.2-0.3-0.3c-0.6-0.1-0.8,0-1,0.3c-2.9-2.4-7.7-0.3-8.4,3.3
		C71.8,130.9,75,133.6,78.4,132.3z M79.1,132.1L79.1,132.1L79.1,132.1L79.1,132.1z M79.1,131.2c0.7-1,1.1-2,0.6-2.6h0.1
		c0.3,0,0.6,0.1,0.9,0.1c-0.3,0.3-0.5,0.7-0.7,1.1c-0.3,0.7-0.5,1.3-0.8,2c0,0,0-0.1,0-0.2C79.2,131.5,79.1,131.3,79.1,131.2
		C79.1,131.3,79.1,131.2,79.1,131.2z M81.4,124.9C81.4,124.9,81.5,124.8,81.4,124.9c0,0.3,0,0.7-0.1,1c-0.1-0.3-0.2-0.6-0.4-0.9
		C81.1,125.1,81.3,125,81.4,124.9z M73.3,128c0.2-1.7,1.4-3.1,3-3.8c-1.8,1.1-3.2,3.7-2.4,5.7c0.2,0.4,0.4,0.8,0.7,1.2
		C73.7,130.4,73.2,129.3,73.3,128z"/>
	
		<linearGradient id="SVGID_10_" gradientUnits="userSpaceOnUse" x1="73.2127" y1="292.4381" x2="80.0222" y2="292.4381" gradientTransform="matrix(1 0 0 1 0 -195.3333)">
		<stop  offset="0" style="stop-color:#41AFB7"/>
		<stop  offset="1" style="stop-color:#57CA8D"/>
	</linearGradient>
	<path class="st9" d="M78.2,102.1c2.1-1,1.9-4.5,1.4-6.3c-0.7-2-2.3-4-4.6-3.8c-2.7,0.2-1.9,4.3-1.4,5.9
		C74.2,99.8,75.9,103.2,78.2,102.1z M75.7,92.9c1.6,0.1,2.7,1.9,3.2,3.2c0.4,1.4,0.4,2.9-0.2,4.3c-1.3,3-3.5-1-4-2.2
		C74.1,96.8,73,92.6,75.7,92.9z"/>
	
		<linearGradient id="SVGID_11_" gradientUnits="userSpaceOnUse" x1="21.9222" y1="295.9379" x2="48.489" y2="295.9379" gradientTransform="matrix(1 0 0 1 0 -195.3333)">
		<stop  offset="0" style="stop-color:#41AFB7"/>
		<stop  offset="1" style="stop-color:#57CA8D"/>
	</linearGradient>
	<path class="st10" d="M37.5,112.2L37.5,112.2c3.7-4,1.8-10.6-2.8-13l-0.1-0.8l-0.9-10.9l-0.8,0.1l0.9-0.4l-5.7-12.1l-4.8,14.3
		l0.4,15.2v0.3c-0.4-0.1-0.7-0.1-1.1-0.2c-0.3-0.1-0.5,0.1-0.5,0.4c-0.3,2.4,0.4,4.7,1.8,6.4v1l0.2,8.4l4.3,0.7l-0.5-7.3
		c0.3,0.1,0.7,0.2,1,0.2c0.1,0,0.2,0,0.3-0.1c0.9,0.2,1.8,0.3,2.7,0.2l0.4,5.3l-4,0.6l0.2,1l5-0.8l-0.1-0.7l0.4,0.6l2.6-1.6v-0.3
		c1.1,1.2,2.2,2.4,3.4,3.6c1.1,1.1,2.1,2.2,3.2,3.4c0.5,0.6,1.6,0.4,2.3,0.5l0,0l0,0c0.2,0,0.3-0.1,0.3-0.2c0.9-1,1.8-2.1,2.8-3.1
		c0.2-0.2,0.2-0.4,0-0.6C44.7,118.9,41.1,115.6,37.5,112.2z M34.9,113.9c0.3-0.2,2-1,2.3-1.2l10.4,9.7l-2.4,2.8
		c-0.4-0.4-9.9-10-10.2-10.4L34.9,113.9z M27.2,80.7l0.1,0.7l2.2-0.3l-0.1-0.6l3.4,7.2l-2,0.3l0.1,1l-0.3-0.8l-3.9,0.7l0.2,1
		l2.9-0.5l1.6,20.1v1c-0.6,0.3-1.3-0.1-2.1,0c0,0,0,0-0.1,0c-0.6-0.2-1.2-0.4-1.7-0.8v-0.5l-0.9-20l-2.3-0.1v1l-0.2-0.5L27.2,80.7z
		 M31.8,114l-4-0.8l-1-0.7l-2.1-2.6c-0.5-0.9-0.8-1.8-0.8-2.8c0-0.9-0.1-1.2,0-1.2c0,0,0,0,0.1,0s0.1,0,0.1,0c0.1,0,0.2,0.1,0.4,0.1
		l0.5,1c0.2,0.7,0.5,1.6,0.6,1.6c0.3,0.5,0.7,0.9,1.1,1.3c0.2,0.2,0.4,0.4,0.6,0.5c0.1,0.1,0.3,0.1,0.4,0.2c0.5,0.2,1,0.4,1.5,0.5
		h0.1h0.1l0,0c0.7,0.1,1.5,0.2,2.2,0.1c0.3,0,0.7-0.1,1-0.2c0.7-0.2,1.2-1,1.9-1.1c1.4-0.3,0.3-8.9,0.6-9.3L37,102
		c1.7,2.2,1.7,4.4,1.7,4.6c-0.1,0.7-0.4,3.2-1.2,4.2c-0.3,0.5-2.4,1.8-2.8,2l-2,0.8C32.5,113.9,32.2,113.9,31.8,114z M35.1,119.1
		l-0.1-2.9c0.4,0.4,1.2,0.9,1.5,1.2l8.1,8.1l-1.5,0.1l-6.8-7C36.1,118.6,35.5,119.5,35.1,119.1z"/>
	
		<linearGradient id="SVGID_12_" gradientUnits="userSpaceOnUse" x1="49.9285" y1="331.265" x2="138.6315" y2="331.265" gradientTransform="matrix(1 0 0 1 0 -195.3333)">
		<stop  offset="0" style="stop-color:#41AFB7"/>
		<stop  offset="1" style="stop-color:#57CA8D"/>
	</linearGradient>
	<path class="st11" d="M138.1,116.8c-6.4-0.6-12.5,0.2-18.9,0c-6.3-0.2-12.6,0-19,0c-0.5,0-1.3,0.2-1.5,0.7
		c-1.1,2.2-2.2,4.5-3.2,6.8c-3-0.5-6.1-1-9.1-1.5c-0.2,0-0.3,0-0.4,0.1c-1.4-2.3-3.7-4-6.6-4.6c-2.9-0.6-5.7,0.4-7.8,2.2
		c-0.1-0.1-0.2-0.2-0.4-0.2c-5.2-0.8-10.3-1.7-15.5-2.5h-0.1c-0.2-0.1-0.4-0.1-0.6,0c-1.9,0.8-3,0.8-3.3,2.8c-0.5,3.2-1,6.4-1.6,9.5
		c-1,6,1.7,11.1,8,12.1c5.7,0.9,11.5,1.9,17.2,2.8c3.5,0.6,7.4,1.7,11.1,1.4c-1.1,2.8-2.1,5.5-3.1,8.3c0,0.1,0,0.1,0,0.2
		c0,0.1,0.1,0.1,0.3,0.2c6.4,0.6,12.3,0.1,18.7-0.2c6.3-0.3,12.7,0.2,19,0.4c0.5,0,1.6-0.1,1.8-0.7c4.7-12.7,10.5-25,15.5-37.6
		C138.6,116.9,138.3,116.8,138.1,116.8z M79.1,119.2c4.9,0.6,7.8,5.5,7.3,10.1c-1,4.9-5.2,7.9-10.1,7.3c-4.9-0.6-7.8-5.5-7.3-10.1
		C69.6,121.6,74.5,118.6,79.1,119.2z M75.8,137.4c-6.4-0.4-10.3-7.9-6.9-13.4c-0.3,0.7-0.6,1.5-0.8,2.3
		C67.1,131.6,71,136.2,75.8,137.4z M55.6,139.8c-3.9-1.6-4.5-5.8-3.9-9.4c0.5-2.8,0.9-5.5,1.4-8.3c0.1-0.6,0.2-1.2,0.3-1.9
		c0.3-0.1,0.6-0.2,0.8-0.3c0.1,0,0.1,0,0.2-0.1c-0.4,2.7-0.9,5.3-1.3,8c-0.6,3.9-0.9,7.3,1.9,10.5c0.9,1.1,2.1,1.8,3.3,2.2
		C57.3,140.4,56.4,140.2,55.6,139.8z M84.1,143.3c-3.4-0.6-6.7-1.1-10.1-1.7c-3.2-0.5-6.5-1.1-9.7-1.6c-2.4-0.4-4.9-0.6-6.9-1.9
		c-4-2.6-3-7.2-2.4-11.1c0.4-2.5,0.8-5,1.2-7.5c4.7,0.8,8.8,1.4,13.4,2.2c-7,7.1,0.4,19.5,10.5,15.8c0.2-0.1,0.2-0.2,0.3-0.3
		c3.5-1,6.2-4.2,6.9-7.8c0.2-1.7,0-3.3-0.5-4.8c2.8,0.5,5.3,0.9,8,1.3c-2.6,5.9-5.1,11.9-7.4,17.9C86.2,143.8,85.1,143.5,84.1,143.3
		z M135.7,119c-4.3,12.1-10.1,23.4-14.6,35.4c-5.8-0.2-11.8-0.6-17.6-0.4c-6.2,0.2-11.9,0.7-18.1,0.2c4.6-12.2,9.3-24.7,15.1-36.3
		c6,0,11.9-0.2,17.8,0c3.6,0.1,6.9,0,10.5-0.4c1.9-0.2,2.7-0.1,4.8,0.1c0.3,0,2.1,0,2.7,0.2C136.1,117.8,135.8,118.8,135.7,119z"/>
</g>
</svg>
