<?xml version="1.0" encoding="utf-8"?>
<!-- Generator: Adobe Illustrator 21.0.0, SVG Export Plug-In . SVG Version: 6.00 Build 0)  -->
<svg version="1.1" id="Слой_1" xmlns="http://www.w3.org/2000/svg" xmlns:xlink="http://www.w3.org/1999/xlink" x="0px" y="0px"
	 viewBox="0 0 162.3 156.3" style="enable-background:new 0 0 162.3 156.3;" xml:space="preserve">
<style type="text/css">
	.st0{fill:url(#SVGID_1_);}
	.st1{fill:url(#SVGID_2_);}
	.st2{fill:url(#SVGID_3_);}
	.st3{fill:url(#SVGID_4_);}
	.st4{fill:url(#SVGID_5_);}
	.st5{fill:url(#SVGID_6_);}
	.st6{fill:url(#SVGID_7_);}
	.st7{fill:url(#SVGID_8_);}
	.st8{fill:url(#SVGID_9_);}
	.st9{fill:url(#SVGID_10_);}
	.st10{fill:url(#SVGID_11_);}
	.st11{fill:url(#SVGID_12_);}
	.st12{fill:url(#SVGID_13_);}
	.st13{fill:url(#SVGID_14_);}
	.st14{fill:url(#SVGID_15_);}
	.st15{fill:url(#SVGID_16_);}
	.st16{fill:url(#SVGID_17_);}
	.st17{fill:url(#SVGID_18_);}
	.st18{fill:url(#SVGID_19_);}
	.st19{fill:url(#SVGID_20_);}
	.st20{fill:url(#SVGID_21_);}
	.st21{fill:url(#SVGID_22_);}
	.st22{fill:url(#SVGID_23_);}
	.st23{fill:url(#SVGID_24_);}
	.st24{fill:url(#SVGID_25_);}
</style>
<g>
	<g>
		
			<linearGradient id="SVGID_1_" gradientUnits="userSpaceOnUse" x1="42.6043" y1="213.6563" x2="114.1713" y2="213.6563" gradientTransform="matrix(1 0 0 1 0 -131.3333)">
			<stop  offset="0" style="stop-color:#41AFB7"/>
			<stop  offset="1" style="stop-color:#57CA8D"/>
		</linearGradient>
		<path class="st0" d="M112.5,90.4c0,3-0.6,5.5-1.4,7.9c-0.8,2.3-2.4,4.2-5,6c-3,2.1-6.4,1.9-9.8,1.9c-2.9,0-5.7,0.1-8.6,0.1
			s-5.7,0.4-8.6,0.4c-2.9,0-5.7,0-8.6,0c-2.8,0-5.7-0.5-8.5-0.5c-3.1,0-5.9-0.8-8.2-2.6c-2.3-1.7-4.3-4.1-5.1-7.1
			c-0.8-2.8-0.4-6.4-0.4-9.3c0-4.6,0.7-9.2,0.7-13.7c0-2.3-0.4-4.5-0.4-6.8c0-3.5,1.6-6.7,4-9c2.4-2.3,5.5-3.9,9-3.9
			c3.1,0,6.3-0.1,9.4-0.1c3.1,0,6.3-0.1,9.4-0.1s6.3,0.3,9.4,0.3c3.1,0,6.3,0.3,9.4,0.3c3.4,0,6.5,0.9,8.8,3.1
			c2.3,2.2,3.6,5.2,3.9,8.6c0.3,3.1,0.1,5.6,0.1,8.8c0,1.1,2.1,1.9,2.1,0.8c0-3.4,0.1-6.9-0.2-10.4c-0.2-2.8-1.4-5.4-3.1-7.5
			s-4.2-3.3-6.8-4.3c-2.6-1-5.3-0.9-8.1-0.9c-4,0-8,0.1-12,0.1c-3.7,0-7.3-0.3-11-0.3c-3.7,0-7.3-0.3-11-0.3c-4.5,0-9,2.3-11.7,5.9
			C50,58.1,50,58.7,49.8,59c-4.1,2.9-7,7-7,12.2c0,3.2,0.5,6.5,0.5,9.7c0,4.4-0.5,8.8-0.5,13.3c0,3.2,0.2,6.3,1.6,9.3
			c1.2,2.7,3,4.9,5.3,6.4c2.3,1.5,5,2.6,8,2.7c2,0.1,4.1,0,6.1,0c2.9,0,5.8-0.4,8.8-0.4s5.8-0.1,8.8-0.1s5.8,0.5,8.8,0.5
			c1.7,0,3.5,0.2,5.2,0.2c5,0,9.1-3.1,11.9-7.1l0.4,0.2c2.6-1.8,4-4.5,5.2-7.5c1.1-2.8,0.9-5.7,0.9-8.6
			C113.6,88.5,112.5,89.3,112.5,90.4z M82.6,110.9c-4,0-8-0.4-12-0.4s-8-0.1-12-0.1c-5.2,0-9.4-2-12.1-6.6c-2-3.3-1.7-6.9-1.7-10.5
			c0-3.7-0.5-7.4-0.5-11.2s0-7.4,0-11.2c0-3.2,1.4-5.8,3.4-8.1c-0.5,1.9-0.9,3.6-0.9,5.7c0,4,0.4,7.9,0.4,11.9s0,7.9,0,11.9
			c0,4.4,0.9,8.6,3.6,11.5s6.7,4.3,11.3,4.3c3.8,0,7.6,0.2,11.4,0.2s7.6-0.1,11.4-0.1c3.9,0,7.7-0.1,11.6-0.1c2.2,0,4.6,0.2,6.7-0.3
			c-2.8,2.1-6.5,2.7-10.2,2.9C89.6,110.8,85.9,110.9,82.6,110.9z"/>
	</g>
</g>
<g>
	<g>
		
			<linearGradient id="SVGID_2_" gradientUnits="userSpaceOnUse" x1="48.1407" y1="213.8565" x2="68.9126" y2="213.8565" gradientTransform="matrix(1 0 0 1 0 -131.3333)">
			<stop  offset="0" style="stop-color:#41AFB7"/>
			<stop  offset="1" style="stop-color:#57CA8D"/>
		</linearGradient>
		<path class="st1" d="M58.4,72.1c-2.9-0.1-5.3,1.3-7.2,3.3c-1.8,1.9-3,4.5-3.1,7.2c-0.1,2.9,1.2,5.2,3.1,7.1
			c1.9,1.8,4.4,3.2,7.1,3.3c2.9,0.1,5.4-1.2,7.2-3.1c1.8-1.9,3.2-4.6,3.3-7.3c-0.1-2.9-1.4-5.4-3.2-7.3
			C63.8,73.5,61.3,72.2,58.4,72.1z M58.4,91.9c-5.3,0.2-9.4-4.3-9.6-9.3c-0.2-5.3,4.6-9.3,9.6-9.5c5.3-0.2,9.5,4.5,9.7,9.5
			C67.9,87.9,63.7,91.7,58.4,91.9z"/>
	</g>
</g>
<g>
	<g>
		
			<linearGradient id="SVGID_3_" gradientUnits="userSpaceOnUse" x1="49.8152" y1="213.7564" x2="66.8975" y2="213.7564" gradientTransform="matrix(1 0 0 1 0 -131.3333)">
			<stop  offset="0" style="stop-color:#41AFB7"/>
			<stop  offset="1" style="stop-color:#57CA8D"/>
		</linearGradient>
		<path class="st2" d="M58.4,73.9c-4.8-0.2-8.4,4.2-8.6,8.6c-0.2,4.8,4.1,8.2,8.6,8.5c4.8,0.2,8.3-4,8.5-8.4
			C66.6,77.8,63.2,74.2,58.4,73.9z M58.4,90.1c-4.3,0.2-7.4-3.5-7.6-7.6c-0.2-4.3,3.6-7.6,7.6-7.8c4.3-0.2,7.5,3.7,7.7,7.8
			C65.9,86.9,62.7,89.9,58.4,90.1z"/>
	</g>
</g>
<g>
	<g>
		
			<linearGradient id="SVGID_4_" gradientUnits="userSpaceOnUse" x1="95.4007" y1="213.7072" x2="116.0822" y2="213.7072" gradientTransform="matrix(1 0 0 1 0 -131.3333)">
			<stop  offset="0" style="stop-color:#41AFB7"/>
			<stop  offset="1" style="stop-color:#57CA8D"/>
		</linearGradient>
		<path class="st3" d="M105.9,72.1c-2.9-0.1-5.3,1.3-7.2,3.2c-1.8,1.9-3.3,4.5-3.4,7.2c-0.1,2.9,1.2,5.5,3.1,7.4
			c1.9,1.8,4.7,2.6,7.4,2.8c2.9,0.1,5.4-0.9,7.2-2.8c1.8-1.9,2.8-4.5,2.9-7.3c-0.1-2.9-1.2-5.3-3-7.2
			C111.2,73.5,108.8,72.2,105.9,72.1z M105.9,91.9c-5.3,0.2-9.4-4.4-9.6-9.4c-0.2-5.3,4.6-9.1,9.6-9.3c5.3-0.2,9.1,4.3,9.3,9.3
			C115,87.8,111.2,91.7,105.9,91.9z"/>
	</g>
</g>
<g>
	<g>
		
			<linearGradient id="SVGID_5_" gradientUnits="userSpaceOnUse" x1="97.5149" y1="213.7564" x2="114.5219" y2="213.7564" gradientTransform="matrix(1 0 0 1 0 -131.3333)">
			<stop  offset="0" style="stop-color:#41AFB7"/>
			<stop  offset="1" style="stop-color:#57CA8D"/>
		</linearGradient>
		<path class="st4" d="M105.9,74c-4.8-0.2-8.2,4.1-8.4,8.5c-0.2,4.8,3.9,8.2,8.4,8.4c4.8,0.2,8.4-3.9,8.6-8.4
			C114.3,77.7,110.7,74.2,105.9,74z M105.9,90.2c-4.3,0.2-7.6-3.7-7.8-7.7c-0.2-4.3,3.8-7.6,7.8-7.8c4.3-0.2,7.4,3.8,7.6,7.8
			C113.3,86.9,110.2,90,105.9,90.2z"/>
	</g>
</g>
<g>
	<g>
		
			<linearGradient id="SVGID_6_" gradientUnits="userSpaceOnUse" x1="49.0571" y1="177.0563" x2="61.2489" y2="177.0563" gradientTransform="matrix(1 0 0 1 0 -131.3333)">
			<stop  offset="0" style="stop-color:#41AFB7"/>
			<stop  offset="1" style="stop-color:#57CA8D"/>
		</linearGradient>
		<path class="st5" d="M61.2,45.8c-0.4-1.7-0.9-3.4-1.2-5.2c-0.1-0.4-0.5-0.5-0.7-0.3c-2.3,1.8-4.5,3.8-6.8,5.6c-1,0.8-2,1.5-3,2.3
			c-0.6,0.5-0.4,1.8-0.4,2.5l0.2,0.1c0.1,0.3,0.3,0.5,0.6,0.4c0,0,0,0.1,0.1,0.1c3.7-1.6,7.4-3.2,11.1-4.8
			C61.2,46.4,61.3,46,61.2,45.8z M58.2,46.5c-2.7,1.2-5.4,2.5-8.1,3.7c0-0.4,0.1-0.9,0-1.3c0-0.1-0.2-0.2-0.2-0.2s0.2,0,0.3-0.2
			c1.1-0.9,2.4-1.7,3.5-2.6c1.9-1.5,3.7-3.1,5.6-4.6c0.3,1.3,0.5,2.7,0.8,4c0,0.1,0,0.2,0,0.3c0,0,0.1-0.1,0-0.1
			C59.5,45.9,58.9,46.3,58.2,46.5z"/>
	</g>
</g>
<g>
	<g>
		
			<linearGradient id="SVGID_7_" gradientUnits="userSpaceOnUse" x1="101.0908" y1="179.0926" x2="112.0609" y2="179.0926" gradientTransform="matrix(1 0 0 1 0 -131.3333)">
			<stop  offset="0" style="stop-color:#41AFB7"/>
			<stop  offset="1" style="stop-color:#57CA8D"/>
		</linearGradient>
		<path class="st6" d="M112,51.3c-0.4-0.8-0.7-2.1-1.3-2.7c-0.5-0.5-1.5-0.9-2.1-1.3c-2.3-1.3-4.6-2.4-6.9-3.6
			c-0.3-0.2-0.6,0-0.6,0.3c0,1.6,0.1,3.1,0.1,4.7c0,0.1-0.1,0.2-0.1,0.2l0,0v0.2c0,0,0.1,0.1,0.2,0.1c3.4,0.9,6.8,1.8,10.1,2.7
			C111.9,52.1,112.1,51.7,112,51.3z M110.1,49.3c0.1,0,0.4,0.9,0.7,1.6c-3-0.8-5.9-1.7-8.9-2.6c0-1.2,0-2.5,0-3.7
			c1.8,1,3.7,2.1,5.5,3.1C108.4,48.3,109.3,48.8,110.1,49.3z"/>
	</g>
</g>
<g>
	
		<linearGradient id="SVGID_8_" gradientUnits="userSpaceOnUse" x1="60.3152" y1="211.8063" x2="62.6095" y2="211.8063" gradientTransform="matrix(1 0 0 1 0 -131.3333)">
		<stop  offset="0" style="stop-color:#41AFB7"/>
		<stop  offset="1" style="stop-color:#57CA8D"/>
	</linearGradient>
	<circle class="st7" cx="61.4" cy="80.5" r="1.1"/>
</g>
<g>
	
		<linearGradient id="SVGID_9_" gradientUnits="userSpaceOnUse" x1="107.8915" y1="211.6063" x2="110.1857" y2="211.6063" gradientTransform="matrix(1 0 0 1 0 -131.3333)">
		<stop  offset="0" style="stop-color:#41AFB7"/>
		<stop  offset="1" style="stop-color:#57CA8D"/>
	</linearGradient>
	<circle class="st8" cx="109" cy="80.3" r="1.1"/>
</g>
<g>
	<g>
		
			<linearGradient id="SVGID_10_" gradientUnits="userSpaceOnUse" x1="53.8219" y1="262.4563" x2="102.0571" y2="262.4563" gradientTransform="matrix(1 0 0 1 0 -131.3333)">
			<stop  offset="0" style="stop-color:#41AFB7"/>
			<stop  offset="1" style="stop-color:#57CA8D"/>
		</linearGradient>
		<path class="st9" d="M101.2,119.1c-4.3,0-8.5,0.5-12.8,0.5c-1.1,0-0.4,1.6,0.7,1.6c4,0,7.3-0.1,11.3-0.1c0,2.3,0.2,4.7,0.2,7
			c0,4.1,0.3,8.2-3.6,10.9c-0.3,0.2-0.8,0.5-1.2,0.6c-0.2,0-0.4,0-0.6,0.1l-0.2-0.1c-1.8,0.5-3.8,0.2-5.6,0.2
			c-3.4,0-6.8,0.1-10.2,0.1c-3.3,0-6.6,0.1-9.8,0.1c-2.4,0-4.8-0.1-7.1-1.1c-4.4-2-4.2-6.4-4.2-10.4c0-2.5-0.1-5.1-0.1-7.6
			c4.9,0,9.2,0,14.2,0c1.1,0,1.8-1.5,0.7-1.5c-2.6,0-5.2,0-7.8,0c-2.6,0-5.2-0.4-7.8-0.4l-0.1,0.4c-0.2,0-0.2,0.1-0.4,0.2
			c-1.8,1.1-3,1-3,3.1c0,3.2,0,6.4,0,9.7c0,3,0.6,5.9,2.3,7.8c1.7,1.9,4.3,3.1,7.5,3.1c2.9,0,5.8-0.3,8.7-0.3s5.8,0.1,8.7,0.1
			c4.9,0,10.9,1.1,15-2c0.8-0.3,1.5-0.7,2.3-1.3c3.3-2.3,3.6-6.1,3.6-9.8c0-3.3-0.1-6.6-0.1-9.9
			C101.8,119.7,101.7,119.1,101.2,119.1z M55.6,132.4c0-2.8-0.5-5.6-0.5-8.4c0-0.6,0.4-1.2,0.4-1.9c0.3-0.2,0.4-0.4,0.7-0.5
			c0,0,0.3,0,0.4-0.1c0,2.7,0,5.4,0,8.1c0,3.9,0.2,7.2,3.5,9.9c1.1,0.9,2.3,1.4,3.6,1.7c-0.9,0-1.9,0.1-2.8-0.1
			C56.7,140.1,55.6,136.1,55.6,132.4z"/>
	</g>
</g>
<g>
	
		<linearGradient id="SVGID_11_" gradientUnits="userSpaceOnUse" x1="101.8331" y1="263.4746" x2="111.4386" y2="263.4746" gradientTransform="matrix(1 0 0 1 0 -131.3333)">
		<stop  offset="0" style="stop-color:#41AFB7"/>
		<stop  offset="1" style="stop-color:#57CA8D"/>
	</linearGradient>
	<path class="st10" d="M107.9,124c0-0.2-0.1-0.1-0.3-0.1c-1.3-0.1-2.6-0.1-3.9-0.1c-0.1,0-0.2-0.2-0.3-0.2c0,0-0.2-0.3-0.2-0.2l0,0
		c-0.5,0.3-0.9,0.9-1.4,1.3c-0.2,0.1,0.2,0.2,0.2,0.4c0.7,2.6,0.9,5.2,1.6,7.8s1.5,5.1,2.1,7.7c0.1,0.5,1,0.3,0.8-0.2
		c-0.8-2.9-1.3-5.9-2.1-8.8c-0.4-1.7-0.8-3.4-1.3-5.1c-0.1-0.4-0.4-0.7-0.5-1.1c0.1,0,0.1,0.1,0.2,0c0.2-0.1,0.5-0.4,0.7-0.6
		c0.6,2.6,0.9,5.3,1.4,7.9s1.3,5.2,1.8,7.8c0.1,0.5,0.7,0.4,0.5-0.2c-0.7-3.1-1.4-6.1-2-9.2c-0.4-1.9-0.6-3.8-1-5.7
		c-0.1-0.3-0.3-0.7-0.4-1c0.4,0,0.9,0.5,1.3,0.5c0.5,0,1,0,1.6,0c0.2,0,0-0.1,0.1-0.1c0.1,0.3,0.7,0.4,0.8,0.6
		c0.4,1.9,0.2,3.8,0.6,5.7c0.6,3.2,1.1,6.4,1.7,9.6c0.1,0.5,1.4,0.2,1.3-0.3c-0.5-2.7-1-5.4-1.5-8.1
		C109.4,129.3,108.5,126.7,107.9,124z"/>
</g>
<g>
	<g>
		
			<linearGradient id="SVGID_12_" gradientUnits="userSpaceOnUse" x1="104.4921" y1="281.2053" x2="114.5424" y2="281.2053" gradientTransform="matrix(1 0 0 1 0 -131.3333)">
			<stop  offset="0" style="stop-color:#41AFB7"/>
			<stop  offset="1" style="stop-color:#57CA8D"/>
		</linearGradient>
		<path class="st11" d="M105.1,146.1c4.6-2.3,8.9,2.7,6.3,7c-0.1,0.2-0.1,0.4,0.1,0.5c0.5,0.4,1,0.9,1.5,1.3c0.2,0.2,0.4,0.2,0.6,0
			c0.3-0.2,0.6-0.5,0.8-0.8c0.4-0.4-0.2-1-0.6-0.6c-0.2,0.3-0.5,0.6-0.8,0.8c0.2,0,0.4,0,0.6,0c-0.3-0.3-0.7-0.6-1-0.9
			c-0.6-0.5,0-0.2,0.2-1.1c0.5-1.7,0.4-3.2-0.3-4.7c-1.4-2.9-5.1-3.5-7.8-2.2C104.2,145.6,104.6,146.3,105.1,146.1L105.1,146.1z"/>
		<g>
			
				<linearGradient id="SVGID_13_" gradientUnits="userSpaceOnUse" x1="99.3857" y1="278.757" x2="116.5082" y2="278.757" gradientTransform="matrix(1 0 0 1 0 -131.3333)">
				<stop  offset="0" style="stop-color:#41AFB7"/>
				<stop  offset="1" style="stop-color:#57CA8D"/>
			</linearGradient>
			<path class="st12" d="M109.3,140.2c-2.6-0.1-4.9,0.8-6.5,2.4c-0.1,0-0.2,0-0.3,0.1c-3.6,3-4.2,8.1-1.4,11.8
				c0.2,0.2,0.6,0.3,0.8,0.1c0.3-0.3,0.5-0.6,0.8-0.8h0.1c0.4-0.4,0.8-0.9,1.2-1.3c0.2-0.1,0.2-0.2,0.2-0.4c-1.6-3.5,0.4-7,4.2-7.3
				c4.1-0.3,5.8,4.6,4,7.6c-0.1,0.2-0.1,0.4,0,0.5c0.5,0.4,1,0.8,1.5,1.3h0.1c0.2,0.1,0.4,0.3,0.6,0.1c2-2.4,2.3-5.8,1.4-8.6
				C115.1,142.7,112.8,140.4,109.3,140.2z M100.5,148c-0.1,1.8,0.2,3.6,1.4,5.3c-0.1,0.1,0,0-0.1,0.1
				C100.6,151.6,100.1,149.8,100.5,148z M112.2,145.2c-2.8-2.8-7.3-1.2-9,1.8c-0.4,0.8-0.6,1.6-0.6,2.5c0,0.2,0.5,2.6,0.8,2.4
				c-0.3,0.3-0.5,0.5-0.6,0.7c0,0,0,0.1-0.1,0.2h-0.1c-0.2,0.1-0.4-0.2-0.8-1c-1.2-2.1-0.7-4.8,0.3-6.8c0.2-0.5,0.6-1,0.9-1.4
				c0.1-0.1,0.1-0.2,0.2-0.2c0.1-0.1,0.1-0.1,0.1-0.1c2.2-2.2,5.9-2.6,8.7-1.2c4.3,2.1,4.8,7.8,2.2,11.3c-0.3-0.3-0.8-0.6-1.1-0.8
				c0.4,0.3,0.9-2,0.9-2C114.1,148.2,113.6,146.6,112.2,145.2z"/>
		</g>
	</g>
</g>
<g>
	
		<linearGradient id="SVGID_14_" gradientUnits="userSpaceOnUse" x1="44.2411" y1="263.9011" x2="53.9684" y2="263.9011" gradientTransform="matrix(1 0 0 1 0 -131.3333)">
		<stop  offset="0" style="stop-color:#41AFB7"/>
		<stop  offset="1" style="stop-color:#57CA8D"/>
	</linearGradient>
	<path class="st13" d="M53.7,126c-1.3-0.4-2.7-0.7-4-1.2c-0.1-0.1-0.2-0.4-0.4-0.3l0.2,0.3l-0.3-0.4c-0.6,0.4-1.6,1-1.8,1.7
		c-0.4,1.5-0.4,3.1-0.7,4.6c-0.8,3.2-1.8,6.4-2.5,9.6c-0.1,0.5,0.5,0.7,0.7,0.2c0.6-2.7,1.3-5.3,2-8c0.4-1.7,0.6-3.5,1-5.2
		c0.2-0.9,0.8-1,1.2-1.3c-1.2,4.7-2.7,9.4-4,14.1c-0.1,0.5,0.6,0.7,0.7,0.2c0.7-2.7,1.8-5.4,2.6-8.1c0.5-1.8,0.7-3.6,1.2-5.4
		c0.1-0.5,0.1-1,0.2-1.5c0.2,0.1,0.5,0.3,0.7,0.3c0.8,0.3,1.7,0.2,2.5,0.5c0.1,0-0.1,0.7,0,0.7l0.1-0.3c-0.5,1.6-1.1,3.1-1.6,4.7
		c-0.9,3-1.8,6-2.7,8.9c-0.2,0.5,0.6,0.7,0.8,0.2c1.4-4.7,2.9-9.4,4.4-14.1C54,126.2,54,126.1,53.7,126z"/>
</g>
<g>
	<g>
		
			<linearGradient id="SVGID_15_" gradientUnits="userSpaceOnUse" x1="42.9796" y1="281.3053" x2="53.0298" y2="281.3053" gradientTransform="matrix(1 0 0 1 0 -131.3333)">
			<stop  offset="0" style="stop-color:#41AFB7"/>
			<stop  offset="1" style="stop-color:#57CA8D"/>
		</linearGradient>
		<path class="st14" d="M43.6,146.2c4.6-2.3,8.9,2.7,6.3,7c-0.1,0.2-0.1,0.4,0.1,0.5c0.5,0.4,1,0.9,1.5,1.3c0.2,0.2,0.4,0.2,0.6,0
			c0.3-0.2,0.6-0.5,0.8-0.8c0.4-0.4-0.2-1-0.6-0.6c-0.2,0.3-0.5,0.6-0.8,0.8c0.2,0,0.4,0,0.6,0c-0.3-0.3-0.7-0.6-1-0.9
			c-0.6-0.5,0-0.2,0.2-1.1c0.5-1.7,0.4-3.2-0.3-4.7c-1.4-2.9-5.1-3.5-7.8-2.2C42.7,145.7,43.1,146.5,43.6,146.2L43.6,146.2z"/>
		<g>
			
				<linearGradient id="SVGID_16_" gradientUnits="userSpaceOnUse" x1="38.0756" y1="278.8358" x2="55.0264" y2="278.8358" gradientTransform="matrix(1 0 0 1 0 -131.3333)">
				<stop  offset="0" style="stop-color:#41AFB7"/>
				<stop  offset="1" style="stop-color:#57CA8D"/>
			</linearGradient>
			<path class="st15" d="M47.8,140.3c-2.6-0.1-5,0.9-6.5,2.4c-0.1,0-0.1,0.2-0.2,0.2c-3.6,3-4.1,7.8-1.3,11.5
				c0.2,0.2,0.4,0.5,0.6,0.3c0.3-0.3,0.6-0.5,0.9-0.7l-0.2-0.3c0.4-0.4,1-0.6,1.5-1c0.2-0.1-0.1-0.3-0.2-0.5
				c-1.6-3.5,0.5-7.2,4.3-7.5c4.1-0.3,5.9,4.8,4.1,7.8c-0.1,0.2-0.2,0.3-0.1,0.4c0.5,0.4,0.9,0.9,1.4,1.4l0.2-0.1
				c0.2,0.1,0.4,0.2,0.6,0c2-2.4,2.4-5.8,1.5-8.6C53.6,142.8,51.4,140.5,47.8,140.3z M39,148.2c-0.1,1.8,0.2,3.6,1.3,5.3
				c-0.1,0.1-0.1,0.1-0.2,0.2C38.9,151.9,38.7,150,39,148.2z M50.7,145.3c-2.8-2.8-7.4-1.2-9.1,1.9c-0.4,0.8-0.3,1.7-0.4,2.5
				c0,0.2,0.5,2.8,0.7,2.6c-0.3,0.3-0.7,0.3-0.8,0.4c0,0-0.1,0-0.2,0L41,153c-0.2,0.1-0.2-0.5-0.6-1.2c-1.2-2.1-1.1-4.7-0.1-6.8
				c0.2-0.5,0.6-1,1-1.4c0.1-0.1,0.1-0.2,0.2-0.3s0.2,0,0.2,0c2.2-2.2,5.8-2.5,8.6-1.1c4.3,2.1,4.8,7.6,2.2,11.1
				c-0.3-0.3-0.7-0.5-1.1-0.8c0.4,0.3,0.9-2,0.9-2C52.6,148.4,52.2,146.7,50.7,145.3z"/>
		</g>
	</g>
</g>
<g>
	<g>
		
			<linearGradient id="SVGID_17_" gradientUnits="userSpaceOnUse" x1="71.16" y1="257.0063" x2="90.4108" y2="257.0063" gradientTransform="matrix(1 0 0 1 0 -131.3333)">
			<stop  offset="0" style="stop-color:#41AFB7"/>
			<stop  offset="1" style="stop-color:#57CA8D"/>
		</linearGradient>
		<path class="st16" d="M80.7,116.2c-5.4-0.2-9.3,4.4-9.5,9.5c-0.2,5.4,4.5,9.3,9.6,9.5c5.4,0.2,9.5-4.4,9.7-9.5
			C90.2,120.3,86.1,116.5,80.7,116.2z M80.7,134.7c-5,0.2-8.8-4.4-9-9c-0.2-5,4.3-8.8,9-9c5-0.2,8.6,4.3,8.8,9
			C89.3,130.7,85.7,134.5,80.7,134.7z"/>
	</g>
</g>
<g>
	<g>
		
			<linearGradient id="SVGID_18_" gradientUnits="userSpaceOnUse" x1="73.2864" y1="257.21" x2="88.1151" y2="257.21" gradientTransform="matrix(1 0 0 1 0 -131.3333)">
			<stop  offset="0" style="stop-color:#41AFB7"/>
			<stop  offset="1" style="stop-color:#57CA8D"/>
		</linearGradient>
		<path class="st17" d="M73.3,125.7c-0.2,4.2,3.6,7.4,7.4,7.6c4.2,0.2,7.2-3.7,7.4-7.6c-0.3-4.8-3.8-7.2-7.4-7.2
			C77.1,118.5,73.5,121,73.3,125.7z M74.2,125.7c-0.2-3.7,3.1-6.2,6.5-6.4c3.7-0.2,6.3,3,6.5,6.4c-0.2,4.2-3.4,6.2-6.5,6.2
			C77.5,131.9,74.4,129.9,74.2,125.7z"/>
	</g>
</g>
<g>
	
		<linearGradient id="SVGID_19_" gradientUnits="userSpaceOnUse" x1="69.9276" y1="259.2199" x2="84.8498" y2="259.2199" gradientTransform="matrix(1 0 0 1 0 -131.3333)">
		<stop  offset="0" style="stop-color:#41AFB7"/>
		<stop  offset="1" style="stop-color:#57CA8D"/>
	</linearGradient>
	<path class="st18" d="M84.2,134.2c-4.5,2.5-9.1,1-11.6-2.1s-2.8-7.9,0.7-11.7c0.4-0.4-0.4-1.2-0.8-0.8c-2.5,2.7-3.1,5.9-2.5,8.7
		c0.6,3.1,2.7,5.8,5.5,7.2c2.6,1.2,5.8,1.2,9-0.6c0.5-0.3,0-1.1-0.5-0.9C84.1,134.1,84.2,134.2,84.2,134.2z"/>
</g>
<g>
	<g>
		
			<linearGradient id="SVGID_20_" gradientUnits="userSpaceOnUse" x1="75.639" y1="257.07" x2="85.6482" y2="257.07" gradientTransform="matrix(1 0 0 1 0 -131.3333)">
			<stop  offset="0" style="stop-color:#41AFB7"/>
			<stop  offset="1" style="stop-color:#57CA8D"/>
		</linearGradient>
		<path class="st19" d="M85.2,125.2c-1.2,0-2.3,0.1-3.5,0.1c-0.2,0-0.4,0-0.5,0.2c0,0.2,0,0.4-0.1,0.5c-0.1,0.3,0.1,0.6,0.4,0.6
			c0.5,0,0.7,0.1,0.6,0.6c-0.4,1.6-2.2,2.4-3.7,1.2c-1.4-1.1-0.6-3.4,0.1-4.7c1.2-2.1,4.1-2,4.8,0.4c0.1,0.2,0.3,0.4,0.5,0.4
			c0.2,0,0.4-0.2,0.6-0.2s0.5-0.1,0.5-0.3c0-0.9,0-1.8-0.1-2.7c0-0.1,0-0.2-0.1-0.3c-0.1-0.1-0.2-0.2-0.4-0.2c-0.6,0-0.8,0.2-1,0.6
			c-3.2-1.9-7.5,0.9-7.7,4.6c-0.2,3.7,3.4,5.9,6.5,4.1c0,0.1,0,0.1,0,0.1c0,0.2,0.3,0.2,0.4,0.2c0.2,0,0.4,0,0.6,0s0.5,0,0.5-0.2
			c0.2-0.8,0.3-3.6,1.4-3.6c0.2,0,0.4-0.1,0.4-0.3s0-0.4,0.1-0.5C85.7,125.5,85.5,125.2,85.2,125.2z M83.9,122.1l0.2-0.1
			c0,0.4-0.1,0.7-0.1,1.1c-0.1-0.3-0.3-0.5-0.5-0.8C83.6,122.4,83.8,122.3,83.9,122.1z M76.4,126.5c-0.1-1.7,1.1-3.2,2.5-4.1
			c-1.6,1.4-2.7,4.2-1.6,6c0.2,0.4,0.5,0.7,0.9,1C77.2,128.8,76.4,127.9,76.4,126.5z M82.8,129.7l-0.1,0.1
			C82.7,129.7,82.8,129.6,82.8,129.7C82.8,129.7,82.8,129.6,82.8,129.7z M83.4,127.2c-0.2,0.7-0.2,1.4-0.4,2.1c0,0-0.1-0.1-0.1-0.2
			c0-0.1-0.2-0.2-0.3-0.3c0,0,0.2,0,0.2-0.1c0.5-1.1,0.7-2.2,0.1-2.7l0.1,0.1c0.3,0,0.6-0.1,0.9-0.1
			C83.5,126.4,83.5,126.8,83.4,127.2z"/>
	</g>
</g>
<linearGradient id="SVGID_21_" gradientUnits="userSpaceOnUse" x1="77.6564" y1="184.6293" x2="92.5326" y2="184.6293" gradientTransform="matrix(0.9779 0.2093 -0.2093 0.9779 28.3768 -99.6544)">
	<stop  offset="0" style="stop-color:#41AFB7"/>
	<stop  offset="1" style="stop-color:#57CA8D"/>
</linearGradient>
<path class="st20" d="M66.3,94.2c-0.9,7.2,4.4,7.7,9.3,8.5c1.1,0.2,5.7-0.7,3.8-1c-4.4-0.7-10.3,0.6-11.9-6.1
	C67.2,94.7,66.4,93.1,66.3,94.2L66.3,94.2z"/>
<g>
	
		<linearGradient id="SVGID_22_" gradientUnits="userSpaceOnUse" x1="123.9554" y1="144.4431" x2="160.8779" y2="144.4431" gradientTransform="matrix(1 0 0 1 0 -131.3333)">
		<stop  offset="0" style="stop-color:#41AFB7"/>
		<stop  offset="1" style="stop-color:#57CA8D"/>
	</linearGradient>
	<path class="st21" d="M160.8,9.5c-2.2-8.8-14.5-9.2-21.6-7.5c-6.4,1.5-16.7,6.7-15.1,14.8c1.7,8.9,14.8,9.1,21.6,7.5
		C152.4,22.7,162,17.8,160.8,9.5z M143.6,24.2c-6,0.9-16.4-0.3-17.8-7.8c-1.6-8,8.8-13,15-14.1c6.4-1.2,16.5,0.1,18.5,7.7
		C160.4,18.3,150.3,23.2,143.6,24.2z"/>
	
		<linearGradient id="SVGID_23_" gradientUnits="userSpaceOnUse" x1="117.9831" y1="161.7254" x2="130.8484" y2="161.7254" gradientTransform="matrix(1 0 0 1 0 -131.3333)">
		<stop  offset="0" style="stop-color:#41AFB7"/>
		<stop  offset="1" style="stop-color:#57CA8D"/>
	</linearGradient>
	<path class="st22" d="M130.8,30.3c-0.5-6.1-12.9-5.9-12.9,0.2C118,36.7,130.3,36.4,130.8,30.3C130.8,30.4,130.8,30.4,130.8,30.3
		L130.8,30.3z M119.1,30.4c0-5.3,10.1-4.9,10.7,0.2C129.3,35.7,119,35.6,119.1,30.4z"/>
	
		<linearGradient id="SVGID_24_" gradientUnits="userSpaceOnUse" x1="110.7028" y1="170.4842" x2="120.5038" y2="170.4842" gradientTransform="matrix(1 0 0 1 0 -131.3333)">
		<stop  offset="0" style="stop-color:#41AFB7"/>
		<stop  offset="1" style="stop-color:#57CA8D"/>
	</linearGradient>
	<path class="st23" d="M110.8,38c-1.1,4.2,8.2,6.4,9.7,2.4C121.1,36.2,111.9,33.9,110.8,38z M119.9,40.5c-1.3,3.4-9.5,1.3-8.6-2.5
		C112.2,34.3,120.5,36.7,119.9,40.5z"/>
	
		<linearGradient id="SVGID_25_" gradientUnits="userSpaceOnUse" x1="135.9856" y1="143.1063" x2="148.0746" y2="143.1063" gradientTransform="matrix(1 0 0 1 0 -131.3333)">
		<stop  offset="0" style="stop-color:#41AFB7"/>
		<stop  offset="1" style="stop-color:#57CA8D"/>
	</linearGradient>
	<path class="st24" d="M145,7.3l-4.1-1.5l-2.2,6.1l-1.7-0.6l-0.3,0.8l1.7,0.6l-0.4,1.2l-1.7-0.6l-0.3,0.8l1.7,0.6l-1,2.7l1,0.4
		l1-2.7l3.1,1.1l0.3-0.8l-3.1-1.1l0.4-1.2l3.1,1.1c1.3,0.5,2.4,0.5,3.3,0.1c0.9-0.4,1.6-1.1,2-2.2c0.4-1.1,0.3-2.1-0.2-2.9
		C147.1,8.4,146.2,7.8,145,7.3z M146.8,11.9c-0.3,0.8-0.8,1.4-1.5,1.7s-1.5,0.2-2.5-0.1l-3.1-1.1l1.9-5.3l3.2,1.1
		c0.9,0.3,1.5,0.8,1.9,1.5C147,10.4,147.1,11.1,146.8,11.9z"/>
</g>
</svg>
