<?xml version="1.0" encoding="utf-8"?>
<!-- Generator: Adobe Illustrator 21.1.0, SVG Export Plug-In . SVG Version: 6.00 Build 0)  -->
<svg version="1.1" id="Layer_1" xmlns="http://www.w3.org/2000/svg" xmlns:xlink="http://www.w3.org/1999/xlink" x="0px" y="0px"
	 viewBox="0 0 24 24" style="enable-background:new 0 0 24 24;" xml:space="preserve">
<style type="text/css">
	.st0{fill:#0C70BD;}
</style>
<g>
	<path class="st0" d="M23.9,11.4c0.1-0.2,0.1-0.5,0-0.8c-0.1-0.1-0.1-0.2-0.2-0.3l-3-3c-0.4-0.4-1-0.4-1.4,0c-0.4,0.4-0.4,1,0,1.4
		l1.3,1.3H14c-0.6,0-1,0.4-1,1c0,0.6,0.4,1,1,1h6.6l-1.3,1.3c-0.4,0.4-0.4,1,0,1.4c0.2,0.2,0.4,0.3,0.7,0.3c0.3,0,0.5-0.1,0.7-0.3
		l3-3C23.8,11.6,23.8,11.5,23.9,11.4z"/>
	<path class="st0" d="M17,17c-0.6,0-1,0.4-1,1v1.5c0,0.3-0.2,0.5-0.5,0.5H12V5c0-0.9-0.6-1.7-1.5-1.9L6.4,2h9.1
		C15.8,2,16,2.2,16,2.5V4c0,0.6,0.4,1,1,1c0.6,0,1-0.4,1-1V2.5C18,1.1,16.9,0,15.5,0H2.1C1,0,0,0.9,0,2.1c0,0.1,0,0.2,0.1,0.3
		C0.1,2.5,0,2.6,0,2.7v17.6c0,0.9,0.7,1.8,1.6,2l8,1.7c0.1,0,0.3,0,0.4,0c0.5,0,0.9-0.2,1.3-0.4c0.5-0.4,0.7-0.9,0.7-1.6v0h3.5
		c1.4,0,2.5-1.1,2.5-2.5V18C18,17.4,17.5,17,17,17z M2,20.3V2.9L10,5l0,16c0,0,0,0,0,0s0,0,0,0l0,1L2,20.3z"/>
</g>
</svg>
