<?xml version="1.0" encoding="utf-8"?>
<!-- Generator: Adobe Illustrator 21.1.0, SVG Export Plug-In . SVG Version: 6.00 Build 0)  -->
<svg version="1.1" id="Слой_1" xmlns="http://www.w3.org/2000/svg" xmlns:xlink="http://www.w3.org/1999/xlink" x="0px" y="0px"
	 viewBox="0 0 186.6 71.4" style="enable-background:new 0 0 186.6 71.4;" xml:space="preserve">
<style type="text/css">
	.st0{fill:#252D31;}
	.st1{fill:#0C70BD;}
</style>
<g>
	<g>
		<path class="st0" d="M37,12.6v-0.3c0.1-0.3,0.3-0.6,0.5-0.9c0.6-0.5,0.9-1.1,1-1.8C38.7,9,38.4,8.3,38,7.9
			c-0.6-0.6-1.2-1.2-1.8-1.7c0.4-0.3,0.6-0.7,0.6-1.1c0-0.7-0.7-1.4-1.7-1.5V0.5c0-0.3-0.2-0.5-0.5-0.5s-0.5,0.2-0.5,0.5v3.1
			c-0.9,0.2-1.7,0.8-1.7,1.5c0,0.5,0.3,0.9,0.7,1.1c-0.6,0.5-1.2,1.1-1.8,1.7C31,8.3,30.7,9,30.8,9.6c0.1,0.7,0.4,1.4,1,1.8
			c0.1,0.1,0.2,0.2,0.2,0.3c-0.7-0.1-1.5-0.1-2.2-0.1C13.4,11.7,0,25.1,0,41.5s13.4,29.9,29.9,29.9l0,0c13.8,0,25.8-9.5,29-22.9
			C62.7,32.6,52.9,16.6,37,12.6z M46.9,27.1c1,0,1.7,0.5,1.7,0.9s-0.7,0.9-1.7,0.9s-1.7-0.5-1.7-0.9S45.9,27.1,46.9,27.1z
			 M46.9,29.9c0.3,0,0.5,0,0.7-0.1l0.3,1.7l-1,0l0,0.1h0l0-0.1l-1,0l0.3-1.7C46.4,29.9,46.7,29.9,46.9,29.9z M45.4,32.6l1.5,0l1.4,0
			c0.2,0.3,0.8,0.9,1.5,1.7l-1,0.7l-2-2l-2,2l-1-0.8C44.6,33.5,45.2,32.8,45.4,32.6z M43.2,35l1.8,1.3l1.9-1.9l1.9,1.9l1.7-1.3
			c0.7,0.8,1.5,1.8,2.2,2.7c0.2,0.3,0.4,0.6,0.5,0.9l-1.9-1.7L48.9,39l-2-2l-2,2l-2.5-1.9l-1.9,1.7l0,0c0.1-0.3,0.3-0.7,0.5-1
			C41.7,36.8,42.5,35.9,43.2,35z M41.2,36c-0.3,0.4-0.7,0.8-1,1.2c0,0-0.1,0.1-0.1,0.2c-0.6-0.4-1.3-0.6-2-0.6
			c-1.5,0-2.8,0.8-3.4,2.1c-0.7-1.2-1.9-2-3.4-2c-1.2,0-2.2,0.5-2.9,1.3v-2.7h12.9V36z M50.3,48.7v5.8H49v-3.1c0-1.1-0.9-2-2-2
			s-2,0.9-2,2v3.1h-1.5v-5.8H50.3z M50.1,60.6c-1.4,1.5-3,2.9-4.7,4h-3.7c-0.1-0.6-0.2-1.3-0.5-1.9c-0.4-0.9-0.6-1.6-0.7-2.2H50.1z
			 M49.6,59.6c0.1-0.3,0.4-0.6,0.7-0.7c0.4-0.2,0.9-0.2,1.3,0c-0.2,0.2-0.4,0.5-0.6,0.7H49.6z M26.1,64.5L25,63.3l1.7-1.8l1.7,1.9
			l-1.1,1.2H26.1z M24.8,64.5h-1l0.5-0.5L24.8,64.5z M24.9,52.4l1.5,0l1.4,0c0.1,0.1,0.3,0.4,0.6,0.7l-1.5,1.7L24.9,52.4
			C24.8,52.4,24.9,52.4,24.9,52.4z M28.1,44c0-0.4,0.3-0.8,0.7-0.9c0.3,0,0.6,0.1,0.8,0.3c-0.6,0.2-1.1,0.5-1.5,0.9L28.1,44z
			 M31.1,44.1c1.5,0,2.8,1.2,3,2.7h-0.7c-0.2-1.2-1.3-2.1-2.5-2c-1.1,0.1-2,0.9-2.2,2c-0.1-0.2-0.3-0.3-0.5-0.4l0-0.3
			C28.6,44.9,29.8,44.1,31.1,44.1z M30.3,40.4c0.2-0.3,0.5-0.5,0.9-0.5c0.6,0,1.2,0.5,1.2,1.1v0c-0.2,0.2-0.4,0.4-0.6,0.7
			C31.4,41.1,30.9,40.7,30.3,40.4z M29.1,40.2c-0.3,0-0.5,0-0.8,0.1c0.2-1.4,1.4-2.5,2.9-2.5c1.5,0,2.7,1.1,2.9,2.4
			c-0.3,0-0.6,0.1-0.8,0.2c-0.2-0.8-0.9-1.4-1.7-1.5c-1-0.2-1.9,0.4-2.3,1.3C29.2,40.2,29.1,40.2,29.1,40.2z M41.5,46.8h-0.7
			c-0.2-1-1.1-1.8-2.2-1.9c-1.2-0.1-2.2,0.7-2.5,1.9h-0.7c0.3-1.3,1.4-2.3,2.9-2.4C39.8,44.3,41.1,45.3,41.5,46.8z M38.3,46
			c0.6,0,1.1,0.3,1.4,0.8h-2.5C37.4,46.4,37.8,46.1,38.3,46z M34.4,41.2c1.2,0,2.2,1,2.2,2.2v0c-0.1,0.1-0.2,0.1-0.3,0.2
			c-0.1-0.9-0.9-1.6-1.8-1.6c-0.9,0-1.6,0.6-1.8,1.5c-0.1,0-0.2-0.1-0.4-0.1C32.3,42.2,33.2,41.2,34.4,41.2z M33.6,43.9
			c0-0.5,0.4-0.9,0.9-0.9c0.5,0,0.9,0.4,0.9,0.9v0.5c-0.3,0.3-0.5,0.6-0.6,1c-0.3-0.5-0.6-1-1.1-1.4V43.9z M37.1,41.8
			c-0.1-0.1-0.2-0.2-0.3-0.4V41c0-0.5,0.3-0.9,0.8-1.1c0.5-0.2,1,0,1.3,0.4C38.2,40.6,37.5,41.1,37.1,41.8z M38.1,38.9
			c-1.1,0-1.9,0.8-2.1,1.8c-0.2-0.1-0.5-0.3-0.8-0.3c0.2-1.4,1.4-2.5,2.9-2.5c0.6,0,1.1,0.2,1.5,0.5c-0.1,0.3-0.3,0.7-0.3,1
			C38.9,39,38.5,38.9,38.1,38.9z M32.4,46.8h-2.7c0.2-0.6,0.8-1.1,1.5-1C31.7,45.8,32.2,46.2,32.4,46.8z M29.1,47.8
			C29.1,47.8,29.1,47.8,29.1,47.8l13.3,0c0.1,0.2,0.1,0.4,0.2,0.6v3.2H28.5l-0.4-2.2C28.7,48.9,29.1,48.4,29.1,47.8z M29.1,53.8
			c0.5,0.5,1,1.1,1.5,1.8l-1.5,1.6l-1.6-1.7L29.1,53.8z M37.6,60.2h-1.8v-4.9c0-0.4,0.4-0.7,0.8-0.8c0.5-0.1,0.9,0.3,1,0.8V60.2z
			 M38.6,61.2L38.6,61.2l1.1,0c0.1,0.4,0.2,0.8,0.4,1.3h-6.3c0.2-0.4,0.3-0.9,0.3-1.3h0.8v0H38.6z M40.5,63.5c0,0,0,0.1,0,0.1
			l-0.9,1.9l-0.9-2H40.5z M37.1,63.5l-1,2l-0.9-2H37.1z M29.9,57.9l1.4-1.6c0.3,0.4,0.7,0.8,1,1.2c0.2,0.3,0.4,0.6,0.5,0.9l-1.2,1.3
			L29.9,57.9z M30.9,60.5l-1.9,2l-1.7-1.9l1.9-2L30.9,60.5z M33.1,59.6c0.1,0.4,0.1,0.8,0,1.2c0,0.2-0.1,0.4-0.1,0.6l-0.8-0.8
			L33.1,59.6z M32,55.7c-0.4-0.4-0.7-0.9-1.1-1.3c0.1,0,0.1,0,0.2,0c0.5,0,0.9,0.4,0.9,0.9V55.7z M28.5,57.9l-1.9,2L25,58.2l1.9-2
			L28.5,57.9z M25.9,60.7l-1.7,1.8l-1.6-1.7l1.7-1.8L25.9,60.7z M29,64.1l0.4,0.5h-0.9L29,64.1z M30.8,64.5l-1.1-1.2l1.9-2l1.1,1.2
			c-0.2,0.6-0.6,1.2-1,1.7c-0.1,0.1-0.3,0.2-0.4,0.4H30.8z M32.3,64.9c0.4-0.4,0.7-0.9,1-1.4h0.5l-1.3,2.7h-1
			C31.7,65.8,31.9,65.3,32.3,64.9z M34.5,64.2l0.9,2h-1.9L34.5,64.2z M37.9,64.2l0.9,2H37L37.9,64.2z M40.8,65.3c0,0.1,0,0.3,0,0.4
			v0.5h-0.5L40.8,65.3z M41.8,65.6h2c-0.6,0.4-1.3,0.7-2,1.1v-0.9C41.8,65.7,41.8,65.7,41.8,65.6z M42,59.6c0.2-0.4,0.6-0.7,1.1-0.8
			c0.6-0.1,1.1,0.3,1.4,0.8H42z M45.5,59.6c-0.3-1-1.1-1.7-2.1-1.7c-1.1-0.1-2.2,0.7-2.5,1.7h-0.4c0.1-0.9,0.5-1.4,0.8-1.9
			c0.5-0.4,1.2-0.7,1.9-0.7c1.5,0,2.7,1.1,2.9,2.5H45.5z M41.5,54.9c-0.1,0.7-0.4,1.3-0.7,1.9L40.6,57c0,0,0,0,0,0
			c-0.1,0.1-0.1,0.1-0.2,0.2l0,0c-0.4,0.6-1,1.5-0.9,2.9h-0.9v-4.9c-0.1-0.9-0.8-1.7-1.7-1.7c-1-0.1-1.9,0.7-2,1.7v4.9h-0.7
			c0-1.2-0.3-2.3-1-3.2c0,0,0,0,0,0v-1.7c0-0.5-0.2-1-0.5-1.3c-0.6-0.6-1.5-0.7-2.2-0.3c-0.3-0.4-0.7-0.8-1.1-1.1h13.4v2h-1
			L41.5,54.9z M46,54.5v-3.1c0-0.6,0.4-1,1-1s1,0.4,1,1v3.1H46z M38.2,43c-0.2,0-0.3,0-0.5,0.1c0.1-0.8,0.7-1.5,1.5-1.7
			c0.1,0.6,0.3,1.3,0.5,1.9C39.3,43,38.8,42.9,38.2,43z M27.9,41.5c0.1,0,0.2-0.1,0.2-0.1c0.3-0.1,0.6-0.2,1-0.2c0.1,0,0.2,0,0.3,0
			c0,0,0.1,0,0.1,0c0,0,0.1,0,0.1,0c0.9,0.2,1.6,1,1.6,1.9c-0.2,0-0.4,0-0.5,0c-0.3-0.7-1-1.1-1.7-1.1c-1,0-1.8,0.9-1.8,1.9v1.9
			c0,0,0,0,0,0.1c-0.1,0-0.2,0-0.2,0v-2.5C26.9,42.6,27.3,41.9,27.9,41.5z M26.4,46.9c1,0,1.7,0.5,1.7,0.9s-0.7,0.9-1.7,0.9
			s-1.7-0.5-1.7-0.9S25.4,46.9,26.4,46.9z M26.4,49.7c0.3,0,0.5,0,0.7-0.1l0.3,1.7l-1,0l0,0.1h0l0-0.1l-1.1,0l0.3-1.7
			C25.9,49.7,26.2,49.7,26.4,49.7z M24.1,53.2l2.1,2.3l-1.9,2l-2-2.2C23,54.5,23.7,53.7,24.1,53.2z M21.7,56.1l2,2.2L22,60l-1.8-2
			c0.1-0.2,0.2-0.3,0.3-0.5C20.9,57.1,21.3,56.6,21.7,56.1z M21.3,60.8L20,62.2c-0.2-0.5-0.3-1-0.4-1.5c-0.1-0.6-0.1-1.2,0.1-1.7
			L21.3,60.8z M22,61.5l1.6,1.7l-1.2,1.3h-1c-0.1-0.2-0.3-0.3-0.4-0.4c-0.2-0.3-0.4-0.6-0.6-0.9L22,61.5z M22.1,65.5h8.6
			c-0.3,0.7-0.6,1.5-0.8,1.9h-7C22.7,67,22.4,66.2,22.1,65.5z M30.9,67.6c0-0.1,0.1-0.2,0.1-0.3h9.5c-3,1.2-6.2,2-9.6,2.1V67.6z
			 M52.2,58.1c-0.4-0.2-0.8-0.4-1.3-0.4c-1.2,0-2.1,0.8-2.4,1.9h-0.6c0.1-0.4,0.2-0.9,0.5-1.2c0.9-1.4,2.8-1.7,4.2-0.8l0,0
			c0,0,0,0,0,0C52.5,57.7,52.4,57.9,52.2,58.1z M50.9,56c-1.8,0-3.3,1.2-3.8,2.9c-0.2-0.6-0.5-1.3-1-1.7c-1.1-1.1-2.6-1.4-3.9-1
			c0.1-0.2,0.2-0.5,0.2-0.7l0.2,0v0H45h4h2.2v0l0.6,0c0,0.2,0.1,0.5,0.1,0.7C51.6,56.1,51.2,56,50.9,56z M50.4,47.7h-7
			c-0.2-0.5-0.5-1.2-0.8-1.9h8.6C50.9,46.4,50.6,47,50.4,47.7z M51.9,44.7H42c-0.1-0.2-0.3-0.3-0.4-0.4c-0.2-0.2-0.4-0.5-0.6-0.8
			l1.4-1.3l2.6,1.9l1.9-1.9l1.9,1.9l2.6-1.9l1.4,1.2c-0.2,0.3-0.4,0.6-0.6,0.8C52.1,44.5,52,44.6,51.9,44.7z M53.6,41
			c-0.1,0.5-0.2,1.1-0.4,1.6L51.5,41l-2.5,1.9l-2-2l-2,2L42.4,41l-1.8,1.6c-0.2-0.5-0.4-1.1-0.4-1.6c0,0,0-0.1,0-0.1
			c0,0,0-0.1,0-0.1c0,0,0,0,0-0.1c0-0.1,0-0.2,0-0.3c0,0,0,0,0,0c0-0.2,0-0.4,0-0.6l0.4,0.3l1.9-1.7l2.6,1.9l1.9-1.9l1.9,1.9
			l2.6-1.9l1.9,1.7l0.4-0.2C53.7,40.2,53.7,40.6,53.6,41z M33.4,19.9v-2.6H36v2.6H33.4z M36,16.3h-2.7v-3.5H36V16.3z M33.3,20.9h0.9
			v8.5l-2,4.4l-2-4.2L33.3,20.9z M33,34.4l1.7-3.8l1.8,3.8H33z M29.8,30.9l1.7,3.5h-3L29.8,30.9z M38.1,34.4l1.7-3.7l1.3,3.7H38.1z
			 M37.3,33.7l-2.1-4.3v-8.5h1.1l2.9,8.4L37.3,33.7z M34.6,4.5L34.6,4.5c0.7,0,1.2,0.3,1.2,0.6c0,0.2-0.5,0.6-1.2,0.6
			s-1.2-0.3-1.2-0.6C33.5,4.9,33.9,4.5,34.6,4.5z M31.8,9.4c0-0.3,0.1-0.7,0.3-0.9c0.8-0.9,1.7-1.7,2-1.9h0.4c0,0,0.1,0,0.1,0
			c0,0,0.1,0,0.1,0h0.5c0.3,0.3,1.2,1.1,2,1.9c0.2,0.2,0.3,0.6,0.3,0.9c-0.1,0.4-0.2,0.8-0.5,1.1c-0.4,0.3-0.7,0.8-0.9,1.2h-3
			c-0.2-0.5-0.5-0.9-0.9-1.3C32,10.3,31.9,9.9,31.8,9.4z M29.8,13.7c0.8,0,1.7,0,2.5,0.1v6.4l-5,14.2h-0.1v0.3L27,35.4h0.3v5.2
			c0,0,0,0.1,0,0.1v0c-0.8,0.6-1.4,1.5-1.4,2.6v2.5c-1.3,0.2-2.2,0.9-2.2,1.9c0,0.6,0.4,1.2,1,1.5l-0.5,2.4
			c-1.6,1.7-3.2,3.4-4.6,5.3c-0.9,1.1-1.2,2.5-1,3.9c0.2,1.5,0.8,2.9,1.8,4c0.7,0.9,1.2,2,1.5,3.1v0.2c-1.6-0.5-3.2-1.1-4.7-1.9
			l0-1.1c0-0.8,0.1-1.6,0.4-2.4c1.7-3.3,0.3-5.2-0.3-5.9l-0.2-0.2c-0.3-0.6-0.5-1.2-0.7-1.8l-0.1-0.4h-1.1v-6.4
			c0.3-1.1,0.8-2.1,1.5-3c1-1.1,1.7-2.5,1.8-4c0.2-1.4-0.1-2.8-1-3.9c-1.1-1.5-2.4-2.9-3.6-4.2c0,0,0,0,0,0l0,0
			c-0.3-0.3-0.5-0.6-0.8-0.9l-0.5-2.5c0.6-0.4,1-0.9,1-1.5c0-1-0.9-1.7-2.2-1.9v-3.3c0-0.3-0.2-0.5-0.5-0.5s-0.5,0.2-0.5,0.5v3.3
			C9.4,26.3,8.5,27,8.5,28c0,0.6,0.4,1.2,1,1.5L9,32c-1.6,1.7-3.2,3.4-4.6,5.2c-0.9,1.1-1.2,2.5-1,3.9c0.2,1.5,0.8,2.9,1.8,4
			c0.7,1,1.2,2.1,1.5,3.2v6.2H5.5l-0.1,0.2C3.3,50.8,2,46.3,2,41.6C2,26.2,14.5,13.7,29.8,13.7z M11.2,27.1c1,0,1.7,0.5,1.7,0.9
			s-0.7,0.9-1.7,0.9S9.5,28.5,9.5,28S10.2,27.1,11.2,27.1z M11.2,29.9c0.3,0,0.5,0,0.7-0.1l0.3,1.7l-1,0l0,0.1h0l0-0.1l-1.1,0
			l0.3-1.7C10.7,29.9,10.9,29.9,11.2,29.9z M13.2,33.3c0.9,3.4,2.3,6.6,4.2,9.5c-0.2,0.5-0.5,1-0.9,1.5c-2.6-3.5-4.5-7.5-5.7-11.7
			l0.3,0l1.4,0C12.7,32.7,12.9,32.9,13.2,33.3z M17.9,41c0,0.1-0.1,0.3-0.1,0.4c-1.2-2-2.1-4.1-2.9-6.2c0.7,0.8,1.4,1.7,2.2,2.6
			C17.7,38.7,18,39.8,17.9,41z M7.8,48.7h6.7v5.8H13v-3.1c0-1.1-0.9-2-2-2s-2,0.9-2,2v3.1H7.8V48.7z M10,51.4c0-0.6,0.4-1,1-1
			s1,0.4,1,1v3.1h-2V51.4z M9.8,32.6c1.1,4.4,3.1,8.5,5.8,12.2h-0.7c-2.6-3.5-4.6-7.4-5.8-11.5c0.3-0.3,0.5-0.5,0.6-0.6L9.8,32.6z
			 M8.3,34.1c1.2,3.8,3,7.4,5.3,10.6h-1.9C9.6,42,8,39,6.8,35.9C7.3,35.2,7.8,34.6,8.3,34.1z M6.1,36.7c1.1,2.8,2.6,5.5,4.4,8H9
			c-1.6-2.1-2.9-4.3-3.9-6.7c0.1-0.1,0.1-0.2,0.2-0.3C5.5,37.4,5.8,37.1,6.1,36.7z M4.5,39.3c0.9,1.9,2,3.8,3.3,5.5H6.2
			c-0.1-0.2-0.3-0.3-0.4-0.4C5,43.4,4.5,42.2,4.4,41C4.3,40.4,4.3,39.8,4.5,39.3z M15.4,45.7c-0.3,0.7-0.6,1.5-0.8,1.9h-7
			c-0.2-0.5-0.5-1.2-0.8-1.9H15.4z M15.8,55.5c0.1,0.2,0.1,0.5,0.2,0.7c-0.4-0.1-0.8-0.2-1.2-0.2c-1.7,0-3.2,1.1-3.7,2.7
			c-0.1-0.3-0.2-0.5-0.3-0.7c-0.9-1.6-2.8-2.3-4.5-1.8C6.1,56,6,55.9,5.9,55.7L6,55.5H15.8z M16.3,64.6h-2c-1.7-1.2-3.3-2.5-4.7-4h8
			c-0.1,0.5-0.3,1.1-0.7,1.8C16.6,63.1,16.4,63.8,16.3,64.6z M9.6,59.6c0-0.2-0.1-0.4-0.2-0.6c-0.5-0.8-1.3-1.3-2.2-1.2
			c-0.1-0.2-0.3-0.4-0.4-0.6C7,57,7.2,57,7.4,57c1.5,0,2.7,1.1,2.9,2.5H9.6z M8.5,59.4c-0.1-0.1-0.2-0.2-0.3-0.4
			C8.3,59.1,8.4,59.2,8.5,59.4z M13.6,59.6c0.2-0.4,0.6-0.7,1.1-0.8c0.6-0.1,1.1,0.3,1.4,0.8H13.6z M17.2,59.6
			c-0.3-1-1.1-1.7-2.1-1.7c-1.1-0.1-2.2,0.7-2.5,1.7h-0.7c0.1-0.6,0.4-1.2,0.8-1.7c1.2-1.2,3.1-1.2,4.2,0l0,0
			c0.3,0.4,0.5,0.9,0.6,1.7H17.2z M15.9,65.6h0.4v0.2C16.2,65.8,16.1,65.7,15.9,65.6z M23,68.5L23,68.5l6.8-0.1v0.9
			C27.5,69.4,25.2,69.1,23,68.5z M53.2,56.6C53.2,56.6,53.2,56.6,53.2,56.6c-0.3-0.6-0.4-1.1-0.3-1.6v-0.5h-1.6v-6.4
			c0.3-1.1,0.8-2.1,1.5-3c1-1.1,1.7-2.5,1.8-4c0.2-1.4-0.1-2.8-1-3.9c-1.4-1.8-2.9-3.5-4.5-5.2l-0.5-2.5c0.6-0.4,1-0.9,1-1.5
			c0-1-0.9-1.7-2.2-1.9v-3.3c0-0.3-0.2-0.5-0.5-0.5s-0.5,0.2-0.5,0.5v3.3c-1.3,0.2-2.2,0.9-2.2,1.9c0,0.6,0.4,1.2,1,1.5L44.8,32
			c-0.9,0.9-1.7,1.9-2.6,2.8v-0.3h-0.1l-5-14.2v-5.5c12.1,3.2,20.6,14.2,20.6,26.8C57.7,47.1,56,52.3,53.2,56.6z"/>
		<rect x="29.2" y="49" class="st0" width="0.9" height="1.2"/>
		<rect x="31.5" y="49" class="st0" width="0.9" height="1.2"/>
		<rect x="33.8" y="49" class="st0" width="0.9" height="1.2"/>
		<rect x="36.1" y="49" class="st0" width="0.9" height="1.2"/>
		<rect x="38.4" y="49" class="st0" width="0.9" height="1.2"/>
		<rect x="40.8" y="49" class="st0" width="0.9" height="1.2"/>
	</g>
	<path class="st1" d="M79.6,51l-4.1-7h-3.3v7H69V32.3h8.2c3.7,0,6.1,2.4,6.1,5.9c0.2,2.7-1.8,5.1-4.4,5.5l4.6,7.3H79.6z M79.9,38.2
		c0-1.6-1.2-3-2.9-3c-0.1,0-0.2,0-0.3,0h-4.5v5.9h4.5c1.6,0.1,3-1.1,3.2-2.7C79.9,38.4,79.9,38.3,79.9,38.2z"/>
	<path class="st1" d="M85.7,41.7c0.1-5.3,4.4-9.5,9.7-9.4s9.5,4.4,9.4,9.7c-0.1,5.2-4.3,9.4-9.5,9.4c-5.1,0.2-9.4-3.8-9.6-9
		C85.7,42.1,85.7,41.9,85.7,41.7z M101.5,41.7c0-3.9-2.4-6.8-6.2-6.8s-6.2,2.9-6.2,6.8s2.4,6.8,6.2,6.8S101.5,45.5,101.5,41.7z"/>
	<path class="st1" d="M106.8,48.4l1.8-2.5c1.5,1.6,3.7,2.6,5.9,2.6c2.7,0,3.8-1.3,3.8-2.5c0-3.9-10.9-1.5-10.9-8.4
		c0-3.1,2.7-5.5,6.8-5.5c2.6-0.1,5.1,0.8,7,2.6l-1.9,2.4c-1.4-1.4-3.4-2.2-5.4-2.1c-1.9,0-3.2,0.9-3.2,2.3c0,3.5,10.9,1.3,10.9,8.3
		c0,3.1-2.2,5.8-7.2,5.8C111.5,51.5,108.8,50.4,106.8,48.4z"/>
	<path class="st1" d="M123.9,51v-2.7l9.5-13.1h-9.5v-2.9h13.8V35l-9.5,13.1h9.7V51H123.9z"/>
	<path class="st1" d="M154.2,51l-1.4-3.6h-8.6l-1.4,3.6h-3.7l7.3-18.7h4.1l7.3,18.7H154.2z M148.5,35.6l-3.4,8.9h6.7L148.5,35.6z"/>
	<path class="st1" d="M160,51V32.3h3.3V51H160z"/>
	<path class="st1" d="M183.3,51V37.1L177.6,51h-1.4l-5.7-13.9V51h-3.3V32.3h4.6l5.1,12.3l5.1-12.3h4.6V51H183.3z"/>
</g>
</svg>
