<svg id="Слой_1" data-name="Слой 1" xmlns="http://www.w3.org/2000/svg" xmlns:xlink="http://www.w3.org/1999/xlink" viewBox="0 0 43 28.01"><defs><style>.cls-1{fill:url(#Безымянный_градиент_7);}</style><linearGradient id="Безымянный_градиент_7" x1="512.5" y1="369.5" x2="555.5" y2="369.5" gradientUnits="userSpaceOnUse"><stop offset="0" stop-color="#639eca"/><stop offset="1" stop-color="#84c78f"/></linearGradient></defs><title>mail</title><path class="cls-1" d="M555.15,358.24a.68.68,0,0,0-.3-.51c-3.08-2-6.66-2.14-10-2.2q-2.15,0-4.29,0-13.64,0-27.25,1.34a.67.67,0,0,0-.6.65q-.23,8.25-.23,16.5,0,2.77,0,5.54a4,4,0,0,0,.93,2.56,3.06,3.06,0,0,0,2.31,1.1h3.67q15.52,0,31,.3h.07a4,4,0,0,0,2.86-1.27,5.24,5.24,0,0,0,1.4-3.06A108.48,108.48,0,0,0,555.5,367Q555.5,362.59,555.15,358.24ZM553.5,379a3.89,3.89,0,0,1-1,2.27,2.68,2.68,0,0,1-1.92.86q-15.6-.3-31.12-.3h-3.66a1.73,1.73,0,0,1-1.32-.64,2.63,2.63,0,0,1-.6-1.69q0-2.76,0-5.53,0-7.93.22-15.86,13.24-1.28,26.54-1.29,2.14,0,4.28,0c3.18,0,6.37.23,9,1.83q.32,4.11.32,8.25A107.29,107.29,0,0,1,553.5,379ZM542,368.56a50.86,50.86,0,0,1,9.89-7,.68.68,0,0,0,.28-.91.66.66,0,0,0-.89-.28,53.19,53.19,0,0,0-13.52,10.45,6.56,6.56,0,0,1-1.83,1.56,2.31,2.31,0,0,1-1,.21,4.31,4.31,0,0,1-2.23-.8,18.25,18.25,0,0,1-2.29-1.83,62.47,62.47,0,0,0-14.91-10,.66.66,0,0,0-.88.33.68.68,0,0,0,.32.9,60.28,60.28,0,0,1,11.63,7.32c-3.8,2.77-7.68,7-10.9,10.3a.68.68,0,0,0,0,1,.65.65,0,0,0,.94,0c3.33-3.39,7.33-7.76,11-10.38q1,.8,1.89,1.63a19.38,19.38,0,0,0,2.46,2,5.54,5.54,0,0,0,2.93,1,3.63,3.63,0,0,0,1.51-.33,7.62,7.62,0,0,0,2.24-1.86c.75-.8,1.53-1.56,2.32-2.31L551.26,380a.65.65,0,0,0,.94,0,.69.69,0,0,0,0-1Z" transform="translate(-512.5 -355.5)"/></svg>