<svg id="Слой_1" data-name="Слой 1" xmlns="http://www.w3.org/2000/svg" viewBox="0 0 80 80"><defs><style>.cls-1{fill:#cfe9d4;}.cls-1,.cls-2{fill-rule:evenodd;}.cls-2{fill:#fff;}</style></defs><title>2</title><path class="cls-1" d="M850.46,408.61a40,40,0,1,1-40,40A40,40,0,0,1,850.46,408.61Z" transform="translate(-810.46 -408.61)"/><path class="cls-2" d="M852.73,448.53l9.28,9.39a1.56,1.56,0,0,1,0,2.19,1.52,1.52,0,0,1-2.17,0l-9.29-9.4-9.43,9.43a1.55,1.55,0,1,1-2.2-2.2l9.44-9.44-9.14-9.24a1.56,1.56,0,0,1,0-2.19,1.52,1.52,0,0,1,2.17,0l9.15,9.25,9.25-9.25a1.55,1.55,0,0,1,2.2,2.2Z" transform="translate(-810.46 -408.61)"/></svg>