<svg id="Слой_1" data-name="Слой 1" xmlns="http://www.w3.org/2000/svg" viewBox="0 0 80 80"><defs><style>.cls-1{fill:#83c791;}.cls-1,.cls-3{fill-rule:evenodd;}.cls-2{fill:#cfe9d4;}.cls-3{fill:#fff;}</style></defs><title>1</title><path class="cls-1" d="M847.44,486.24a37.5,37.5,0,1,1,37.5-37.5A37.54,37.54,0,0,1,847.44,486.24Z" transform="translate(-807.44 -408.74)"/><path class="cls-2" d="M847.44,413.74a35,35,0,1,1-35,35,35,35,0,0,1,35-35m0-5a40,40,0,1,0,40,40,40,40,0,0,0-40-40Z" transform="translate(-807.44 -408.74)"/><path class="cls-3" d="M863.88,439.78l-20.25,20a1.51,1.51,0,0,1-1.42.39,1.47,1.47,0,0,1-1.39-.38L831,450.1a1.44,1.44,0,0,1,0-2,1.48,1.48,0,0,1,2.07,0l9.1,9,19.58-19.38a1.52,1.52,0,0,1,2.13,0A1.48,1.48,0,0,1,863.88,439.78Z" transform="translate(-807.44 -408.74)"/></svg>