<?xml version="1.0" encoding="utf-8"?>
<!-- Generator: Adobe Illustrator 19.0.0, SVG Export Plug-In . SVG Version: 6.00 Build 0)  -->
<svg version="1.1" id="Layer_1" xmlns="http://www.w3.org/2000/svg" xmlns:xlink="http://www.w3.org/1999/xlink" x="0px" y="0px"
	 viewBox="0 0 44 44" style="enable-background:new 0 0 44 44;" xml:space="preserve">
<style type="text/css">
	.st0{fill:#7278BF;}
</style>
<g id="XMLID_9_">
	<path id="XMLID_10_" class="st0" d="M22,20.6c3,0,5.5-2.5,5.5-5.5S25,9.6,22,9.6s-5.5,2.5-5.5,5.5S19,20.6,22,20.6z"/>
	<path id="XMLID_13_" class="st0" d="M6.6,37.7c1.5-7.1,7.8-12.5,15.4-12.5s13.9,5.4,15.4,12.5c4.1-4,6.6-9.5,6.6-15.7
		C44,9.8,34.2,0,22,0S0,9.8,0,22C0,28.1,2.5,33.7,6.6,37.7z M22,7.6c4.1,0,7.5,3.4,7.5,7.5s-3.4,7.5-7.5,7.5c-4.1,0-7.5-3.4-7.5-7.5
		S17.9,7.6,22,7.6z"/>
	<path id="XMLID_14_" class="st0" d="M22,27.2c-7,0-12.8,5.3-13.6,12.1c3.7,3,8.5,4.7,13.6,4.7s9.9-1.8,13.6-4.7
		C34.8,32.5,29,27.2,22,27.2z"/>
</g>
</svg>
