<svg id="Слой_1" data-name="Слой 1" xmlns="http://www.w3.org/2000/svg" viewBox="0 0 46 46"><defs><style>.cls-1{fill:#84c78f;fill-rule:evenodd;}.cls-2{fill:#fff;}</style></defs><title>user</title><path class="cls-1" d="M656,369.25a23,23,0,1,1-23,23A23,23,0,0,1,656,369.25Z" transform="translate(-633 -369.25)"/><path class="cls-2" d="M656,392c2.34,0,4.24-2.3,4.24-5.14s-.62-5.14-4.24-5.14-4.24,2.3-4.24,5.14S653.66,392,656,392Zm-8,7.84c0-.17,0,0,0,0Zm16,.14s0-.33,0,0Zm0-.34c-.08-4.94-.72-5.47-5.67-6.36a3.48,3.48,0,0,1-4.64,0c-4.89.88-5.58,1.39-5.67,6.2,0,.39,0,.41,0,.37s0,.24,0,.52c0,0,1.18,2.37,8,2.37s8-2.37,8-2.37c0-.18,0-.3,0-.38A3.2,3.2,0,0,1,664,399.65Z" transform="translate(-633 -369.25)"/></svg>