<svg id="Слой_1" data-name="Слой 1" xmlns="http://www.w3.org/2000/svg" viewBox="0 0 117.42 117.42"><defs><style>.cls-1{fill:#eef3f4;}.cls-2{fill:#32393f;}.cls-3{fill:#53ad6f;}</style></defs><title>18+</title><path class="cls-1" d="M149.83,158.08H44.92a6.26,6.26,0,0,1-6.25-6.25V46.92a6.26,6.26,0,0,1,6.25-6.25H149.83a6.26,6.26,0,0,1,6.25,6.25V151.83A6.26,6.26,0,0,1,149.83,158.08ZM44.92,44.67a2.25,2.25,0,0,0-2.25,2.25V151.83a2.25,2.25,0,0,0,2.25,2.25H149.83a2.25,2.25,0,0,0,2.25-2.25V46.92a2.25,2.25,0,0,0-2.25-2.25Z" transform="translate(-38.67 -40.67)"/><path class="cls-2" d="M72.31,116.26V91.54L67.07,97l-3.26-3.41L73,84.24h4.9v32Z" transform="translate(-38.67 -40.67)"/><path class="cls-2" d="M83.34,108c0-4.08,3.31-7,7.2-8.31-3.6-1.15-6.67-3.5-6.67-7.58,0-5.91,6-8.4,11.76-8.4s11.76,2.5,11.76,8.4c0,4.08-3.12,6.43-6.72,7.58,3.89,1.3,7.2,4.23,7.2,8.31,0,5.71-5.71,8.79-12.24,8.79S83.34,113.81,83.34,108Zm18.87-.72c0-3.31-4.61-4.8-6.58-5-2,.24-6.62,1.73-6.62,5,0,2.78,3,4.51,6.62,4.51S102.21,110.11,102.21,107.33ZM101.68,93c0-2.69-2.64-4.27-6-4.27s-6.1,1.58-6.1,4.27c0,3,4.13,4.18,6.1,4.51C97.6,97.2,101.68,96,101.68,93Z" transform="translate(-38.67 -40.67)"/><path class="cls-3" d="M123.71,101.71v9.94h-3.55v-9.94h-8.88V98.45h8.88v-9.6h3.55v9.6h8.88v3.27Z" transform="translate(-38.67 -40.67)"/></svg>