<svg id="Слой_1" data-name="Слой 1" xmlns="http://www.w3.org/2000/svg" viewBox="0 0 117.42 117.42"><defs><style>.cls-1{fill:#eef3f4;}.cls-2{fill:#53ad71;}.cls-3{fill:#343b41;}</style></defs><title>портфель</title><path class="cls-1" d="M152,158.33H47.08a6.26,6.26,0,0,1-6.25-6.25V47.17a6.26,6.26,0,0,1,6.25-6.25H152a6.26,6.26,0,0,1,6.25,6.25V152.08A6.26,6.26,0,0,1,152,158.33ZM47.08,44.92a2.25,2.25,0,0,0-2.25,2.25V152.08a2.25,2.25,0,0,0,2.25,2.25H152a2.25,2.25,0,0,0,2.25-2.25V47.17A2.25,2.25,0,0,0,152,44.92Z" transform="translate(-40.83 -40.92)"/><path class="cls-2" d="M99.75,119.08H92.92a4.17,4.17,0,0,1-4.17-4.17v-9.17h15.17v9.17A4.17,4.17,0,0,1,99.75,119.08Zm-7-9.33v5.17a.17.17,0,0,0,.17.17h6.83a.17.17,0,0,0,.17-.17v-5.17Z" transform="translate(-40.83 -40.92)"/><path class="cls-2" d="M129.19,129.38H63.81a5.57,5.57,0,0,1-5.56-5.56V102.69a5.53,5.53,0,0,1,.48-2.26l4.57,2a.56.56,0,0,0,0,.23v21.13a.56.56,0,0,0,.56.56h65.38a.56.56,0,0,0,.56-.56V102.69a.57.57,0,0,0,0-.22l4.61-1.94a5.54,5.54,0,0,1,.44,2.16v21.13A5.57,5.57,0,0,1,129.19,129.38Z" transform="translate(-40.83 -40.92)"/><path class="cls-3" d="M123.88,110.25H69.13A10.89,10.89,0,0,1,58.25,99.38V84.75A5.26,5.26,0,0,1,63.5,79.5h66a5.26,5.26,0,0,1,5.25,5.25V99.38A10.89,10.89,0,0,1,123.88,110.25ZM63.5,84.5a.25.25,0,0,0-.25.25V99.38a5.88,5.88,0,0,0,5.88,5.88h54.75a5.88,5.88,0,0,0,5.88-5.87V84.75a.25.25,0,0,0-.25-.25Z" transform="translate(-40.83 -40.92)"/><path class="cls-3" d="M111.67,84H81.92V74.83a4,4,0,0,1,4-4h21.75a4,4,0,0,1,4,4ZM85.92,80h21.75V74.83H85.92Z" transform="translate(-40.83 -40.92)"/></svg>