<svg id="Слой_1" data-name="Слой 1" xmlns="http://www.w3.org/2000/svg" viewBox="0 0 118.5 118.5"><defs><style>.cls-1{fill:#ecf3f2;}.cls-2{fill:#33393e;}.cls-3{fill:#53ad71;}</style></defs><title>календарь</title><path class="cls-1" d="M152.94,159.5H46.69a6.13,6.13,0,0,1-6.12-6.12V47.13A6.13,6.13,0,0,1,46.69,41H152.94a6.13,6.13,0,0,1,6.13,6.13V153.38A6.13,6.13,0,0,1,152.94,159.5ZM46.69,45a2.13,2.13,0,0,0-2.12,2.13V153.38a2.13,2.13,0,0,0,2.13,2.13H152.94a2.13,2.13,0,0,0,2.13-2.12V47.13A2.13,2.13,0,0,0,152.94,45Z" transform="translate(-40.56 -41)"/><path class="cls-2" d="M126.13,131H72.38a3.88,3.88,0,0,1-3.87-3.87V82.38a3.88,3.88,0,0,1,3.88-3.87h53.75A3.88,3.88,0,0,1,130,82.38v44.75A3.88,3.88,0,0,1,126.13,131ZM73.5,126H125V83.5H73.5Z" transform="translate(-40.56 -41)"/><rect class="cls-3" x="27.94" y="33.5" width="61.5" height="13.75" rx="2.31" ry="2.31"/><circle class="cls-3" cx="58.69" cy="66.33" r="6.67"/><rect class="cls-2" x="78.67" y="28.06" width="4.94" height="11.94" rx="2.47" ry="2.47"/><rect class="cls-2" x="63.6" y="28.06" width="4.94" height="11.94" rx="2.47" ry="2.47"/><rect class="cls-2" x="48.83" y="28.06" width="4.94" height="11.94" rx="2.47" ry="2.47"/><rect class="cls-2" x="33.77" y="28.06" width="4.94" height="11.94" rx="2.47" ry="2.47"/></svg>