<svg id="Слой_1" data-name="Слой 1" xmlns="http://www.w3.org/2000/svg" viewBox="0 0 117.42 117.42"><defs><style>.cls-1{fill:#eef3f4;}.cls-2{fill:#343b40;}.cls-3{fill:#53ad71;}</style></defs><title>карта</title><path class="cls-1" d="M152.83,158.08H47.92a6.26,6.26,0,0,1-6.25-6.25V46.92a6.26,6.26,0,0,1,6.25-6.25H152.83a6.26,6.26,0,0,1,6.25,6.25V151.83A6.26,6.26,0,0,1,152.83,158.08ZM47.92,44.67a2.25,2.25,0,0,0-2.25,2.25V151.83a2.25,2.25,0,0,0,2.25,2.25H152.83a2.25,2.25,0,0,0,2.25-2.25V46.92a2.25,2.25,0,0,0-2.25-2.25Z" transform="translate(-41.67 -40.67)"/><path class="cls-2" d="M134,125.25H66.75A5.26,5.26,0,0,1,61.5,120V79a5.26,5.26,0,0,1,5.25-5.25H134A5.26,5.26,0,0,1,139.25,79v41A5.26,5.26,0,0,1,134,125.25ZM66.75,78.75a.25.25,0,0,0-.25.25v41a.25.25,0,0,0,.25.25H134a.25.25,0,0,0,.25-.25V79a.25.25,0,0,0-.25-.25Z" transform="translate(-41.67 -40.67)"/><path class="cls-3" d="M127.63,97.38H73.75a2.5,2.5,0,0,1,0-5h53.88a2.5,2.5,0,0,1,0,5Z" transform="translate(-41.67 -40.67)"/><path class="cls-3" d="M102.75,115.63h-29a2.5,2.5,0,0,1,0-5h29a2.5,2.5,0,0,1,0,5Z" transform="translate(-41.67 -40.67)"/><path class="cls-3" d="M127.63,115.63h-4a2.5,2.5,0,0,1,0-5h4a2.5,2.5,0,0,1,0,5Z" transform="translate(-41.67 -40.67)"/></svg>