<svg xmlns="http://www.w3.org/2000/svg" width="120" height="120" viewBox="0 0 120 120"><defs><clipPath id="a"><path fill="#fff" d="M1180 346h100a10 10 0 0 1 10 10v100a10 10 0 0 1-10 10h-100a10 10 0 0 1-10-10V356a10 10 0 0 1 10-10z"/></clipPath><clipPath id="b"><path fill="#fff" d="M1214.5 412a12.5 12.5 0 1 1 0 25 12.5 12.5 0 0 1 0-25z"/></clipPath><clipPath id="c"><path fill="#fff" d="M1245.5 375a12.5 12.5 0 1 1 0 25 12.5 12.5 0 0 1 0-25z"/></clipPath></defs><path fill="#fff" d="M10 0h100a10 10 0 0 1 10 10v100a10 10 0 0 1-10 10H10a10 10 0 0 1-10-10V10A10 10 0 0 1 10 0z"/><path fill="none" stroke="#edf2f2" stroke-miterlimit="50" stroke-width="10" d="M1180 346h100a10 10 0 0 1 10 10v100a10 10 0 0 1-10 10h-100a10 10 0 0 1-10-10V356a10 10 0 0 1 10-10z" clip-path="url(&quot;#a&quot;)" transform="translate(-1170 -346)"/><path fill="#353b40" d="M29.5 76h61a2.5 2.5 0 0 1 0 5h-61a2.5 2.5 0 0 1 0-5z"/><path fill="#fff" d="M44.5 66a12.5 12.5 0 1 1 0 25 12.5 12.5 0 0 1 0-25z"/><path fill="none" stroke="#2fbf71" stroke-miterlimit="50" stroke-width="10" d="M1214.5 412a12.5 12.5 0 1 1 0 25 12.5 12.5 0 0 1 0-25z" clip-path="url(&quot;#b&quot;)" transform="translate(-1170 -346)"/><path fill="#353b40" d="M29.5 39h61a2.5 2.5 0 0 1 0 5h-61a2.5 2.5 0 0 1 0-5z"/><path fill="#fff" d="M75.5 29a12.5 12.5 0 1 1 0 25 12.5 12.5 0 0 1 0-25z"/><path fill="none" stroke="#2fbf71" stroke-miterlimit="50" stroke-width="10" d="M1245.5 375a12.5 12.5 0 1 1 0 25 12.5 12.5 0 0 1 0-25z" clip-path="url(&quot;#c&quot;)" transform="translate(-1170 -346)"/></svg>