<svg xmlns="http://www.w3.org/2000/svg" width="120" height="120" viewBox="0 0 120 120"><defs><clipPath id="a"><path fill="#fff" d="M400 346h100a10 10 0 0 1 10 10v100a10 10 0 0 1-10 10H400a10 10 0 0 1-10-10V356a10 10 0 0 1 10-10z"/></clipPath><clipPath id="b"><path fill="#fff" d="M450 405.72c7.89 0 14.29-7.77 14.29-17.36s-2.1-17.36-14.3-17.36c-12.19 0-14.29 7.77-14.29 17.36 0 9.6 6.4 17.36 14.3 17.36z"/></clipPath><clipPath id="c"><path fill="#fff" d="M423 432.23c0-.58 0-.16 0 0zm54 .46c0-.16 0-1.11 0 0zm-.04-1.16c-.26-16.7-2.44-21.46-19.14-24.47 0 0-2.35 2.99-7.82 2.99-5.48 0-7.83-3-7.83-3-16.51 2.99-18.83 7.67-19.13 23.94-.03 1.33-.04 1.4-.04 1.24V434s3.97 8.01 27 8.01c23.02 0 27-8.01 27-8.01v-1.3c-.01.1-.02-.09-.04-1.16z"/></clipPath></defs><path fill="#fff" d="M10 0h100a10 10 0 0 1 10 10v100a10 10 0 0 1-10 10H10a10 10 0 0 1-10-10V10A10 10 0 0 1 10 0z"/><path fill="none" stroke="#edf2f2" stroke-miterlimit="50" stroke-width="10" d="M400 346h100a10 10 0 0 1 10 10v100a10 10 0 0 1-10 10H400a10 10 0 0 1-10-10V356a10 10 0 0 1 10-10z" clip-path="url(&quot;#a&quot;)" transform="translate(-390 -346)"/><path fill="none" stroke="#2fbf71" stroke-miterlimit="50" stroke-width="10" d="M450 405.72c7.89 0 14.29-7.77 14.29-17.36s-2.1-17.36-14.3-17.36c-12.19 0-14.29 7.77-14.29 17.36 0 9.6 6.4 17.36 14.3 17.36z" clip-path="url(&quot;#b&quot;)" transform="translate(-390 -346)"/><path fill="none" stroke="#353b40" stroke-miterlimit="50" stroke-width="10" d="M423 432.23c0-.58 0-.16 0 0zm54 .46c0-.16 0-1.11 0 0zm-.04-1.16c-.26-16.7-2.44-21.46-19.14-24.47 0 0-2.35 2.99-7.82 2.99-5.48 0-7.83-3-7.83-3-16.51 2.99-18.83 7.67-19.13 23.94-.03 1.33-.04 1.4-.04 1.24V434s3.97 8.01 27 8.01c23.02 0 27-8.01 27-8.01v-1.3c-.01.1-.02-.09-.04-1.16z" clip-path="url(&quot;#c&quot;)" transform="translate(-390 -346)"/></svg>