<svg id="Слой_1" data-name="Слой 1" xmlns="http://www.w3.org/2000/svg" viewBox="0 0 117.42 117.42"><defs><style>.cls-1{fill:#eef3f4;}.cls-2{fill:#343b40;}.cls-3{fill:#53ad70;}.cls-4{fill:none;stroke:#53ad70;stroke-linecap:round;stroke-miterlimit:10;stroke-width:4.63px;}</style></defs><title>лист с загнутым краем</title><path class="cls-1" d="M152.83,158.67H47.92a6.26,6.26,0,0,1-6.25-6.25V47.5a6.26,6.26,0,0,1,6.25-6.25H152.83a6.26,6.26,0,0,1,6.25,6.25V152.42A6.26,6.26,0,0,1,152.83,158.67ZM47.92,45.25a2.25,2.25,0,0,0-2.25,2.25V152.42a2.25,2.25,0,0,0,2.25,2.25H152.83a2.25,2.25,0,0,0,2.25-2.25V47.5a2.25,2.25,0,0,0-2.25-2.25Z" transform="translate(-41.67 -41.25)"/><path class="cls-2" d="M120.19,133.25H78.44a4.82,4.82,0,0,1-4.81-4.81V70.81A4.82,4.82,0,0,1,78.44,66h33.1L125,78.63v49.8A4.82,4.82,0,0,1,120.19,133.25ZM78.44,70a.81.81,0,0,0-.81.81v57.63a.81.81,0,0,0,.81.81h41.75a.81.81,0,0,0,.81-.81V80.37L110,70Z" transform="translate(-41.67 -41.25)"/><path class="cls-3" d="M107,84.31H87.44a2.31,2.31,0,0,1,0-4.63H107a2.31,2.31,0,0,1,0,4.63Z" transform="translate(-41.67 -41.25)"/><path class="cls-2" d="M123,86.25H108.38a3.88,3.88,0,0,1-3.87-3.87V68h5V81.25H123Z" transform="translate(-41.67 -41.25)"/><path class="cls-3" d="M111.33,101.23H87.58a2.31,2.31,0,0,1,0-4.63h23.75a2.31,2.31,0,0,1,0,4.63Z" transform="translate(-41.67 -41.25)"/><path class="cls-3" d="M111.33,111.31H87.58a2.31,2.31,0,1,1,0-4.62h23.75a2.31,2.31,0,1,1,0,4.63Z" transform="translate(-41.67 -41.25)"/><path class="cls-4" d="M111.19,82" transform="translate(-41.67 -41.25)"/><path class="cls-3" d="M99.25,121.15H87.44a2.31,2.31,0,1,1,0-4.62H99.25a2.31,2.31,0,0,1,0,4.63Z" transform="translate(-41.67 -41.25)"/></svg>