<svg id="Слой_1" data-name="Слой 1" xmlns="http://www.w3.org/2000/svg" viewBox="0 0 118.5 118.5"><defs><style>.cls-1{fill:#53ad71;}.cls-2{fill:#33393e;}.cls-3{fill:#ecf3f2;}</style></defs><title>замок</title><path class="cls-1" d="M99.56,121.78a2.64,2.64,0,0,1-2.64-2.64V108.35a2.64,2.64,0,0,1,5.28,0v10.79A2.64,2.64,0,0,1,99.56,121.78Z" transform="translate(-40.31 -41)"/><path class="cls-1" d="M115.47,99.25H83.66V81a15.91,15.91,0,0,1,31.81,0Zm-27.81-4h23.81V81a11.91,11.91,0,0,0-23.81,0Z" transform="translate(-40.31 -41)"/><path class="cls-2" d="M120.25,132.75H78.88a4.25,4.25,0,0,1-4.25-4.25V99a4.26,4.26,0,0,1,4.25-4.25h41.38A4.25,4.25,0,0,1,124.5,99v29.5A4.25,4.25,0,0,1,120.25,132.75Zm-40.62-5H119.5v-28H79.63Z" transform="translate(-40.31 -41)"/><path class="cls-3" d="M152.69,159.5H46.44a6.13,6.13,0,0,1-6.12-6.12V47.13A6.13,6.13,0,0,1,46.44,41H152.69a6.13,6.13,0,0,1,6.13,6.13V153.38A6.13,6.13,0,0,1,152.69,159.5ZM46.44,45a2.13,2.13,0,0,0-2.12,2.13V153.38a2.13,2.13,0,0,0,2.13,2.13H152.69a2.13,2.13,0,0,0,2.13-2.12V47.13A2.13,2.13,0,0,0,152.69,45Z" transform="translate(-40.31 -41)"/></svg>