<svg id="Слой_1" data-name="Слой 1" xmlns="http://www.w3.org/2000/svg" viewBox="0 0 117.42 117.42"><defs><style>.cls-1{fill:#eef3f4;}.cls-2{fill:#343b40;}.cls-3{fill:#53ad71;}</style></defs><title>смартфон</title><path class="cls-1" d="M152.79,158.21H47.88A6.26,6.26,0,0,1,41.63,152V47a6.26,6.26,0,0,1,6.25-6.25H152.79A6.26,6.26,0,0,1,159,47V152A6.26,6.26,0,0,1,152.79,158.21ZM47.88,44.79A2.25,2.25,0,0,0,45.63,47V152a2.25,2.25,0,0,0,2.25,2.25H152.79A2.25,2.25,0,0,0,155,152V47a2.25,2.25,0,0,0-2.25-2.25Z" transform="translate(-41.63 -40.79)"/><path class="cls-2" d="M116.13,140.25h-32a6.88,6.88,0,0,1-6.87-6.87V68.63a6.88,6.88,0,0,1,6.88-6.87h32A6.88,6.88,0,0,1,123,68.63v64.75A6.88,6.88,0,0,1,116.13,140.25Zm-32-73.5a1.88,1.88,0,0,0-1.87,1.88v64.75a1.88,1.88,0,0,0,1.88,1.88h32a1.88,1.88,0,0,0,1.88-1.87V68.63a1.88,1.88,0,0,0-1.87-1.87Z" transform="translate(-41.63 -40.79)"/><path class="cls-3" d="M106.33,76.25h-12a2.5,2.5,0,1,1,0-5h12a2.5,2.5,0,1,1,0,5Z" transform="translate(-41.63 -40.79)"/><circle class="cls-3" cx="58.71" cy="85.58" r="3.92"/></svg>