<svg id="Слой_1" data-name="Слой 1" xmlns="http://www.w3.org/2000/svg" viewBox="0 0 117.42 117.42"><defs><style>.cls-1{fill:#eef3f4;}.cls-2{fill:#343b40;}.cls-3{fill:#53ad70;}</style></defs><title>часы</title><path class="cls-1" d="M152.83,158.33H47.92a6.26,6.26,0,0,1-6.25-6.25V47.17a6.26,6.26,0,0,1,6.25-6.25H152.83a6.26,6.26,0,0,1,6.25,6.25V152.08A6.26,6.26,0,0,1,152.83,158.33ZM47.92,44.92a2.25,2.25,0,0,0-2.25,2.25V152.08a2.25,2.25,0,0,0,2.25,2.25H152.83a2.25,2.25,0,0,0,2.25-2.25V47.17a2.25,2.25,0,0,0-2.25-2.25Z" transform="translate(-41.67 -40.92)"/><path class="cls-2" d="M100.38,132.83a33.21,33.21,0,1,1,33.21-33.21A33.25,33.25,0,0,1,100.38,132.83Zm0-61.42a28.21,28.21,0,1,0,28.21,28.21A28.24,28.24,0,0,0,100.38,71.42Z" transform="translate(-41.67 -40.92)"/><circle class="cls-2" cx="58.71" cy="30.42" r="2.71"/><circle class="cls-2" cx="30.88" cy="58.71" r="2.71"/><circle class="cls-2" cx="87.13" cy="58.71" r="2.71"/><circle class="cls-2" cx="58.71" cy="87" r="2.71"/><path class="cls-3" d="M100.38,106.5a6.88,6.88,0,1,1,6.88-6.87A6.88,6.88,0,0,1,100.38,106.5Zm0-9.75a2.88,2.88,0,1,0,2.88,2.88A2.88,2.88,0,0,0,100.38,96.75Z" transform="translate(-41.67 -40.92)"/><path class="cls-3" d="M104.2,98.61A2,2,0,0,1,103,95l14.55-11.45A2,2,0,0,1,120,86.74L105.44,98.18A2,2,0,0,1,104.2,98.61Z" transform="translate(-41.67 -40.92)"/><path class="cls-3" d="M96,99.47a2,2,0,0,1-.88-.21L83.87,93.71a2,2,0,1,1,1.77-3.59L96.9,95.68A2,2,0,0,1,96,99.47Z" transform="translate(-41.67 -40.92)"/></svg>