<svg id="Слой_1" data-name="Слой 1" xmlns="http://www.w3.org/2000/svg" viewBox="0 0 118.5 118.5"><defs><style>.cls-1{fill:#ecf3f2;}.cls-2{fill:#53ad71;}.cls-3{fill:#33393e;}</style></defs><title>карта с указателем</title><path class="cls-1" d="M153.13,159.5H46.88a6.13,6.13,0,0,1-6.12-6.12V47.13A6.13,6.13,0,0,1,46.88,41H153.13a6.13,6.13,0,0,1,6.13,6.13V153.38A6.13,6.13,0,0,1,153.13,159.5ZM46.88,45a2.13,2.13,0,0,0-2.12,2.13V153.38a2.13,2.13,0,0,0,2.13,2.13H153.13a2.13,2.13,0,0,0,2.13-2.12V47.13A2.13,2.13,0,0,0,153.13,45Z" transform="translate(-40.75 -41)"/><path class="cls-2" d="M100.33,132.31a2.17,2.17,0,0,1-1-.23l-10.29-5.15a.61.61,0,0,0-.53,0L80,131a2.36,2.36,0,0,1-3.07-3.28l9-16.13a4.6,4.6,0,0,1,3.11-2.28L95.1,108l.8,3.92-6.16,1.26a.61.61,0,0,0-.41.3L82.85,125.2l4-1.88a4.58,4.58,0,0,1,4,0l9.47,4.74,9.47-4.74a4.58,4.58,0,0,1,4,0l4,1.88-6.48-11.68a.6.6,0,0,0-.41-.3L104.77,112l.8-3.92,6.16,1.26a4.6,4.6,0,0,1,3.11,2.28l9,16.13a2.36,2.36,0,0,1-3.08,3.28l-8.58-4.06a.61.61,0,0,0-.54,0l-10.29,5.14A2.17,2.17,0,0,1,100.33,132.31Z" transform="translate(-40.75 -41)"/><path class="cls-3" d="M121.33,86A21,21,0,1,0,82.47,97v0l.13.17a21.05,21.05,0,0,0,2.25,2.94l15.5,20.28,15.5-20.28a21,21,0,0,0,2.25-2.95l.13-.17v0A20.87,20.87,0,0,0,121.33,86Zm-21,17.54A17.54,17.54,0,1,1,117.88,86,17.54,17.54,0,0,1,100.33,103.54Z" transform="translate(-40.75 -41)"/><circle class="cls-2" cx="59.58" cy="45" r="6.71"/></svg>