<svg xmlns="http://www.w3.org/2000/svg" width="120" height="120" viewBox="0 0 120 120"><defs><clipPath id="a"><path fill="#fff" d="M790 346h100a10 10 0 0 1 10 10v100a10 10 0 0 1-10 10H790a10 10 0 0 1-10-10V356a10 10 0 0 1 10-10z"/></clipPath><clipPath id="b"><path fill="#fff" d="M831.82 434l-12.07-7.02a3.02 3.02 0 0 1-1.1-4.1l26.9-46.87a9.92 9.92 0 0 1 13.6-3.67c4.75 2.77 6.38 8.9 3.64 13.7l-26.89 46.85a2.98 2.98 0 0 1-4.08 1.1z"/></clipPath><clipPath id="c"><path fill="#fff" d="M822.22 420.31l14.08 8.19c3.45 2-5.33 10.6-10.39 13.25l-5.93 3.12c-.41.22-1.01.17-1.42-.07l-1.49-.86a1.6 1.6 0 0 1-.77-1.21L816 436c-.24-5.74 2.76-17.69 6.2-15.69z"/></clipPath><clipPath id="d"><path fill="#fff" d="M845.1 420.88l15.93-27.77-20.7-12.03s-.28-1.5.38-2.67c.67-1.17 2.11-1.67 2.11-1.67l20.7 12.03a5.03 5.03 0 0 1 1.82 6.84l-13.44 23.44c-2.37 4.12-6.8 1.83-6.8 1.83z"/></clipPath></defs><path fill="#fff" d="M10 0h100a10 10 0 0 1 10 10v100a10 10 0 0 1-10 10H10a10 10 0 0 1-10-10V10A10 10 0 0 1 10 0z"/><path fill="none" stroke="#edf2f2" stroke-miterlimit="50" stroke-width="10" d="M790 346h100a10 10 0 0 1 10 10v100a10 10 0 0 1-10 10H790a10 10 0 0 1-10-10V356a10 10 0 0 1 10-10z" clip-path="url(&quot;#a&quot;)" transform="translate(-780 -346)"/><path fill="#fff" d="M51.82 88l-12.07-7.02a3.02 3.02 0 0 1-1.1-4.1L65.56 30a9.92 9.92 0 0 1 13.6-3.67c4.75 2.77 6.38 8.9 3.64 13.7L55.9 86.88a2.98 2.98 0 0 1-4.08 1.1z"/><path fill="none" stroke="#353b40" stroke-miterlimit="50" stroke-width="10" d="M831.82 434l-12.07-7.02a3.02 3.02 0 0 1-1.1-4.1l26.9-46.87a9.92 9.92 0 0 1 13.6-3.67c4.75 2.77 6.38 8.9 3.64 13.7l-26.89 46.85a2.98 2.98 0 0 1-4.08 1.1z" clip-path="url(&quot;#b&quot;)" transform="translate(-780 -346)"/><path fill="#fff" d="M42.22 74.31L56.3 82.5c3.45 2-5.33 10.6-10.39 13.25l-5.93 3.12c-.41.22-1.01.17-1.42-.07l-1.49-.86a1.6 1.6 0 0 1-.77-1.21L36 90c-.24-5.74 2.76-17.69 6.2-15.69z"/><path fill="none" stroke="#353b40" stroke-miterlimit="50" stroke-width="10" d="M822.22 420.31l14.08 8.19c3.45 2-5.33 10.6-10.39 13.25l-5.93 3.12c-.41.22-1.01.17-1.42-.07l-1.49-.86a1.6 1.6 0 0 1-.77-1.21L816 436c-.24-5.74 2.76-17.69 6.2-15.69z" clip-path="url(&quot;#c&quot;)" transform="translate(-780 -346)"/><path fill="none" stroke="#2fbf71" stroke-miterlimit="50" stroke-width="10" d="M845.1 420.88l15.93-27.77-20.7-12.03s-.28-1.5.38-2.67c.67-1.17 2.11-1.67 2.11-1.67l20.7 12.03a5.03 5.03 0 0 1 1.82 6.84l-13.44 23.44c-2.37 4.12-6.8 1.83-6.8 1.83z" clip-path="url(&quot;#d&quot;)" transform="translate(-780 -346)"/></svg>