<?xml version="1.0" encoding="utf-8"?>
<!-- Generator: Adobe Illustrator 21.0.0, SVG Export Plug-In . SVG Version: 6.00 Build 0)  -->
<svg version="1.1" id="Слой_1" xmlns="http://www.w3.org/2000/svg" xmlns:xlink="http://www.w3.org/1999/xlink" x="0px" y="0px"
	 viewBox="0 0 100 100" style="enable-background:new 0 0 100 100;" xml:space="preserve">
<style type="text/css">
	.st0{fill:#FFFFFF;}
	.st1{clip-path:url(#SVGID_2_);fill:none;stroke:#EDF2F2;stroke-width:10;stroke-miterlimit:50;}
	.st2{fill:none;}
</style>
<path class="st0" d="M10,0h80c5.5,0,10,4.5,10,10v80c0,5.5-4.5,10-10,10H10c-5.5,0-10-4.5-10-10V10C0,4.5,4.5,0,10,0z"/>
<g>
	<defs>
		<path id="SVGID_1_" d="M10,0h80c5.5,0,10,4.5,10,10v80c0,5.5-4.5,10-10,10H10c-5.5,0-10-4.5-10-10V10C0,4.5,4.5,0,10,0z"/>
	</defs>
	<clipPath id="SVGID_2_">
		<use xlink:href="#SVGID_1_"  style="overflow:visible;"/>
	</clipPath>
	<path class="st1" d="M10,0h80c5.5,0,10,4.5,10,10v80c0,5.5-4.5,10-10,10H10c-5.5,0-10-4.5-10-10V10C0,4.5,4.5,0,10,0z"/>
</g>
<path class="st2" d="M36.4,77.3l3.4-8.2c0.5-1.3,2-1.9,3.2-1.3c1.3,0.5,1.9,2,1.3,3.2L41,79.2c-0.5,1.3-1.9,1.9-3.1,1.5
	s-1.9-1.9-1.5-3.1C36.4,77.5,36.4,77.4,36.4,77.3z M55.6,31l3.4-8.2c0.5-1.3,1.9-1.9,3.1-1.5c1.3,0.5,1.9,1.9,1.5,3.1
	c0,0.1-0.1,0.2-0.1,0.2l-3.4,8.2c-0.5,1.3-2,1.9-3.2,1.3C55.7,33.7,55.1,32.2,55.6,31L55.6,31z M20.5,38.8c0.5-1.2,1.9-1.8,3.2-1.3
	l8.2,3.4c1.3,0.5,1.9,2,1.3,3.2c-0.5,1.3-2,1.9-3.2,1.3L21.8,42C20.5,41.5,20,40,20.5,38.8z M66.8,58c0.5-1.3,2-1.9,3.2-1.3l8.2,3.4
	c1.3,0.5,1.9,1.9,1.5,3.1s-1.9,1.9-3.1,1.5c-0.1,0-0.2-0.1-0.2-0.1l-8.2-3.4C66.9,60.7,66.3,59.2,66.8,58C66.8,58,66.8,58,66.8,58
	L66.8,58z M21.5,60.1l8.3-3.4c1.3-0.5,2.7,0.1,3.3,1.4c0.5,1.3-0.1,2.7-1.3,3.3l-8.3,3.4c-1.3,0.5-2.7-0.1-3.2-1.3
	C19.7,62.1,20.3,60.6,21.5,60.1z M68.3,40.7l8.3-3.4c1.3-0.5,2.7,0.1,3.2,1.4c0.5,1.2-0.1,2.6-1.3,3.2l-8.3,3.4
	c-1.3,0.5-2.7-0.1-3.3-1.4C66.4,42.7,67,41.2,68.3,40.7L68.3,40.7L68.3,40.7z M37.7,21.2c1.3-0.5,2.7,0.1,3.2,1.3c0,0,0,0,0,0
	l3.4,8.3c0.5,1.3-0.1,2.7-1.4,3.2c-1.2,0.5-2.6-0.1-3.2-1.3l-3.4-8.3C35.8,23.2,36.4,21.7,37.7,21.2z M57,68
	c1.3-0.5,2.7,0.1,3.2,1.3l3.4,8.3c0.5,1.3-0.1,2.7-1.3,3.2c-1.3,0.5-2.7-0.1-3.2-1.3l0,0l-3.4-8.3C55.2,69.9,55.8,68.5,57,68L57,68z
	"/>
<image style="overflow:visible;" width="60" height="60" xlink:href="rounded-rectangle-9.png"  transform="matrix(1 0 0 1 19.9696 20)">
</image>
</svg>
