<svg xmlns="http://www.w3.org/2000/svg" xmlns:xlink="http://www.w3.org/1999/xlink" viewBox="0 0 100 100"><defs><style>.cls-1{fill:#fff;}.cls-2{stroke-miterlimit:10;fill:url(#Безымянный_градиент);stroke:url(#Безымянный_градиент-2);}</style><linearGradient id="Безымянный_градиент" x1="20" y1="51" x2="79.94" y2="51" gradientUnits="userSpaceOnUse"><stop offset="0" stop-color="#fff"/><stop offset="1"/></linearGradient><linearGradient id="Безымянный_градиент-2" x1="19.5" y1="51" x2="80.44" y2="51" xlink:href="#Безымянный_градиент"/></defs><title>Ресурс 2</title><g id="Слой_2" data-name="Слой 2"><g id="Слой_1-2" data-name="Слой 1"><path class="cls-1" d="M10,0H90a10,10,0,0,1,10,10V90a10,10,0,0,1-10,10H10A10,10,0,0,1,0,90V10A10,10,0,0,1,10,0Z"/><path class="cls-2" d="M36.44,77.32l3.38-8.18A2.46,2.46,0,1,1,44.37,71L41,79.2a2.46,2.46,0,0,1-4.63-1.65Q36.39,77.43,36.44,77.32ZM55.64,31,59,22.8a2.46,2.46,0,0,1,4.63,1.65q0,.12-.09.23l-3.38,8.18A2.46,2.46,0,1,1,55.63,31Zm-35.17,7.8a2.46,2.46,0,0,1,3.2-1.33l8.19,3.38A2.46,2.46,0,1,1,30,45.37L21.8,42A2.46,2.46,0,0,1,20.47,38.77ZM66.81,58A2.46,2.46,0,0,1,70,56.63L78.2,60a2.46,2.46,0,0,1-1.65,4.63l-.23-.09-8.18-3.38A2.46,2.46,0,0,1,66.81,58h0ZM21.53,60.1l8.26-3.42a2.49,2.49,0,0,1,1.9,4.6l-8.26,3.41a2.48,2.48,0,0,1-1.9-4.59ZM68.31,40.73l8.26-3.42a2.48,2.48,0,0,1,1.9,4.58l-8.26,3.43a2.49,2.49,0,0,1-1.9-4.6h0ZM37.65,21.19a2.48,2.48,0,0,1,3.25,1.33h0l3.41,8.26a2.48,2.48,0,0,1-4.58,1.9l-3.42-8.26A2.48,2.48,0,0,1,37.65,21.19ZM57,68a2.48,2.48,0,0,1,3.24,1.34l3.42,8.26a2.48,2.48,0,1,1-4.59,1.9h0l-3.41-8.26A2.48,2.48,0,0,1,57,68Z"/></g></g></svg>