<svg id="Слой_1" data-name="Слой 1" xmlns="http://www.w3.org/2000/svg" viewBox="0 0 117.42 117.42"><defs><style>.cls-1{fill:#eef3f4;}.cls-2{fill:none;stroke:#343b40;stroke-miterlimit:10;stroke-width:4.15px;}.cls-3{fill:#343b40;}.cls-4{fill:#53ad71;}</style></defs><title>кошелек с монетами</title><path class="cls-1" d="M152.08,158.33H47.17a6.26,6.26,0,0,1-6.25-6.25V47.17a6.26,6.26,0,0,1,6.25-6.25H152.08a6.26,6.26,0,0,1,6.25,6.25V152.08A6.26,6.26,0,0,1,152.08,158.33ZM47.17,44.92a2.25,2.25,0,0,0-2.25,2.25V152.08a2.25,2.25,0,0,0,2.25,2.25H152.08a2.25,2.25,0,0,0,2.25-2.25V47.17a2.25,2.25,0,0,0-2.25-2.25Z" transform="translate(-40.92 -40.92)"/><path class="cls-2" d="M85.41,74.88" transform="translate(-40.92 -40.92)"/><path class="cls-3" d="M126.88,130.75H71.75a5.88,5.88,0,0,1-5.87-5.87V80.56a8.2,8.2,0,0,1,8.19-8.19H85.41v5H74.06a3.19,3.19,0,0,0-3.19,3.19v44.31a.88.88,0,0,0,.88.88h55.13a.88.88,0,0,0,.88-.87V78.25a.88.88,0,0,0-.87-.87H113v-5h13.88a5.88,5.88,0,0,1,5.88,5.88v46.63A5.88,5.88,0,0,1,126.88,130.75Z" transform="translate(-40.92 -40.92)"/><path class="cls-4" d="M105.13,81A12.88,12.88,0,1,1,118,68.13,12.89,12.89,0,0,1,105.13,81Zm0-20.75A7.88,7.88,0,1,0,113,68.13,7.88,7.88,0,0,0,105.13,60.25Z" transform="translate(-40.92 -40.92)"/><path class="cls-4" d="M104.11,88.22l-3.64-3.43a7.84,7.84,0,0,0,2.15-5.4q0-.34,0-.67l5-.42q0,.54,0,1.09A12.83,12.83,0,0,1,104.11,88.22Z" transform="translate(-40.92 -40.92)"/><path class="cls-4" d="M85.38,88.22a12.88,12.88,0,0,1,9.37-21.71v5A7.87,7.87,0,0,0,89,84.79Z" transform="translate(-40.92 -40.92)"/><rect class="cls-3" x="27.46" y="43.08" width="61.88" height="5"/><circle class="cls-3" cx="74.58" cy="65.83" r="5"/></svg>