<?xml version="1.0" encoding="utf-8"?>
<!-- Generator: Adobe Illustrator 21.1.0, SVG Export Plug-In . SVG Version: 6.00 Build 0)  -->
<svg version="1.1" id="Layer_1" xmlns="http://www.w3.org/2000/svg" xmlns:xlink="http://www.w3.org/1999/xlink" x="0px" y="0px"
	 viewBox="0 0 62.6 45" style="enable-background:new 0 0 62.6 45;" xml:space="preserve">
<style type="text/css">
	.st0{fill:#DE1000;}
	.st1{fill:#0C70BD;}
</style>
<g>
	<g>
		<path class="st0" d="M17.1,45c-5,0-10.7-1.5-16.6-6L0,38.5V30c0-4.6,3.7-8.3,8.3-8.3h18.4c4.6,0,8.3,3.7,8.3,8.3v8.5L34.6,39
			C34.4,39.1,27.1,45,17.1,45z M3,37.1c13.8,10,26.4,2,29.1,0v-7c0-2.9-2.4-5.3-5.3-5.3H8.2c-2.9,0-5.3,2.4-5.3,5.3
			C2.9,30.1,2.9,37.1,3,37.1z M17.6,20.4c-5.2,0-9.4-4.9-9.4-10.9c0-5.6,3.9-9.5,9.4-9.5S27,3.9,27,9.5
			C26.9,15.5,22.6,20.4,17.6,20.4z M17.6,3c-3.9,0-6.4,2.5-6.4,6.5c0,4.3,2.9,7.9,6.4,7.9S24,13.9,24,9.5C23.9,5.6,21.4,3,17.6,3z"
			/>
	</g>
	<polygon class="st1" points="62.6,10.5 52.6,10.5 52.6,0.5 49.6,0.5 49.6,10.5 39.6,10.5 39.6,13.5 49.6,13.5 49.6,23.5 52.6,23.5 
		52.6,13.5 62.6,13.5 	"/>
</g>
</svg>
