<?xml version="1.0" encoding="utf-8"?>
<!-- Generator: Adobe Illustrator 21.1.0, SVG Export Plug-In . SVG Version: 6.00 Build 0)  -->
<svg version="1.1" id="Layer_1" xmlns="http://www.w3.org/2000/svg" xmlns:xlink="http://www.w3.org/1999/xlink" x="0px" y="0px"
	 viewBox="0 0 67 44.5" style="enable-background:new 0 0 67 44.5;" xml:space="preserve">
<style type="text/css">
	.st0{fill:#0C70BD;}
	.st1{fill:#DE1000;}
</style>
<g>
	<g>
		<path class="st0" d="M61.6,44.5H5.4c-3,0-5.4-2.4-5.4-5.4V5.4C0,2.4,2.4,0,5.4,0h56.2c3,0,5.4,2.4,5.4,5.4v33.7
			C67,42,64.6,44.5,61.6,44.5z M5.4,3C4.1,3,3,4.1,3,5.4v33.7c0,1.3,1.1,2.4,2.4,2.4h56.2c1.3,0,2.4-1.1,2.4-2.4V5.4
			C64,4.1,62.9,3,61.6,3H5.4z"/>
	</g>
	<g>
		<path class="st0" d="M26.4,37.1H11.1C8.8,37.1,7,35.3,7,33V12.4c0-2.3,1.8-4.1,4.1-4.1h15.2c2.3,0,4.1,1.8,4.1,4.1V33
			C30.5,35.3,28.7,37.1,26.4,37.1z M11.1,11.3c-0.6,0-1.1,0.5-1.1,1.1V33c0,0.6,0.5,1.1,1.1,1.1h15.2c0.6,0,1.1-0.5,1.1-1.1V12.4
			c0-0.6-0.5-1.1-1.1-1.1C26.3,11.3,11.1,11.3,11.1,11.3z"/>
	</g>
	<rect x="33.5" y="9.3" class="st1" width="20.8" height="3"/>
	<rect x="33.5" y="14.8" class="st1" width="25.1" height="3"/>
	<rect x="33.5" y="20.3" class="st1" width="16.5" height="3"/>
	<rect x="33.5" y="29.1" class="st1" width="4.9" height="3"/>
	<rect x="33.5" y="34.6" class="st1" width="18.7" height="3"/>
	<rect x="41" y="29.1" class="st1" width="4.9" height="3"/>
	<rect x="48.5" y="29.1" class="st1" width="9.7" height="3"/>
</g>
</svg>
