<?xml version="1.0" encoding="utf-8"?>
<!-- Generator: Adobe Illustrator 21.1.0, SVG Export Plug-In . SVG Version: 6.00 Build 0)  -->
<svg version="1.1" id="Layer_1" xmlns="http://www.w3.org/2000/svg" xmlns:xlink="http://www.w3.org/1999/xlink" x="0px" y="0px"
	 viewBox="0 0 65.9 38" style="enable-background:new 0 0 65.9 38;" xml:space="preserve">
<style type="text/css">
	.st0{fill:#0C70BD;}
	.st1{fill:#DF0909;}
</style>
<g>
	<path class="st0" d="M29.6,6.5V3.8c0-2.1-1.7-3.8-3.8-3.8h-8.3c-2.1,0-3.8,1.7-3.8,3.8v2.7H-0.1v3h13.7v2.7c0,2.1,1.7,3.8,3.8,3.8
		h8.3c2.1,0,3.8-1.7,3.8-3.8V9.5h36.3v-3H29.6z M26.6,12.2c0,0.5-0.4,0.8-0.8,0.8h-8.3c-0.5,0-0.8-0.4-0.8-0.8V3.8
		C16.6,3.4,17,3,17.4,3h8.3c0.5,0,0.8,0.4,0.8,0.8v8.4H26.6z"/>
	<path class="st1" d="M36.2,31.5v2.7c0,2.1,1.7,3.8,3.8,3.8h8.3c2.1,0,3.8-1.7,3.8-3.8v-2.7h13.7v-3H52.2v-2.7
		c0-2.1-1.7-3.8-3.8-3.8h-8.3c-2.1,0-3.8,1.7-3.8,3.8v2.7H-0.1v3H36.2z M39.2,25.8c0-0.5,0.4-0.8,0.8-0.8h8.3c0.5,0,0.8,0.4,0.8,0.8
		v8.3c0,0.5-0.4,0.8-0.8,0.8H40c-0.5,0-0.8-0.4-0.8-0.8V25.8z"/>
</g>
</svg>
