<?xml version="1.0" encoding="utf-8"?>
<!-- Generator: Adobe Illustrator 21.1.0, SVG Export Plug-In . SVG Version: 6.00 Build 0)  -->
<svg version="1.1" id="Layer_1" xmlns="http://www.w3.org/2000/svg" xmlns:xlink="http://www.w3.org/1999/xlink" x="0px" y="0px"
	 viewBox="0 0 59 43" style="enable-background:new 0 0 59 43;" xml:space="preserve">
<style type="text/css">
	.st0{fill:#0C70BD;}
	.st1{fill:#DE1000;}
</style>
<g>
	<path class="st0" d="M29.5,3c5,0,9,4,9,9c0,3.2-4.7,10.6-9,16.2c-4.3-5.6-9-13-9-16.2C20.5,7,24.5,3,29.5,3 M29.5,0
		c-6.6,0-12,5.4-12,12s12,21,12,21s12-14.4,12-21S36.1,0,29.5,0L29.5,0z"/>
	<path class="st0" d="M29.5,9c1.5,0,2.8,1.2,2.8,2.8s-1.2,2.8-2.8,2.8s-2.8-1.2-2.8-2.8S28,9,29.5,9 M29.5,6c-3.2,0-5.8,2.6-5.8,5.8
		s2.6,5.8,5.8,5.8s5.8-2.6,5.8-5.8S32.7,6,29.5,6L29.5,6z"/>
	<path class="st1" d="M44,21h-4.5c-0.6,1-1.2,2-1.9,3h4.8l4.8,7H36v3h13.2l4.1,6H31v-4h-3v4H5.5l3.8-6H23v-3H11.2l4.5-7h5.7
		c-0.6-1-1.3-2-1.9-3H14L0,43h59L44,21z"/>
</g>
</svg>
