<svg xmlns="http://www.w3.org/2000/svg" xmlns:xlink="http://www.w3.org/1999/xlink" width="22" height="22" viewBox="0 0 22 22"><defs><path id="a" d="M1264 174a11 11 0 1 1-22 0 11 11 0 0 1 22 0zm-8.97 0l3.05-3.05a1.44 1.44 0 0 0-2.03-2.03l-3.05 3.05-3.05-3.05a1.43 1.43 0 1 0-2.03 2.03l3.05 3.05-3.05 3.05a1.44 1.44 0 0 0 2.03 2.03l3.05-3.05 3.05 3.05a1.43 1.43 0 1 0 2.03-2.03z"/></defs><desc>Generated with Avocode.</desc><g transform="translate(-1242 -163)"><use fill="#fff" xlink:href="#a"/></g></svg>