<?xml version="1.0" encoding="utf-8"?>
<!-- Generator: Adobe Illustrator 21.1.0, SVG Export Plug-In . SVG Version: 6.00 Build 0)  -->
<svg version="1.1" id="Layer_1" xmlns="http://www.w3.org/2000/svg" xmlns:xlink="http://www.w3.org/1999/xlink" x="0px" y="0px"
	 viewBox="0 0 83 26" style="enable-background:new 0 0 83 26;" xml:space="preserve">
<style type="text/css">
	.st0{fill:#787F86;}
	.st1{fill:#2C343C;}
</style>
<g id="Comodo">
	<path class="st0" d="M6.6,12.5V6.8c0-1.9,1.6-3.3,3.3-3.3s3.3,1.6,3.3,3.3v5.7h3.3V6.8c0.2-3.6-2.8-6.6-6.4-6.6S3.5,3.1,3.5,6.8
		v5.7H6.6L6.6,12.5z"/>
	<path class="st0" d="M9,6.6c0.5-0.5,1.4-0.5,1.9,0s1.6,0.7,2.1,0.5c0.7-0.2,1.4,0.2,1.7,0.7c0.3,0.7,1,1.2,1.7,1.2
		c0.7,0.2,1.2,0.7,1.2,1.4s0.5,1.6,1,1.9c0.5,0.3,0.9,1.2,0.5,1.7c-0.3,0.7-0.2,1.6,0.2,2.3c0.3,0.5,0.3,1.4-0.2,1.9
		c-0.5,0.5-0.9,1.4-0.7,2.1c0.2,0.7-0.3,1.4-0.9,1.6c-0.7,0.2-1.4,0.9-1.4,1.6c-0.2,0.7-0.9,1.2-1.6,1s-1.6,0.3-2.1,0.9
		c-0.3,0.5-1.2,0.7-1.9,0.3c-0.5-0.3-1.6-0.3-2.3,0C8,26,7.1,25.8,6.6,25.3c-0.5-0.5-1.4-0.9-2.1-0.9s-0.9-0.2-1-0.9
		c-0.2-0.7-0.9-1.4-1.4-1.6c-0.7-0.2-1-1-0.9-1.6c0.2-0.7-0.2-1.6-0.7-2.1C0,17.8-0.2,17,0.2,16.5c0.5-0.7,0.5-1.6,0.3-2.3
		c-0.3-0.7,0-1.4,0.5-1.7c0.5-0.3,1-1.2,1-1.9c0-0.7,0.5-1.4,1.2-1.4C4,9,4.9,8.5,5,8c0.5-0.7,1.2-1,1.9-0.9C7.6,7.3,8.5,7.1,9,6.6z
		"/>
	<path class="st1" d="M10.1,9.7c-3.6,0-6.6,2.9-6.6,6.6s2.9,6.4,6.6,6.4s6.6-2.9,6.6-6.6S13.5,9.7,10.1,9.7z"/>
	<path class="st0" d="M10.4,12c-0.3,0-0.9,0-1.2,0.2c-2.1,0.3-3.3,1.4-3.5,3.5L5.6,17c-0.2,1,0,1.7,0.5,2.3c0.5,0.7,1.6,1.2,2.9,1.2
		h2.6c1.6,0,1.7-1.6,1.7-1.6H9.9c-0.5,0-0.9,0-1.2-0.2C8.3,18.5,8,18.4,8,17.8c0-0.2,0-0.7,0-0.9l0.2-1.2c0-0.3,0.2-0.7,0.2-0.9
		c0.2-0.5,0.3-0.7,0.7-1c0.2-0.2,0.7-0.3,1.7-0.3h1.9c1.4,0,1.6-1.6,1.6-1.6H10.4z"/>
	<g>
		<path class="st0" d="M28.4,21.7c0,0.3,0,0.5-0.2,0.7c-0.2,0.2-0.3,0.3-0.5,0.5C27.6,23,27.2,23,26.9,23s-0.5,0-0.7,0
			c-0.2,0-0.3-0.2-0.7-0.2v-1c0.2,0.2,0.5,0.2,0.7,0.3c0.2,0,0.5,0.2,0.7,0.2c0.2,0,0.3,0,0.3-0.2l0.2-0.2v-0.2l-0.2-0.2
			c0,0-0.3-0.2-0.5-0.3C26.3,21.1,26.2,21,26,21c-0.2,0-0.2-0.3-0.3-0.3c0-0.2-0.2-0.3-0.2-0.5c0-0.3,0.2-0.7,0.5-0.9
			c0.3-0.2,0.7-0.3,1.2-0.3c0.5,0,0.9,0.2,1.4,0.3l-0.3,0.9c-0.3-0.2-0.7-0.3-1-0.3c-0.2,0-0.3,0-0.3,0l-0.2,0.2c0,0,0,0.2,0.2,0.2
			s0.3,0.2,0.7,0.3c0.3,0.2,0.7,0.3,0.9,0.5C28.4,21.1,28.4,21.3,28.4,21.7L28.4,21.7z"/>
		<path class="st0" d="M32.1,21.7c0,0.3,0,0.5-0.2,0.7c-0.2,0.2-0.3,0.3-0.5,0.5S30.8,23,30.5,23s-0.5,0-0.7,0s-0.3-0.2-0.7-0.2v-1
			c0.2,0.2,0.5,0.2,0.7,0.3c0.2,0,0.5,0.2,0.7,0.2s0.3,0,0.3-0.2S31,22,31,22v-0.2l-0.2-0.2c0,0-0.3-0.2-0.5-0.3
			C30,21.1,29.8,21,29.6,21c-0.2,0-0.2-0.3-0.3-0.3c0-0.2-0.2-0.3-0.2-0.5c0-0.3,0.2-0.7,0.5-0.9c0.3-0.2,0.7-0.3,1.2-0.3
			c0.5,0,0.9,0.2,1.4,0.3l-0.3,0.9c-0.3-0.2-0.7-0.3-1-0.3c-0.2,0-0.3,0-0.3,0l-0.2,0.2c0,0,0,0.2,0.2,0.2s0.3,0.2,0.7,0.3
			c0.3,0.2,0.7,0.3,0.9,0.5C31.9,21.1,32.1,21.3,32.1,21.7L32.1,21.7z"/>
		<path class="st0" d="M32.8,23v-4.5H34V22h1.7v1C35.7,23,32.8,23,32.8,23z"/>
		<path class="st0" d="M38.3,18.9c-0.5,0-1,0.2-1.4,0.5c-0.3,0.3-0.5,0.9-0.5,1.4c0,0.7,0.2,1,0.5,1.6c0.3,0.3,0.7,0.5,1.2,0.5
			c0.3,0,0.7,0,1-0.2V23c-0.3,0.2-0.7,0.2-1,0.2c-0.7,0-1-0.2-1.4-0.5c-0.3-0.3-0.5-1-0.5-1.7c0-0.5,0.2-0.9,0.3-1.2
			c0.2-0.3,0.3-0.7,0.7-0.9s0.7-0.3,1-0.3s0.9,0,1.2,0.2l-0.2,0.3C39,18.9,38.6,18.9,38.3,18.9L38.3,18.9z"/>
		<path class="st0" d="M42.6,23h-2.4v-4.5h2.4v0.3h-2.1v1.7h1.9V21h-1.9v1.7h2.1V23z"/>
		<path class="st0" d="M44,21.1V23h-0.3v-4.5h1c0.5,0,0.9,0.2,1.2,0.3c0.3,0.2,0.3,0.5,0.3,0.9c0,0.3,0,0.5-0.2,0.7
			c-0.2,0.2-0.3,0.3-0.7,0.5l1.2,2.1h-0.3l-1.2-1.9H44L44,21.1z M44,20.8h0.9c0.3,0,0.7,0,0.9-0.2s0.3-0.3,0.3-0.7s-0.2-0.5-0.3-0.7
			s-0.5-0.2-1-0.2H44V20.8L44,20.8z"/>
		<path class="st0" d="M48.5,23h-0.3v-4.2h-1.4v-0.3h3.1v0.3h-1.4V23z"/>
		<path class="st0" d="M50.6,23v-4.5h0.3V23C50.9,23,50.6,23,50.6,23z"/>
		<path class="st0" d="M52.5,23h-0.3v-4.5h2.4v0.3h-2.1v1.9h2.1v0.3h-2.1L52.5,23L52.5,23z"/>
		<path class="st0" d="M55.3,23v-4.5h0.3V23C55.6,23,55.3,23,55.3,23z"/>
		<path class="st0" d="M58.7,18.9c-0.5,0-1,0.2-1.4,0.5c-0.3,0.3-0.5,0.9-0.5,1.4c0,0.7,0.2,1,0.5,1.6c0.3,0.5,0.7,0.5,1.2,0.5
			c0.3,0,0.7,0,1-0.2V23c-0.3,0.2-0.7,0.2-1,0.2c-0.7,0-1-0.2-1.4-0.5c-0.3-0.3-0.5-1-0.5-1.7c0-0.5,0.2-0.9,0.3-1.2
			c0.2-0.3,0.3-0.7,0.7-0.9c0.3-0.2,0.7-0.3,1-0.3c0.3,0,0.9,0,1.2,0.2l-0.2,0.3C59.4,18.9,59.1,18.9,58.7,18.9L58.7,18.9z"/>
		<path class="st0" d="M62.9,21.5h-1.7L60.5,23h-0.3l1.7-4.5H62l1.7,4.5h-0.3L62.9,21.5L62.9,21.5z M61.2,21.1h1.6l-0.5-1.6
			c0-0.2-0.2-0.3-0.2-0.5c0,0.2-0.2,0.3-0.2,0.5L61.2,21.1z"/>
		<path class="st0" d="M65.5,23h-0.3v-4.2h-1.4v-0.3h3.1v0.3h-1.4V23z"/>
		<path class="st0" d="M70,23h-2.4v-4.5H70v0.3h-2.1v1.7H70V21h-2.1v1.7H70V23z"/>
	</g>
	<g>
		<path class="st0" d="M68.6,9h-3.5v0.2c0,0.5,0.2,1.2,1,1.2h1h1.2c1.4,0,2.1,0.5,1.9,1.9l-0.2,1.2c-0.2,1.6-1.4,1.7-2.3,1.7h-1.2
			l0.3-2.9c0-0.3-0.2-1-1-1h-1l-0.3,2.4l-0.3,2.1c0,0.5,0.3,0.9,1.2,0.9h2.6c2.6,0,3.5-1,3.8-1.6c0.2-0.3,0.3-0.7,0.3-1.2
			c0-0.2,0.2-1.6,0.2-1.6c0.2-0.9,0-1.6-0.5-2.1C71.4,9.4,70.4,9,68.6,9L68.6,9z"/>
		<path class="st0" d="M37.6,8.8h-0.3c-2.8,0-4.2,1.2-4.3,3.3l-0.2,1.4c-0.2,0.9,0,1.7,0.5,2.3c0.5,0.7,1.6,1,3.1,1h0.3
			c2.6,0,4-1,4.3-3.1v-0.2l0-1.2c0.2-1,0-1.7-0.5-2.3C40,9.4,39,8.8,37.6,8.8z M39,12.3l-0.2,1.2c0,0.5-0.2,1-0.5,1.4
			c-0.3,0.3-0.9,0.7-1.6,0.7h-0.3c-0.7,0-1.2-0.2-1.4-0.7c-0.2-0.3-0.3-0.9-0.2-1.4l0.2-1.2c0.2-0.7,0.3-1.2,0.7-1.6
			c0.3-0.3,0.9-0.5,1.4-0.5h0.3c0.3,0,0.9,0,1.2,0.5C39,11.1,39,11.6,39,12.3L39,12.3z"/>
		<path class="st0" d="M82.5,9.9c-0.7-0.5-1.6-1-3.1-1H79c-2.8,0-4.2,1.2-4.5,3.3l-0.2,1.4c-0.2,0.9,0,1.7,0.5,2.3
			c0.5,0.7,1.6,1,3.1,1h0.3c2.6,0,4-1,4.3-3.1v-0.2l0.3-1.2C83,11.3,82.8,10.6,82.5,9.9L82.5,9.9z M80.7,12.3l-0.2,1.2
			c0,0.5-0.2,1-0.5,1.4c-0.3,0.3-0.9,0.7-1.6,0.7h-0.3c-0.7,0-1.2-0.2-1.4-0.7c-0.2-0.3-0.2-0.7-0.2-1.4l0.2-1.2
			c0.2-0.7,0.3-1.2,0.7-1.6s0.9-0.5,1.4-0.5h0.3c0.3,0,0.9,0,1.2,0.5C80.7,11.1,80.9,11.6,80.7,12.3L80.7,12.3z"/>
		<path class="st0" d="M59.3,8.8h-0.3c-2.8,0-4.2,1.2-4.3,3.3l-0.2,1.4c-0.2,0.9,0,1.7,0.5,2.3c0.5,0.7,1.6,1,3.1,1h0.3
			c2.6,0,4-1,4.3-3.1v-0.2l0.2-1.2c0.2-1,0-1.7-0.5-2.3C61.7,9.4,60.6,8.8,59.3,8.8z M60.6,12.3l-0.2,1.2c0,0.5-0.2,1-0.5,1.4
			c-0.3,0.3-0.9,0.7-1.6,0.7h-0.3c-0.7,0-1.2-0.2-1.4-0.7c-0.2-0.3-0.2-0.7-0.2-1.4l0.2-1.2c0.2-0.7,0.3-1.2,0.7-1.6
			s0.9-0.5,1.4-0.5h0.3c0.3,0,0.9,0,1.2,0.5C60.6,11.1,60.6,11.6,60.6,12.3L60.6,12.3z"/>
		<path class="st0" d="M50.8,9.5l-2.9,3.3l-2.1-3.3C45.6,9.2,45.2,9,44.5,9h-0.9l-0.9,7.6H44c0.3,0,0.7-0.2,0.9-0.3s0.3-0.5,0.5-0.9
			l0-3.1l1.6,2.9c0,0.2,0.2,0.3,0.5,0.3l0,0c0.3,0,0.5-0.2,0.5-0.3l2.3-2.9l-0.5,4.5h1c0.3,0,0.7-0.2,0.9-0.3s0.3-0.5,0.5-0.9L53,9
			h-1C51.5,9,50.9,9.2,50.8,9.5z"/>
		<path class="st0" d="M28.6,9c-0.3,0-0.7,0-1,0c-1.9,0.3-2.9,1.4-3.1,3.1l-0.2,1.4c-0.2,0.9,0,1.6,0.5,2.1c0.5,0.5,1.4,1,2.8,1h2.3
			c1.4,0,1.6-1.4,1.6-1.4h-3.1c-0.3,0-0.9,0-1-0.2c-0.3-0.2-0.7-0.3-0.7-0.9c0-0.2,0-0.5,0-0.9l0-1c0-0.3,0.2-0.7,0.2-0.7
			c0.2-0.3,0.3-0.5,0.5-0.9c0.2-0.2,0.5-0.3,1.6-0.3h1.7c1.2,0,1.4-1.4,1.4-1.4H28.6L28.6,9z"/>
	</g>
</g>
</svg>
