<?xml version="1.0" encoding="utf-8"?>
<!-- Generator: Adobe Illustrator 21.1.0, SVG Export Plug-In . SVG Version: 6.00 Build 0)  -->
<svg version="1.1" id="Layer_1" xmlns="http://www.w3.org/2000/svg" xmlns:xlink="http://www.w3.org/1999/xlink" x="0px" y="0px"
	 viewBox="0 0 59 43" style="enable-background:new 0 0 59 43;" xml:space="preserve">
<style type="text/css">
	.st0{fill:#0C70BD;}
	.st1{fill:#DE1000;}
</style>
<g>
	<path class="st0" d="M54,29c-0.3-7.5-6.4-13.5-14-13.5H15.5V13h-3v2.5v0.1C5.6,16.3,0.3,22,0,29h0v14h3h22h3h23h3v-3L54,29L54,29z
		 M3,29c0.2-5.3,4.3-9.7,9.5-10.4v2.9h3v-2.9c5.2,0.7,9.2,5.1,9.5,10.4h0v4H3L3,29L3,29z M3,40v-4h22v4H3z M28,40V29h0
		c-0.2-4.3-2.2-8-5.3-10.5H40c5.9,0,10.7,4.7,11,10.5h0v11H28z"/>
	<path class="st1" d="M56.3,0H40h-0.3H37v2.8v5.5v15c-2.3,0.7-4,2.8-4,5.3c0,3,2.5,5.5,5.5,5.5s5.5-2.5,5.5-5.5c0-2.5-1.7-4.6-4-5.3
		V11h16.3c1.5,0,2.8-1.2,2.8-2.8V2.8C59,1.2,57.8,0,56.3,0z M41,28.5c0,1.4-1.1,2.5-2.5,2.5S36,29.9,36,28.5s1.1-2.5,2.5-2.5
		S41,27.1,41,28.5z M56,8H40V3h16V8z"/>
</g>
</svg>
