<?xml version="1.0" encoding="utf-8"?>
<!-- Generator: Adobe Illustrator 21.1.0, SVG Export Plug-In . SVG Version: 6.00 Build 0)  -->
<svg version="1.1" id="Layer_1" xmlns="http://www.w3.org/2000/svg" xmlns:xlink="http://www.w3.org/1999/xlink" x="0px" y="0px"
	 viewBox="0 0 51 40" style="enable-background:new 0 0 51 40;" xml:space="preserve">
<style type="text/css">
	.st0{fill:#787F86;}
	.st1{fill:#6E767C;}
</style>
<g>
	<path class="st0" d="M9.3,39.7v-2.6c0-1-0.6-1.7-1.7-1.7c-0.5,0-1.1,0.2-1.5,0.7c-0.3-0.5-0.7-0.7-1.4-0.7c-0.4,0-0.9,0.1-1.2,0.6
		v-0.5H2.6v4.2h0.9v-2.3c0-0.7,0.4-1.1,1-1.1s0.9,0.4,0.9,1.1v2.3h0.9v-2.3c0-0.7,0.4-1.1,1-1.1c0.6,0,0.9,0.4,0.9,1.1v2.3H9.3
		L9.3,39.7z M22.9,35.5h-1.5v-1.3h-0.9v1.3h-0.8v0.8h0.8v1.9c0,1,0.4,1.5,1.4,1.5c0.4,0,0.8-0.1,1.1-0.3l-0.3-0.8
		c-0.3,0.2-0.6,0.2-0.8,0.2c-0.4,0-0.6-0.3-0.6-0.7v-1.9h1.5V35.5L22.9,35.5z M30.7,35.4c-0.5,0-0.9,0.3-1.1,0.6v-0.5h-0.9v4.2h0.9
		v-2.4c0-0.7,0.3-1.1,0.9-1.1c0.2,0,0.4,0,0.6,0.1l0.3-0.9C31.1,35.4,30.9,35.4,30.7,35.4L30.7,35.4L30.7,35.4z M18.9,35.8
		c-0.4-0.3-1.1-0.4-1.7-0.4c-1.1,0-1.8,0.5-1.8,1.4c0,0.7,0.5,1.1,1.4,1.2l0.4,0c0.5,0.1,0.7,0.2,0.7,0.4c0,0.3-0.4,0.5-1,0.5
		c-0.6,0-1.1-0.2-1.4-0.4l-0.4,0.7c0.5,0.4,1.1,0.5,1.8,0.5c1.2,0,1.9-0.6,1.9-1.4c0-0.7-0.6-1.1-1.4-1.3l-0.4,0
		c-0.4,0-0.7-0.1-0.7-0.4c0-0.3,0.3-0.5,0.8-0.5c0.5,0,1.1,0.2,1.3,0.4L18.9,35.8L18.9,35.8z M43.3,35.4c-0.5,0-0.9,0.3-1.1,0.6
		v-0.5h-0.9v4.2h0.9v-2.4c0-0.7,0.3-1.1,0.9-1.1c0.2,0,0.4,0,0.6,0.1l0.3-0.9C43.8,35.4,43.5,35.4,43.3,35.4L43.3,35.4L43.3,35.4z
		 M31.6,37.6c0,1.3,0.9,2.2,2.2,2.2c0.6,0,1.1-0.1,1.5-0.5l-0.4-0.7c-0.4,0.3-0.7,0.4-1.1,0.4c-0.7,0-1.3-0.5-1.3-1.4
		c0-0.8,0.5-1.3,1.3-1.4c0.4,0,0.7,0.1,1.1,0.4l0.4-0.7c-0.4-0.4-0.9-0.5-1.5-0.5C32.5,35.4,31.6,36.3,31.6,37.6L31.6,37.6
		L31.6,37.6z M40.1,37.6v-2.1h-0.9V36c-0.3-0.4-0.7-0.6-1.3-0.6c-1.2,0-2.1,0.9-2.1,2.2c0,1.3,0.9,2.2,2.1,2.2
		c0.6,0,1.1-0.2,1.3-0.6v0.5h0.9V37.6z M36.7,37.6c0-0.7,0.5-1.4,1.3-1.4c0.7,0,1.3,0.6,1.3,1.4c0,0.7-0.5,1.4-1.3,1.4
		C37.2,38.9,36.7,38.3,36.7,37.6L36.7,37.6z M25.7,35.4c-1.2,0-2.1,0.9-2.1,2.2c0,1.3,0.9,2.2,2.1,2.2c0.6,0,1.2-0.2,1.7-0.6
		l-0.4-0.7c-0.4,0.3-0.8,0.4-1.2,0.4c-0.6,0-1.1-0.3-1.3-1h3.1v-0.4C27.7,36.3,26.9,35.4,25.7,35.4L25.7,35.4L25.7,35.4z M25.7,36.2
		c0.6,0,1,0.4,1.1,1h-2.2C24.7,36.6,25.1,36.2,25.7,36.2L25.7,36.2z M48.5,37.6v-3.8h-0.9V36c-0.3-0.4-0.7-0.6-1.3-0.6
		c-1.2,0-2.1,0.9-2.1,2.2c0,1.3,0.9,2.2,2.1,2.2c0.6,0,1.1-0.2,1.3-0.6v0.5h0.9V37.6z M45.2,37.6c0-0.7,0.5-1.4,1.3-1.4
		c0.7,0,1.3,0.6,1.3,1.4c0,0.7-0.5,1.4-1.3,1.4C45.7,38.9,45.2,38.3,45.2,37.6L45.2,37.6z M14.4,37.6v-2.1h-0.9V36
		c-0.3-0.4-0.7-0.6-1.3-0.6c-1.2,0-2.1,0.9-2.1,2.2c0,1.3,0.9,2.2,2.1,2.2c0.6,0,1.1-0.2,1.3-0.6v0.5h0.9V37.6z M11,37.6
		c0-0.7,0.5-1.4,1.3-1.4c0.7,0,1.3,0.6,1.3,1.4c0,0.7-0.5,1.4-1.3,1.4C11.5,38.9,11,38.3,11,37.6z"/>
	<rect x="18.6" y="3.6" class="st1" width="13.8" height="24.8"/>
	<path class="st0" d="M19.5,16c0-5,2.4-9.5,6-12.4c-2.7-2.1-6-3.4-9.7-3.4C7,0.2,0,7.3,0,16s7,15.8,15.8,15.8c3.7,0,7-1.3,9.7-3.4
		C21.8,25.5,19.5,21,19.5,16z"/>
	<path class="st1" d="M51,16c0,8.7-7,15.8-15.8,15.8c-3.7,0-7-1.3-9.7-3.4c3.7-2.9,6-7.4,6-12.4s-2.4-9.5-6-12.4
		c2.7-2.1,6-3.4,9.7-3.4C44,0.2,51,7.3,51,16z"/>
</g>
</svg>
