<?xml version="1.0" encoding="utf-8"?>
<!-- Generator: Adobe Illustrator 21.1.0, SVG Export Plug-In . SVG Version: 6.00 Build 0)  -->
<svg version="1.1" id="Layer_1" xmlns="http://www.w3.org/2000/svg" xmlns:xlink="http://www.w3.org/1999/xlink" x="0px" y="0px"
	 viewBox="0 0 80 80" style="enable-background:new 0 0 80 80;" xml:space="preserve">
<style type="text/css">
	.st0{fill:#EBEDF0;}
	.st1{fill:#CCCCCC;}
	.st2{fill:#919191;}
</style>
<g>
	<path class="st0" d="M40,80C17.9,80,0,62.1,0,40S17.9,0,40,0s40,17.9,40,40S62.1,80,40,80z"/>
	<path class="st1" d="M40,3c20.4,0,37,16.6,37,37S60.4,77,40,77S3,60.4,3,40S19.6,3,40,3 M40,0C17.9,0,0,17.9,0,40s17.9,40,40,40
		s40-17.9,40-40S62.1,0,40,0L40,0z"/>
</g>
<g>
	<polygon class="st2" points="56.6,54.5 42.1,40 56.6,25.5 54.5,23.4 40,37.9 25.5,23.4 23.4,25.5 37.9,40 23.4,54.5 25.5,56.6 
		40,42.1 54.5,56.6 	"/>
</g>
</svg>
