<?xml version="1.0" encoding="utf-8"?>
<!-- Generator: Adobe Illustrator 21.1.0, SVG Export Plug-In . SVG Version: 6.00 Build 0)  -->
<svg version="1.1" id="Layer_1" xmlns="http://www.w3.org/2000/svg" xmlns:xlink="http://www.w3.org/1999/xlink" x="0px" y="0px"
	 viewBox="0 0 18 18" style="enable-background:new 0 0 18 18;" xml:space="preserve">
<style type="text/css">
	.st0{fill:#FFFFFF;}
</style>
<g>
	<path class="st0" d="M15.5,3.4L9.4,0.1C9.1,0,8.8,0,8.5,0.1l-6,3.3C2.2,3.6,2,3.9,2,4.2v4.7c0,3.8,2.2,7.2,5.7,8.7l0.8,0.4
		C8.6,18,8.8,18,8.9,18c0.1,0,0.2,0,0.4-0.1l0.9-0.4C13.7,16,16,12.6,16,8.8V4.2C16,3.9,15.8,3.6,15.5,3.4z M8.9,2l5.2,2.8v4
		c0,0,0,0,0,0L9.8,6.5C9.3,6.2,8.6,6.2,8,6.5L3.9,8.8v-4L8.9,2z M9.5,15.8L8.9,16l-0.4-0.2c-2.2-0.9-3.7-2.8-4.3-5l4.8-2.6l4.9,2.6
		C13.2,13,11.7,14.9,9.5,15.8z"/>
</g>
</svg>
