<?xml version="1.0" encoding="utf-8"?>
<!-- Generator: Adobe Illustrator 21.1.0, SVG Export Plug-In . SVG Version: 6.00 Build 0)  -->
<svg version="1.1" id="Layer_1" xmlns="http://www.w3.org/2000/svg" xmlns:xlink="http://www.w3.org/1999/xlink" x="0px" y="0px"
	 viewBox="0 0 80 80" style="enable-background:new 0 0 80 80;" xml:space="preserve">
<style type="text/css">
	.st0{fill:#EBEDF0;}
	.st1{fill:#CCCCCC;}
	.st2{fill:#919191;}
</style>
<g>
	<g>
		<path class="st0" d="M40,80C17.9,80,0,62.1,0,40C0,17.9,17.9,0,40,0c22.1,0,40,17.9,40,40C80,62.1,62.1,80,40,80z"/>
		<path class="st1" d="M40,3c20.4,0,37,16.6,37,37S60.4,77,40,77S3,60.4,3,40S19.6,3,40,3 M40,0C17.9,0,0,17.9,0,40s17.9,40,40,40
			s40-17.9,40-40S62.1,0,40,0L40,0z"/>
	</g>
	<g transform="translate(0,-952.36218)">
		<g>
			<path class="st2" d="M27.6,981c-1.6,0-2.9,1.3-2.9,2.9v16.8c0,1.6,1.3,2.9,2.9,2.9h24.8c1.6,0,2.9-1.3,2.9-2.9V984
				c0-1.6-1.3-2.9-2.9-2.9H27.6z M27.6,982.5h24.8c0.8,0,1.5,0.6,1.5,1.5v16.8c0,0.8-0.6,1.5-1.5,1.5H27.6c-0.8,0-1.5-0.6-1.5-1.5
				V984C26.1,983.1,26.8,982.5,27.6,982.5z M29,985.4c-0.4,0-0.7,0.4-0.6,0.8c0,0.2,0.1,0.3,0.2,0.5l5.8,5.5l-5.8,5.9
				c-0.3,0.3-0.3,0.7,0,1c0.3,0.3,0.7,0.3,1,0c0,0,0,0,0,0l5.8-5.9l2.5,2.4c1.1,1.1,2.9,1.1,4,0l2.5-2.4l5.8,5.9
				c0.3,0.3,0.7,0.3,1,0c0.3-0.3,0.3-0.7,0-1c0,0,0,0,0,0l-5.8-5.9l5.8-5.5c0.3-0.3,0.3-0.7,0-1c-0.3-0.3-0.7-0.3-1,0l0,0l-9.4,8.9
				c-0.6,0.6-1.4,0.6-2,0l-9.4-8.9C29.5,985.5,29.2,985.4,29,985.4L29,985.4z"/>
			<path class="st2" d="M52.4,1004.3H27.6c-2,0-3.6-1.6-3.6-3.6V984c0-2,1.6-3.6,3.6-3.6h24.8c2,0,3.6,1.6,3.6,3.6v16.8
				C56,1002.7,54.4,1004.3,52.4,1004.3z M27.6,981.7c-1.3,0-2.3,1-2.3,2.3v16.8c0,1.3,1,2.3,2.3,2.3h24.8c1.3,0,2.3-1,2.3-2.3V984
				c0-1.3-1-2.3-2.3-2.3H27.6z M52.4,1002.9H27.6c-1.2,0-2.1-0.9-2.1-2.1V984c0-1.2,0.9-2.1,2.1-2.1h24.8c1.2,0,2.1,0.9,2.1,2.1
				v16.8C54.5,1002,53.6,1002.9,52.4,1002.9z M27.6,983.1c-0.5,0-0.8,0.3-0.8,0.8v16.8c0,0.5,0.3,0.8,0.8,0.8h24.8
				c0.5,0,0.8-0.3,0.8-0.8V984c0-0.5-0.3-0.8-0.8-0.8H27.6z M29.1,1000C29.1,1000,29.1,1000,29.1,1000c-0.4,0-0.7-0.2-1-0.4
				c-0.5-0.5-0.5-1.4,0-2l5.3-5.4l-5.3-5c-0.2-0.2-0.4-0.5-0.4-0.9c-0.1-0.8,0.5-1.4,1.2-1.5h0c0.4,0,0.8,0.1,1.1,0.4l9.4,8.9
				c0.3,0.3,0.7,0.3,1.1,0l9.4-8.9c0.6-0.5,1.4-0.5,2,0.1c0.3,0.3,0.4,0.6,0.4,1c0,0.4-0.2,0.7-0.4,1l-5.3,5l5.3,5.4
				c0.6,0.6,0.5,1.5,0,2c-0.6,0.5-1.4,0.5-2-0.1l-5.4-5.5l-2.1,2c-1.4,1.3-3.5,1.3-4.9,0l-2.1-2l-5.4,5.5
				C29.8,999.8,29.5,1000,29.1,1000z M29,985.4l0.1,0.6c0,0-0.1,0-0.1,0.1l6.3,6l-6.3,6.4c0,0,0,0.1,0,0.1c0,0,0.1,0,0.1,0l6.3-6.4
				l3,2.8c0.9,0.8,2.2,0.8,3.1,0l3-2.8l6.3,6.4c0,0,0.1,0,0.1,0c0,0,0-0.1,0-0.1l-6.3-6.4l6.3-5.9c0,0,0-0.1,0-0.1c0,0-0.1,0-0.1,0
				l-9.4,8.9c-0.8,0.8-2,0.8-2.9,0l-9.4-8.9L29,985.4z"/>
		</g>
	</g>
</g>
</svg>
