<?xml version="1.0" encoding="utf-8"?>
<!-- Generator: Adobe Illustrator 21.1.0, SVG Export Plug-In . SVG Version: 6.00 Build 0)  -->
<svg version="1.1" id="Layer_1" xmlns="http://www.w3.org/2000/svg" xmlns:xlink="http://www.w3.org/1999/xlink" x="0px" y="0px"
	 viewBox="0 0 26 26" style="enable-background:new 0 0 26 26;" xml:space="preserve">
<style type="text/css">
	.st0{fill:#ADADAD;}
</style>
<g>
	<path class="st0" d="M13,1.4c6.4,0,11.6,5.2,11.6,11.6S19.4,24.6,13,24.6S1.4,19.4,1.4,13S6.6,1.4,13,1.4 M13,0C5.8,0,0,5.8,0,13
		s5.8,13,13,13s13-5.8,13-13S20.2,0,13,0L13,0z"/>
	<g>
		<polygon class="st0" points="18.1,12.3 13.7,12.3 13.7,7.9 12.3,7.9 12.3,12.3 7.9,12.3 7.9,13.7 12.3,13.7 12.3,18.1 13.7,18.1 
			13.7,13.7 18.1,13.7 		"/>
	</g>
</g>
</svg>
