<?xml version="1.0" encoding="utf-8"?>
<!-- Generator: Adobe Illustrator 21.1.0, SVG Export Plug-In . SVG Version: 6.00 Build 0)  -->
<svg version="1.1" id="Layer_1" xmlns="http://www.w3.org/2000/svg" xmlns:xlink="http://www.w3.org/1999/xlink" x="0px" y="0px"
	 viewBox="0 0 18 18" style="enable-background:new 0 0 18 18;" xml:space="preserve">
<style type="text/css">
	.st0{fill:#CCDBED;}
	.st1{fill-rule:evenodd;clip-rule:evenodd;fill:#CCDBED;}
</style>
<path class="st0" d="M9,2c3.9,0,7,3.1,7,7s-3.1,7-7,7s-7-3.1-7-7S5.1,2,9,2 M9,0C4,0,0,4,0,9s4,9,9,9s9-4,9-9S14,0,9,0L9,0z"/>
<path class="st1" d="M12.9,7.9l-3.8,3.8c-0.4,0.4-1.1,0.4-1.5,0c-0.2-0.2-2.1-2.2-2.1-2.2c-0.3-0.3-0.3-0.9,0-1.2
	c0.3-0.3,0.9-0.3,1.2,0L8,9.6l3.3-3.3c0.4-0.4,1.1-0.4,1.5,0C13.3,6.8,13.3,7.4,12.9,7.9z"/>
</svg>
