<?xml version="1.0" encoding="utf-8"?>
<!-- Generator: Adobe Illustrator 21.0.0, SVG Export Plug-In . SVG Version: 6.00 Build 0)  -->
<svg version="1.1" id="Layer_1" xmlns="http://www.w3.org/2000/svg" xmlns:xlink="http://www.w3.org/1999/xlink" x="0px" y="0px"
	 viewBox="0 0 30 30" style="enable-background:new 0 0 30 30;" xml:space="preserve">
<style type="text/css">
	.st0{fill:#CCCCCC;}
</style>
<g>
	<path class="st0" d="M15,0C6.7,0,0,6.7,0,15s6.7,15,15,15s15-6.7,15-15S23.3,0,15,0z M11.4,8.9c0-2,1.6-3.6,3.6-3.6
		s3.6,1.6,3.6,3.6v2.6c0,2-1.6,3.6-3.6,3.6s-3.6-1.6-3.6-3.6V8.9z M23.6,23.1c0,0-3.6,3.9-8.6,3.9s-8.7-3.9-8.7-3.9v-4
		c0,0,3.6-2.1,8.8-2.1s8.5,2.1,8.5,2.1V23.1z"/>
</g>
</svg>
