<?xml version="1.0" encoding="utf-8"?>
<!-- Generator: Adobe Illustrator 21.1.0, SVG Export Plug-In . SVG Version: 6.00 Build 0)  -->
<svg version="1.1" id="Layer_1" xmlns="http://www.w3.org/2000/svg" xmlns:xlink="http://www.w3.org/1999/xlink" x="0px" y="0px"
	 viewBox="0 0 60 18" style="enable-background:new 0 0 60 18;" xml:space="preserve">
<style type="text/css">
	.st0{fill:#787F86;}
</style>
<path class="st0" d="M22.8,0.3l-7.9,17.4H9.8L5.9,3.8C5.7,3,5.5,2.7,4.8,2.3C3.6,1.7,1.7,1.2,0,0.8l0.1-0.5h8.3c1.1,0,2,0.6,2.2,1.8
	l2,10.1l5-11.8H22.8z M42.9,12c0-4.6-6.8-4.8-6.8-6.9c0-0.6,0.7-1.3,2.1-1.5c0.7-0.1,2.6-0.1,4.8,0.8l0.9-3.7
	C42.6,0.4,41.1,0,39.2,0c-4.8,0-8.2,2.4-8.2,5.8c0,2.5,2.4,3.9,4.2,4.7c1.9,0.9,2.5,1.4,2.5,2.2c0,1.2-1.5,1.7-2.9,1.7
	c-2.4,0-3.9-0.6-5-1.1L29,17.1c1.1,0.5,3.2,0.9,5.4,0.9C39.5,18,42.8,15.7,42.9,12 M55.5,17.7H60L56.1,0.3h-4.1
	c-0.9,0-1.7,0.5-2.1,1.3l-7.3,16.1h5.1l1-2.6h6.2L55.5,17.7z M50.1,11.6L52.7,5l1.5,6.5H50.1z M29.7,0.3l-4,17.4h-4.8l4-17.4H29.7z"
	/>
</svg>
