<?xml version="1.0" encoding="utf-8"?>
<!-- Generator: Adobe Illustrator 21.1.0, SVG Export Plug-In . SVG Version: 6.00 Build 0)  -->
<svg version="1.1" id="Layer_1" xmlns="http://www.w3.org/2000/svg" xmlns:xlink="http://www.w3.org/1999/xlink" x="0px" y="0px"
	 viewBox="0 0 259.9 102" style="enable-background:new 0 0 259.9 102;" xml:space="preserve">
<style type="text/css">
	.st0{fill:#DADAEF;}
</style>
<g>
	<path class="st0" d="M130.2,1c-25,0-45.4,20.4-45.4,45.4v9.3c0,24.9,20.4,45.3,45.4,45.3s45.4-20.4,45.4-45.4v-9.3
		C175.6,21.4,155.2,1,130.2,1z M92.9,73.9c-0.8-1.7-1.6-3.4-2.2-5.3c0.7,1.2,1.4,2.3,2.2,3.4V73.9z M97.8,81.7
		c-0.7-0.8-1.3-1.7-1.9-2.5v-3.1c0.6,0.7,1.2,1.4,1.9,2V81.7z M104.7,88.4c-1.3-1-2.6-2.2-3.8-3.3V81c1.2,1,2.5,2,3.8,2.9V88.4z
		 M111.8,92.9c-1.4-0.7-2.7-1.5-4-2.3v-4.9c1.3,0.7,2.6,1.4,4,2V92.9z M119.8,95.9c-1.7-0.4-3.4-1-5-1.6v-5.2c1.6,0.6,3.3,1.1,5,1.5
		V95.9z M128.8,97.2c-2-0.1-4-0.3-5.9-0.6v-5.4c1.9,0.3,3.9,0.5,5.9,0.6V97.2z M137.8,96.5c-1.9,0.4-3.9,0.6-5.9,0.7v-5.5
		c2-0.1,4-0.3,5.9-0.6V96.5z M145.9,94.1c-1.6,0.7-3.3,1.2-5,1.7v-5.4c1.7-0.4,3.4-0.9,5-1.5V94.1z M153,90.4
		c-1.3,0.9-2.6,1.6-4,2.3v-5.1c1.4-0.6,2.7-1.3,4-2.1V90.4z M159.8,84.8c-1.2,1.2-2.5,2.4-3.8,3.4v-4.6c1.3-0.9,2.6-1.9,3.8-2.9
		V84.8z M164.7,78.8c-0.6,0.9-1.2,1.7-1.8,2.5v-3.5c0.6-0.6,1.2-1.3,1.8-2V78.8z M167.8,73.4v-1.7c0.7-1,1.3-2,1.9-3
		C169.2,70.3,168.5,71.9,167.8,73.4z M130.2,87.9c-22.9,0-41.6-18.7-41.6-41.6s18.7-41.5,41.6-41.5s41.6,18.7,41.6,41.6
		S153.1,87.9,130.2,87.9z"/>
	<path class="st0" d="M130.2,101.8c-25.4,0-46.1-20.7-46.1-46v-9.3c0-25.4,20.7-46.1,46.1-46.1s46.2,20.7,46.2,46v9.3
		C176.4,81,155.7,101.8,130.2,101.8z M130.2,1.8c-24.6,0-44.6,20-44.6,44.6v9.3c0,24.6,20,44.5,44.6,44.5s44.7-20,44.7-44.6v-9.3
		C174.9,21.7,154.8,1.8,130.2,1.8z M131.2,98v-7h0.7c2-0.1,4-0.3,5.8-0.6l0.9-0.1v6.9l-0.6,0.1c-1.7,0.4-3.7,0.6-6,0.7H131.2z
		 M132.7,92.4v4c1.6-0.1,3.1-0.3,4.4-0.5V92C135.6,92.2,134.2,92.3,132.7,92.4z M129.6,98h-0.8c-2.1-0.1-4.1-0.3-6-0.6l-0.6-0.1
		v-6.9l0.9,0.1c1.9,0.3,3.8,0.5,5.8,0.6h0.7V98z M123.7,96c1.4,0.2,2.9,0.4,4.4,0.5v-3.9c-1.5-0.1-3-0.2-4.4-0.4
		C123.7,92.2,123.7,96,123.7,96z M120.6,96.8l-0.9-0.2c-1.8-0.4-3.6-1.1-5.1-1.6l-0.5-0.2V88l1,0.4c1.5,0.6,3.2,1.1,4.9,1.5l0.6,0.1
		V96.8z M115.6,93.8c1.1,0.4,2.3,0.8,3.5,1.2v-3.7c-1.2-0.3-2.4-0.6-3.5-1V93.8z M140.2,96.8v-7l0.6-0.1c1.7-0.4,3.4-0.9,4.9-1.5
		l1-0.4v6.8l-0.4,0.2c-1.6,0.7-3.4,1.2-5.1,1.7L140.2,96.8z M141.7,91v3.8c1.2-0.4,2.4-0.7,3.5-1.2V90C144,90.3,142.9,90.7,141.7,91
		z M112.6,94.1l-1.1-0.5c-1.4-0.7-2.8-1.5-4.1-2.3l-0.4-0.2v-6.6l1.1,0.6c1.3,0.7,2.6,1.4,3.9,2l0.5,0.2L112.6,94.1L112.6,94.1z
		 M108.6,90.2c0.8,0.5,1.6,1,2.5,1.5v-3.5c-0.9-0.4-1.7-0.8-2.5-1.2V90.2z M148.3,93.9v-6.8l0.5-0.2c1.3-0.5,2.5-1.2,3.9-2l1.1-0.7
		v6.6l-0.3,0.2c-1.4,1-2.8,1.7-4.1,2.4L148.3,93.9z M149.8,88.1v3.4c0.8-0.4,1.7-0.9,2.5-1.5v-3.2C151.4,87.3,150.6,87.7,149.8,88.1
		z M105.5,89.9l-1.2-0.9c-1.3-1-2.6-2.2-3.7-3.2l-0.4-0.3v-6l1.2,1c1.2,1,2.5,2,3.7,2.9l0.3,0.2L105.5,89.9L105.5,89.9z M101.7,84.8
		c0.8,0.7,1.5,1.4,2.3,2.1v-2.5c-0.8-0.5-1.5-1.1-2.3-1.7V84.8z M155.3,89.7v-6.5l0.3-0.2c1.2-0.8,2.5-1.8,3.7-2.9l1.2-1v6l-0.2,0.2
		c-1.4,1.4-2.7,2.6-3.9,3.5L155.3,89.7z M156.8,84v2.6c0.7-0.6,1.5-1.3,2.3-2.1v-2.2C158.3,82.9,157.5,83.5,156.8,84z M130.2,88.7
		c-23.4,0-42.4-19-42.4-42.4C87.9,23,106.9,4,130.2,4c23.4,0,42.3,19,42.3,42.4C172.6,69.7,153.6,88.7,130.2,88.7z M130.2,5.5
		c-22.5,0-40.9,18.3-40.9,40.8s18.3,40.9,40.9,40.9c22.5,0,40.8-18.3,40.8-40.8C171.1,23.9,152.7,5.5,130.2,5.5z M98.6,83.7
		l-1.3-1.5c-0.5-0.6-1-1.2-1.4-1.8c-0.2-0.2-0.4-0.5-0.5-0.7l-0.1-0.2v-5.4l1.3,1.5c0.6,0.7,1.2,1.4,1.8,1.9l0.3,0.2v6H98.6z
		 M96.7,79c0.1,0.2,0.3,0.4,0.4,0.5l0,0v-1.1c-0.1-0.1-0.3-0.3-0.4-0.4V79z M162.2,83.5v-6l0.2-0.2c0.6-0.6,1.2-1.3,1.8-2l1.3-1.5
		V79l-0.1,0.2c-0.6,0.9-1.2,1.7-1.8,2.5L162.2,83.5z M163.7,78.1V79c0.1-0.1,0.2-0.3,0.3-0.4v-0.8C163.9,77.9,163.8,78,163.7,78.1z
		 M93.7,77.3l-1.4-3c-0.8-1.7-1.6-3.4-2.2-5.4l-2-6.4l3.4,5.8c0.7,1.3,1.4,2.3,2.2,3.3l0.1,0.2L93.7,77.3L93.7,77.3z M167.1,76.8
		v-5.3l0.1-0.2c0.7-1,1.3-2,1.9-3l3.2-5.4l-1.9,6c-0.5,1.7-1.3,3.4-1.9,4.8L167.1,76.8z"/>
</g>
<path class="st0" d="M130.8,11.6C111.6,11.6,96,27.2,96,46.4c0,0.3,0,0.5,0,0.8s0,0.5,0,0.8s0.1,0.9,0.1,1.3c0,0.2,0,0.4,0.1,0.6
	l0,0l0,0c1.8,17.5,16.6,31.3,34.6,31.3s32.9-13.8,34.6-31.4l0,0c0,0,0,0,0-0.1c0-0.4,0.1-0.7,0.1-1.1l0,0c0-0.7,0.1-1.5,0.1-2.2
	C165.6,27.2,150,11.6,130.8,11.6z M162.2,48.3c0,0.2,0,0.4,0,0.6c0,0.3-0.1,0.6-0.1,0.8c-1.7,15.8-15.1,28.2-31.3,28.2
	c-16,0-29.3-12-31.3-27.5l0,0c0-0.2,0-0.4-0.1-0.7c-0.1-0.8-0.1-1.6-0.2-2.4c0.5-16.9,14.4-30.5,31.5-30.5
	C148.1,16.7,162.2,30.8,162.2,48.3C162.2,48.2,162.2,48.3,162.2,48.3z"/>
<g>
	<path class="st0" d="M54.9,76.6H2.5L0,71.2L55.3,2.7h6.5v67.6h15.8v6.2H61.8v23.7h-6.9C54.9,100.2,54.9,76.6,54.9,76.6z M54.9,70.4
		V13.1L8.7,70.4H54.9z"/>
</g>
<g>
	<path class="st0" d="M237.2,76.6h-52.4l-2.5-5.4l55.3-68.5h6.5v67.6h15.8v6.2h-15.8v23.7h-6.9V76.6z M237.2,70.4V13.1L191,70.4
		H237.2z"/>
</g>
</svg>
