<?xml version="1.0" encoding="utf-8"?>
<!-- Generator: Adobe Illustrator 21.1.0, SVG Export Plug-In . SVG Version: 6.00 Build 0)  -->
<svg version="1.1" id="Layer_1" xmlns="http://www.w3.org/2000/svg" xmlns:xlink="http://www.w3.org/1999/xlink" x="0px" y="0px"
	 viewBox="0 0 47.9 15" style="enable-background:new 0 0 47.9 15;" xml:space="preserve">
<style type="text/css">
	.st0{fill:#F9F9FF;}
	.st1{fill:#FFFFFF;}
</style>
<g id="Comodo">
	<path class="st0" d="M3.8,7.1V3.8c0-1.1,0.9-1.9,1.9-1.9s1.9,0.9,1.9,1.9v3.3h1.9V3.8C9.6,1.7,7.9,0,5.8,0C3.7,0,2,1.7,2,3.8v3.3
		L3.8,7.1L3.8,7.1z"/>
	<path class="st0" d="M5.2,3.7c0.3-0.3,0.8-0.3,1.1,0C6.6,4,7.2,4.1,7.5,4c0.4-0.1,0.8,0.1,1,0.4c0.2,0.4,0.6,0.7,1,0.7
		c0.4,0.1,0.7,0.4,0.7,0.8c0,0.4,0.3,0.9,0.6,1.1c0.3,0.2,0.5,0.7,0.3,1c-0.2,0.4-0.1,0.9,0.1,1.3c0.2,0.3,0.2,0.8-0.1,1.1
		c-0.3,0.3-0.5,0.8-0.4,1.2c0.1,0.4-0.2,0.8-0.5,0.9c-0.4,0.1-0.8,0.5-0.8,0.9c-0.1,0.4-0.5,0.7-0.9,0.6s-0.9,0.2-1.2,0.5
		c-0.2,0.3-0.7,0.4-1.1,0.2c-0.3-0.2-0.9-0.2-1.3,0c-0.3,0.2-0.8,0.1-1.1-0.2s-0.8-0.5-1.2-0.5S2.1,13.9,2,13.5
		c-0.1-0.4-0.5-0.8-0.8-0.9c-0.4-0.1-0.6-0.6-0.5-0.9c0.1-0.4-0.1-0.9-0.4-1.2C0,10.2-0.1,9.7,0.1,9.4C0.4,9,0.4,8.5,0.3,8.1
		c-0.2-0.4,0-0.8,0.3-1C0.9,6.9,1.2,6.4,1.2,6c0-0.4,0.3-0.8,0.7-0.8c0.4-0.1,0.9-0.4,1-0.7C3.2,4.1,3.6,3.9,4,4
		C4.4,4.1,4.9,4,5.2,3.7z"/>
	<path class="st1" d="M5.8,5.5C3.7,5.5,2,7.2,2,9.3S3.7,13,5.8,13s3.8-1.7,3.8-3.8S7.8,5.5,5.8,5.5z"/>
	<path class="st0" d="M6,6.8c-0.2,0-0.5,0-0.7,0.1c-1.2,0.2-1.9,0.8-2,2L3.2,9.7c-0.1,0.6,0,1,0.3,1.3c0.3,0.4,0.9,0.7,1.7,0.7h1.5
		c0.9,0,1-0.9,1-0.9h-2c-0.3,0-0.5,0-0.7-0.1c-0.2-0.1-0.4-0.2-0.4-0.5c0-0.1,0-0.4,0-0.5l0.1-0.7c0-0.2,0.1-0.4,0.1-0.5
		C4.9,8.2,5,8.1,5.2,7.9c0.1-0.1,0.4-0.2,1-0.2h1.1c0.8,0,0.9-0.9,0.9-0.9S6,6.8,6,6.8z"/>
	<g>
		<path class="st0" d="M16.4,12.4c0,0.2,0,0.3-0.1,0.4s-0.2,0.2-0.3,0.3s-0.3,0.1-0.5,0.1c-0.2,0-0.3,0-0.4,0
			c-0.1,0-0.2-0.1-0.4-0.1v-0.6c0.1,0.1,0.3,0.1,0.4,0.2c0.1,0,0.3,0.1,0.4,0.1c0.1,0,0.2,0,0.2-0.1c0,0,0.1-0.1,0.1-0.1
			c0,0,0-0.1,0-0.1c0,0-0.1-0.1-0.1-0.1c0,0-0.2-0.1-0.3-0.2c-0.2-0.1-0.3-0.2-0.4-0.2s-0.1-0.2-0.2-0.2c0-0.1-0.1-0.2-0.1-0.3
			c0-0.2,0.1-0.4,0.3-0.5c0.2-0.1,0.4-0.2,0.7-0.2c0.3,0,0.5,0.1,0.8,0.2l-0.2,0.5c-0.2-0.1-0.4-0.2-0.6-0.2c-0.1,0-0.2,0-0.2,0
			c0,0-0.1,0.1-0.1,0.1s0,0.1,0.1,0.1s0.2,0.1,0.4,0.2c0.2,0.1,0.4,0.2,0.5,0.3C16.4,12.1,16.4,12.2,16.4,12.4L16.4,12.4z"/>
		<path class="st0" d="M18.5,12.4c0,0.2,0,0.3-0.1,0.4s-0.2,0.2-0.3,0.3s-0.3,0.1-0.5,0.1c-0.2,0-0.3,0-0.4,0
			c-0.1,0-0.2-0.1-0.4-0.1v-0.6c0.1,0.1,0.3,0.1,0.4,0.2c0.1,0,0.3,0.1,0.4,0.1c0.1,0,0.2,0,0.2-0.1s0.1-0.1,0.1-0.1
			c0,0,0-0.1,0-0.1c0,0-0.1-0.1-0.1-0.1c0,0-0.2-0.1-0.3-0.2c-0.2-0.1-0.3-0.2-0.4-0.2s-0.1-0.2-0.2-0.2c0-0.1-0.1-0.2-0.1-0.3
			c0-0.2,0.1-0.4,0.3-0.5c0.2-0.1,0.4-0.2,0.7-0.2c0.3,0,0.5,0.1,0.8,0.2l-0.2,0.5c-0.2-0.1-0.4-0.2-0.6-0.2c-0.1,0-0.2,0-0.2,0
			c0,0-0.1,0.1-0.1,0.1s0,0.1,0.1,0.1s0.2,0.1,0.4,0.2c0.2,0.1,0.4,0.2,0.5,0.3C18.4,12.1,18.5,12.2,18.5,12.4L18.5,12.4z"/>
		<path class="st0" d="M18.9,13.2v-2.6h0.7v2h1v0.6H18.9z"/>
		<path class="st0" d="M22.1,10.8c-0.3,0-0.6,0.1-0.8,0.3c-0.2,0.2-0.3,0.5-0.3,0.8c0,0.4,0.1,0.6,0.3,0.9c0.2,0.2,0.4,0.3,0.7,0.3
			c0.2,0,0.4,0,0.6-0.1v0.2c-0.2,0.1-0.4,0.1-0.6,0.1c-0.4,0-0.6-0.1-0.8-0.3c-0.2-0.2-0.3-0.6-0.3-1c0-0.3,0.1-0.5,0.2-0.7
			c0.1-0.2,0.2-0.4,0.4-0.5s0.4-0.2,0.6-0.2c0.2,0,0.5,0,0.7,0.1l-0.1,0.2C22.5,10.8,22.3,10.8,22.1,10.8L22.1,10.8z"/>
		<path class="st0" d="M24.6,13.2h-1.4v-2.6h1.4v0.2h-1.2v1h1.1v0.2h-1.1V13h1.2V13.2z"/>
		<path class="st0" d="M25.4,12.1v1.1h-0.2v-2.6h0.6c0.3,0,0.5,0.1,0.7,0.2c0.2,0.1,0.2,0.3,0.2,0.5c0,0.2,0,0.3-0.1,0.4
			c-0.1,0.1-0.2,0.2-0.4,0.3l0.7,1.2h-0.2L26,12.1L25.4,12.1L25.4,12.1z M25.4,11.9h0.5c0.2,0,0.4,0,0.5-0.1
			c0.1-0.1,0.2-0.2,0.2-0.4c0-0.2-0.1-0.3-0.2-0.4c-0.1-0.1-0.3-0.1-0.6-0.1h-0.4V11.9L25.4,11.9z"/>
		<path class="st0" d="M28,13.2h-0.2v-2.4H27v-0.2h1.8v0.2H28V13.2z"/>
		<path class="st0" d="M29.2,13.2v-2.6h0.2v2.6H29.2z"/>
		<path class="st0" d="M30.3,13.2h-0.2v-2.6h1.4v0.2h-1.2v1.1h1.2v0.2h-1.2L30.3,13.2L30.3,13.2z"/>
		<path class="st0" d="M31.9,13.2v-2.6h0.2v2.6H31.9z"/>
		<path class="st0" d="M33.9,10.8c-0.3,0-0.6,0.1-0.8,0.3c-0.2,0.2-0.3,0.5-0.3,0.8c0,0.4,0.1,0.6,0.3,0.9s0.4,0.3,0.7,0.3
			c0.2,0,0.4,0,0.6-0.1v0.2c-0.2,0.1-0.4,0.1-0.6,0.1c-0.4,0-0.6-0.1-0.8-0.3c-0.2-0.2-0.3-0.6-0.3-1c0-0.3,0.1-0.5,0.2-0.7
			c0.1-0.2,0.2-0.4,0.4-0.5s0.4-0.2,0.6-0.2c0.2,0,0.5,0,0.7,0.1l-0.1,0.2C34.3,10.8,34.1,10.8,33.9,10.8L33.9,10.8z"/>
		<path class="st0" d="M36.3,12.3h-1l-0.4,0.9h-0.2l1-2.6h0.1l1,2.6h-0.2L36.3,12.3L36.3,12.3z M35.3,12.1h0.9l-0.3-0.9
			c0-0.1-0.1-0.2-0.1-0.3c0,0.1-0.1,0.2-0.1,0.3L35.3,12.1z"/>
		<path class="st0" d="M37.8,13.2h-0.2v-2.4h-0.8v-0.2h1.8v0.2h-0.8V13.2z"/>
		<path class="st0" d="M40.4,13.2H39v-2.6h1.4v0.2h-1.2v1h1.2v0.2h-1.2V13h1.2V13.2z"/>
	</g>
	<g>
		<path class="st0" d="M39.6,5.1h-2v0.1c0,0.3,0.1,0.7,0.6,0.7h0.6h0.7c0.8,0,1.2,0.3,1.1,1.1l-0.1,0.7c-0.1,0.9-0.8,1-1.3,1h-0.7
			L38.7,7c0-0.2-0.1-0.6-0.6-0.6h-0.6l-0.2,1.4L37.1,9c0,0.3,0.2,0.5,0.7,0.5h1.5c1.5,0,2-0.6,2.2-0.9c0.1-0.2,0.2-0.4,0.2-0.7
			c0-0.1,0.1-0.9,0.1-0.9c0.1-0.5,0-0.9-0.3-1.2C41.2,5.3,40.6,5.1,39.6,5.1L39.6,5.1z"/>
		<path class="st0" d="M21.7,5h-0.2c-1.6,0-2.4,0.7-2.5,1.9l-0.1,0.8c-0.1,0.5,0,1,0.3,1.3c0.3,0.4,0.9,0.6,1.8,0.6h0.2
			c1.5,0,2.3-0.6,2.5-1.8l0-0.1L23.7,7c0.1-0.6,0-1-0.3-1.3C23.1,5.3,22.5,5,21.7,5z M22.5,7l-0.1,0.7c0,0.3-0.1,0.6-0.3,0.8
			c-0.2,0.2-0.5,0.4-0.9,0.4H21c-0.4,0-0.7-0.1-0.8-0.4C20.1,8.3,20,8,20.1,7.7L20.2,7c0.1-0.4,0.2-0.7,0.4-0.9
			c0.2-0.2,0.5-0.3,0.8-0.3h0.2c0.2,0,0.5,0,0.7,0.3C22.5,6.3,22.5,6.6,22.5,7L22.5,7z"/>
		<path class="st0" d="M47.6,5.6C47.2,5.3,46.7,5,45.8,5h-0.2C44,5,43.2,5.7,43,6.9l-0.1,0.8c-0.1,0.5,0,1,0.3,1.3
			c0.3,0.4,0.9,0.6,1.8,0.6h0.2c1.5,0,2.3-0.6,2.5-1.8l0-0.1L47.9,7C47.9,6.4,47.8,6,47.6,5.6L47.6,5.6z M46.6,7l-0.1,0.7
			c0,0.3-0.1,0.6-0.3,0.8c-0.2,0.2-0.5,0.4-0.9,0.4h-0.2c-0.4,0-0.7-0.1-0.8-0.4c-0.1-0.2-0.1-0.4-0.1-0.8L44.3,7
			c0.1-0.4,0.2-0.7,0.4-0.9c0.2-0.2,0.5-0.3,0.8-0.3h0.2c0.2,0,0.5,0,0.7,0.3C46.6,6.3,46.7,6.6,46.6,7L46.6,7z"/>
		<path class="st0" d="M34.2,5H34c-1.6,0-2.4,0.7-2.5,1.9l-0.1,0.8c-0.1,0.5,0,1,0.3,1.3c0.3,0.4,0.9,0.6,1.8,0.6h0.2
			c1.5,0,2.3-0.6,2.5-1.8l0-0.1L36.3,7c0.1-0.6,0-1-0.3-1.3C35.6,5.3,35,5,34.2,5z M35,7l-0.1,0.7c0,0.3-0.1,0.6-0.3,0.8
			c-0.2,0.2-0.5,0.4-0.9,0.4h-0.2c-0.4,0-0.7-0.1-0.8-0.4c-0.1-0.2-0.1-0.4-0.1-0.8L32.7,7c0.1-0.4,0.2-0.7,0.4-0.9
			c0.2-0.2,0.5-0.3,0.8-0.3h0.2c0.2,0,0.5,0,0.7,0.3C35,6.3,35,6.6,35,7L35,7z"/>
		<path class="st0" d="M29.3,5.4l-1.7,1.9l-1.2-1.9c-0.1-0.2-0.3-0.3-0.7-0.3h-0.5l-0.5,4.4h0.7c0.2,0,0.4-0.1,0.5-0.2
			c0.1-0.1,0.2-0.3,0.3-0.5L26.2,7l0.9,1.7c0,0.1,0.1,0.2,0.3,0.2h0c0.2,0,0.3-0.1,0.3-0.2L29,7l-0.3,2.6h0.6c0.2,0,0.4-0.1,0.5-0.2
			c0.1-0.1,0.2-0.3,0.3-0.5l0.5-3.8H30C29.7,5.1,29.4,5.2,29.3,5.4z"/>
		<path class="st0" d="M16.5,5.1c-0.2,0-0.4,0-0.6,0c-1.1,0.2-1.7,0.8-1.8,1.8l-0.1,0.8c-0.1,0.5,0,0.9,0.3,1.2
			c0.3,0.3,0.8,0.6,1.6,0.6h1.3c0.8,0,0.9-0.8,0.9-0.8h-1.8c-0.2,0-0.5,0-0.6-0.1c-0.2-0.1-0.4-0.2-0.4-0.5c0-0.1,0-0.3,0-0.5
			L15.3,7c0-0.2,0.1-0.4,0.1-0.4c0.1-0.2,0.2-0.3,0.3-0.5c0.1-0.1,0.3-0.2,0.9-0.2h1c0.7,0,0.8-0.8,0.8-0.8L16.5,5.1L16.5,5.1z"/>
	</g>
</g>
</svg>
