<?xml version="1.0" encoding="utf-8"?>
<!-- Generator: Adobe Illustrator 21.1.0, SVG Export Plug-In . SVG Version: 6.00 Build 0)  -->
<svg version="1.1" id="Layer_1" xmlns="http://www.w3.org/2000/svg" xmlns:xlink="http://www.w3.org/1999/xlink" x="0px" y="0px"
	 viewBox="0 0 21.6 28.8" style="enable-background:new 0 0 21.6 28.8;" xml:space="preserve">
<style type="text/css">
	.st0{fill:#CCCCCC;}
</style>
<g>
	<g>
		<path class="st0" d="M18.8,0h-16C1.3,0,0,1.3,0,2.9v22.9c0,1.6,1.3,2.9,2.8,2.9h11.4c1.2,0,2.4-0.5,3.2-1.4l2.9-3.2
			c0.8-0.9,1.3-2.1,1.3-3.4V2.9C21.6,1.3,20.3,0,18.8,0z M16,25.6v-2.1h1.9L16,25.6z M19.4,20.9c0,0.1,0,0.3,0,0.4h-4.4
			c-0.6,0-1.1,0.5-1.1,1.1v4.2h-11c-0.3,0-0.6-0.4-0.6-0.7V2.9c0-0.4,0.3-0.7,0.6-0.7h16c0.3,0,0.6,0.4,0.6,0.7V20.9z M16.2,5.3H5.3
			c-0.6,0-1.1,0.5-1.1,1.1c0,0.6,0.5,1.1,1.1,1.1h10.9c0.6,0,1.1-0.5,1.1-1.1C17.4,5.8,16.9,5.3,16.2,5.3z M16.2,10.6H5.3
			c-0.6,0-1.1,0.5-1.1,1.1c0,0.6,0.5,1.1,1.1,1.1h10.9c0.6,0,1.1-0.5,1.1-1.1C17.4,11.1,16.9,10.6,16.2,10.6z M16.2,16H5.3
			c-0.6,0-1.1,0.5-1.1,1.1c0,0.6,0.5,1.1,1.1,1.1h10.9c0.6,0,1.1-0.5,1.1-1.1C17.4,16.5,16.9,16,16.2,16z"/>
	</g>
</g>
</svg>
