<?xml version="1.0" encoding="utf-8"?>
<!-- Generator: Adobe Illustrator 21.1.0, SVG Export Plug-In . SVG Version: 6.00 Build 0)  -->
<svg version="1.1" xmlns="http://www.w3.org/2000/svg" xmlns:xlink="http://www.w3.org/1999/xlink" x="0px" y="0px"
	 viewBox="0 0 60 60" style="enable-background:new 0 0 60 60;" xml:space="preserve">
<style type="text/css">
	.st0{fill: #ccc}
	.st1{fill:#7278BF;}
</style>
<g id="Layer_1">
</g>
<g id="Layer_1_copy">
	<g>
		<path class="st0" d="M30,2c15.4,0,28,12.6,28,28S45.4,58,30,58S2,45.4,2,30S14.6,2,30,2 M30,0C13.4,0,0,13.4,0,30s13.4,30,30,30
			s30-13.4,30-30S46.6,0,30,0L30,0z"/>
		<path class="st1" d="M30,58C14.6,58,2,45.4,2,30C2,14.6,14.6,2,30,2V0C13.4,0,0,13.4,0,30s13.4,30,30,30s30-13.4,30-30h-2
			C58,45.4,45.4,58,30,58z"/>
	</g>
</g>
</svg>
