<?xml version="1.0" encoding="utf-8"?>
<!-- Generator: Adobe Illustrator 19.0.0, SVG Export Plug-In . SVG Version: 6.00 Build 0)  -->
<svg version="1.1" id="Layer_1" xmlns="http://www.w3.org/2000/svg" xmlns:xlink="http://www.w3.org/1999/xlink" x="0px" y="0px"
	 viewBox="0 0 20 20" style="enable-background:new 0 0 20 20;" xml:space="preserve">
<style type="text/css">
	.st0{fill:#CCCCCC;}
</style>
<path id="XMLID_5_" class="st0" d="M13.1,6.7V5.2c0-1.6-1.3-3-3-3H9.9c-1.6,0-3,1.3-3,3v1.5C6.2,6.7,5.4,6.8,4.7,6.9V5.2
	C4.7,2.3,7,0,9.9,0h0.2c2.9,0,5.2,2.3,5.2,5.2v1.7C14.6,6.8,13.8,6.7,13.1,6.7z M3.1,9c4.6-0.9,9.3-0.9,13.8,0L17,9
	c0.6,0.1,0.9,0.6,0.9,1.1v8c0,0.6-0.4,1-0.9,1.1l-0.7,0.1C14.2,19.8,12.1,20,10,20c-2.1,0-4.2-0.2-6.3-0.6L3,19.3
	C2.4,19.2,2,18.7,2,18.1v-8C2,9.6,2.4,9.1,3,9L3.1,9z M6.8,14.3l2,2.4c0.2,0.2,0.5,0.2,0.7,0c0,0,0,0,0,0l3.3-3.6
	c0.2-0.2,0.2-0.5,0-0.7l-0.6-0.6c-0.2-0.2-0.5-0.2-0.7,0l-2.4,2.1l-1.1-0.9c-0.2-0.2-0.5-0.1-0.7,0l-0.6,0.6
	C6.7,13.8,6.6,14.1,6.8,14.3z"/>
</svg>
