<svg xmlns="http://www.w3.org/2000/svg" width="36" height="36" viewBox="0 0 36 36"><defs><clipPath id="a"><path fill="#fff" d="M663.93 37.07a17.77 17.77 0 1 1 34.15 9.85 17.77 17.77 0 1 1-34.15-9.85z"/></clipPath></defs><path fill="none" stroke="#7278bf" stroke-miterlimit="50" stroke-width="4" d="M663.93 37.07a17.77 17.77 0 1 1 34.15 9.85 17.77 17.77 0 1 1-34.15-9.85z" clip-path="url(&quot;#a&quot;)" transform="translate(-663 -24)"/><path fill="#7278bf" d="M29.72 18.6c.48-.63.35-1.53-.29-2l-3.2-2.45a.71.71 0 0 0-.45-.15.77.77 0 0 0-.78.77v5.96c0 .42.35.77.78.77a.8.8 0 0 0 .45-.15l3.24-2.47c.1-.08.18-.16.25-.27zm-9.71 7.9a2.5 2.5 0 0 0 2.5-2.5V11.5A2.5 2.5 0 0 0 20 9H10v15.4c0 .55.26 1.02.68 1.3l4.58 3.06a1.45 1.45 0 0 0 2.23-1.21V26.5zm0-14.38v11.25c0 .35-.28.63-.63.63H17.5v-9.16c0-.54-.26-1.02-.68-1.3l-3.07-2.04h5.63c.35 0 .63.28.63.62z"/></svg>