<?xml version="1.0" encoding="utf-8"?>
<!-- Generator: Adobe Illustrator 21.0.0, SVG Export Plug-In . SVG Version: 6.00 Build 0)  -->
<svg version="1.1" id="Слой_1" xmlns="http://www.w3.org/2000/svg" xmlns:xlink="http://www.w3.org/1999/xlink" x="0px" y="0px"
	 viewBox="0 0 830 280" style="enable-background:new 0 0 830 280;" xml:space="preserve">
<style type="text/css">
	.st0{fill:#5D607D;}
	.st1{fill:none;}
	.st2{fill:#676A93;}
	.st3{fill:#FFFFFF;}
	.st4{fill:#E0EFF0;}
</style>
<g>
	<g>
		<g>
			<path class="st0" d="M459.1,59.7v164.1h-37.7v-67.7h-51.2v67.7h-37.7V59.7h37.7v64h51.2v-64H459.1z"/>
			<path class="st0" d="M534.8,50.3v35.8H499V50.3H534.8z M534.8,102.3v121.4H499V102.3H534.8z"/>
			<path class="st0" d="M613.3,130.2v51.3c0,6.4,1,10.7,2.9,12.9s6.4,3.2,13.5,3.2c3.3,0,7.1-0.2,11.4-0.5v26.6
				c-10.4,1.8-17.9,2.6-22.5,2.6c-14.9,0-25.5-2.9-31.7-8.6c-6.3-5.7-9.4-16.1-9.4-31.1v-56.5h-19.2v-27.9h21.3l2.9-35.8l30.9-2.4
				v38.2h26.1v27.9L613.3,130.2L613.3,130.2z"/>
			<path class="st0" d="M759,131.7l-26.1,7c-3-11-10.9-16.5-23.7-16.5c-12,0-18,3.7-18,11c0,2.9,1.1,5.2,3.3,6.9
				c2.2,1.7,8,3.2,17.3,4.4c13.9,1.8,24.1,3.9,30.8,6.3c6.7,2.4,11.9,6.5,15.8,12.1c3.9,5.7,5.8,12.7,5.8,21
				c0,12.5-4.7,22.7-14.2,30.5c-9.5,7.9-22.8,11.8-39.9,11.8c-30.9,0-49.4-12-55.4-35.9l30.2-4.4c2.5,10.9,11.5,16.3,26.9,16.3
				c5.9,0,10.9-1.1,15-3.2s6.1-5,6.1-8.6c0-5.6-4.5-9-13.6-10c-24.5-3-40.7-7.7-48.4-14.1s-11.6-15.2-11.6-26.6
				c0-11.5,4.5-21.1,13.5-28.6s21.6-11.3,37.7-11.3c12.8,0,23.1,2.5,30.8,7.6S754.9,120.5,759,131.7z"/>
			<path class="st0" d="M829,51.3v35.8h-35.8V51.3H829z M829,102.3v121.4h-35.8V102.3H829z"/>
		</g>
		<polygon class="st1" points="421.4,123.6 421.4,89.1 370.2,72.2 370.2,123.6 		"/>
		<g>
			<polygon class="st2" points="370.2,59.7 332.4,59.7 332.4,59.7 370.2,72.2 			"/>
			<polygon class="st2" points="421.4,59.7 421.4,89.1 459.1,101.6 459.1,59.7 			"/>
			<rect x="499" y="50.3" class="st2" width="35.8" height="35.8"/>
			<polygon class="st2" points="499,102.3 499,114.8 534.8,126.6 534.8,102.3 			"/>
			<polygon class="st2" points="639.4,130.2 639.4,102.3 613.3,102.3 613.3,64.1 582.4,66.5 579.5,102.3 558.2,102.3 558.2,130.2 
				577.5,130.2 577.5,140.7 613.3,152.5 613.3,130.2 			"/>
			<path class="st2" d="M758.3,162.9c-3.9-5.7-9.2-9.7-15.8-12.1c-6.7-2.4-16.9-4.5-30.8-6.3c-9.3-1.2-15-2.7-17.3-4.4
				c-2.2-1.7-3.3-4-3.3-6.9c0-7.3,6-11,18-11c12.7,0,20.6,5.5,23.7,16.5l26.1-7c-4.1-11.1-10-19.2-17.7-24.3c-7.7-5-18-7.6-30.8-7.6
				c-16.2,0-28.8,3.8-37.7,11.3c-9,7.5-13.5,17.1-13.5,28.6c0,11.4,3.9,20.3,11.6,26.6c7.7,6.4,23.9,11.1,48.4,14.1
				c9.1,1,13.6,4.4,13.6,10c0,0.5-0.1,1-0.1,1.5l27.8,9.2c2.4-5.1,3.6-10.9,3.6-17.2C764.1,175.6,762.2,168.6,758.3,162.9z"/>
			<polygon class="st2" points="829,102.3 793.2,102.3 793.2,211.9 828.9,223.8 829,223.8 			"/>
			<rect x="793.2" y="51.3" class="st2" width="35.8" height="35.8"/>
		</g>
	</g>
	<g>
		<path class="st2" d="M279.5,126.3c0-4-2.7-7.6-6.7-8.5l-25.6-6.3l18.9-18.4c3.1-2.7,3.6-7.2,1.3-10.8l-13.5-23.4
			c-2.2-3.6-6.3-5.4-10.3-4L218,62.1l7.6-26.1c0.9-4-0.4-8.1-4-10.3l-23.4-13.5c-3.6-2.2-8.1-1.3-10.8,1.3L169,32.4l-6.3-25.6
			c-1.3-3.6-4.9-6.3-9-6.3h-27c-4,0-7.6,2.7-8.5,6.7l-6.3,25.6L93.1,14c-2.7-3.1-7.2-3.6-10.8-1.3L58.9,26.2c-3.6,1.8-5.4,5.8-4,9.9
			l7.2,25.6l-25.6-7.2c-4-0.9-8.1,0.4-10.3,4L12.7,81.9c-2.2,3.6-1.3,8.1,1.3,10.8l18.9,18.4l-25.6,6.3c-3.6,1.3-6.3,4.9-6.3,9v27
			c0,4,2.7,7.6,6.7,8.5l25.6,6.3l-18.9,18.9c-3.1,2.7-3.6,7.2-1.3,10.8l13.5,23.4c1.8,3.6,5.8,5.4,9.9,4l25.6-7.2l-7.2,25.6
			c-0.9,4,0.4,8.1,4,10.3l23.4,13.5c3.6,2.2,8.1,1.3,10.8-1.3l18.4-18.9l6.3,25.6c0.9,4,4.5,6.7,8.5,6.7h27c4,0,7.6-2.7,8.5-6.7
			l6.3-25.6l18.4,18.9c2.7,3.1,7.2,3.6,10.8,1.3l23.4-13.5c3.6-2.2,5.4-6.3,4-10.3l-7.2-25.6l25.6,7.2c4,0.9,8.1-0.4,10.3-4
			l13.5-23.4c2.2-3.6,1.3-8.1-1.3-10.8l-18.9-18.4l25.6-6.3c4-0.9,6.7-4.5,6.7-8.5L279.5,126.3z"/>
		<g>
			<path class="st0" d="M163.3,108.3c0-14.5-6.8-24.4-23-24.4c-4.4,0-8.6,0.4-11.2,1.1v44l6.1,6.1h1.8
				C156,135.1,163.3,126.1,163.3,108.3z"/>
			<path class="st0" d="M272.8,117.8l-25.6-6.3l18.9-18.4c3.1-2.7,3.6-7.2,1.3-10.8l-13.5-23.4c-2.2-3.6-6.3-5.4-10.3-4L218,62.1
				l7.6-26.1c0.9-4-0.4-8.1-4-10.3l-23.4-13.5c-3.6-2.2-8.1-1.3-10.8,1.3L169,32.4l-6.3-25.6c-1.3-3.6-4.9-6.3-9-6.3h-27
				c-4,0-7.6,2.7-8.5,6.7l-6.3,25.6L93.1,14c-2.7-3.1-7.2-3.6-10.8-1.3L58.9,26.2c-3.6,1.8-5.4,5.8-4,9.9l7.2,25.6l-0.6-0.2
				l41.9,41.9V66.9c0,0,18.2-2.9,40.6-2.9c34,0,47,20.4,47,41.9c0,18.8-7.6,41.6-37.7,47.4l64.8,64.8l25,7c4,0.9,8.1-0.4,10.3-4
				l13.5-23.4c2.2-3.6,1.3-8.1-1.3-10.8l-18.9-18.4l25.6-6.3c4-0.9,6.7-4.5,6.7-8.5l0.4-27.4C279.5,122.3,276.8,118.7,272.8,117.8z"
				/>
		</g>
		<path class="st0" d="M224.7,244l-7.2-26l25.6,7.6c4,0.9,8.1-0.9,10.3-4.5l3.1-5.4l-128-80.2L103.3,215l62.9,39.3l1.8-7.2
			l18.4,18.9c2.7,3.1,7.2,3.6,10.8,1.3l23.4-13.5C224.2,252,226,248,224.7,244L224.7,244z"/>
		<polygon class="st1" points="135.2,135.1 129,129 129,135.1 		"/>
		<path class="st2" d="M136.9,135.1c19.1,0,26.3-9,26.3-26.8c0-14.5-6.8-24.4-23-24.4c-4.4,0-8.6,0.4-11.2,1.1v44l6.1,6.1H136.9z"/>
		<g>
			<path class="st0" d="M144.1,158.1h-8.8v18h34.5v19.5h-34.5v22.8h-25.7v-22.8h-11v-19.5h11v-18h-11v-19.5h11V70.3
				c0,0,18.2-2.9,40.6-2.9c34,0,47,20.4,47,41.9C197.2,131.2,187.1,158.1,144.1,158.1z M146.5,87.5c-4.4,0-8.6,0.4-11.2,1.1v50h7.9
				c19.1,0,26.3-9,26.3-26.8C169.6,97.3,162.8,87.5,146.5,87.5z"/>
		</g>
		<g>
			<path class="st3" d="M137.8,154.6H129v18h34.5v19.5H129V215h-25.7v-22.8h-11v-19.5h11v-18h-11v-19.5h11V66.9
				c0,0,18.2-2.9,40.6-2.9c34,0,47,20.4,47,41.9C190.9,127.6,180.8,154.6,137.8,154.6z M140.2,84c-4.4,0-8.6,0.4-11.2,1.1v50h7.9
				c19.1,0,26.3-9,26.3-26.8C163.3,93.8,156.5,84,140.2,84z"/>
		</g>
		<path class="st4" d="M190.9,105.9c0-21.5-13-41.9-47-41.9c-22.4,0-40.6,2.9-40.6,2.9v36.5L129,129V85.1c2.6-0.7,6.8-1.1,11.2-1.1
			c16.2,0,23,9.9,23,24.4c0,17.8-7.2,26.8-26.3,26.8h-1.8l18.2,18.2C183.3,147.5,190.9,124.7,190.9,105.9z"/>
	</g>
</g>
</svg>
