<?xml version="1.0" encoding="utf-8"?>
<!-- Generator: Adobe Illustrator 21.1.0, SVG Export Plug-In . SVG Version: 6.00 Build 0)  -->
<svg version="1.1" id="Layer_1" xmlns="http://www.w3.org/2000/svg" xmlns:xlink="http://www.w3.org/1999/xlink" x="0px" y="0px"
	 viewBox="0 0 39 38" style="enable-background:new 0 0 39 38;" xml:space="preserve">
<style type="text/css">
	.st0{fill:#FFFFFF;}
</style>
<path class="st0" d="M19.5,0C9,0,0.5,8.5,0.5,19s8.5,19,19,19s19-8.5,19-19S30,0,19.5,0z M19.5,1.9c9.4,0,17.1,7.6,17.1,17.1
	S29,36.1,19.5,36.1c-9.4,0-17.1-7.6-17.1-17.1S10.1,1.9,19.5,1.9z"/>
<path class="st0" d="M20.9,19l5.7-5.7c0.4-0.4,0.4-1,0-1.4s-1-0.4-1.4,0l-5.7,5.7l-5.7-5.7c-0.4-0.4-1-0.4-1.4,0s-0.4,1,0,1.4
	l5.7,5.7l-5.7,5.7c-0.4,0.4-0.4,1,0,1.4s1,0.4,1.4,0l5.7-5.7l5.7,5.7c0.4,0.4,1,0.4,1.4,0s0.4-1,0-1.4L20.9,19z"/>
</svg>
