<?xml version="1.0" encoding="utf-8"?>
<!-- Generator: Adobe Illustrator 21.1.0, SVG Export Plug-In . SVG Version: 6.00 Build 0)  -->
<svg version="1.1" id="Layer_1" xmlns="http://www.w3.org/2000/svg" xmlns:xlink="http://www.w3.org/1999/xlink" x="0px" y="0px"
	 viewBox="0 0 38 38" style="enable-background:new 0 0 38 38;" xml:space="preserve">
<style type="text/css">
	.st0{fill:#FFFFFF;}
</style>
<g transform="translate(0,-952.36216)">
	<path class="st0" d="M19,952.4c-10.5,0-19,8.5-19,19s8.5,19,19,19s19-8.5,19-19S29.5,952.4,19,952.4z M19,954.3
		c9.4,0,17.1,7.6,17.1,17.1c0,9.4-7.6,17.1-17.1,17.1s-17.1-7.6-17.1-17.1C1.9,961.9,9.6,954.3,19,954.3z M27.8,964.2
		c-0.3,0-0.6,0.1-0.7,0.3l-10.1,11l-5.1-4.7c-0.4-0.4-1-0.4-1.4,0s-0.4,1,0,1.4l0,0l5.8,5.3c0.4,0.4,1,0.3,1.4-0.1l10.8-11.7
		c0.4-0.4,0.4-1,0-1.4C28.2,964.3,28,964.2,27.8,964.2L27.8,964.2z"/>
</g>
</svg>
