<?xml version="1.0" encoding="utf-8"?>
<!-- Generator: Adobe Illustrator 21.1.0, SVG Export Plug-In . SVG Version: 6.00 Build 0)  -->
<svg version="1.1" id="Layer_1" xmlns="http://www.w3.org/2000/svg" xmlns:xlink="http://www.w3.org/1999/xlink" x="0px" y="0px"
	 viewBox="0 0 120 27" style="enable-background:new 0 0 120 27;" xml:space="preserve">
<style type="text/css">
	.st0{fill:#EBEBF9;}
</style>
<g>
	<path class="st0" d="M5.5,8.5c2.8,0,5,2.2,5,5s-2.2,5-5,5s-5-2.2-5-5S2.7,8.5,5.5,8.5z"/>
	<path class="st0" d="M25.5,8.5c2.8,0,5,2.2,5,5s-2.2,5-5,5s-5-2.2-5-5S22.7,8.5,25.5,8.5z"/>
	<path class="st0" d="M45.5,8.5c2.8,0,5,2.2,5,5s-2.2,5-5,5s-5-2.2-5-5S42.7,8.5,45.5,8.5z"/>
	<path class="st0" d="M65.5,8.5c2.8,0,5,2.2,5,5s-2.2,5-5,5c-2.8,0-5-2.2-5-5S62.7,8.5,65.5,8.5z"/>
	<path class="st0" d="M85.5,8.5c2.8,0,5,2.2,5,5s-2.2,5-5,5s-5-2.2-5-5S82.7,8.5,85.5,8.5z"/>
	<path class="st0" d="M101.5,1.1c1.4-1.4,3.6-1.4,4.9,0l12.4,12.4l-4.9,4.9L101.5,6.1C100.1,4.7,100.1,2.5,101.5,1.1z"/>
	<path class="st0" d="M101.5,20.9l12.4-12.4l4.9,4.9l-12.4,12.4c-1.4,1.4-3.6,1.4-4.9,0C100.1,24.5,100.1,22.3,101.5,20.9z"/>
</g>
</svg>
