<?xml version="1.0" encoding="utf-8"?>
<!-- Generator: Adobe Illustrator 19.0.0, SVG Export Plug-In . SVG Version: 6.00 Build 0)  -->
<svg version="1.1"
	 id="Layer_1" xmlns:inkscape="http://www.inkscape.org/namespaces/inkscape" xmlns:rdf="http://www.w3.org/1999/02/22-rdf-syntax-ns#" xmlns:cc="http://creativecommons.org/ns#" xmlns:dc="http://purl.org/dc/elements/1.1/" xmlns:sodipodi="http://sodipodi.sourceforge.net/DTD/sodipodi-0.dtd" xmlns:svg="http://www.w3.org/2000/svg" sodipodi:docname="Visa_2006.svg" inkscape:version="0.91 r13725"
	 xmlns="http://www.w3.org/2000/svg" xmlns:xlink="http://www.w3.org/1999/xlink" x="0px" y="0px" viewBox="22.5 14 51 17"
	 style="enable-background:new 22.5 14 51 17;" xml:space="preserve">
<style type="text/css">
	.st0{fill:#00579F;}
	.st1{fill:#FAA61A;}
</style>
<sodipodi:namedview  id="namedview19" guidetolerance="10" borderopacity="1" inkscape:zoom="0.35355339" pagecolor="#ffffff" showgrid="false" gridtolerance="10" inkscape:cy="131.15483" bordercolor="#666666" inkscape:cx="34.690897" objecttolerance="10" inkscape:current-layer="Layer_1" inkscape:window-maximized="1" inkscape:window-y="-8" inkscape:window-x="-8" inkscape:pageopacity="0" inkscape:window-width="1366" inkscape:window-height="705" inkscape:pageshadow="2">
	</sodipodi:namedview>
<g id="g4158" transform="matrix(4.4299631,0,0,4.4299631,-81.165783,-105.04783)">
	<polygon id="polygon9" class="st0" points="28.4,30.6 27.5,30.6 28.1,26.9 28.9,26.9 	"/>
	<path id="path11" inkscape:connector-curvature="0" class="st0" d="M31.8,27c-0.2-0.1-0.5-0.1-0.8-0.1c-0.9,0-1.6,0.5-1.6,1.3
		c0,0.5,0.4,0.8,0.8,1c0.4,0.1,0.5,0.3,0.5,0.4c0,0.2-0.3,0.4-0.6,0.4c-0.4,0-0.6-0.1-0.9-0.2l-0.1-0.1l-0.1,0.8
		c0.2,0.1,0.7,0.2,1,0.2c0.9,0,1.6-0.5,1.6-1.3c0-0.4-0.2-0.7-0.8-1c-0.3-0.1-0.5-0.3-0.5-0.4s0.1-0.3,0.5-0.3
		c0.3,0,0.5,0.1,0.7,0.1l0.1,0.1L31.8,27L31.8,27z"/>
	<path id="path13" inkscape:connector-curvature="0" class="st0" d="M33,29.4c0.1-0.2,0.4-1,0.4-1s0.1-0.2,0.1-0.4l0.1,0.3
		c0,0,0.1,0.9,0.2,1.1C33.6,29.4,33.2,29.4,33,29.4L33,29.4z M34.2,26.9h-0.7c-0.2,0-0.4,0.1-0.5,0.3l-1.4,3.4h0.9
		c0,0,0.1-0.4,0.2-0.6c0.1,0,1.1,0,1.2,0c0,0.1,0.1,0.6,0.1,0.6h0.9L34.2,26.9L34.2,26.9L34.2,26.9z"/>
	<path id="path15" inkscape:connector-curvature="0" class="st0" d="M26.7,26.9l-0.9,2.5l-0.1-0.5c-0.1-0.6-0.7-1.3-1.3-1.5l0.8,3.2
		h1l1.5-3.7H26.7L26.7,26.9L26.7,26.9z"/>
	<path id="path17" inkscape:connector-curvature="0" class="st1" d="M24.9,26.9h-1.5V27c1.2,0.3,2,1,2.3,1.9l-0.3-1.7
		C25.3,27,25.1,26.9,24.9,26.9L24.9,26.9z"/>
</g>
</svg>
