<?xml version="1.0" encoding="utf-8"?>
<!-- Generator: Adobe Illustrator 21.1.0, SVG Export Plug-In . SVG Version: 6.00 Build 0)  -->
<svg version="1.1" id="Layer_1" xmlns="http://www.w3.org/2000/svg" xmlns:xlink="http://www.w3.org/1999/xlink" x="0px" y="0px"
	 viewBox="0 0 26 18" style="enable-background:new 0 0 26 18;" xml:space="preserve">
<style type="text/css">
	.st0{fill:#F9F9FF;}
</style>
<g>
	<polygon class="st0" points="20.1,9.7 21.6,9.7 21.1,7.1 	"/>
	<path class="st0" d="M22.1,0H3.9C1.7,0,0,1.7,0,3.9v10.2C0,16.3,1.7,18,3.9,18h18.2c2.2,0,3.9-1.7,3.9-3.9V3.9
		C26,1.7,24.3,0,22.1,0z M4.2,5.1c0.7,0,1,0.7,1,0.7l0.6,3.1C5,6.2,1.4,5.1,1.4,5.1S3.5,5.1,4.2,5.1z M4.9,12L3.4,6.4
		c0,0,1.5,0.8,2.5,2.9C6,9.6,6.1,10,6.1,10l1.7-4.9h2L6.9,12L4.9,12L4.9,12z M11.2,12H9.4l1.1-6.9h1.9L11.2,12z M14.3,12.2
		c-1.3,0-2-0.4-2-0.4l0.3-1.5c0,0,0.7,0.4,1.8,0.4c1.1,0,1.2-0.4,1.2-0.6c0-1.1-2.5-0.8-2.5-3c0-1.2,1-2.2,2.9-2.2
		c0.8,0,1.7,0.3,1.7,0.3l-0.3,1.5c0,0-0.7-0.4-1.3-0.4c-0.9,0-1.2,0.3-1.2,0.7c0,0.8,2.5,0.9,2.5,2.7C17.4,11.2,15.6,12.2,14.3,12.2
		z M22.1,12l-0.2-1h-2.3l-0.4,1h-1.8l3-6.9h1.9l1.4,6.9H22.1z"/>
</g>
</svg>
