<?xml version="1.0" encoding="utf-8"?>
<!-- Generator: Adobe Illustrator 21.1.0, SVG Export Plug-In . SVG Version: 6.00 Build 0)  -->
<svg version="1.1" id="Layer_1" xmlns="http://www.w3.org/2000/svg" xmlns:xlink="http://www.w3.org/1999/xlink" x="0px" y="0px"
	 viewBox="0 0 191 191" style="enable-background:new 0 0 191 191;" xml:space="preserve">
<style type="text/css">
	.st0{fill:#7278BF;}
	.st1{fill:#DADAF0;}
	.st2{fill:none;stroke:#7278BF;stroke-width:2;stroke-linecap:round;stroke-miterlimit:10;}
</style>
<g>
	<g id="XMLID_20_">
		<path id="XMLID_37_" class="st0" d="M189,129H2c-0.8,0-1.5-0.7-1.5-1.5S1.2,126,2,126h187c0.8,0,1.5,0.7,1.5,1.5
			S189.8,129,189,129z"/>
	</g>
	<g id="XMLID_35_">
		<g id="XMLID_26_">
			<path id="XMLID_48_" class="st0" d="M144,118.1c-0.6,0-1-0.4-1-1V57.7c0-1-1-1.8-2.2-1.8h-18.6c-0.6,0-1-0.4-1-1s0.4-1,1-1h18.6
				c2.3,0,4.2,1.7,4.2,3.8v59.4C145,117.6,144.6,118.1,144,118.1z"/>
		</g>
		<g id="XMLID_25_">
			<path id="XMLID_47_" class="st0" d="M47,105.1c-0.6,0-1-0.4-1-1V57.7c0-2.1,1.9-3.8,4.2-3.8h17.6c0.6,0,1,0.4,1,1s-0.4,1-1,1
				H50.2c-1.2,0-2.2,0.8-2.2,1.8v46.4C48,104.6,47.6,105.1,47,105.1z"/>
		</g>
		<g id="XMLID_21_">
			<path id="XMLID_45_" class="st0" d="M144.8,128.1c-0.6,0-1-0.4-1-1s0.4-1,1-1c3.4,0,6.5-1.9,8-5l1.5-3l0,0l0,0H36.6l0,0l0,0
				l1.5,3c1.5,3.1,4.6,5,8,5c0.6,0,1,0.4,1,1s-0.4,1-1,1c-4.2,0-8-2.3-9.8-6.1l-1.5-3c-0.3-0.7-0.3-1.4,0-2c0.4-0.6,1-0.9,1.8-0.9
				h117.8c0.8,0,1.4,0.3,1.8,0.9c0.4,0.6,0.4,1.3,0,2l-1.5,3C152.8,125.8,149,128.1,144.8,128.1z"/>
		</g>
		<g id="XMLID_22_">
			<path id="XMLID_43_" class="st0" d="M47,113c-0.6,0-1-0.4-1-1v-3c0-0.6,0.4-1,1-1s1,0.4,1,1v3C48,112.6,47.6,113,47,113z"/>
		</g>
		<g id="XMLID_27_">
			<path id="XMLID_42_" class="st0" d="M137,117.1c-0.6,0-1-0.4-1-1V63h-8.8c-0.6,0-1-0.4-1-1s0.4-1,1-1h8.8c1.1,0,2,0.9,2,2v53.1
				C138,116.6,137.6,117.1,137,117.1z"/>
		</g>
		<g id="XMLID_1_">
			<path id="XMLID_40_" class="st0" d="M54,117.1c-0.6,0-1-0.4-1-1V63c0-1.1,0.9-2,2-2h12.8c0.6,0,1,0.4,1,1s-0.4,1-1,1H55v53.1
				C55,116.6,54.6,117.1,54,117.1z"/>
		</g>
		<g id="XMLID_28_">
			<path id="XMLID_38_" class="st0" d="M109,120H82c-0.8,0-1.5-0.7-1.5-1.5s0.7-1.5,1.5-1.5h27c0.8,0,1.5,0.7,1.5,1.5
				S109.8,120,109,120z"/>
		</g>
	</g>
	<g id="XMLID_34_">
		<g id="XMLID_19_">
			<path id="XMLID_39_" class="st0" d="M119.2,104.1H70.8c-2.2,0-4-1.8-4-4V40.3c0-2.2,1.8-4,4-4h48.4c2.2,0,4,1.8,4,4v59.8
				C123.2,102.3,121.4,104.1,119.2,104.1z M70.8,38.3c-1.1,0-2,0.9-2,2v59.8c0,1.1,0.9,2,2,2h48.4c1.1,0,2-0.9,2-2V40.3
				c0-1.1-0.9-2-2-2H70.8z"/>
		</g>
		<g id="XMLID_24_">
			<path id="XMLID_46_" class="st1" d="M117.8,102.1h-47c-1.1,0-2-0.9-2-2V42.2c0-1.1,0.9-2,2-2h47c1.1,0,2,0.9,2,2v57.9
				C119.8,101.2,118.9,102.1,117.8,102.1z"/>
		</g>
		<g id="XMLID_23_">
			<path id="XMLID_50_" class="st0" d="M95.5,72.1c-5.8,0-10.5-4.7-10.5-10.5s4.7-10.5,10.5-10.5S106,55.8,106,61.6
				S101.3,72.1,95.5,72.1z M95.5,53.1c-4.7,0-8.5,3.8-8.5,8.5s3.8,8.5,8.5,8.5s8.5-3.8,8.5-8.5S100.2,53.1,95.5,53.1z"/>
		</g>
		<g id="XMLID_30_">
			<path id="XMLID_53_" class="st0" d="M111.4,89.4c-0.6,0-1-0.4-1-1c0-9.1-8-12.4-14.9-12.4s-14.9,3.2-14.9,12.4c0,0.6-0.4,1-1,1
				s-1-0.4-1-1c0-8.6,6.8-14.4,16.9-14.4s16.9,5.8,16.9,14.4C112.4,88.9,112,89.4,111.4,89.4z"/>
		</g>
		<g id="XMLID_29_">
			<g id="XMLID_31_">
				<path id="XMLID_56_" class="st0" d="M95,33c-0.6,0-1-0.4-1-1v-4c0-0.6,0.4-1,1-1s1,0.4,1,1v4C96,32.6,95.6,33,95,33z"/>
			</g>
			<g id="XMLID_32_">
				<path id="XMLID_55_" class="st0" d="M90,30c-0.6,0-1-0.4-1-1v-7c0-0.6,0.4-1,1-1s1,0.4,1,1v7C91,29.6,90.6,30,90,30z"/>
			</g>
			<g id="XMLID_33_">
				<path id="XMLID_54_" class="st0" d="M100,31c-0.6,0-1-0.4-1-1v-6c0-0.6,0.4-1,1-1s1,0.4,1,1v6C101,30.6,100.6,31,100,31z"/>
			</g>
		</g>
	</g>
	<g id="XMLID_58_">
		<line id="XMLID_57_" class="st2" x1="55" y1="146" x2="106" y2="146"/>
		<line id="XMLID_36_" class="st2" x1="115" y1="146" x2="135" y2="146"/>
	</g>
</g>
</svg>
