<?xml version="1.0" encoding="utf-8"?>
<!-- Generator: Adobe Illustrator 21.1.0, SVG Export Plug-In . SVG Version: 6.00 Build 0)  -->
<svg version="1.1" id="Layer_1" xmlns="http://www.w3.org/2000/svg" xmlns:xlink="http://www.w3.org/1999/xlink" x="0px" y="0px"
	 viewBox="0 0 191 191" style="enable-background:new 0 0 191 191;" xml:space="preserve">
<style type="text/css">
	.st0{fill:#7278BF;}
	.st1{fill:none;stroke:#7278BF;stroke-width:2;stroke-linecap:round;stroke-miterlimit:10;}
	.st2{fill:none;stroke:#7178BE;stroke-width:2;stroke-linecap:round;stroke-miterlimit:10;}
	.st3{fill:#7178BE;}
	.st4{fill:none;stroke:#DCDCDC;stroke-width:2;stroke-linecap:round;stroke-miterlimit:10;}
	.st5{fill:#DADAEF;stroke:#7178BE;stroke-width:2;stroke-miterlimit:10;}
	.st6{fill:none;stroke:#FFFFFF;stroke-linecap:round;stroke-miterlimit:10;}
	.st7{fill:none;stroke:#FFFFFF;stroke-miterlimit:10;}
</style>
<g>
	<g id="XMLID_20_">
		<path id="XMLID_37_" class="st0" d="M189,129H2c-0.8,0-1.5-0.7-1.5-1.5S1.2,126,2,126h187c0.8,0,1.5,0.7,1.5,1.5
			S189.8,129,189,129z"/>
	</g>
	<g id="XMLID_58_">
		<line id="XMLID_57_" class="st1" x1="55" y1="146" x2="106" y2="146"/>
		<line id="XMLID_36_" class="st1" x1="115" y1="146" x2="135" y2="146"/>
	</g>
	<g>
		<path class="st2" d="M144.9,84.7V121"/>
		<path class="st2" d="M46.1,126.7V64.9v-7.8c0-1.6,1.3-2.8,3-2.8h63.1"/>
		<line class="st2" x1="106.9" y1="64.1" x2="47.1" y2="64.1"/>
	</g>
	<g>
		<g>
			<path class="st3" d="M52.4,60.3h-1.6c-0.6,0-1-0.4-1-1s0.4-1,1-1h1.6c0.6,0,1,0.4,1,1S52.9,60.3,52.4,60.3z"/>
		</g>
		<g>
			<path class="st3" d="M57.4,60.3h-1.6c-0.6,0-1-0.4-1-1s0.4-1,1-1h1.6c0.6,0,1,0.4,1,1S57.9,60.3,57.4,60.3z"/>
		</g>
		<g>
			<path class="st3" d="M62.4,60.3h-1.6c-0.6,0-1-0.4-1-1s0.4-1,1-1h1.6c0.6,0,1,0.4,1,1S62.9,60.3,62.4,60.3z"/>
		</g>
	</g>
	<line class="st4" x1="53.4" y1="75.8" x2="76.9" y2="75.8"/>
	<line class="st4" x1="82.7" y1="75.8" x2="94.7" y2="75.8"/>
	<line class="st4" x1="53.4" y1="83.9" x2="59.8" y2="83.9"/>
	<line class="st2" x1="65.1" y1="83.9" x2="83.8" y2="83.9"/>
	<line class="st4" x1="90.7" y1="83.9" x2="103.4" y2="83.9"/>
	<line class="st2" x1="53.4" y1="91.8" x2="68.3" y2="91.8"/>
	<line class="st4" x1="74.4" y1="91.8" x2="94.3" y2="91.8"/>
	<line class="st4" x1="101.2" y1="91.8" x2="108.5" y2="91.8"/>
	<line class="st4" x1="53.4" y1="107.2" x2="80.8" y2="107.2"/>
	<line class="st4" x1="85.6" y1="107.2" x2="89.4" y2="107.2"/>
	<line class="st4" x1="94.7" y1="107.2" x2="106.3" y2="107.2"/>
	<line class="st2" x1="111.7" y1="107.2" x2="123.8" y2="107.2"/>
	<line class="st2" x1="132.1" y1="107.2" x2="137.5" y2="107.2"/>
	<line class="st4" x1="53.4" y1="114.4" x2="64.3" y2="114.4"/>
	<line class="st2" x1="71" y1="114.4" x2="102.6" y2="114.4"/>
	<line class="st4" x1="113.6" y1="114.4" x2="137.5" y2="114.4"/>
	<g>
		<path class="st2" d="M157.4,37.8c3.9-0.5,7.4,2.2,7.9,6.1"/>
		<path class="st2" d="M158.1,31.3c6.8-0.9,13.1,4,14,10.8"/>
	</g>
	<path class="st5" d="M127,71l11.4-16.4c-0.7-0.8-0.9-1.9-0.5-2.9c0.5-1.6-0.3-3.3-1.9-3.8c-0.3-0.1-0.7-0.2-1-0.2h-0.1
		c-1.3,0-2.5-0.9-2.9-2.1c-0.5-1.6-2.2-2.5-3.8-2c-0.3,0.1-0.7,0.3-0.9,0.5c-0.5,0.4-1.2,0.6-1.8,0.6c-0.6,0-1.3-0.2-1.8-0.6
		c-1.3-1-3.2-0.7-4.2,0.6c-0.2,0.3-0.4,0.6-0.5,0.9c-0.4,1.3-1.6,2.1-2.9,2.1H116c-1.7,0-3,1.3-3,3c0,0.3,0.1,0.7,0.2,1
		c0.1,0.3,0.2,0.6,0.2,1c0,1-0.5,1.9-1.3,2.5c-1.4,1-1.7,2.9-0.7,4.2c0.2,0.3,0.4,0.5,0.7,0.7c0.8,0.6,1.3,1.5,1.3,2.5
		c0,0.3-0.1,0.7-0.2,1c-0.5,1.6,0.3,3.3,1.9,3.8c0.3,0.1,0.6,0.2,1,0.2h0.1c1.3,0,2.5,0.9,2.9,2.1c0.5,1.6,2.2,2.5,3.8,2
		c0.3-0.1,0.7-0.3,0.9-0.5C124.7,70.5,126,70.4,127,71L127,71z M123,61.2l-1.3-1.3l-0.8-0.8c-0.7-0.7-0.7-1.9,0-2.6
		c0.7-0.7,1.9-0.7,2.6,0l0.8,0.8l3.2-3.2c0.7-0.7,1.9-0.7,2.6,0c0.7,0.7,0.7,1.9,0,2.6l-3.2,3.2l-1.3,1.3
		C124.9,61.9,123.8,61.9,123,61.2C123,61.2,123,61.2,123,61.2L123,61.2z M161.3,67.1l-7.6,11c-0.7,1.1-2.2,1.3-3.3,0.6
		s-1.3-2.2-0.6-3.3l7.6-11c0.1-0.2,0.1-0.5-0.1-0.6c0,0,0,0,0,0l-2.6-1.8l-14.2,20.4c-3.4,4.9-8.2,8.5-13.7,10.5l0,0
		c-0.9,0.3-1.9-0.1-2.2-1.1c-0.1-0.2-0.1-0.4-0.1-0.6c-0.1-5.9,1.7-11.7,5-16.5l18.4-26.6c2-3.1,6.1-4.1,9.3-2.1
		c3.1,2,4.1,6.1,2.1,9.3c-0.1,0.2-0.2,0.3-0.3,0.4l-1.5,2.2l2.6,1.8C162.4,61.5,162.9,64.7,161.3,67.1L161.3,67.1z"/>
	<line class="st6" x1="130.8" y1="75.8" x2="149.7" y2="48.6"/>
	<path class="st7" d="M132.9,48.9"/>
	<path class="st6" d="M128.9,45.2c-0.3,0.1-0.6,0.3-0.9,0.5c-0.5,0.4-1.1,0.6-1.7,0.6c-0.6,0-1.2-0.2-1.7-0.5c-1.3-0.9-3-0.7-4,0.6
		c-0.2,0.3-0.4,0.6-0.5,0.9c-0.4,1.2-1.5,2-2.7,2h-0.1c-1.6,0-2.8,1.3-2.8,2.8c0,0.3,0.1,0.6,0.2,0.9c0.1,0.3,0.1,0.6,0.1,0.9
		c0,0.9-0.4,1.8-1.2,2.3"/>
</g>
</svg>
