<?xml version="1.0" encoding="utf-8"?>
<!-- Generator: Adobe Illustrator 21.1.0, SVG Export Plug-In . SVG Version: 6.00 Build 0)  -->
<svg version="1.1" id="Layer_1" xmlns="http://www.w3.org/2000/svg" xmlns:xlink="http://www.w3.org/1999/xlink" x="0px" y="0px"
	 viewBox="0 0 191 191" style="enable-background:new 0 0 191 191;" xml:space="preserve">
<style type="text/css">
	.st0{fill:#7278BF;}
	.st1{fill:none;stroke:#7278BF;stroke-width:2;stroke-linecap:round;stroke-miterlimit:10;}
	.st2{fill:none;stroke:#7178BE;stroke-width:2;stroke-linecap:round;stroke-miterlimit:10;}
	.st3{fill:#7178BE;}
	.st4{fill:none;stroke:#DCDCDC;stroke-width:2;stroke-linecap:round;stroke-miterlimit:10;}
	.st5{fill:none;stroke:#FFFFFF;stroke-miterlimit:10;}
	.st6{fill:#DADAEF;stroke:#7178BE;stroke-width:2;stroke-linejoin:round;stroke-miterlimit:10;}
</style>
<g>
	<g id="XMLID_20_">
		<path id="XMLID_37_" class="st0" d="M189,129H2c-0.8,0-1.5-0.7-1.5-1.5S1.2,126,2,126h187c0.8,0,1.5,0.7,1.5,1.5
			S189.8,129,189,129z"/>
	</g>
	<g id="XMLID_58_">
		<line id="XMLID_57_" class="st1" x1="55" y1="146" x2="106" y2="146"/>
		<line id="XMLID_36_" class="st1" x1="115" y1="146" x2="135" y2="146"/>
	</g>
	<g>
		<path class="st2" d="M144.9,84.7V121"/>
		<path class="st2" d="M46.1,126.7V64.9v-7.8c0-1.6,1.3-2.8,3-2.8h63.1"/>
		<line class="st2" x1="106.9" y1="64.1" x2="47.1" y2="64.1"/>
	</g>
	<g>
		<g>
			<path class="st3" d="M52.4,60.3h-1.6c-0.6,0-1-0.4-1-1s0.4-1,1-1h1.6c0.6,0,1,0.4,1,1S52.9,60.3,52.4,60.3z"/>
		</g>
		<g>
			<path class="st3" d="M57.4,60.3h-1.6c-0.6,0-1-0.4-1-1s0.4-1,1-1h1.6c0.6,0,1,0.4,1,1S57.9,60.3,57.4,60.3z"/>
		</g>
		<g>
			<path class="st3" d="M62.4,60.3h-1.6c-0.6,0-1-0.4-1-1s0.4-1,1-1h1.6c0.6,0,1,0.4,1,1S62.9,60.3,62.4,60.3z"/>
		</g>
	</g>
	<line class="st4" x1="53.4" y1="111.2" x2="80.8" y2="111.2"/>
	<line class="st4" x1="54.1" y1="74.2" x2="78.1" y2="74.2"/>
	<line class="st4" x1="88.4" y1="111.2" x2="115.8" y2="111.2"/>
	<line class="st4" x1="53.4" y1="118.4" x2="95.5" y2="118.4"/>
	<line class="st4" x1="103.9" y1="118.4" x2="112.2" y2="118.4"/>
	<g>
		<path class="st2" d="M148.8,23.2c6.9-1.5,17.3,1.7,23.2,9.6"/>
		<path class="st2" d="M139.7,17.3c6-3.3,17-4.5,24.7,1"/>
	</g>
	<path class="st5" d="M132.9,48.9"/>
	<path class="st6" d="M141.8,31.7c-17.2,0-31.1,10.5-31.1,23.5c0,1.9,0.3,3.8,0.9,5.6c1.4,4.4,4.5,8.3,8.6,11.3
		c0.1,0.5,0.1,1,0.1,1.6c0,6.9-4.9,14.7-4.9,14.7c8.9-0.7,18.3-10.5,18.3-10.5s0,0-0.1,0c2.6,0.5,5.3,0.8,8.1,0.8
		c11.3,0,21.2-4.6,26.7-11.4c2.8-3.5,4.4-7.7,4.4-12.1C172.9,42.2,159,31.7,141.8,31.7z M154.6,56.7l-3.1,0.3
		c-0.3,1.1-0.7,2.2-1.3,3.2l2,2.4l-2.6,2.6l-2.4-2c-1,0.6-2,0.9-3.2,1.1l-0.3,2.9h-3.7l-0.3-2.9c-1.1-0.3-2.2-0.6-3.2-1.2l-2.4,2
		l-2.6-2.6l2-2.4c-0.6-1-0.9-2-1.1-3.2l-2.9-0.3v-3.7l2.9-0.3c0.3-1.1,0.6-2.2,1.2-3.2l-2-2.4l2.6-2.6l2.4,2c1-0.6,2-0.7,3.2-1
		l0.3-2.8h3.7l0.3,2.8c1.1,0.3,2.2,0.5,3.2,1.1l2.4-2.1l2.6,2.5l-2,2.4c0.6,1,1.1,2,1.3,3.2l3.1,0.3L154.6,56.7L154.6,56.7z"/>
	<path class="st4" d="M103,88.8H56.4c-1.7,0-3-1.3-3-3l0,0c0-1.7,1.3-3,3-3H103c1.7,0,3,1.3,3,3l0,0C106,87.4,104.7,88.8,103,88.8z"
		/>
	<path class="st2" d="M103,94.4H56.4c-1.7,0-3,1.3-3,3l0,0c0,1.7,1.3,3,3,3H103c1.7,0,3-1.3,3-3l0,0C106,95.7,104.7,94.4,103,94.4z"
		/>
	<path class="st5" d="M134.2,75.5"/>
	<path class="st5" d="M171.4,54.8c0-9.1-11.1-21.5-29.8-21.5c-16,0-29,9.6-29,21.4c0,1.8,0.3,3.5,0.8,5.1c1.3,4,4.3,7.9,8.1,10.7"/>
</g>
</svg>
