<?xml version="1.0" encoding="utf-8"?>
<!-- Generator: Adobe Illustrator 21.1.0, SVG Export Plug-In . SVG Version: 6.00 Build 0)  -->
<svg version="1.1" id="Layer_1" xmlns="http://www.w3.org/2000/svg" xmlns:xlink="http://www.w3.org/1999/xlink" x="0px" y="0px"
	 viewBox="0 0 191 191" style="enable-background:new 0 0 191 191;" xml:space="preserve">
<style type="text/css">
	.st0{fill:#7278BF;}
	.st1{fill:none;stroke:#7278BF;stroke-width:2;stroke-linecap:round;stroke-miterlimit:10;}
	.st2{fill:none;stroke:#7278BF;stroke-width:2;stroke-miterlimit:10;}
	.st3{fill:none;stroke:#7278BF;stroke-miterlimit:10;}
	.st4{fill:#DADAEF;stroke:#DADAEF;stroke-miterlimit:10;}
	.st5{fill:#DADAEF;}
	.st6{fill:#FFFFFF;}
	.st7{fill:#FFFFFF;stroke:#7278BF;stroke-width:2;stroke-linecap:round;stroke-linejoin:round;stroke-miterlimit:10;}
	.st8{fill:#DADAEF;stroke:#7278BF;stroke-width:2;stroke-linecap:round;stroke-linejoin:round;stroke-miterlimit:10;}
</style>
<g>
	<g id="XMLID_20_">
		<path id="XMLID_37_" class="st0" d="M189,129H2c-0.8,0-1.5-0.7-1.5-1.5S1.2,126,2,126h187c0.8,0,1.5,0.7,1.5,1.5
			S189.8,129,189,129z"/>
	</g>
	<g id="XMLID_35_">
		<g id="XMLID_26_">
			<path id="XMLID_3_" class="st0" d="M143,117.1V83.7c0-0.5,0.4-1,1-1s1,0.4,1,1v33.4"/>
		</g>
		<g id="XMLID_25_">
			<path id="XMLID_5_" class="st0" d="M48,107.7v8.4c0,0.5-0.4,1-1,1s-1-0.4-1-1v-8.4"/>
		</g>
		<g id="XMLID_21_">
			<path id="XMLID_45_" class="st0" d="M144.8,128.1c-0.6,0-1-0.4-1-1s0.4-1,1-1c3.4,0,6.5-1.9,8-5l1.5-3l0,0l0,0H36.6l0,0l0,0
				l1.5,3c1.5,3.1,4.6,5,8,5c0.6,0,1,0.4,1,1s-0.4,1-1,1c-4.2,0-8-2.3-9.8-6.1l-1.5-3c-0.3-0.7-0.3-1.4,0-2c0.4-0.6,1-0.9,1.8-0.9
				h117.8c0.8,0,1.4,0.3,1.8,0.9c0.4,0.6,0.4,1.3,0,2l-1.5,3C152.8,125.8,149,128.1,144.8,128.1z"/>
		</g>
		<g id="XMLID_27_">
			<path id="XMLID_4_" class="st0" d="M138,83v33.1c0,0.5-0.4,1-1,1s-1-0.4-1-1V83"/>
		</g>
		<g id="XMLID_1_">
			<path id="XMLID_7_" class="st0" d="M55,108v5.1c0,0.5-0.4,1-1,1s-1-0.4-1-1V108"/>
		</g>
		<g id="XMLID_28_">
			<path id="XMLID_38_" class="st0" d="M109,120H82c-0.8,0-1.5-0.7-1.5-1.5s0.7-1.5,1.5-1.5h27c0.8,0,1.5,0.7,1.5,1.5
				S109.8,120,109,120z"/>
		</g>
	</g>
	<path class="st1" d="M76.8,43v-1.2c0-1.7,1.3-3,3-3h64.4c1.7,0,3,1.3,3,3v38.5c0,1.7-1.3,3-3,3h-34.4"/>
	<g>
		<path class="st2" d="M109.8,105.5c0,1.7-1.4,3-3,3H42.4c-1.7,0-3-1.3-3-3V63.8c0-1.7,1.3-3,3-3h64.4c1.6,0,3,1.3,3,3V105.5z"/>
	</g>
	<g id="XMLID_58_">
		<line id="XMLID_57_" class="st1" x1="55" y1="146" x2="106" y2="146"/>
		<line id="XMLID_36_" class="st1" x1="115" y1="146" x2="135" y2="146"/>
	</g>
	<circle class="st3" cx="134.9" cy="51.3" r="6.6"/>
	<circle class="st4" cx="123.8" cy="51.3" r="6.6"/>
	<g>
		<path class="st5" d="M106.7,107.5H43.9c-1.1,0-2.1-0.9-2.1-2.1V65.2c0-1.1,0.9-2.1,2.1-2.1h62.8c1.1,0,2.1,0.9,2.1,2.1v40.2
			C108.8,106.6,107.9,107.5,106.7,107.5z"/>
	</g>
	<g transform="translate(0,-952.36218)">
		<g>
			<path class="st6" d="M70.5,1052.1c-0.8,0-1.5-0.3-2.1-0.9c-0.5-0.6-0.9-1.3-0.8-2v-0.9c-1.4-0.2-2.6-1.4-2.6-2.9
				c0-1.1,0.6-2.1,1.5-2.6c-0.9-0.5-1.5-1.5-1.5-2.6c0-1.4,1.2-2.7,2.6-2.9v-4.4c-0.7-0.1-1.2-0.4-1.7-0.8c-0.6-0.6-0.9-1.3-0.9-2.1
				c0-1.6,1.1-2.8,2.7-2.9l10.5,0c4.4,0,8,3.6,8,8c0,3.5-2.3,6.6-5.5,7.6c1,0.5,1.6,1.5,1.6,2.6c0,1.6-1.3,2.9-2.9,2.9h-6v0.9
				c0,0.7-0.3,1.5-0.9,2C72,1051.8,71.3,1052.1,70.5,1052.1z M78.2,1037.3c1.2,0,2.2-1,2.2-2.2s-1-2.2-2.2-2.2h-4.8v4.4H78.2z"/>
			<path class="st0" d="M67.7,1028L67.7,1028c3.5,0,7,0,10.5,0c3.8,0,7,3.1,7,7s-3.2,7-7,7h-5.8v1.3h7c1.1,0,1.9,0.9,1.9,1.9
				s-0.9,1.9-1.9,1.9h-7v1.9c0,1-0.9,1.9-1.9,1.9s-1.9-0.9-1.9-1.9v-1.9h-0.6c-1.1,0-1.9-0.9-1.9-1.9s0.9-1.9,1.9-1.9h0.6v-1.3h-0.6
				c0,0,0,0,0,0c-1,0-1.9-0.9-1.9-1.9c0-1,0.9-1.9,1.9-1.9c0,0,0,0,0,0h0.6v-6.4h-0.6c0,0-0.1,0-0.1,0c-1,0-1.9-0.9-1.8-1.9
				C66,1028.8,66.7,1028.1,67.7,1028 M72.4,1038.3h5.8c1.7,0,3.2-1.4,3.2-3.2c0-1.8-1.5-3.2-3.2-3.2h-5.8V1038.3 M78.2,1026H67.7
				h-0.1l-0.1,0c-2.1,0.1-3.6,1.7-3.6,3.9c0,1,0.4,2,1.1,2.8c0.4,0.4,0.9,0.7,1.4,0.9v2.9c-0.5,0.2-1,0.5-1.4,0.9
				c-0.7,0.7-1.1,1.7-1.1,2.7c0,1,0.4,1.9,1,2.6c-0.6,0.7-1,1.6-1,2.6c0,1.7,1.1,3.1,2.6,3.7v0.2c0,1,0.4,2,1.1,2.7
				c0.7,0.8,1.8,1.2,2.8,1.2c1,0,2-0.4,2.8-1.2c0.7-0.7,1.1-1.7,1.1-2.7h5c2.2,0,3.9-1.8,3.9-3.9c0-0.9-0.3-1.7-0.8-2.4
				c2.8-1.6,4.6-4.5,4.6-7.9C87.2,1030.1,83.2,1026,78.2,1026L78.2,1026z M74.4,1033.9h3.8c0.6,0,1.2,0.5,1.2,1.2s-0.6,1.2-1.2,1.2
				h-3.8V1033.9L74.4,1033.9z"/>
		</g>
	</g>
	<g>
		<polygon class="st7" points="70.5,64.7 70.4,64.9 76,64.9 76.2,64.7 82.7,55.9 76.2,47.2 70.5,47.2 77.1,55.9 		"/>
		<polygon class="st7" points="58.4,66.8 58.2,67 65.3,67 65.5,66.8 73.6,55.9 65.5,45.1 58.4,45.1 66.6,55.9 		"/>
		<polygon class="st8" points="44.4,69.1 52.9,69.1 53.1,68.8 62.8,55.9 53.1,43 44.6,43 54.3,55.9 44.6,68.8 		"/>
	</g>
</g>
</svg>
