<?xml version="1.0" encoding="utf-8"?>
<!-- Generator: Adobe Illustrator 21.0.2, SVG Export Plug-In . SVG Version: 6.00 Build 0)  -->
<svg version="1.1" id="Isolation_Mode" xmlns="http://www.w3.org/2000/svg" xmlns:xlink="http://www.w3.org/1999/xlink" x="0px"
	 y="0px" viewBox="0 0 65.3 68.2" style="enable-background:new 0 0 65.3 68.2;" xml:space="preserve">
<style type="text/css">
	.st0{fill:#009ae9;}
	.st1{opacity:0.9;fill:#009ae9;}
	.st2{opacity:0.8;fill:#009ae9;}
	.st3{opacity:0.7;fill:#009ae9;}
	.st4{opacity:0.6;fill:#009ae9;}
	.st5{opacity:0.5;fill:#009ae9;}
	.st6{opacity:0.4;fill:#009ae9;}
	.st7{opacity:0.3;fill:#009ae9;}
	.st8{opacity:0.2;fill:#009ae9;}
	.st9{opacity:0.1;fill:#009ae9;}
</style>
<g>
	<ellipse transform="matrix(0.809 -0.5878 0.5878 0.809 -24.2985 40.1373)" class="st0" cx="49.6" cy="57.5" rx="4.1" ry="4.1"/>
	<ellipse transform="matrix(0.309 -0.9511 0.9511 0.309 0.6027 86.8916)" class="st1" cx="60.1" cy="43" rx="4.1" ry="4.1"/>
	<ellipse transform="matrix(0.9511 -0.309 0.309 0.9511 -4.8444 19.8056)" class="st2" cx="60.1" cy="25.2" rx="4.1" ry="4.1"/>
	<ellipse transform="matrix(0.5878 -0.809 0.809 0.5878 11.7431 44.5788)" class="st3" cx="49.6" cy="10.8" rx="4.1" ry="4.1"/>
	<circle class="st4" cx="32.7" cy="5.3" r="4.1"/>
	<ellipse transform="matrix(0.809 -0.5878 0.5878 0.809 -3.3315 11.2788)" class="st5" cx="15.7" cy="10.8" rx="4.1" ry="4.1"/>
	<ellipse transform="matrix(0.309 -0.9511 0.9511 0.309 -20.3642 22.362)" class="st6" cx="5.2" cy="25.2" rx="4.1" ry="4.1"/>
	<ellipse transform="matrix(0.9511 -0.309 0.309 0.9511 -13.0422 3.7151)" class="st7" cx="5.2" cy="43" rx="4.1" ry="4.1"/>
	<ellipse transform="matrix(0.5878 -0.809 0.809 0.5878 -40.0185 36.3799)" class="st8" cx="15.7" cy="57.5" rx="4.1" ry="4.1"/>
	<circle class="st9" cx="32.7" cy="63" r="4.1"/>
</g>
</svg>
