<?xml version="1.0" encoding="utf-8"?>
<!-- Generator: Adobe Illustrator 21.1.0, SVG Export Plug-In . SVG Version: 6.00 Build 0)  -->
<svg version="1.1" id="Layer_1" xmlns="http://www.w3.org/2000/svg" xmlns:xlink="http://www.w3.org/1999/xlink" x="0px" y="0px"
	 viewBox="0 0 26 18" style="enable-background:new 0 0 26 18;" xml:space="preserve">
<style type="text/css">
	.st0{fill:#F9F9FF;}
</style>
<g>
	<path class="st0" d="M7.6,9.4H7.4c-0.4,0-0.5,0.1-0.5,0.4C6.9,9.9,7,10,7.1,10c0.1,0,0.2-0.1,0.3-0.2C7.5,9.7,7.6,9.6,7.6,9.4z
		 M12,9h0.7v0c0,0,0-0.1,0.1-0.1c0,0,0,0,0-0.1c0,0,0-0.1,0-0.1c0,0,0-0.1-0.1-0.1c-0.1,0-0.1,0-0.1-0.1c0,0,0,0-0.1,0
		C12.3,8.6,12.1,8.7,12,9L12,9L12,9z M18.1,9.4H18c-0.4,0-0.5,0.1-0.5,0.4c0,0.2,0.1,0.2,0.2,0.2c0.1,0,0.2-0.1,0.3-0.2
		C18.1,9.7,18.1,9.6,18.1,9.4z M21.7,9.1c0-0.3-0.1-0.5-0.3-0.5c-0.1,0-0.3,0.1-0.4,0.2c-0.1,0.2-0.1,0.3-0.1,0.6
		c0,0.3,0.1,0.5,0.3,0.5c0.2,0,0.3-0.1,0.4-0.2C21.7,9.6,21.7,9.4,21.7,9.1z M5.4,7.5h1l-0.5,3H5.3l0.4-2.3l-0.8,2.3H4.4l0-2.3
		L4,10.5H3.4l0.5-3h0.9l0,1.8L5.4,7.5z M8.3,8.7c0,0,0,0.2,0,0.5C8.1,10,8,10.4,8,10.5H7.5l0-0.2c-0.2,0.2-0.4,0.3-0.7,0.3
		c-0.2,0-0.3-0.1-0.4-0.2c-0.1-0.1-0.2-0.3-0.2-0.5c0-0.3,0.1-0.5,0.3-0.7C6.8,9,7,9,7.4,9c0.1,0,0.2,0,0.3,0c0,0,0,0,0.1-0.1
		c0,0,0,0,0-0.1c0,0,0,0,0.1,0c0-0.2-0.1-0.2-0.4-0.2c-0.2,0-0.4,0-0.7,0.1c0,0,0-0.2,0.1-0.5C7.1,8.1,7.3,8,7.5,8
		c0.6,0,0.8,0.2,0.8,0.7L8.3,8.7L8.3,8.7z M10,8.1L9.9,8.6c-0.2,0-0.3,0-0.5,0c-0.2,0-0.3,0.1-0.3,0.2c0,0.1,0,0.1,0.1,0.1
		S9.3,9,9.5,9.1c0.3,0.1,0.5,0.4,0.5,0.7c0,0.5-0.3,0.8-1,0.8c-0.3,0-0.5,0-0.7-0.1c0,0,0-0.2,0.1-0.6C8.6,10,8.8,10,8.9,10
		c0.2,0,0.4-0.1,0.4-0.2c0-0.1,0-0.1-0.1-0.1c0,0-0.1-0.1-0.2-0.1C8.7,9.4,8.5,9.1,8.5,8.8C8.5,8.3,8.8,8,9.5,8
		C9.7,8,9.9,8.1,10,8.1L10,8.1z M11,8.1h0.3l-0.1,0.6h-0.3c0,0.1,0,0.3-0.1,0.5c0,0.2-0.1,0.3-0.1,0.4s0,0.2,0,0.2
		c0,0.1,0.1,0.2,0.2,0.2c0.1,0,0.1,0,0.2,0l-0.1,0.5c-0.2,0.1-0.3,0.1-0.5,0.1c-0.3,0-0.5-0.2-0.5-0.5c0-0.1,0-0.3,0.1-0.6
		c0-0.2,0.1-0.7,0.3-1.6h0.6L11,8.1z M13.3,8.9c0,0.2,0,0.4-0.1,0.6H12c0,0.2,0,0.3,0.1,0.4c0.1,0.1,0.2,0.1,0.4,0.1
		c0.2,0,0.4-0.1,0.7-0.2l-0.1,0.6c-0.2,0.1-0.4,0.1-0.6,0.1c-0.7,0-1.1-0.4-1.1-1.1c0-0.4,0.1-0.8,0.3-1S12.1,8,12.5,8
		c0.3,0,0.5,0.1,0.6,0.2C13.2,8.4,13.3,8.6,13.3,8.9L13.3,8.9z M14.9,8.1c-0.1,0.2-0.2,0.4-0.2,0.7c-0.2,0-0.3,0.1-0.4,0.3
		c-0.1,0.2-0.2,0.7-0.3,1.4h-0.6l0-0.2c0.2-1,0.3-1.7,0.3-2.2h0.6l0,0.4c0.1-0.2,0.2-0.3,0.3-0.3C14.7,8.1,14.8,8,14.9,8.1L14.9,8.1
		z M17,7.6l-0.1,0.6c-0.2-0.1-0.4-0.2-0.6-0.2c-0.2,0-0.4,0.1-0.6,0.3c-0.2,0.2-0.2,0.5-0.2,0.8c0,0.2,0.1,0.4,0.2,0.5
		c0.1,0.1,0.2,0.2,0.4,0.2c0.2,0,0.3,0,0.5-0.1l-0.1,0.7c-0.2,0.1-0.4,0.1-0.6,0.1c-0.3,0-0.6-0.1-0.8-0.3C15,10,14.9,9.7,14.9,9.3
		c0-0.5,0.1-1,0.4-1.3c0.3-0.3,0.6-0.5,1-0.5C16.5,7.5,16.7,7.5,17,7.6L17,7.6z M18.8,8.7c0,0.1,0,0.3,0,0.5c-0.1,0.6-0.2,1-0.2,1.3
		h-0.5l0-0.2c-0.2,0.2-0.4,0.3-0.7,0.3c-0.2,0-0.3-0.1-0.4-0.2c-0.1-0.1-0.2-0.3-0.2-0.5c0-0.3,0.1-0.5,0.3-0.7
		C17.3,9,17.6,9,17.9,9c0.1,0,0.2,0,0.3,0c0-0.1,0-0.1,0-0.1c0-0.2-0.1-0.2-0.4-0.2c-0.2,0-0.4,0-0.7,0.1c0,0,0-0.2,0.1-0.5
		C17.5,8.1,17.8,8,18,8C18.5,8,18.8,8.3,18.8,8.7L18.8,8.7z M20.4,8.1c-0.1,0.2-0.2,0.4-0.2,0.7c-0.2,0-0.3,0.1-0.4,0.3
		c-0.1,0.2-0.2,0.7-0.3,1.5h-0.6l0-0.2c0.1-0.8,0.3-1.5,0.3-2.2h0.6c0,0.1,0,0.2,0,0.4c0.1-0.2,0.2-0.3,0.3-0.3
		C20.2,8.1,20.3,8,20.4,8.1L20.4,8.1z M22,7.5h0.6l-0.5,3h-0.6l0-0.2c-0.2,0.2-0.4,0.3-0.6,0.3c-0.2,0-0.4-0.1-0.6-0.3
		c-0.1-0.2-0.2-0.4-0.2-0.7c0-0.4,0.1-0.7,0.3-1c0.2-0.3,0.4-0.4,0.7-0.4c0.2,0,0.4,0.1,0.6,0.3L22,7.5z M23.3,9
		c0-1.1-0.3-2.1-0.8-3.1c-0.5-0.9-1.3-1.7-2.2-2.2s-2-0.8-3.1-0.8c-1.4,0-2.6,0.4-3.7,1.2C14.4,5,15,6,15.3,7.3h-0.6
		c-0.3-1.1-0.9-2.1-1.8-2.9c-0.9,0.8-1.5,1.7-1.8,2.9h-0.6C11,6,11.6,5,12.6,4.1c-1.1-0.8-2.3-1.2-3.7-1.2c-1.1,0-2.1,0.3-3.1,0.8
		S4.1,5,3.6,5.9C3,6.9,2.7,7.9,2.7,9c0,1.1,0.3,2.1,0.8,3.1c0.5,0.9,1.3,1.7,2.2,2.2c0.9,0.5,2,0.8,3.1,0.8c1.4,0,2.6-0.4,3.7-1.2
		c-0.9-0.8-1.5-1.8-1.9-3h0.6c0.3,1,0.9,1.9,1.7,2.6c0.8-0.7,1.4-1.6,1.7-2.6h0.6c-0.3,1.2-1,2.1-1.9,3c1.1,0.8,2.3,1.2,3.7,1.2
		c1.1,0,2.1-0.3,3.1-0.8c0.9-0.5,1.7-1.3,2.2-2.2C23,11.1,23.3,10.1,23.3,9L23.3,9z M26,1.8v14.4c0,0.4-0.1,0.7-0.4,1
		s-0.6,0.4-1,0.4H1.4c-0.4,0-0.7-0.1-1-0.4C0.1,17,0,16.6,0,16.2V1.8c0-0.4,0.1-0.7,0.4-1s0.6-0.4,1-0.4h23.1c0.4,0,0.7,0.1,1,0.4
		C25.9,1,26,1.4,26,1.8z"/>
</g>
</svg>
