<?xml version="1.0" encoding="utf-8"?>
<!-- Generator: Adobe Illustrator 19.0.0, SVG Export Plug-In . SVG Version: 6.00 Build 0)  -->
<svg version="1.1" id="Layer_1" xmlns="http://www.w3.org/2000/svg" xmlns:xlink="http://www.w3.org/1999/xlink" x="0px" y="0px"
	 viewBox="252 6.5 52 31" style="enable-background:new 252 6.5 52 31;" xml:space="preserve">
<style type="text/css">
	.st0{fill:#FF9900;}
	.st1{fill:#CC0000;}
	.st2{fill:#FCB340;}
	.st3{fill:#000066;}
	.st4{fill:#FFFFFF;}
</style>
<g id="layer1">
	<g id="g10305">
		<path id="path2268" class="st0" d="M304,22c0,8.6-7,15.5-15.6,15.5c-8.6,0-15.6-6.9-15.6-15.5c0,0,0,0,0,0c0-8.6,7-15.5,15.6-15.5
			C297,6.5,304,13.4,304,22C304,22,304,22,304,22z"/>
		<path id="path1350" class="st1" d="M267.5,6.5c-8.5,0.1-15.5,7-15.5,15.5c0,8.6,7,15.5,15.6,15.5c4,0,7.7-1.5,10.5-4c0,0,0,0,0,0
			h0c0.6-0.5,1.1-1.1,1.6-1.7h-3.2c-0.4-0.5-0.8-1-1.2-1.6h5.5c0.3-0.5,0.6-1.1,0.9-1.7h-7.3c-0.2-0.5-0.5-1.1-0.7-1.6h8.6
			c0.5-1.5,0.8-3.2,0.8-4.9c0-1.1-0.1-2.2-0.4-3.3h-9.5c0.1-0.6,0.3-1.1,0.4-1.6h8.6c-0.2-0.6-0.4-1.1-0.7-1.7h-7.3
			c0.3-0.6,0.6-1.1,0.9-1.6h5.5c-0.4-0.6-0.8-1.1-1.2-1.7h-3.1c0.5-0.6,1-1.1,1.6-1.6c-2.8-2.5-6.4-4-10.5-4
			C267.5,6.5,267.5,6.5,267.5,6.5z"/>
		<path id="use9412" class="st2" d="M302.4,30.1c0.1,0,0.2,0,0.2,0.1c0.1,0,0.1,0.1,0.2,0.2c0,0.1,0.1,0.2,0.1,0.3
			c0,0.1,0,0.2-0.1,0.2c0,0.1-0.1,0.1-0.2,0.2c-0.1,0-0.2,0.1-0.3,0.1c-0.1,0-0.2,0-0.3-0.1c-0.1,0-0.1-0.1-0.2-0.2
			c0-0.1-0.1-0.2-0.1-0.2c0-0.1,0-0.2,0.1-0.3c0-0.1,0.1-0.1,0.2-0.2C302.3,30.1,302.4,30.1,302.4,30.1 M302.4,30.2
			c-0.1,0-0.1,0-0.2,0.1c-0.1,0-0.1,0.1-0.2,0.2c0,0.1-0.1,0.1-0.1,0.2c0,0.1,0,0.1,0.1,0.2c0,0.1,0.1,0.1,0.2,0.2
			c0.1,0,0.1,0.1,0.2,0.1c0.1,0,0.1,0,0.2-0.1c0.1,0,0.1-0.1,0.2-0.2c0-0.1,0.1-0.1,0.1-0.2c0-0.1,0-0.1-0.1-0.2
			c0-0.1-0.1-0.1-0.2-0.2C302.6,30.2,302.5,30.2,302.4,30.2 M302.2,30.9v-0.5h0.2c0.1,0,0.1,0,0.1,0c0,0,0.1,0,0.1,0.1
			c0,0,0,0.1,0,0.1c0,0,0,0.1,0,0.1c0,0-0.1,0-0.1,0c0,0,0,0,0,0c0,0,0,0.1,0.1,0.1l0.1,0.1h-0.1l0-0.1c0-0.1-0.1-0.1-0.1-0.1
			c0,0,0,0-0.1,0h-0.1L302.2,30.9L302.2,30.9 M302.3,30.6h0.1c0.1,0,0.1,0,0.1,0c0,0,0,0,0-0.1c0,0,0,0,0,0c0,0,0,0,0,0
			c0,0,0,0-0.1,0h-0.1L302.3,30.6"/>
	</g>
	<g id="g16480">
		<g id="g13802" transform="translate(-13.74405,15.9939)">
			<path id="path13804" class="st3" d="M286.5,10.5l0.2-1.4c-0.1,0-0.3,0-0.4,0c-0.6,0-0.6-0.3-0.6-0.5l0.6-2.8h0.9l0.2-1.6h-0.8
				l0.2-1h-1.7c0,0-1,5.4-1,6.1c0,1,0.5,1.4,1.3,1.4C285.8,10.7,286.3,10.5,286.5,10.5z"/>
			<path id="path13806" class="st3" d="M287,7.8c0,2.3,1.5,2.9,2.9,2.9c1.2,0,1.9-0.3,1.9-0.3l0.3-1.6c0,0-1,0.4-1.9,0.4
				c-1.8,0-1.5-1.3-1.5-1.3l3.4,0c0,0,0.2-1.1,0.2-1.5c0-1.1-0.6-2.4-2.4-2.4C288.2,4,287,5.8,287,7.8z M289.9,5.4
				c0.9,0,0.8,1,0.8,1.1h-1.8C288.8,6.5,289,5.4,289.9,5.4z"/>
			<path id="path13808" class="st3" d="M300.4,10.5l0.3-1.8c0,0-0.8,0.4-1.4,0.4c-1.2,0-1.6-0.9-1.6-1.9c0-1.9,1-3,2.1-3
				c0.8,0,1.5,0.5,1.5,0.5l0.3-1.7c0,0-0.8-0.6-1.7-0.6c-2.6,0-4.1,1.8-4.1,4.9c0,2.1,1.1,3.5,3.1,3.5
				C299.5,10.7,300.4,10.5,300.4,10.5z"/>
			<path id="path13810" class="st3" d="M277.4,4c-1.1,0-2,0.4-2,0.4l-0.2,1.4c0,0,0.7-0.3,1.8-0.3c0.6,0,1.1,0.1,1.1,0.6
				c0,0.3-0.1,0.4-0.1,0.4s-0.5,0-0.7,0c-1.6,0-2.9,0.6-2.9,2.4c0,1.4,1,1.8,1.6,1.8c1.2,0,1.6-0.7,1.7-0.7l0,0.6c0,0,1.5,0,1.5,0
				l0.7-4.5C279.6,4.1,277.9,4,277.4,4z M277.6,7.7c0,0.3-0.1,1.6-1.1,1.6c-0.5,0-0.6-0.4-0.6-0.6c0-0.5,0.2-1,1.5-1
				C277.6,7.7,277.6,7.7,277.6,7.7z"/>
			<path id="path13812" class="st3" d="M281.2,10.6c0.4,0,2.5,0.1,2.5-2.1c0-2-2-1.6-2-2.5c0-0.4,0.3-0.5,0.9-0.5
				c0.2,0,1.1,0.1,1.1,0.1l0.2-1.5c0,0-0.6-0.1-1.5-0.1c-1.2,0-2.5,0.5-2.5,2.2c0,1.9,2.1,1.7,2.1,2.5c0,0.5-0.6,0.6-1,0.6
				c-0.8,0-1.5-0.3-1.5-0.3l-0.2,1.4C279.4,10.4,279.8,10.6,281.2,10.6z"/>
			<path id="path13814" class="st3" d="M314.1,2.7l-0.3,2.2c0,0-0.6-0.9-1.6-0.9c-1.8,0-2.8,1.8-2.8,3.9c0,1.4,0.7,2.7,2.1,2.7
				c1,0,1.5-0.7,1.5-0.7l-0.1,0.6h1.6l1.3-7.8L314.1,2.7z M313.3,7c0,0.9-0.4,2-1.3,2c-0.6,0-0.9-0.5-0.9-1.3c0-1.3,0.6-2.1,1.3-2.1
				C313,5.6,313.3,6,313.3,7z"/>
			<path id="path13816" class="st3" d="M268.4,10.5l1-5.9l0.1,5.9h1.1l2.1-5.9l-0.9,5.9h1.7l1.3-7.9l-2.7,0l-1.6,4.8l0-4.8h-2.5
				l-1.3,7.9L268.4,10.5L268.4,10.5z"/>
			<path id="path13818" class="st3" d="M293.9,10.5c0.5-2.7,0.7-4.9,2.1-4.4c0.2-1.1,0.7-2,0.9-2.4c0,0-0.1-0.1-0.5-0.1
				c-0.7,0-1.7,1.5-1.7,1.5l0.1-0.9h-1.5l-1,6.4L293.9,10.5L293.9,10.5z"/>
			<g id="use14699" transform="translate(845.3001,0)">
				<path id="path13810_1_" class="st3" d="M-541.4,4c-1.1,0-2,0.4-2,0.4l-0.2,1.4c0,0,0.7-0.3,1.8-0.3c0.6,0,1.1,0.1,1.1,0.6
					c0,0.3-0.1,0.4-0.1,0.4s-0.5,0-0.7,0c-1.6,0-2.9,0.6-2.9,2.4c0,1.4,1,1.8,1.6,1.8c1.2,0,1.6-0.7,1.7-0.7l0,0.6h1.5l0.7-4.5
					C-539.2,4.1-540.8,4-541.4,4z M-541.2,7.7c0,0.3-0.1,1.6-1.1,1.6c-0.5,0-0.6-0.4-0.6-0.6c0-0.5,0.2-1,1.5-1
					C-541.2,7.7-541.2,7.7-541.2,7.7z"/>
			</g>
			<path id="use14701" class="st3" d="M307.8,10.5c0.3-2,0.8-4.8,2.1-4.4c0.2-1.1,0-1.1-0.4-1.1c-0.7,0-0.9,0-0.9,0l0.1-0.9h-1.5
				l-1,6.4L307.8,10.5L307.8,10.5z"/>
		</g>
		<g id="g10289">
			<path id="path4157" class="st4" d="M273.2,25.9l0.2-1.4c-0.1,0-0.3,0-0.4,0c-0.6,0-0.6-0.3-0.6-0.5l0.5-2.9h0.9l0.2-1.6h-0.8
				l0.2-1h-1.7c0,0-1,5.4-1,6.1c0,1,0.5,1.4,1.3,1.4C272.5,26.2,273,26,273.2,25.9z"/>
			<path id="path4155" class="st4" d="M273.7,23.3c0,2.3,1.5,2.9,2.9,2.9c1.2,0,1.8-0.3,1.8-0.3l0.3-1.6c0,0-0.9,0.4-1.8,0.4
				c-1.8,0-1.5-1.3-1.5-1.3h3.4c0,0,0.2-1.1,0.2-1.5c0-1.1-0.5-2.4-2.4-2.4C274.9,19.5,273.7,21.3,273.7,23.3z M276.6,20.9
				c0.9,0,0.8,1,0.8,1.1h-1.8C275.5,22,275.7,20.9,276.6,20.9z"/>
			<path id="path4151" class="st4" d="M287.1,25.9l0.3-1.8c0,0-0.8,0.4-1.4,0.4c-1.2,0-1.6-0.9-1.6-1.9c0-1.9,1-3,2.1-3
				c0.8,0,1.5,0.5,1.5,0.5l0.3-1.7c0,0-1-0.4-1.9-0.4c-1.9,0-3.8,1.7-3.8,4.8c0,2.1,1,3.4,3,3.4C286.2,26.2,287.1,25.9,287.1,25.9z"
				/>
			<path id="path4149" class="st4" d="M264,19.5c-1.1,0-2,0.4-2,0.4l-0.2,1.4c0,0,0.7-0.3,1.8-0.3c0.6,0,1.1,0.1,1.1,0.6
				c0,0.3-0.1,0.4-0.1,0.4s-0.5,0-0.7,0c-1.4,0-2.9,0.6-2.9,2.4c0,1.4,1,1.8,1.6,1.8c1.2,0,1.7-0.8,1.7-0.8l-0.1,0.6h1.5l0.7-4.5
				C266.3,19.6,264.6,19.5,264,19.5z M264.4,23.2c0,0.3-0.2,1.6-1.2,1.6c-0.5,0-0.6-0.4-0.6-0.6c0-0.5,0.2-1,1.5-1
				C264.3,23.2,264.4,23.2,264.4,23.2z"/>
			<path id="path4145" class="st4" d="M267.9,26.1c0.4,0,2.5,0.1,2.5-2.1c0-2-2-1.6-2-2.5c0-0.4,0.3-0.5,0.9-0.5
				c0.2,0,1.1,0.1,1.1,0.1l0.2-1.5c0,0-0.6-0.1-1.5-0.1c-1.2,0-2.5,0.5-2.5,2.2c0,1.9,2.1,1.7,2.1,2.5c0,0.5-0.6,0.6-1,0.6
				c-0.8,0-1.5-0.3-1.5-0.3l-0.2,1.4C266.1,25.9,266.5,26.1,267.9,26.1z"/>
			<path id="path4139" class="st4" d="M300.8,18.2l-0.4,2.2c0,0-0.6-0.9-1.6-0.9c-1.5,0-2.8,1.8-2.8,3.9c0,1.4,0.7,2.7,2.1,2.7
				c1,0,1.5-0.7,1.5-0.7l-0.1,0.6h1.6l1.3-7.8L300.8,18.2z M300,22.5c0,0.9-0.4,2-1.3,2c-0.6,0-0.9-0.5-0.9-1.3
				c0-1.3,0.6-2.1,1.3-2.1C299.7,21.1,300,21.5,300,22.5z"/>
			<path id="path4133" class="st4" d="M255.1,26l1-5.9l0.1,5.9h1.1l2.1-5.9l-0.9,5.9h1.7l1.3-7.9h-2.6l-1.6,4.8l-0.1-4.8h-2.4
				l-1.3,7.9C253.5,26,255.1,26,255.1,26z"/>
			<path id="path4131" class="st4" d="M280.6,26c0.5-2.7,0.6-4.9,1.7-4.5c0.2-1.1,0.4-1.5,0.6-1.9c0,0-0.1,0-0.3,0
				c-0.7,0-1.3,1-1.3,1l0.1-0.9h-1.5l-1,6.4H280.6z"/>
			<g id="use8523" transform="translate(847.0062,0)">
				<path id="path4149_1_" class="st4" d="M-556.1,19.5c-1.1,0-2,0.4-2,0.4l-0.2,1.4c0,0,0.7-0.3,1.8-0.3c0.6,0,1.1,0.1,1.1,0.6
					c0,0.3-0.1,0.4-0.1,0.4s-0.5,0-0.7,0c-1.4,0-2.9,0.6-2.9,2.4c0,1.4,1,1.8,1.6,1.8c1.2,0,1.7-0.8,1.7-0.8l-0.1,0.6
					c0,0,1.5,0,1.5,0l0.7-4.5C-553.8,19.6-555.5,19.5-556.1,19.5z M-555.7,23.2c0,0.3-0.2,1.6-1.2,1.6c-0.5,0-0.6-0.4-0.6-0.6
					c0-0.5,0.2-1,1.5-1C-555.8,23.2-555.8,23.2-555.7,23.2z"/>
			</g>
			<g id="use8525" transform="translate(442.2857,0)">
				<path id="path4131_1_" class="st4" d="M-147.8,26c0.5-2.7,0.6-4.9,1.7-4.5c0.2-1.1,0.4-1.5,0.6-1.9c0,0-0.1,0-0.3,0
					c-0.7,0-1.3,1-1.3,1l0.1-0.9h-1.5l-1,6.4H-147.8z"/>
			</g>
			<path id="text9407" class="st4" d="M302.4,25.1c0.1,0,0.2,0,0.2,0.1c0.1,0,0.1,0.1,0.2,0.2c0,0.1,0.1,0.2,0.1,0.3
				c0,0.1,0,0.2-0.1,0.2c0,0.1-0.1,0.1-0.2,0.2c-0.1,0-0.2,0.1-0.3,0.1c-0.1,0-0.2,0-0.3-0.1c-0.1,0-0.1-0.1-0.2-0.2
				c0-0.1-0.1-0.2-0.1-0.2c0-0.1,0-0.2,0.1-0.3c0-0.1,0.1-0.1,0.2-0.2C302.3,25.1,302.3,25.1,302.4,25.1 M302.4,25.1
				c-0.1,0-0.1,0-0.2,0.1c-0.1,0-0.1,0.1-0.2,0.2c0,0.1-0.1,0.1-0.1,0.2s0,0.1,0.1,0.2c0,0.1,0.1,0.1,0.2,0.2c0.1,0,0.1,0.1,0.2,0.1
				c0.1,0,0.1,0,0.2-0.1c0.1,0,0.1-0.1,0.2-0.2c0-0.1,0.1-0.1,0.1-0.2s0-0.1-0.1-0.2c0-0.1-0.1-0.1-0.2-0.2
				C302.6,25.2,302.5,25.1,302.4,25.1 M302.2,25.8v-0.5h0.2c0.1,0,0.1,0,0.1,0c0,0,0.1,0,0.1,0.1c0,0,0,0.1,0,0.1c0,0,0,0.1,0,0.1
				c0,0-0.1,0-0.1,0c0,0,0,0,0,0c0,0,0,0.1,0.1,0.1l0.1,0.1h-0.1l0-0.1c0-0.1-0.1-0.1-0.1-0.1c0,0,0,0-0.1,0h-0.1L302.2,25.8
				L302.2,25.8 M302.3,25.5h0.1c0.1,0,0.1,0,0.1,0c0,0,0,0,0-0.1c0,0,0,0,0,0c0,0,0,0,0,0c0,0,0,0-0.1,0h-0.1L302.3,25.5"/>
		</g>
	</g>
</g>
</svg>
