<?xml version="1.0" encoding="utf-8"?>
<!-- Generator: Adobe Illustrator 21.0.0, SVG Export Plug-In . SVG Version: 6.00 Build 0)  -->
<svg version="1.1" id="Layer_1" xmlns="http://www.w3.org/2000/svg" xmlns:xlink="http://www.w3.org/1999/xlink" x="0px" y="0px"
	 viewBox="0 0 23 23" style="enable-background:new 0 0 23 23;" xml:space="preserve">
<style type="text/css">
	.st0{fill:#FFFFFF;}
</style>
<g>
	<path class="st0" d="M11.5,23c-1.1-0.6-2.2-1.1-3.1-1.7s-1.8-1.2-2.5-1.8c-0.7-0.6-1.4-1.2-1.9-1.8s-1-1.2-1.5-1.9
		c-0.4-0.8-0.8-1.4-1-1.9c-0.3-0.5-0.5-1.3-0.7-2.2S0.4,10,0.3,9.5C0.2,8.9,0.1,8.1,0.1,7C0,5.9,0,5,0,4.4s0-1.6,0-2.9
		C3.7,0.5,7.5,0,11.5,0S19.3,0.5,23,1.4c0,1.3,0,2.3,0,2.9C23,5,23,5.9,22.9,7s-0.1,1.9-0.2,2.5s-0.2,1.3-0.4,2.2
		c-0.2,0.9-0.4,1.6-0.7,2.2c-0.3,0.5-0.6,1.2-1,1.9c-0.4,0.8-0.9,1.4-1.5,1.9s-1.2,1.1-1.9,1.8c-0.7,0.6-1.6,1.2-2.5,1.8
		C13.7,21.9,12.6,22.4,11.5,23z M2.9,3.9c0,1.3,0,2.3,0,3c0,0.6,0.1,1.5,0.2,2.5c0.1,1,0.3,1.8,0.5,2.4c0.2,0.6,0.5,1.2,0.9,2
		c0.4,0.8,0.9,1.5,1.5,2s1.4,1.1,2.3,1.8c0.9,0.6,2,1.2,3.2,1.8c1.2-0.6,2.3-1.2,3.2-1.8c0.9-0.6,1.7-1.2,2.3-1.8
		c0.6-0.5,1.1-1.2,1.5-2s0.7-1.5,0.9-2c0.2-0.6,0.4-1.4,0.5-2.4s0.2-1.9,0.2-2.5s0-1.6,0-3c-2.7-0.7-5.6-1-8.6-1S5.6,3.2,2.9,3.9z"
		/>
</g>
</svg>
