<svg id="Слой_1" data-name="Слой 1" xmlns="http://www.w3.org/2000/svg" viewBox="0 0 97 97"><defs><style>.cls-1{fill:#eef3f4;}.cls-2{opacity:0.12;}.cls-3{fill:#32393f;}.cls-4{opacity:0.24;}.cls-5{opacity:0.84;}.cls-6{opacity:0.72;}.cls-7{opacity:0.6;}.cls-8{opacity:0.48;}.cls-9{opacity:0.36;}</style></defs><title>загрузка</title><path class="cls-1" d="M142.83,148.08H57.33a5.76,5.76,0,0,1-5.75-5.75V56.83a5.76,5.76,0,0,1,5.75-5.75h85.5a5.76,5.76,0,0,1,5.75,5.75v85.5A5.76,5.76,0,0,1,142.83,148.08Zm-85.5-94a2.75,2.75,0,0,0-2.75,2.75v85.5a2.75,2.75,0,0,0,2.75,2.75h85.5a2.75,2.75,0,0,0,2.75-2.75V56.83a2.75,2.75,0,0,0-2.75-2.75Z" transform="translate(-51.58 -51.08)"/><g class="cls-2"><path class="cls-3" d="M107.71,82.83a2.5,2.5,0,0,1-2.32-3.42l3.8-9.58a2.5,2.5,0,1,1,4.65,1.84L110,81.25A2.5,2.5,0,0,1,107.71,82.83Z" transform="translate(-51.58 -51.08)"/></g><g class="cls-4"><path class="cls-3" d="M119.18,93.83a2.5,2.5,0,0,1-1-4.79L127.55,85a2.5,2.5,0,1,1,2,4.59l-9.37,4.05A2.49,2.49,0,0,1,119.18,93.83Z" transform="translate(-51.58 -51.08)"/></g><path class="cls-3" d="M91.79,82.91a2.5,2.5,0,0,1-2.3-1.51l-4-9.29a2.5,2.5,0,1,1,4.59-2l4,9.29a2.5,2.5,0,0,1-2.29,3.49Z" transform="translate(-51.58 -51.08)"/><g class="cls-5"><path class="cls-3" d="M80.67,94.39a2.49,2.49,0,0,1-.92-.18l-9.42-3.73a2.5,2.5,0,1,1,1.84-4.65l9.42,3.73a2.5,2.5,0,0,1-.92,4.82Z" transform="translate(-51.58 -51.08)"/></g><g class="cls-6"><path class="cls-3" d="M71.62,114.4a2.5,2.5,0,0,1-1-4.8l9.32-4a2.5,2.5,0,0,1,2,4.59l-9.32,4A2.5,2.5,0,0,1,71.62,114.4Z" transform="translate(-51.58 -51.08)"/></g><g class="cls-7"><path class="cls-3" d="M88.66,130.92a2.5,2.5,0,0,1-2.32-3.42L90.11,118a2.5,2.5,0,0,1,4.65,1.84L91,129.34A2.5,2.5,0,0,1,88.66,130.92Z" transform="translate(-51.58 -51.08)"/></g><g class="cls-8"><path class="cls-3" d="M112.4,130.55a2.5,2.5,0,0,1-2.3-1.51l-4-9.28a2.5,2.5,0,0,1,4.59-2l4,9.28a2.5,2.5,0,0,1-2.29,3.49Z" transform="translate(-51.58 -51.08)"/></g><g class="cls-9"><path class="cls-3" d="M128.92,113.5a2.49,2.49,0,0,1-.92-.18l-9.58-3.79a2.5,2.5,0,0,1,1.84-4.65l9.58,3.79a2.5,2.5,0,0,1-.92,4.83Z" transform="translate(-51.58 -51.08)"/></g></svg>