<svg id="Слой_1" data-name="Слой 1" xmlns="http://www.w3.org/2000/svg" viewBox="0 0 100 100"><defs><style>.cls-1{fill:#fff;}.cls-2{fill:#f6911e;}</style></defs><title>adult only</title><circle class="cls-1" cx="50" cy="50" r="50"/><path d="M129.8,138.07V125.2L127.07,128l-1.7-1.77,4.8-4.85h2.55v16.67Z" transform="translate(-87.5 -80.5)"/><path d="M135.55,133.79c0-2.12,1.72-3.65,3.75-4.32-1.87-.6-3.47-1.82-3.47-3.95,0-3.07,3.15-4.37,6.12-4.37s6.12,1.3,6.12,4.37c0,2.12-1.62,3.35-3.5,3.95,2,.67,3.75,2.2,3.75,4.32,0,3-3,4.57-6.37,4.57S135.55,136.79,135.55,133.79Zm9.82-.37c0-1.72-2.4-2.5-3.42-2.62-1,.13-3.45.9-3.45,2.62,0,1.45,1.55,2.35,3.45,2.35S145.37,134.87,145.37,133.42ZM145.1,126c0-1.4-1.37-2.22-3.15-2.22s-3.17.82-3.17,2.22c0,1.57,2.15,2.17,3.17,2.35C143,128.15,145.1,127.55,145.1,126Z" transform="translate(-87.5 -80.5)"/><rect class="cls-2" x="66.83" y="32.96" width="3.3" height="5.25"/><rect class="cls-2" x="66.83" y="24.42" width="3.3" height="5.25"/><rect class="cls-2" x="61.58" y="29.66" width="5.25" height="3.3"/><rect class="cls-2" x="70.13" y="29.66" width="5.25" height="3.3"/><rect class="cls-2" x="66.83" y="29.66" width="3.3" height="3.3"/><path d="M137.5,157.5A27,27,0,1,1,148,105.62a1,1,0,0,1-.78,1.84A25,25,0,1,0,161,122a1,1,0,1,1,1.88-.68A27,27,0,0,1,137.5,157.5Z" transform="translate(-87.5 -80.5)"/></svg>