<svg id="Слой_1" data-name="Слой 1" xmlns="http://www.w3.org/2000/svg" viewBox="0 0 36.55 29.63"><defs><style>.cls-1{fill:#f6911e;}</style></defs><title>cash</title><path d="M177.32,156h-7.25v-2.76a15.3,15.3,0,0,1-9.71-.14V156h-7.25v-4.58a16.49,16.49,0,0,1-2.86-8.9h-.83c-1.94,0-2.73-2.45-2.73-3.47a1.18,1.18,0,0,1,.34-.87,1.27,1.27,0,0,1,.89-.34h0A1.17,1.17,0,0,1,149,139a1.18,1.18,0,0,0,1,1.31h.45a12.26,12.26,0,0,1,1.55-4,16,16,0,0,1,13-7.9h.16a15,15,0,0,1,9.16,2.48,5.6,5.6,0,0,1,4-1.4h.5v6.77a9.5,9.5,0,0,1,.77,2.25h3.63v9h-3.88a12,12,0,0,1-2,3.73Zm-6.25-1h5.25v-4.37l.21-.1a11.08,11.08,0,0,0,2-3.77l.11-.35h3.61v-7h-3.5l-.06-.43.5-.07-.5,0v-.12a7.53,7.53,0,0,0-.78-2.35l-.05-.1v-6a4.1,4.1,0,0,0-3.07,1.36l-.3.39-.69-.52a14.18,14.18,0,0,0-8.62-2.32H165a14.93,14.93,0,0,0-12.11,7.41,11.21,11.21,0,0,0-1.49,4.1l-.06.42H150a2.15,2.15,0,0,1-2-2.23.7.7,0,0,0-.1-.18c-.2,0-.2.14-.2.23,0,.6.52,2.47,1.73,2.47h1.87l0,.52A15.59,15.59,0,0,0,154,151l.1.13,0,.2V155h5.25v-3.29l.66.23c5.89,2,9.64.44,10.33.1l.72-.35Z" transform="translate(-146.69 -126.4)"/><circle cx="28.22" cy="12.54" r="1.18"/><path class="cls-1" d="M168.37,131.19a3.17,3.17,0,1,0-5.59.18A12.19,12.19,0,0,1,168.37,131.19Z" transform="translate(-146.69 -126.4)"/><path d="M162.65,131.66l-.1-.17a3.37,3.37,0,0,1-.46-1.68,3.42,3.42,0,1,1,6.84,0,3.39,3.39,0,0,1-.35,1.48l-.09.18-.19,0a12,12,0,0,0-5.48.18Zm2.87-4.77a2.92,2.92,0,0,0-2.92,2.92,2.84,2.84,0,0,0,.3,1.26,12.51,12.51,0,0,1,5.32-.18,2.85,2.85,0,0,0,.22-1.09A2.92,2.92,0,0,0,165.52,126.9Z" transform="translate(-146.69 -126.4)"/><path d="M162,132.16l-.38-.92a12.46,12.46,0,0,1,7.87-.29l-.3,1A11.66,11.66,0,0,0,162,132.16Z" transform="translate(-146.69 -126.4)"/></svg>