<svg id="Слой_1" data-name="Слой 1" xmlns="http://www.w3.org/2000/svg" viewBox="0 0 100 100"><defs><style>.cls-1{fill:#fff;}.cls-2{fill:#f6911f;}</style></defs><title>clock</title><circle class="cls-1" cx="50" cy="50" r="50"/><path class="cls-2" d="M168.94,130.5A31.44,31.44,0,0,0,137.5,99.06V130.5Z" transform="translate(-87.5 -80.5)"/><path d="M137.5,163.44a32.94,32.94,0,1,1,32.94-32.94A33,33,0,0,1,137.5,163.44Zm0-62.87a29.94,29.94,0,1,0,29.94,29.94A30,30,0,0,0,137.5,100.56Z" transform="translate(-87.5 -80.5)"/><path d="M155.14,131.5H136.5V114.78a1,1,0,0,1,2,0V129.5h16.64a1,1,0,0,1,0,2Z" transform="translate(-87.5 -80.5)"/><path d="M137.5,106.2a1.5,1.5,0,0,1-1.5-1.5v-1.13a1.5,1.5,0,1,1,3,0v1.13A1.5,1.5,0,0,1,137.5,106.2Z" transform="translate(-87.5 -80.5)"/><path d="M137.5,159.63a1.5,1.5,0,0,1-1.5-1.5V157a1.5,1.5,0,0,1,3,0v1.13A1.5,1.5,0,0,1,137.5,159.63Z" transform="translate(-87.5 -80.5)"/><path d="M164.78,132h-1.13a1.5,1.5,0,0,1,0-3h1.13a1.5,1.5,0,0,1,0,3Z" transform="translate(-87.5 -80.5)"/><path d="M111.35,132h-1.13a1.5,1.5,0,0,1,0-3h1.13a1.5,1.5,0,1,1,0,3Z" transform="translate(-87.5 -80.5)"/><path d="M156.79,151.33a1.5,1.5,0,0,1-1.06-.44l-.8-.8a1.5,1.5,0,0,1,2.12-2.12l.8.8a1.5,1.5,0,0,1-1.06,2.56Z" transform="translate(-87.5 -80.5)"/><path d="M119,113.54a1.5,1.5,0,0,1-1.06-.44l-.8-.8a1.5,1.5,0,1,1,2.12-2.12l.8.8a1.5,1.5,0,0,1-1.06,2.56Z" transform="translate(-87.5 -80.5)"/><path d="M118.21,151.33a1.5,1.5,0,0,1-1.06-2.56l.8-.8a1.5,1.5,0,1,1,2.12,2.12l-.8.8A1.5,1.5,0,0,1,118.21,151.33Z" transform="translate(-87.5 -80.5)"/><path d="M156,113.54a1.5,1.5,0,0,1-1.06-2.56l.8-.8a1.5,1.5,0,1,1,2.12,2.12l-.8.8A1.49,1.49,0,0,1,156,113.54Z" transform="translate(-87.5 -80.5)"/></svg>