<svg xmlns="http://www.w3.org/2000/svg" viewBox="0 0 100 100"><defs><style>.cls-1{fill:#fff;}.cls-2{fill:#f6911f;}</style></defs><title>confidential</title><g id="Слой_2" data-name="Слой 2"><circle class="cls-1" cx="50" cy="50" r="50"/><path d="M181.31,213.44a4,4,0,0,1-1.92-.5c-27.84-15.33-27.13-35.13-27-36.65V157.68a2.44,2.44,0,0,1,2.43-2.43h8.13c6.52,0,13.21-5.7,15.79-8.16a3.77,3.77,0,0,1,5.21,0c2.57,2.45,9.26,8.16,15.79,8.16h8.13a2.44,2.44,0,0,1,2.43,2.43v18.61c.1,1.52.81,21.33-27,36.65A4,4,0,0,1,181.31,213.44Zm-26-55.2v18.22c-.06.77-1.07,19.24,25.49,33.85a1,1,0,0,0,.94,0h0c26.67-14.68,25.5-33.67,25.48-33.85V158.25H199.7c-7.33,0-14.34-5.63-17.86-9a.77.77,0,0,0-1.07,0c-3.52,3.36-10.52,9-17.86,9Z" transform="translate(-131.68 -131.03)"/><circle class="cls-2" cx="73.3" cy="68.05" r="15.44"/><rect x="196.29" y="199.95" width="8.78" height="2.49" rx="0.48" ry="0.48" transform="translate(69.37 -214.01) rotate(45)"/><rect x="199.86" y="197.87" width="14.68" height="2.49" rx="0.48" ry="0.48" transform="translate(-211.79 73.8) rotate(-45)"/></g></svg>