<svg id="Слой_1" data-name="Слой 1" xmlns="http://www.w3.org/2000/svg" viewBox="0 0 100 100"><defs><style>.cls-1{fill:#fff;}.cls-2{fill:#f6911f;}</style></defs><title>create account</title><circle class="cls-1" cx="50" cy="50" r="50"/><path d="M165.49,164.24c-2.61-.06-9.74-.42-11.92-.76a23.26,23.26,0,0,1-3.34-1,41.06,41.06,0,0,0-7.78-2c-2-.26-3.21-.83-3.89-1.8-.93-1.33-.56-3-.17-4.81.09-.41.19-.84.27-1.29.73-3.85,4.79-8.92,7.92-9.86,2.22-.67,8.63-3.5,10.61-4.38v-5.51c-.26-.57-.45-1.05-.57-1.36-2.55-1.59-2.83-5.18-3-6.94l0-.41a2.27,2.27,0,0,1,.51-1.74,2.41,2.41,0,0,1,.88-.64v-4.41c1.24-9.15,10.06-8.52,10.15-8.51h.69s8.83-.63,10.07,8.52v4.41a2.41,2.41,0,0,1,.88.63,2.28,2.28,0,0,1,.51,1.74l0,.42c-.14,1.76-.41,5.35-3,6.94-.12.31-.31.8-.57,1.36v5.51c2,.88,8.39,3.72,10.61,4.38,3.12.94,7.19,6,7.92,9.86.08.45.18.88.27,1.29.4,1.79.77,3.48-.17,4.81-.68,1-1.92,1.55-3.89,1.8a41.09,41.09,0,0,0-7.79,2,23.26,23.26,0,0,1-3.34,1C175.18,163.83,168,164.18,165.49,164.24ZM157,117.57v5.9l-.94.06c-.5,0-.47.3-.46.43l0,.44c.11,1.48.35,4.56,2.24,5.51l.36.18.13.39a18.65,18.65,0,0,0,.71,1.73l.09.2v7.25l-.59.27c-.35.16-8.7,3.91-11.44,4.74-2.2.66-5.9,5-6.53,8.31-.09.47-.19.92-.28,1.35-.31,1.4-.58,2.62-.15,3.23a3.72,3.72,0,0,0,2.52,1,42.61,42.61,0,0,1,8.16,2.08,23,23,0,0,0,3,.88c1.95.31,8.79.67,11.61.74s9.61-.43,11.55-.74a23,23,0,0,0,3-.88,42.62,42.62,0,0,1,8.16-2.08,3.72,3.72,0,0,0,2.52-1c.43-.61.16-1.82-.15-3.23-.09-.43-.19-.88-.28-1.35h0c-.63-3.34-4.33-7.65-6.53-8.31-2.75-.83-11.09-4.58-11.44-4.74l-.59-.27v-7.25l.09-.2a18.71,18.71,0,0,0,.71-1.73l.13-.39.36-.18c1.88-1,2.12-4,2.24-5.51l0-.45a.36.36,0,0,0,0-.26.83.83,0,0,0-.42-.18l-.94-.06v-5.9a7.37,7.37,0,0,0-8-6.72h-.85C164.72,110.82,158,110.39,157,117.57Z" transform="translate(-115.47 -90.7)"/><circle class="cls-2" cx="51.03" cy="72.55" r="8.31"/><path class="cls-1" d="M166.5,167.33a.5.5,0,0,1-.5-.5v-7.17a.5.5,0,0,1,1,0v7.17A.5.5,0,0,1,166.5,167.33Z" transform="translate(-115.47 -90.7)"/><path class="cls-1" d="M170.08,163.74h-7.17a.5.5,0,0,1,0-1h7.17a.5.5,0,0,1,0,1Z" transform="translate(-115.47 -90.7)"/></svg>