<svg id="Слой_1" data-name="Слой 1" xmlns="http://www.w3.org/2000/svg" viewBox="0 0 100 100"><defs><style>.cls-1{fill:#fff;}.cls-2{fill:#f6911f;}</style></defs><title>create issue</title><circle class="cls-1" cx="50" cy="50" r="50"/><path d="M152.54,159.32H122.46a5.44,5.44,0,0,1-5.44-5.44V107.12a5.44,5.44,0,0,1,5.44-5.44h30.08a5.44,5.44,0,0,1,5.44,5.44v46.77A5.44,5.44,0,0,1,152.54,159.32Zm-30.08-54.64a2.44,2.44,0,0,0-2.44,2.44v46.77a2.44,2.44,0,0,0,2.44,2.44h30.08a2.44,2.44,0,0,0,2.44-2.44V107.12a2.44,2.44,0,0,0-2.44-2.44Z" transform="translate(-87.5 -80.5)"/><rect x="49.35" y="43.19" width="15.75" height="3"/><rect x="49.35" y="50.36" width="15.75" height="3"/><rect x="49.35" y="57.53" width="15.75" height="3"/><rect x="49.35" y="64.7" width="15.75" height="3"/><rect x="34.9" y="30.37" width="30.2" height="3"/><path class="cls-2" d="M124.92,128.56l-3.23-3.23a1,1,0,0,1,1.41-1.41l1.81,1.81,3.2-3.2a1,1,0,0,1,1.41,1.41Z" transform="translate(-87.5 -80.5)"/><path class="cls-2" d="M124.92,135.73l-3.23-3.23a1,1,0,0,1,1.41-1.41l1.81,1.81,3.2-3.2a1,1,0,0,1,1.41,1.41Z" transform="translate(-87.5 -80.5)"/><path class="cls-2" d="M124.92,142.9l-3.23-3.23a1,1,0,0,1,1.41-1.41l1.81,1.81,3.2-3.2a1,1,0,0,1,1.41,1.41Z" transform="translate(-87.5 -80.5)"/><path class="cls-2" d="M124.92,150.07l-3.23-3.23a1,1,0,0,1,1.41-1.41l1.81,1.81,3.2-3.2a1,1,0,0,1,1.41,1.41Z" transform="translate(-87.5 -80.5)"/></svg>