<svg id="Слой_1" data-name="Слой 1" xmlns="http://www.w3.org/2000/svg" viewBox="0 0 100 100"><defs><style>.cls-1{fill:#fff;}.cls-2{fill:#f6911e;}</style></defs><title>credit card</title><circle class="cls-1" cx="50" cy="50" r="50"/><path d="M163.52,149.85h-52a4.6,4.6,0,0,1-4.6-4.6V115.75a4.6,4.6,0,0,1,4.6-4.6h52a4.6,4.6,0,0,1,4.6,4.6v29.51A4.6,4.6,0,0,1,163.52,149.85Zm-52-36.71a2.6,2.6,0,0,0-2.6,2.6v29.51a2.6,2.6,0,0,0,2.6,2.6h52a2.6,2.6,0,0,0,2.6-2.6V115.75a2.6,2.6,0,0,0-2.6-2.6Z" transform="translate(-87.5 -80.5)"/><path d="M157.77,145.14a5.54,5.54,0,1,1,5.54-5.54A5.54,5.54,0,0,1,157.77,145.14Zm0-10.07a4.54,4.54,0,1,0,4.54,4.54A4.54,4.54,0,0,0,157.77,135.07Z" transform="translate(-87.5 -80.5)"/><path d="M151.83,145.14a5.54,5.54,0,1,1,5.54-5.54A5.54,5.54,0,0,1,151.83,145.14Zm0-10.07a4.54,4.54,0,1,0,4.54,4.54A4.54,4.54,0,0,0,151.83,135.07Z" transform="translate(-87.5 -80.5)"/><path d="M123.53,138.07H113.06a.5.5,0,1,1,0-1h10.47a.5.5,0,1,1,0,1Z" transform="translate(-87.5 -80.5)"/><path d="M138.15,138.07H127.69a.5.5,0,1,1,0-1h10.47a.5.5,0,0,1,0,1Z" transform="translate(-87.5 -80.5)"/><path d="M114.64,142.63h-1.58a.5.5,0,0,1,0-1h1.58a.5.5,0,1,1,0,1Z" transform="translate(-87.5 -80.5)"/><path d="M121.34,142.63h-2.67a.5.5,0,1,1,0-1h2.67a.5.5,0,0,1,0,1Z" transform="translate(-87.5 -80.5)"/><path d="M127,142.63h-1.84a.5.5,0,1,1,0-1H127a.5.5,0,0,1,0,1Z" transform="translate(-87.5 -80.5)"/><path d="M133.69,142.63h-2.89a.5.5,0,0,1,0-1h2.89a.5.5,0,0,1,0,1Z" transform="translate(-87.5 -80.5)"/><path d="M138.15,142.63h-.61a.5.5,0,0,1,0-1h.61a.5.5,0,0,1,0,1Z" transform="translate(-87.5 -80.5)"/><rect class="cls-2" x="25.56" y="38.31" width="14.39" height="10.83" rx="0.53" ry="0.53"/><path d="M126.92,130.14H113.58a1,1,0,0,1-1-1v-9.78a1,1,0,0,1,1-1h13.34a1,1,0,0,1,1,1v9.78A1,1,0,0,1,126.92,130.14Zm-13.34-10.83,0,9.81,13.36,0a0,0,0,0,0,0,0v-9.78Z" transform="translate(-87.5 -80.5)"/><rect x="30.41" y="38.31" width="1" height="10.83"/><path d="M127,130.14h-4.55a1,1,0,0,1-1-1v-5.91a1.58,1.58,0,0,1,1.58-1.58H127a1,1,0,0,1,1,1v6.52A1,1,0,0,1,127,130.14ZM123,122.69a.58.58,0,0,0-.58.58v5.91l4.52,0,0-6.45Z" transform="translate(-87.5 -80.5)"/><rect x="34.46" y="45.19" width="5.49" height="1"/><rect x="25.56" y="41.5" width="5.35" height="1"/><rect x="25.56" y="44.91" width="5.35" height="1"/></svg>