<svg id="Слой_1" data-name="Слой 1" xmlns="http://www.w3.org/2000/svg" viewBox="0 0 100 100"><defs><style>.cls-1{fill:#fff;}.cls-2{fill:#f6911f;}</style></defs><title>determination</title><circle class="cls-1" cx="50" cy="50" r="50"/><path d="M180.4,169.65H150.32a5.44,5.44,0,0,1-5.44-5.44V117.45a5.44,5.44,0,0,1,5.44-5.44H180.4a5.44,5.44,0,0,1,5.44,5.44v46.77A5.44,5.44,0,0,1,180.4,169.65ZM150.32,115a2.44,2.44,0,0,0-2.44,2.44v46.77a2.44,2.44,0,0,0,2.44,2.44H180.4a2.44,2.44,0,0,0,2.44-2.44V117.45A2.44,2.44,0,0,0,180.4,115Z" transform="translate(-115.36 -90.83)"/><rect x="45.77" y="43.19" width="19.33" height="3"/><rect x="45.77" y="50.36" width="19.33" height="3"/><rect x="45.77" y="57.53" width="19.33" height="3"/><rect x="45.77" y="64.7" width="19.33" height="3"/><rect x="34.9" y="30.37" width="30.2" height="3"/><path class="cls-2" d="M153,135.26c0-.75.92-.84.92-1.28,0-.2-.14-.36-.49-.36a1,1,0,0,0-.78.39l-.51-.58a1.81,1.81,0,0,1,1.38-.61c.81,0,1.31.41,1.31,1,0,.92-1.05,1-1.05,1.52a.38.38,0,0,0,.11.27l-.69.2A.81.81,0,0,1,153,135.26Zm0,1.4a.51.51,0,1,1,.51.51A.52.52,0,0,1,153,136.66Z" transform="translate(-115.36 -90.83)"/><path class="cls-2" d="M153,142.44c0-.75.92-.84.92-1.28,0-.2-.14-.36-.49-.36a1,1,0,0,0-.78.39l-.51-.58a1.81,1.81,0,0,1,1.38-.61c.81,0,1.31.41,1.31,1,0,.92-1.05,1-1.05,1.52a.38.38,0,0,0,.11.27l-.69.2A.81.81,0,0,1,153,142.44Zm0,1.4a.51.51,0,1,1,.51.51A.52.52,0,0,1,153,143.84Z" transform="translate(-115.36 -90.83)"/><path class="cls-2" d="M153,150.41c0-.75.92-.84.92-1.28,0-.2-.14-.36-.49-.36a1,1,0,0,0-.78.39l-.51-.58a1.81,1.81,0,0,1,1.38-.61c.81,0,1.31.41,1.31,1,0,.92-1.05,1-1.05,1.52a.38.38,0,0,0,.11.27l-.69.2A.81.81,0,0,1,153,150.41Zm0,1.4a.51.51,0,1,1,.51.51A.52.52,0,0,1,153,151.81Z" transform="translate(-115.36 -90.83)"/><path class="cls-2" d="M153,157.58c0-.75.92-.84.92-1.28,0-.2-.14-.36-.49-.36a1,1,0,0,0-.78.39l-.51-.58a1.81,1.81,0,0,1,1.38-.61c.81,0,1.31.41,1.31,1,0,.92-1.05,1-1.05,1.52a.38.38,0,0,0,.11.27l-.69.2A.81.81,0,0,1,153,157.58Zm0,1.4a.51.51,0,1,1,.51.51A.52.52,0,0,1,153,159Z" transform="translate(-115.36 -90.83)"/></svg>