<svg id="Слой_1" data-name="Слой 1" xmlns="http://www.w3.org/2000/svg" viewBox="0 0 99.88 99.88"><defs><style>.cls-1{fill:none;stroke:#343b40;stroke-miterlimit:10;stroke-width:2.99px;}.cls-2{fill:#343b40;}.cls-3{fill:#53ad70;}.cls-4{fill:#eef3f4;}</style></defs><title>открытый конверт</title><path class="cls-1" d="M76.33,91.83" transform="translate(-49.5 -49.75)"/><rect class="cls-2" x="75.3" y="87.49" width="8.9" height="2.99" transform="translate(-88 22.06) rotate(-39.87)"/><polygon class="cls-2" points="56.2 29.72 50.08 24.61 43.97 29.72 42.05 27.43 50.08 20.72 58.12 27.43 56.2 29.72"/><path class="cls-1" d="M106.66,78.32" transform="translate(-49.5 -49.75)"/><rect class="cls-2" x="117.92" y="84.53" width="2.99" height="8.9" transform="translate(-74.93 73.85) rotate(-50.13)"/><path class="cls-3" d="M117.5,97.27h-3V79.83H84.67V97.27h-3V79.83a3,3,0,0,1,3-3H114.5a3,3,0,0,1,3,3Z" transform="translate(-49.5 -49.75)"/><path class="cls-3" d="M102.45,103.36H89a1.43,1.43,0,0,1,0-2.85h13.41a1.43,1.43,0,0,1,0,2.85Z" transform="translate(-49.5 -49.75)"/><polygon class="cls-2" points="50.08 62.49 25.9 43.25 27.76 40.91 50.08 58.67 72.4 40.91 74.26 43.25 50.08 62.49"/><path class="cls-2" d="M122.83,126.58H76.33a2.83,2.83,0,0,1-2.83-2.83V93.17a2.83,2.83,0,0,1,2.83-2.83v3a.16.16,0,0,0,.16-.16v30.42h46.18V93.17a.16.16,0,0,0,.16.16v-3a2.83,2.83,0,0,1,2.83,2.83v30.58A2.83,2.83,0,0,1,122.83,126.58Z" transform="translate(-49.5 -49.75)"/><path class="cls-3" d="M109.52,88.49H89.65a1.43,1.43,0,1,1,0-2.85h19.87a1.43,1.43,0,1,1,0,2.85Z" transform="translate(-49.5 -49.75)"/><path class="cls-3" d="M109.52,97.3H89.65a1.43,1.43,0,1,1,0-2.85h19.87a1.43,1.43,0,1,1,0,2.85Z" transform="translate(-49.5 -49.75)"/><path class="cls-4" d="M143.63,149.63H55.25a5.76,5.76,0,0,1-5.75-5.75V55.5a5.76,5.76,0,0,1,5.75-5.75h88.38a5.76,5.76,0,0,1,5.75,5.75v88.38A5.76,5.76,0,0,1,143.63,149.63ZM55.25,52.75A2.75,2.75,0,0,0,52.5,55.5v88.38a2.75,2.75,0,0,0,2.75,2.75h88.38a2.75,2.75,0,0,0,2.75-2.75V55.5a2.75,2.75,0,0,0-2.75-2.75Z" transform="translate(-49.5 -49.75)"/></svg>