<svg id="Слой_1" data-name="Слой 1" xmlns="http://www.w3.org/2000/svg" viewBox="0 0 100 100"><defs><style>.cls-1{fill:#fff;}.cls-2{fill:#f6911f;}</style></defs><title>enter passport data</title><circle class="cls-1" cx="50" cy="50" r="50"/><path d="M181.33,169.92H149.67a4.76,4.76,0,0,1-4.75-4.75V116.5a4.76,4.76,0,0,1,4.75-4.75h31.66a4.76,4.76,0,0,1,4.75,4.75v48.67A4.76,4.76,0,0,1,181.33,169.92Zm-31.66-56.17a2.75,2.75,0,0,0-2.75,2.75v48.67a2.75,2.75,0,0,0,2.75,2.75h31.66a2.75,2.75,0,0,0,2.75-2.75V116.5a2.75,2.75,0,0,0-2.75-2.75Z" transform="translate(-115.5 -90.83)"/><path class="cls-2" d="M165.5,149a13.26,13.26,0,1,1,13.26-13.26A13.28,13.28,0,0,1,165.5,149Zm0-24.52a11.26,11.26,0,1,0,11.26,11.26A11.27,11.27,0,0,0,165.5,124.53Z" transform="translate(-115.5 -90.83)"/><path class="cls-2" d="M165.5,149c-4,0-7.13-5.83-7.13-13.26s3.13-13.26,7.13-13.26,7.13,5.83,7.13,13.26S169.5,149,165.5,149Zm0-24.52c-2.43,0-5.13,4.63-5.13,11.26S163.07,147,165.5,147s5.13-4.62,5.13-11.26S167.93,124.53,165.5,124.53Z" transform="translate(-115.5 -90.83)"/><rect class="cls-2" x="37.74" y="43.95" width="24.52" height="2"/><rect class="cls-2" x="49" y="32.69" width="2" height="24.52"/><path d="M177.76,157.5H153.24a1,1,0,0,1,0-2h24.52a1,1,0,1,1,0,2Z" transform="translate(-115.5 -90.83)"/></svg>