<svg id="Слой_1" data-name="Слой 1" xmlns="http://www.w3.org/2000/svg" viewBox="0 0 100 100"><defs><style>.cls-1{fill:#fff;}.cls-2{fill:#f6911f;}</style></defs><title>getting loan</title><circle class="cls-1" cx="50" cy="50" r="50"/><rect class="cls-2" x="47.3" y="51.42" width="2.51" height="19.85"/><path class="cls-2" d="M140.26,131.92H134.8V145h5.45a6.53,6.53,0,0,0,0-13.07Zm4.29,6.86a3.8,3.8,0,0,1-3.8,3.8h-3.44v-8.25h3.44a3.8,3.8,0,0,1,3.8,3.8Z" transform="translate(-87.5 -80.5)"/><rect class="cls-2" x="42.83" y="62.06" width="8.41" height="2.42"/><rect class="cls-2" x="42.83" y="67.06" width="12.65" height="2.42"/><path d="M145.1,159.69c-2.84,0-6.33,0-7.6-.07-2.08,0-10.19.14-11.5,0A19.27,19.27,0,0,1,114.81,152c-2.71-4.12-3.23-9.11-1.55-14.83,4.23-14.38,19-23,22.87-25a1.5,1.5,0,0,1,1.2-.6l3.1-1.49-.94,2.43c4.61,2.53,18.21,11,22.25,24.71,1.68,5.72,1.16,10.7-1.55,14.83A19.27,19.27,0,0,1,149,159.61C148.48,159.67,146.93,159.69,145.1,159.69Zm-10.34-43.34c-5.42,3.38-15.45,10.86-18.62,21.62-1.4,4.75-1,8.84,1.07,12.16a16.29,16.29,0,0,0,9.17,6.5c.85.11,7,.05,11,0h.34c3.92.06,10.1.11,11,0a16.3,16.3,0,0,0,9.16-6.5c2.11-3.32,2.47-7.41,1.07-12.16-3.58-12.15-15.9-20.12-20.47-22.72l-4.62,12a1.5,1.5,0,0,1-2.8-1.08Z" transform="translate(-87.5 -80.5)"/><path d="M131.1,116.18a4.27,4.27,0,1,1,0-8.55c1.53,0,6.84,2.07,6.84,4.27S132.59,116.18,131.1,116.18Zm0-5.55a1.27,1.27,0,1,0,0,2.55,9.53,9.53,0,0,0,3.14-1.28A9.45,9.45,0,0,0,131.1,110.63Z" transform="translate(-87.5 -80.5)"/><path d="M143.9,116.18c-1.49,0-6.84-2.12-6.84-4.27s5.3-4.27,6.84-4.27a4.27,4.27,0,0,1,0,8.55Zm-3.14-4.28a9.53,9.53,0,0,0,3.14,1.28,1.27,1.27,0,0,0,0-2.55A9.45,9.45,0,0,0,140.76,111.9Z" transform="translate(-87.5 -80.5)"/><path d="M137.5,113.94h0a2.46,2.46,0,0,1-2-1.1l-5.14-7.7a2.46,2.46,0,0,1,2-3.83h10.27a2.46,2.46,0,0,1,2,3.83l-5.14,7.7A2.46,2.46,0,0,1,137.5,113.94Zm-4.13-9.62,4.13,6.19,4.13-6.19Z" transform="translate(-87.5 -80.5)"/><path d="M142.62,127.76a1.5,1.5,0,0,1-1.39-.95L136.11,114a1.5,1.5,0,1,1,2.79-1.11L144,125.71a1.5,1.5,0,0,1-1.39,2.06Z" transform="translate(-87.5 -80.5)"/></svg>