<svg id="Слой_1" data-name="Слой 1" xmlns="http://www.w3.org/2000/svg" viewBox="0 0 22.58 27.25"><title>loans list</title><path d="M173.83,154.67H156.75a2.75,2.75,0,0,1-2.75-2.75V130.17a2.75,2.75,0,0,1,2.75-2.75h12.16l7.68,7.5v17A2.75,2.75,0,0,1,173.83,154.67Zm-17.08-25.25a.75.75,0,0,0-.75.75v21.75a.75.75,0,0,0,.75.75h17.08a.75.75,0,0,0,.75-.75V135.75l-6.49-6.34Z" transform="translate(-154 -127.42)"/><path d="M175.58,135.42h-6.3a1,1,0,0,1-1-1v-6Z" transform="translate(-154 -127.42)"/><rect x="8.13" y="12.82" width="10.71" height="1.31"/><rect x="8.13" y="16.69" width="10.71" height="1.31"/><rect x="8.13" y="20.56" width="10.71" height="1.31"/><circle cx="4.71" cy="13.45" r="0.75"/><circle cx="4.71" cy="17.32" r="0.75"/><circle cx="4.71" cy="21.19" r="0.75"/></svg>