<svg id="Слой_1" data-name="Слой 1" xmlns="http://www.w3.org/2000/svg" viewBox="0 0 46 46"><defs><style>.cls-1{fill:#020202;opacity:0.1;}.cls-1,.cls-4{fill-rule:evenodd;}.cls-2,.cls-4{opacity:0.3;}.cls-3{fill:#fff;}.cls-4{fill:none;stroke:#000;stroke-linecap:square;stroke-miterlimit:10;stroke-width:2px;}</style></defs><title>lock 2</title><path class="cls-1" d="M425.5,445.5a23,23,0,1,1-23,23A23,23,0,0,1,425.5,445.5Z" transform="translate(-402.5 -445.5)"/><g class="cls-2"><rect class="cls-3" x="13.5" y="21.5" width="18" height="14" rx="2" ry="2"/><path d="M432,468a1,1,0,0,1,1,1v10a1,1,0,0,1-1,1H418a1,1,0,0,1-1-1V469a1,1,0,0,1,1-1h14m0-2H418a3,3,0,0,0-3,3v10a3,3,0,0,0,3,3h14a3,3,0,0,0,3-3V469a3,3,0,0,0-3-3Z" transform="translate(-402.5 -445.5)"/></g><path class="cls-4" d="M420,465v-5.5a5,5,0,0,1,10,0V465" transform="translate(-402.5 -445.5)"/><g class="cls-2"><path d="M425,473.5v0m0-2a1.92,1.92,0,0,0-2,1.83v1.83a2,2,0,0,0,4,0v-1.83a1.92,1.92,0,0,0-2-1.83Z" transform="translate(-402.5 -445.5)"/></g></svg>