<svg xmlns="http://www.w3.org/2000/svg" width="27.5" height="26" viewBox="0 0 27.5 26"><defs><clipPath id="a"><path fill="#fff" d="M1519.72 63.72a.86.86 0 0 1-.26.18l-3.81 3.81a.96.96 0 0 1-1.36 0 .97.97 0 0 1 0-1.36l2.36-2.35H1504a1 1 0 0 1 0-2h12.64l-2.38-2.38a.98.98 0 0 1 0-1.36.97.97 0 0 1 1.37 0l3.87 3.87c.08.04.16.08.22.15.2.2.29.46.28.72a.96.96 0 0 1-.28.72z"/></clipPath></defs><path fill="none" stroke="#1e1e1e" stroke-miterlimit="50" stroke-width="2" d="M16.5 25H5.25A4.78 4.78 0 0 1 .5 20.2V5.8C.5 3.15 2.63 1 5.25 1H16.5"/><path fill="none" stroke="#1e1e1e" stroke-miterlimit="50" stroke-width="4" d="M1519.72 63.72a.86.86 0 0 1-.26.18l-3.81 3.81a.96.96 0 0 1-1.36 0 .97.97 0 0 1 0-1.36l2.36-2.35H1504a1 1 0 0 1 0-2h12.64l-2.38-2.38a.98.98 0 0 1 0-1.36.97.97 0 0 1 1.37 0l3.87 3.87c.08.04.16.08.22.15.2.2.29.46.28.72a.96.96 0 0 1-.28.72z" clip-path="url(&quot;#a&quot;)" transform="translate(-1493.5 -50)"/></svg>