<svg xmlns="http://www.w3.org/2000/svg" id="Слой_1" data-name="Слой 1" viewBox="0 0 305.8 74.7"><defs><style>.cls-1{fill:#f6911f;fill-rule:evenodd;}.cls-2{fill:#1f201b;}</style></defs><title>logo 1</title><path class="cls-1" d="M575.27,532.36l-24-64.47c-1.8-3.66-7.53-2.71-8.57,0l-24,64.47a3.82,3.82,0,0,0,2.19,4.9,3.74,3.74,0,0,0,4.84-2.22L534,512.91h19.39a7.64,7.64,0,0,0-7.66-7.63h-8.89L547,477.93,568.25,535a3.74,3.74,0,0,0,4.83,2.22A3.82,3.82,0,0,0,575.27,532.36ZM380.46,463.5a4,4,0,0,0-3.92,3.52h0v66.47a4,4,0,0,0,8,0V504.9h24.94a8,8,0,0,0,8-7.93h-33V471.43h41a8,8,0,0,0,8-7.93h-53Z" transform="translate(-376.5 -463.5)"/><path class="cls-2" d="M442.3,467h5v7.3h-5Zm.4,20h4.2v50h-4.2Z" transform="translate(-376.5 -463.5)"/><path class="cls-2" d="M464.3,487h4.2v8.8a21,21,0,0,1-.4,4.1h.2a23,23,0,0,1,21.2-14.1c13,0,16.5,7.7,16.5,19.5V537h-4.2V506.8c0-8.7-1.1-16.9-12.3-16.9-11.4,0-21,9.4-21,22.2V537h-4.2Z" transform="translate(-376.5 -463.5)"/><path class="cls-2" d="M587.5,491.1h-6.6v-3.8h6.6V473.1h4.2v14.2h13.1v3.8H591.7v27.5c0,13.2,7.9,14.9,11.9,14.9a9.32,9.32,0,0,0,2.3-.2v3.9a12.16,12.16,0,0,1-2.5.2c-5.2,0-15.9-1.9-15.9-18.5Z" transform="translate(-376.5 -463.5)"/><path class="cls-2" d="M636.6,485.8c13.6,0,20.4,10.7,20.4,22.8a26.29,26.29,0,0,1-.2,2.7H616.7c0,14.5,9.8,22.8,21.4,22.8a22.47,22.47,0,0,0,15.5-6.3l2.3,3.5a27.06,27.06,0,0,1-17.8,6.9c-14.1,0-25.8-10.2-25.8-26.1C612.3,495.2,623.8,485.8,636.6,485.8Zm16,21.6c-.5-12.2-7.8-17.7-16.1-17.7-9.2,0-17.7,6-19.5,17.7Z" transform="translate(-376.5 -463.5)"/><path class="cls-2" d="M670.7,467h4.2v58.6c0,7,3.6,7.8,5.9,7.8a8.58,8.58,0,0,0,1.5-.1v3.9a7.46,7.46,0,0,1-1.8.2c-2.9,0-9.8-1.1-9.8-10.5Z" transform="translate(-376.5 -463.5)"/></svg>