<svg id="Слой_1" data-name="Слой 1" xmlns="http://www.w3.org/2000/svg" viewBox="0 0 100 100"><defs><style>.cls-1{opacity:0.3;}.cls-2{fill:#f8f8f8;}.cls-3{fill:#f6911f;}.cls-4{fill:#fff;}</style></defs><title>mail sent</title><g class="cls-1"><circle cx="50" cy="50" r="50"/></g><rect class="cls-2" x="24.75" y="34.13" width="51.8" height="28.86" rx="2.9" ry="2.9"/><path d="M188.65,155.11h-46a3.91,3.91,0,0,1-3.9-3.9V128.15a3.91,3.91,0,0,1,3.9-3.9h46a3.91,3.91,0,0,1,3.9,3.9v23.06A3.91,3.91,0,0,1,188.65,155.11Zm-46-28.86a1.9,1.9,0,0,0-1.9,1.9v23.06a1.9,1.9,0,0,0,1.9,1.9h46a1.9,1.9,0,0,0,1.9-1.9V128.15a1.9,1.9,0,0,0-1.9-1.9Z" transform="translate(-115 -91.13)"/><polyline class="cls-2" points="25.76 34.78 50.28 50.68 75.5 34.79"/><polygon points="50.27 51.87 25.21 35.62 26.3 33.94 50.29 49.5 74.96 33.95 76.03 35.64 50.27 51.87"/><circle class="cls-3" cx="50.25" cy="62.73" r="8.31"/><rect class="cls-4" x="49.55" y="57.55" width="1.5" height="6.61" rx="0.75" ry="0.75"/><circle class="cls-4" cx="50.3" cy="66.9" r="0.79"/></svg>