<svg id="Слой_1" data-name="Слой 1" xmlns="http://www.w3.org/2000/svg" viewBox="0 0 48.43 36.28"><defs><style>.cls-1{fill:#f6911e;}</style></defs><title>money transfer</title><path d="M186.55,159H164.29a2.79,2.79,0,0,1-2.79-2.79V144.13a2.8,2.8,0,0,1,2.79-2.79h22.26a2.79,2.79,0,0,1,2.79,2.79v12.05A2.79,2.79,0,0,1,186.55,159Zm-22.26-16.63a1.79,1.79,0,0,0-1.79,1.79v12.05a1.79,1.79,0,0,0,1.79,1.79h22.26a1.79,1.79,0,0,0,1.79-1.79V144.13a1.79,1.79,0,0,0-1.79-1.79Z" transform="translate(-140.91 -122.69)"/><rect x="21.09" y="22.65" width="26.84" height="3.12"/><rect x="39.47" y="32.01" width="5.62" height="1.13"/><path d="M166,140.32H143.7a2.79,2.79,0,0,1-2.79-2.79V125.48a2.79,2.79,0,0,1,2.79-2.79H166a2.79,2.79,0,0,1,2.79,2.79v12.05A2.79,2.79,0,0,1,166,140.32ZM143.7,123.69a1.79,1.79,0,0,0-1.79,1.79v12.05a1.79,1.79,0,0,0,1.79,1.79H166a1.79,1.79,0,0,0,1.79-1.79V125.48a1.79,1.79,0,0,0-1.79-1.79Z" transform="translate(-140.91 -122.69)"/><rect x="0.5" y="4" width="26.84" height="3.12"/><rect x="18.88" y="13.36" width="5.62" height="1.13"/><polygon class="cls-1" points="14.18 33.64 3.26 33.64 3.26 19.87 4.26 19.87 4.26 32.64 14.18 32.64 14.18 33.64"/><polygon points="45.17 16.68 44.17 16.68 44.17 3.9 34.25 3.9 34.25 2.9 45.17 2.9 45.17 16.68"/><polygon class="cls-1" points="11.95 36.12 11.24 35.41 13.47 33.17 11.17 30.87 11.88 30.16 14.89 33.17 11.95 36.12"/><polygon points="36.49 6.37 33.55 3.43 36.55 0.42 37.26 1.13 34.96 3.43 37.19 5.66 36.49 6.37"/></svg>