<svg id="Слой_1" data-name="Слой 1" xmlns="http://www.w3.org/2000/svg" viewBox="0 0 100 100"><defs><style>.cls-1{fill:#fff;}.cls-2{fill:#f6911f;}</style></defs><title>alloverrussia</title><circle class="cls-1" cx="50" cy="50" r="50"/><ellipse class="cls-2" cx="50" cy="75.05" rx="28.8" ry="6.57"/><path d="M137.46,156l-17.85-29.84a20.22,20.22,0,0,1-1.73-4.4l-.47-1.22.16-.11a20,20,0,0,1-.4-3.9,20.28,20.28,0,1,1,40.56,0,20,20,0,0,1-.41,4l.12.1-.41,1.14a20.19,20.19,0,0,1-1.7,4.34Zm-16.72-35.15,0,.07a17.18,17.18,0,0,0,1.46,3.76l15.24,25.47,15.27-25.53a17.27,17.27,0,0,0,1.42-3.71l0-.16a17.28,17.28,0,1,0-33.48,0Z" transform="translate(-87.5 -80.5)"/><path d="M137.46,126.39a9.35,9.35,0,1,1,9.35-9.35A9.36,9.36,0,0,1,137.46,126.39Zm0-16.69a7.35,7.35,0,1,0,7.35,7.35A7.36,7.36,0,0,0,137.46,109.7Z" transform="translate(-87.5 -80.5)"/></svg>