<svg id="Слой_1" data-name="Слой 1" xmlns="http://www.w3.org/2000/svg" viewBox="0 0 100 100"><defs><style>.cls-1{fill:#fff;}.cls-2{fill:#f6911f;}</style></defs><title>russian citizenship</title><circle class="cls-1" cx="50" cy="50" r="50"/><polygon class="cls-2" points="49.5 23.43 47.96 24.23 48.26 22.52 47.01 21.31 48.73 21.07 49.5 19.51 50.26 21.07 51.98 21.31 50.74 22.52 51.03 24.23 49.5 23.43"/><path d="M134.8,105.65l.42-2.45-1.78-1.73,2.46-.36,1.1-2.23,1.1,2.23,2.46.36-1.78,1.73.42,2.45-2.2-1.16Zm2.2-2.29.87.46-.17-1,.7-.69-1-.14-.44-.88-.44.88-1,.14.7.69-.17,1Z" transform="translate(-87.5 -80.5)"/><polygon points="79.94 69.83 77.94 69.83 77.94 56.68 72.2 56.68 72.2 54.22 69.82 54.22 69.82 56.68 63.21 56.68 63.21 54.22 60.82 54.22 60.82 56.68 56.08 56.68 56.08 49.04 53.18 49.04 53.18 40.58 51.85 38.8 49.74 32.17 47.63 38.8 46.27 40.62 46.27 49.04 43.39 49.04 43.39 56.68 38.62 56.68 38.62 54.22 36.24 54.22 36.24 56.68 29.63 56.68 29.63 54.22 27.24 54.22 27.24 56.68 22.06 56.68 22.06 69.38 20.06 69.38 20.06 54.68 25.24 54.68 25.24 52.22 31.63 52.22 31.63 54.68 34.24 54.68 34.24 52.22 40.62 52.22 40.62 54.68 41.39 54.68 41.39 47.04 44.27 47.04 44.27 39.09 44.92 39.09 45.83 37.87 49.74 25.58 53.65 37.87 54.56 39.09 55.18 39.09 55.18 47.04 58.08 47.04 58.08 54.68 58.82 54.68 58.82 52.22 65.21 52.22 65.21 54.68 67.82 54.68 67.82 52.22 74.2 52.22 74.2 54.68 79.94 54.68 79.94 69.83"/><path d="M137.5,162H137c-15.82,0-28.48-8.59-29-9l-.43-.3v-9.91h2v8.84C111.9,153.15,123.4,160,137,160h.5c15.18,0,27.75-8.52,27.87-8.6l.07,0v-8.06h2v9.33l-1,.48C165.29,153.85,152.9,162,137.5,162Z" transform="translate(-87.5 -80.5)"/><path class="cls-2" d="M50,62.55h0a4.37,4.37,0,0,1,4.37,4.37V79.83a.44.44,0,0,1-.44.44H46.08a.44.44,0,0,1-.44-.44V66.92A4.37,4.37,0,0,1,50,62.55Z"/><path d="M141.42,161.77h-7.85a1.44,1.44,0,0,1-1.44-1.44V147.42a5.37,5.37,0,1,1,10.73,0v12.91A1.44,1.44,0,0,1,141.42,161.77Zm-7.29-2h6.73V147.42a3.37,3.37,0,1,0-6.73,0Z" transform="translate(-87.5 -80.5)"/></svg>