<svg id="Слой_1" data-name="Слой 1" xmlns="http://www.w3.org/2000/svg" viewBox="0 0 100 100"><defs><style>.cls-1{fill:#fff;}.cls-2{fill:none;stroke:#000;stroke-miterlimit:10;}.cls-3{fill:#f6911f;}</style></defs><title>send to partners</title><circle class="cls-1" cx="50" cy="50" r="50"/><path class="cls-2" d="M124.4,134.14" transform="translate(-87.5 -80.5)"/><path class="cls-1" d="M124.4,134.14l-17.63-10.72a.62.62,0,0,1,.19-1.13l60.81-12.8a.62.62,0,0,1,.71.81l-14.74,40.83a.62.62,0,0,1-.9.32l-21.7-13.2" transform="translate(-87.5 -80.5)"/><path d="M153.16,152.53a1.62,1.62,0,0,1-.84-.24l-21.7-13.2,1-1.71,21.3,13,14.35-39.74-59.19,12.46,16.8,10.22-1,1.71-17.63-10.72a1.62,1.62,0,0,1,.51-3l60.81-12.8a1.62,1.62,0,0,1,1.85,2.13l-14.74,40.83a1.61,1.61,0,0,1-1,1A1.63,1.63,0,0,1,153.16,152.53Z" transform="translate(-87.5 -80.5)"/><path class="cls-3" d="M124.4,134.13l3.11,16.65a0,0,0,0,0,.08,0l3.55-12.55,37.23-28.55Z" transform="translate(-87.5 -80.5)"/><path d="M128.34,151.83l-1.63-.05-.18-.81-3.25-17.36,44.61-24.79,1.09,1.67-37,28.35Zm-2.83-17.17,2.23,11.93,2.53-8.94L157,117.17Z" transform="translate(-87.5 -80.5)"/><path class="cls-3" d="M127.91,150.37l10-8-6.36-3.87a.37.37,0,0,0-.54.21l-3.14,11.64A0,0,0,0,0,127.91,150.37Z" transform="translate(-87.5 -80.5)"/><path d="M128,151.6l-1.23-.8.18-.72L130,138.44a1.37,1.37,0,0,1,2-.81l7.58,4.61Zm3.8-11.82-2.14,7.94,6.56-5.25Z" transform="translate(-87.5 -80.5)"/></svg>