<svg xmlns="http://www.w3.org/2000/svg" width="17" height="20" viewBox="0 0 17 20"><defs><clipPath id="a"><path fill="#fff" d="M822.5 520s-8.5-2.33-8.5-8.62v-6.9c0-1.03 1.02-1.38 1.02-1.38l7.48-3.1 7.48 3.1s1.02.35 1.02 1.38v6.9c0 6.3-8.5 8.62-8.5 8.62z"/></clipPath></defs><path fill="none" stroke="#1e1e1e" stroke-miterlimit="50" stroke-width="2" d="M822.5 520s-8.5-2.33-8.5-8.62v-6.9c0-1.03 1.02-1.38 1.02-1.38l7.48-3.1 7.48 3.1s1.02.35 1.02 1.38v6.9c0 6.3-8.5 8.62-8.5 8.62z" clip-path="url(&quot;#a&quot;)" transform="translate(-814 -500)"/><path fill="#1e1e1e" d="M12.82 7.9L7.87 12.8a.52.52 0 0 1-.41.15.55.55 0 0 1-.42-.16l-2.9-2.87a.55.55 0 0 1 0-.77.55.55 0 0 1 .77 0L7.5 11.7l4.58-4.56c.21-.2.54-.2.75 0 .2.2.2.54 0 .74z"/></svg>