<svg id="Слой_1" data-name="Слой 1" xmlns="http://www.w3.org/2000/svg" viewBox="0 0 100 100"><defs><style>.cls-1{fill:#fff;}.cls-2{fill:#f6911f;}</style></defs><title>smartphone</title><circle class="cls-1" cx="50" cy="50" r="50"/><path d="M148.38,159.71H126.62a6,6,0,0,1-6-6V107.31a6,6,0,0,1,6-6h21.77a6,6,0,0,1,6,6v46.38A6,6,0,0,1,148.38,159.71Zm-21.77-56.42a4,4,0,0,0-4,4v46.38a4,4,0,0,0,4,4h21.77a4,4,0,0,0,4-4V107.31a4,4,0,0,0-4-4Z" transform="translate(-87.5 -80.5)"/><circle class="cls-2" cx="50" cy="73.05" r="2.85"/><path class="cls-2" d="M146.73,107.59H128.27a1,1,0,1,1,0-2h18.46a1,1,0,0,1,0,2Z" transform="translate(-87.5 -80.5)"/></svg>