<svg xmlns="http://www.w3.org/2000/svg" width="100" height="100" viewBox="0 0 100 100"><defs><clipPath id="a"><path fill="#fff" d="M920 446h80a10 10 0 0 1 10 10v80a10 10 0 0 1-10 10h-80a10 10 0 0 1-10-10v-80a10 10 0 0 1 10-10z"/></clipPath></defs><path fill="#fff" d="M10 0h80a10 10 0 0 1 10 10v80a10 10 0 0 1-10 10H10A10 10 0 0 1 0 90V10A10 10 0 0 1 10 0z"/><path fill="none" stroke="#edf2f2" stroke-miterlimit="50" stroke-width="10" d="M920 446h80a10 10 0 0 1 10 10v80a10 10 0 0 1-10 10h-80a10 10 0 0 1-10-10v-80a10 10 0 0 1 10-10z" clip-path="url(&quot;#a&quot;)" transform="translate(-910 -446)"/><path fill="#353b40" d="M75.23 40.31L47.31 68.23c-.99 1-2.59 1-3.58 0-.15-.15-.24-.35-.35-.53a2.45 2.45 0 0 1-.64-.45L28.72 53.22a2.48 2.48 0 1 1 3.5-3.5l13.23 13.22 26.2-26.2a2.53 2.53 0 1 1 3.58 3.57z"/></svg>