<svg id="Слой_1" data-name="Слой 1" xmlns="http://www.w3.org/2000/svg" viewBox="0 0 39.32 39.5"><defs><style>.cls-1{fill:#f6911f;}</style></defs><title>to bank account</title><path d="M182.89,133.65H148.64a2.45,2.45,0,0,1-2.48-1.94,2.34,2.34,0,0,1,1.44-2.65l17.13-7.4a2.64,2.64,0,0,1,2.09,0l17.13,7.4a2.34,2.34,0,0,1,1.44,2.65A2.45,2.45,0,0,1,182.89,133.65Zm-17.13-11.22a1.64,1.64,0,0,0-.65.13L148,130a1.33,1.33,0,0,0-.85,1.53,1.45,1.45,0,0,0,1.5,1.15h34.25a1.45,1.45,0,0,0,1.5-1.15,1.33,1.33,0,0,0-.85-1.53l-17.13-7.4A1.64,1.64,0,0,0,165.77,122.43Z" transform="translate(-146.11 -121.43)"/><path d="M183.19,160.93H148.34a2.24,2.24,0,0,1,0-4.47h34.85a2.24,2.24,0,0,1,0,4.47Zm-34.85-3.47a1.24,1.24,0,0,0,0,2.47h34.85a1.24,1.24,0,0,0,0-2.47Z" transform="translate(-146.11 -121.43)"/><path class="cls-1" d="M181.43,152.4h-1V136.5h.75a.75.75,0,0,0,.75-.75v-.24a.75.75,0,0,0-.75-.75H150.33a.75.75,0,0,0-.75.75v.24a.75.75,0,0,0,.75.75H151v15.9h-.93a1.45,1.45,0,0,0-1.45,1.45v.61a1.45,1.45,0,0,0,1.45,1.45h31.32a1.45,1.45,0,0,0,1.45-1.45v-.61A1.45,1.45,0,0,0,181.43,152.4Zm-4.08,0h-5.71V136.5h5.71Zm-8.82,0H163V136.5h5.57Zm-14.39-15.9h5.71v15.9h-5.71Z" transform="translate(-146.11 -121.43)"/><path d="M181.42,156.41H150.11a2,2,0,0,1-2-2v-.6a2,2,0,0,1,2-2h.43V137h-.21a1.25,1.25,0,0,1-1.25-1.25v-.24a1.25,1.25,0,0,1,1.25-1.25H181.2a1.25,1.25,0,0,1,1.25,1.25v.24A1.25,1.25,0,0,1,181.2,137H181v14.9h.47a2,2,0,0,1,2,2v.6A2,2,0,0,1,181.42,156.41Zm-31.32-3.51a1,1,0,0,0-1,1v.6a1,1,0,0,0,1,1h31.32a1,1,0,0,0,1-1v-.6a1,1,0,0,0-1-1H180V136h1.25a.25.25,0,0,0,.25-.25v-.24a.25.25,0,0,0-.25-.25H150.33a.25.25,0,0,0-.25.25v.24a.25.25,0,0,0,.25.25h1.21v16.9Zm27.74,0h-6.71V136h6.71Zm-5.71-1h4.71V137h-4.71Zm-3.11,1h-6.57V136H169Zm-5.57-1H168V137h-4.57Zm-3.11,1h-6.71V136h6.71Zm-5.71-1h4.71V137h-4.71Z" transform="translate(-146.11 -121.43)"/></svg>