<svg id="Слой_1" data-name="Слой 1" xmlns="http://www.w3.org/2000/svg" viewBox="0 0 48.33 30.33"><defs><style>.cls-1{fill:#f6911e;}</style></defs><title>to card</title><path d="M185.07,156.53H144.93a4.1,4.1,0,0,1-4.1-4.1V130.3a4.1,4.1,0,0,1,4.1-4.1h40.13a4.1,4.1,0,0,1,4.1,4.1v22.14A4.1,4.1,0,0,1,185.07,156.53ZM144.93,127.2a3.1,3.1,0,0,0-3.1,3.1v22.14a3.1,3.1,0,0,0,3.1,3.1h40.13a3.1,3.1,0,0,0,3.1-3.1V130.3a3.1,3.1,0,0,0-3.1-3.1Z" transform="translate(-140.83 -126.2)"/><path d="M181.2,153.17a4.52,4.52,0,1,1,4.52-4.53A4.53,4.53,0,0,1,181.2,153.17Zm0-8a3.52,3.52,0,1,0,3.52,3.52A3.53,3.53,0,0,0,181.2,145.12Z" transform="translate(-140.83 -126.2)"/><path d="M176.45,153.17a4.52,4.52,0,1,1,4.53-4.53A4.53,4.53,0,0,1,176.45,153.17Zm0-8a3.52,3.52,0,1,0,3.53,3.52A3.53,3.53,0,0,0,176.45,145.12Z" transform="translate(-140.83 -126.2)"/><path d="M153.83,147.52h-8.36a.5.5,0,0,1,0-1h8.36a.5.5,0,0,1,0,1Z" transform="translate(-140.83 -126.2)"/><path d="M165.52,147.52h-8.36a.5.5,0,0,1,0-1h8.36a.5.5,0,0,1,0,1Z" transform="translate(-140.83 -126.2)"/><path d="M146.73,151.16h-1.26a.5.5,0,0,1,0-1h1.26a.5.5,0,0,1,0,1Z" transform="translate(-140.83 -126.2)"/><path d="M152.08,151.16h-2.13a.5.5,0,0,1,0-1h2.13a.5.5,0,0,1,0,1Z" transform="translate(-140.83 -126.2)"/><path d="M156.63,151.16h-1.47a.5.5,0,0,1,0-1h1.47a.5.5,0,0,1,0,1Z" transform="translate(-140.83 -126.2)"/><path d="M162,151.16h-2.31a.5.5,0,0,1,0-1H162a.5.5,0,0,1,0,1Z" transform="translate(-140.83 -126.2)"/><path d="M165.52,151.16H165a.5.5,0,0,1,0-1h.49a.5.5,0,0,1,0,1Z" transform="translate(-140.83 -126.2)"/><rect class="cls-1" x="4.64" y="5.82" width="11.5" height="8.66" rx="0.53" ry="0.53"/><path d="M156.44,141.18H146a1,1,0,0,1-1-1v-7.61a1,1,0,0,1,1-1h10.45a1,1,0,0,1,1,1v7.61A1,1,0,0,1,156.44,141.18ZM146,132.52l0,7.63,10.47,0a0,0,0,0,0,0,0v-7.61Z" transform="translate(-140.83 -126.2)"/><rect x="8.41" y="5.82" width="1" height="8.66"/><path d="M156.5,141.18H153a1,1,0,0,1-1-1V135.8a1.58,1.58,0,0,1,1.58-1.58h2.84a1,1,0,0,1,1,1v5A1,1,0,0,1,156.5,141.18Zm-2.84-6a.58.58,0,0,0-.58.58v4.41l3.42,0,0-5Z" transform="translate(-140.83 -126.2)"/><rect x="11.75" y="11.22" width="4.38" height="1"/><rect x="4.64" y="8.27" width="4.27" height="1"/><rect x="4.64" y="11" width="4.27" height="1"/></svg>