<svg id="Слой_1" data-name="Слой 1" xmlns="http://www.w3.org/2000/svg" viewBox="0 0 44.27 36.2"><defs><style>.cls-1{fill:#f6911e;}</style></defs><title>to wallet</title><path d="M182.56,158.55H149.08a4.9,4.9,0,0,1-4.89-4.89v-8a7.62,7.62,0,0,1,2.51-5.3c1.65-1.47,2.64-5.39,3.17-7.49.09-.37.17-.69.25-.94a3.4,3.4,0,0,1,3.4-2.37h24.57a3.42,3.42,0,0,1,3.44,2.37c.07.26.15.58.25,1,.53,2.1,1.53,6,3.17,7.48h0a7.63,7.63,0,0,1,2.51,5.3v8A4.9,4.9,0,0,1,182.56,158.55Zm-4.51-27H153.56a1.48,1.48,0,0,0-1.51.91c-.07.24-.15.55-.23.9-.63,2.47-1.68,6.61-3.78,8.49a5.59,5.59,0,0,0-1.84,3.81v8a2.9,2.9,0,0,0,2.89,2.89h33.48a2.9,2.9,0,0,0,2.89-2.89v-8a5.58,5.58,0,0,0-1.84-3.81c-2.1-1.88-3.15-6-3.78-8.48-.09-.35-.17-.66-.24-.91C179.4,131.74,178.65,131.56,178,131.54Z" transform="translate(-143.69 -122.35)"/><path class="cls-1" d="M144.69,141.25a1,1,0,0,1-.63-1.78,14.62,14.62,0,0,0,3.32-7.71,5,5,0,0,1,4.9-4.68h27a5,5,0,0,1,5,4.68,14.6,14.6,0,0,0,3.32,7.71,1,1,0,0,1-1.26,1.55c-1.26-1-3.76-5.27-4.05-9.11a3.08,3.08,0,0,0-3-2.83H152.32a3.07,3.07,0,0,0-3,2.83c-.29,3.84-2.79,8.08-4.05,9.11A1,1,0,0,1,144.69,141.25Z" transform="translate(-143.69 -122.35)"/><path class="cls-1" d="M165.82,128.86h0a1.49,1.49,0,0,1-1.2-.63L163,126l1.61-1.19,1.26,1.71,1.25-1.7,1.61,1.19L167,128.23A1.5,1.5,0,0,1,165.82,128.86Z" transform="translate(-143.69 -122.35)"/><circle class="cls-1" cx="20.07" cy="2.04" r="2.04"/><circle class="cls-1" cx="24.19" cy="2.04" r="2.04"/></svg>